<?xml version="1.0" encoding="UTF-8"?><svg id="Layer_1" xmlns="http://www.w3.org/2000/svg" viewBox="0 0 1366 768"><defs><style>.cls-1{fill-rule:evenodd;}</style></defs><g id="_fourthring_"><path class="cls-1" d="M961.5092,588.1346c1.7508-6.534-2.1234-13.2442-8.6573-14.995-9.798-2.6254-15.6114-12.6945-12.986-22.4924l5.9131,1.5844c-1.7508,6.534,2.1234,13.2442,8.6573,14.995,9.798,2.6254,15.6114,12.6945,12.986,22.4924-1.7508,6.534,2.1234,13.2442,8.6573,14.995,9.798,2.6254,15.6114,12.6945,12.986,22.4924-1.7508,6.5339,2.1234,13.2442,8.6573,14.995l-1.5844,5.9131c-9.798-2.6254-15.6114-12.6945-12.986-22.4924,1.7508-6.5339-2.1234-13.2442-8.6573-14.995-9.798-2.6254-15.6114-12.6945-12.986-22.4924ZM1038.3393,602.542l18.3666,31.8118-5.3007,3.0604-18.3666-31.8118,5.3007-3.0604Z"/><path class="cls-1" d="M1203.9352,247.4819c-3.3822-5.8582-10.8665-7.8636-16.7247-4.4814-8.7846,5.0718-20.0153,2.0626-25.0871-6.7221l5.3015-3.0608c3.3822,5.8582,10.8665,7.8636,16.7247,4.4814,8.7846-5.0718,20.0153-2.0626,25.0871,6.7221,3.3822,5.8582,10.8665,7.8636,16.7247,4.4814,8.7846-5.0718,20.0153-2.0626,25.0871,6.7221,3.3822,5.8582,10.8665,7.8636,16.7247,4.4814l3.0608,5.3015c-8.7846,5.0718-20.0153,2.0626-25.0871-6.7221-3.3822-5.8582-10.8665-7.8636-16.7247-4.4814-8.7846,5.0718-20.0153,2.0626-25.0871-6.7221ZM1268.4499,203.3424l35.4815,9.5072-1.5842,5.9122-35.4815-9.5072,1.5842-5.9122Z"/><path class="cls-1" d="M833.6174,650.1917c3.3822-5.8582,1.3768-13.3425-4.4814-16.7247-8.7846-5.0718-11.7939-16.3024-6.7221-25.0871l5.3015,3.0608c-3.3822,5.8582-1.3768,13.3425,4.4814,16.7247,8.7846,5.0718,11.7939,16.3024,6.7221,25.0871-3.3822,5.8582-1.3768,13.3425,4.4814,16.7247,8.7846,5.0718,11.7939,16.3024,6.7221,25.0871-3.3822,5.8582-1.3768,13.3425,4.4814,16.7247l-3.0608,5.3015c-8.7846-5.0718-11.7939-16.3024-6.7221-25.0871,3.3822-5.8582,1.3768-13.3425-4.4814-16.7247-8.7846-5.0718-11.7939-16.3024-6.7221-25.0871ZM904.1007,683.9933l9.5072,35.4815-5.9122,1.5842-9.5072-35.4815,5.9122-1.5842Z"/><path class="cls-1" d="M495.8781,654.9011c5.8582-3.3822,7.8636-10.8665,4.4814-16.7247-5.0718-8.7846-2.0626-20.0153,6.7221-25.0871l3.0608,5.3015c-5.8582,3.3822-7.8636,10.8665-4.4814,16.7247,5.0718,8.7846,2.0626,20.0153-6.7221,25.0871-5.8582,3.3822-7.8636,10.8665-4.4814,16.7247,5.0718,8.7846,2.0625,20.0153-6.7221,25.0871-5.8582,3.3822-7.8636,10.8665-4.4814,16.7247l-5.3015,3.0608c-5.0718-8.7846-2.0625-20.0153,6.7221-25.0871,5.8582-3.3822,7.8636-10.8665,4.4814-16.7247-5.0718-8.7846-2.0626-20.0153,6.7221-25.0871ZM540.0176,719.4157l-9.5072,35.4815-5.9122-1.5842,9.5072-35.4815,5.9122,1.5842Z"/><path class="cls-1" d="M271.7681,434.1793c6.5339,1.7508,13.2442-2.1234,14.995-8.6573,2.6254-9.798,12.6945-15.6114,22.4925-12.986l-1.5844,5.9131c-6.5339-1.7508-13.2442,2.1234-14.995,8.6573-2.6254,9.798-12.6945,15.6114-22.4925,12.986-6.5339-1.7508-13.2442,2.1234-14.995,8.6573-2.6254,9.798-12.6945,15.6114-22.4925,12.986-6.5339-1.7508-13.2442,2.1234-14.995,8.6573l-5.9131-1.5844c2.6254-9.798,12.6945-15.6114,22.4925-12.986,6.5339,1.7508,13.2442-2.1234,14.995-8.6573,2.6254-9.798,12.6945-15.6114,22.4925-12.986ZM257.3607,511.0093l-31.8118,18.3665-3.0604-5.3007,31.8118-18.3665,3.0604,5.3007Z"/><path class="cls-1" d="M175.7931,343.7798c5.8582,3.3822,13.3425,1.3768,16.7247-4.4814,5.0718-8.7846,16.3025-11.7938,25.0871-6.722l-3.0608,5.3015c-5.8582-3.3822-13.3425-1.3768-16.7247,4.4814-5.0718,8.7846-16.3025,11.7938-25.0871,6.722-5.8582-3.3822-13.3425-1.3768-16.7247,4.4814-5.0718,8.7846-16.3025,11.7938-25.0871,6.722-5.8582-3.3822-13.3425-1.3768-16.7247,4.4814l-5.3015-3.0608c5.0718-8.7846,16.3025-11.7938,25.0871-6.722,5.8582,3.3822,13.3425,1.3768,16.7247-4.4814,5.0718-8.7846,16.3025-11.7938,25.0871-6.722ZM141.9914,414.2631l-35.4815,9.5072-1.5842-5.9122,35.4815-9.5072,1.5842,5.9122Z"/><path class="cls-1" d="M117.9356,24.3821c3.3822,5.8582,10.8665,7.8636,16.7247,4.4814,8.7846-5.0718,20.0153-2.0625,25.0871,6.7221l-5.3015,3.0608c-3.3822-5.8582-10.8665-7.8636-16.7247-4.4814-8.7846,5.0718-20.0153,2.0626-25.0871-6.7221-3.3822-5.8582-10.8665-7.8636-16.7247-4.4814-8.7846,5.0718-20.0153,2.0625-25.0871-6.7221-3.3822-5.8582-10.8665-7.8636-16.7247-4.4814l-3.0608-5.3015c8.7846-5.0718,20.0153-2.0625,25.0871,6.7221,3.3822,5.8582,10.8665,7.8636,16.7247,4.4814,8.7846-5.0718,20.0153-2.0626,25.0871,6.7221ZM53.4209,68.5216l-35.4815-9.5072,1.5842-5.9122,35.4815,9.5072-1.5842,5.9122Z"/><path class="cls-1" d="M372.5184,516.6147c6.534-1.7508,10.4081-8.461,8.6574-14.995-2.6253-9.798,3.1881-19.8671,12.986-22.4924l1.5844,5.9131c-6.534,1.7508-10.4081,8.461-8.6574,14.995,2.6253,9.798-3.1881,19.8671-12.986,22.4924-6.534,1.7508-10.4081,8.461-8.6574,14.995,2.6253,9.798-3.1881,19.8671-12.986,22.4924-6.5339,1.7508-10.4081,8.461-8.6574,14.995l-5.9131,1.5844c-2.6253-9.798,3.1881-19.8671,12.986-22.4924,6.5339-1.7508,10.4081-8.461,8.6574-14.995-2.6253-9.798,3.1881-19.8671,12.986-22.4924ZM398.4562,590.3552l-18.3666,31.8118-5.3007-3.0604,18.3666-31.8118s5.3007,3.0604,5.3007,3.0604Z"/><path class="cls-1" d="M1066.3579,493.1099c0-6.7644-5.4789-12.2433-12.2433-12.2433-10.1436,0-18.365-8.2214-18.365-18.365h6.1217c0,6.7644,5.4789,12.2433,12.2433,12.2433,10.1436,0,18.365,8.2214,18.365,18.365,0,6.7644,5.4789,12.2433,12.2433,12.2433,10.1436,0,18.365,8.2214,18.365,18.365,0,6.7644,5.4789,12.2433,12.2433,12.2433v6.1217c-10.1436,0-18.365-8.2214-18.365-18.365,0-6.7644-5.4789-12.2433-12.2433-12.2433-10.1436,0-18.365-8.2214-18.365-18.365ZM1144.299,487.1413l25.9742,25.9742-4.328,4.328-25.9742-25.9742s4.328-4.328,4.328-4.328Z"/><path class="cls-1" d="M1144.9112,366.2314c-1.7508-6.534-8.461-10.4081-14.995-8.6573-9.798,2.6254-19.8671-3.1881-22.4924-12.986l5.9131-1.5844c1.7508,6.534,8.461,10.4081,14.995,8.6573,9.798-2.6254,19.8671,3.1881,22.4924,12.986,1.7508,6.534,8.461,10.4081,14.995,8.6573,9.798-2.6254,19.8671,3.1881,22.4924,12.986,1.7508,6.5339,8.461,10.4081,14.995,8.6573l1.5844,5.9131c-9.798,2.6254-19.8671-3.1881-22.4924-12.986-1.7508-6.5339-8.461-10.4081-14.995-8.6573-9.798,2.6254-19.8671-3.1881-22.4924-12.986ZM1218.6517,340.2935l31.8118,18.3666-3.0604,5.3007-31.8118-18.3666,3.0604-5.3007Z"/><path class="cls-1" d="M1230.4352,117.2349c-4.7832-4.7832-12.5315-4.7832-17.3147,0-7.1726,7.1726-18.7994,7.1726-25.972,0l4.3287-4.3287c4.7832,4.7832,12.5315,4.7832,17.3147,0,7.1726-7.1726,18.7994-7.1726,25.972,0,4.7832,4.7832,12.5315,4.7832,17.3147,0,7.1726-7.1726,18.7994-7.1726,25.972,0,4.7832,4.7832,12.5315,4.7832,17.3147,0l4.3287,4.3287c-7.1726,7.1726-18.7994,7.1726-25.972,0-4.7832-4.7832-12.5315-4.7832-17.3147,0-7.1726,7.1726-18.7994,7.1726-25.972,0ZM1281.3274,57.9018h36.7331s0,6.1208,0,6.1208h-36.7331s0-6.1208,0-6.1208Z"/><path class="cls-1" d="M120.4205,223.5677c4.7832,4.7832,12.5315,4.7832,17.3147,0,7.1726-7.1726,18.7994-7.1726,25.972,0l-4.3287,4.3287c-4.7832-4.7832-12.5315-4.7832-17.3147,0-7.1726,7.1726-18.7994,7.1726-25.972,0-4.7832-4.7832-12.5315-4.7832-17.3147,0-7.1726,7.1726-18.7994,7.1726-25.972,0-4.7832-4.7832-12.5315-4.7832-17.3147,0l-4.3287-4.3287c7.1726-7.1726,18.7994-7.1726,25.972,0,4.7832,4.7832,12.5315,4.7832,17.3147,0,7.1726-7.1726,18.7994-7.1726,25.972,0ZM69.5283,282.9008h-36.7331s0-6.1208,0-6.1208h36.7331s0,6.1208,0,6.1208Z"/><path class="cls-1" d="M680.6669,680.3568c4.7832-4.7832,4.7832-12.5315,0-17.3147-7.1726-7.1726-7.1726-18.7994,0-25.972l4.3287,4.3287c-4.7832,4.7832-4.7832,12.5315,0,17.3147,7.1726,7.1726,7.1726,18.7994,0,25.972-4.7832,4.7832-4.7832,12.5315,0,17.3147,7.1726,7.1726,7.1726,18.7994,0,25.972-4.7832,4.7832-4.7832,12.5315,0,17.3147l-4.3287,4.3287c-7.1726-7.1726-7.1726-18.7994,0-25.972,4.7832-4.7832,4.7832-12.5315,0-17.3147-7.1726-7.1726-7.1726-18.7994,0-25.972ZM740,731.249v36.7331s-6.1208,0-6.1208,0v-36.7331s6.1208,0,6.1208,0Z"/></g></svg>