<?xml version="1.0" encoding="UTF-8"?><svg id="Layer_1" xmlns="http://www.w3.org/2000/svg" viewBox="0 0 1366 768"><defs><style>.cls-1{fill-rule:evenodd;}</style></defs><g id="_thirdring_"><path class="cls-1" d="M802.9038,370.233c.8183-3.0541-.9925-6.1906-4.0466-7.0089-4.5798-1.2271-7.2971-5.9336-6.0699-10.5134l2.7639.7406c-.8183,3.0541.9925,6.1906,4.0466,7.0089,4.5798,1.2271,7.2971,5.9336,6.0699,10.5134-.8183,3.0541.9925,6.1906,4.0466,7.0089,4.5798,1.2271,7.2971,5.9336,6.0699,10.5134-.8183,3.0541.9925,6.1906,4.0466,7.0089l-.7406,2.7639c-4.5798-1.2271-7.2971-5.9336-6.0699-10.5134.8183-3.0541-.9925-6.1906-4.0466-7.0089-4.5798-1.2271-7.2971-5.9336-6.0699-10.5134ZM838.8157,376.9673l8.5849,14.8695-2.4777,1.4305-8.5849-14.8695,2.4777-1.4305Z"/><path class="cls-1" d="M935.8206,186.0192c-1.5809-2.7382-5.0792-3.6756-7.8175-2.0947-4.1061,2.3707-9.3555.9641-11.7262-3.142l2.478-1.4307c1.5809,2.7382,5.0792,3.6756,7.8175,2.0947,4.1061-2.3707,9.3555-.9641,11.7262,3.142,1.5809,2.7382,5.0792,3.6756,7.8175,2.0947,4.1061-2.3707,9.3555-.9641,11.7262,3.142,1.5809,2.7382,5.0792,3.6756,7.8175,2.0947l1.4307,2.478c-4.1061,2.3707-9.3555.9641-11.7262-3.142-1.5809-2.7382-5.0792-3.6756-7.8175-2.0947-4.1061,2.3707-9.3555.9641-11.7262-3.142ZM965.976,165.3876l16.5847,4.4439-.7405,2.7635-16.5847-4.4439.7405-2.7635Z"/><path class="cls-1" d="M732.1935,436.6736c1.5809-2.7382.6435-6.2365-2.0947-7.8175-4.1061-2.3707-5.5127-7.6201-3.142-11.7262l2.478,1.4307c-1.5809,2.7382-.6435,6.2365,2.0947,7.8175,4.1061,2.3707,5.5127,7.6201,3.142,11.7262-1.5809,2.7382-.6435,6.2365,2.0947,7.8175,4.1061,2.3707,5.5127,7.6201,3.142,11.7262-1.5809,2.7382-.6435,6.2365,2.0947,7.8175l-1.4307,2.478c-4.1061-2.3707-5.5127-7.6201-3.142-11.7262,1.5809-2.7382.6435-6.2365-2.0947-7.8175-4.1061-2.3707-5.5127-7.6201-3.142-11.7262ZM765.1387,452.4731l4.4439,16.5847-2.7635.7405-4.4439-16.5847,2.7635-.7405Z"/><path class="cls-1" d="M561.5307,440.3834c2.7382-1.5809,3.6756-5.0792,2.0947-7.8175-2.3707-4.1061-.9641-9.3555,3.142-11.7262l1.4307,2.478c-2.7382,1.5809-3.6756,5.0792-2.0947,7.8175,2.3707,4.1061.9641,9.3555-3.142,11.7262-2.7382,1.5809-3.6756,5.0792-2.0947,7.8175,2.3707,4.1061.9641,9.3555-3.142,11.7262-2.7382,1.5809-3.6756,5.0792-2.0947,7.8175l-2.478,1.4307c-2.3707-4.1061-.9641-9.3555,3.142-11.7262,2.7382-1.5809,3.6756-5.0792,2.0947-7.8175-2.3707-4.1061-.9641-9.3555,3.142-11.7262ZM582.1624,470.5388l-4.4439,16.5847-2.7635-.7405,4.4439-16.5847s2.7635.7405,2.7635.7405Z"/><path class="cls-1" d="M498.3142,264.6234c3.0541.8183,6.1906-.9925,7.0089-4.0466,1.2271-4.5798,5.9336-7.2971,10.5134-6.0699l-.7406,2.7639c-3.0541-.8183-6.1906.9925-7.0089,4.0466-1.2271,4.5798-5.9336,7.2971-10.5134,6.0699-3.0541-.8183-6.1906.9925-7.0089,4.0466-1.2271,4.5798-5.9336,7.2971-10.5134,6.0699-3.0541-.8183-6.1906.9925-7.0089,4.0466l-2.7639-.7406c1.2271-4.5798,5.9336-7.2971,10.5134-6.0699,3.0541.8183,6.1906-.9925,7.0089-4.0466,1.2271-4.5798,5.9336-7.2971,10.5134-6.0699ZM491.5799,300.5353l-14.8695,8.5849-1.4305-2.4777,14.8695-8.5849,1.4305,2.4777Z"/><path class="cls-1" d="M406.9622,242.5032c2.7382,1.5809,6.2365.6436,7.8175-2.0947,2.3707-4.1061,7.6201-5.5127,11.7262-3.142l-1.4307,2.478c-2.7382-1.5809-6.2365-.6436-7.8175,2.0947-2.3707,4.1061-7.6201,5.5127-11.7262,3.142-2.7382-1.5809-6.2365-.6436-7.8175,2.0947-2.3707,4.1061-7.6201,5.5127-11.7262,3.142-2.7382-1.5809-6.2365-.6435-7.8175,2.0947l-2.478-1.4307c2.3707-4.1061,7.6201-5.5127,11.7262-3.142,2.7382,1.5809,6.2365.6435,7.8175-2.0947,2.3707-4.1061,7.6201-5.5127,11.7262-3.142ZM391.1627,275.4484l-16.5847,4.4439-.7405-2.7635,16.5847-4.4439.7405,2.7635Z"/><path class="cls-1" d="M371.0444,75.7589c1.5809,2.7382,5.0792,3.6756,7.8175,2.0947,4.1061-2.3707,9.3555-.9641,11.7262,3.142l-2.478,1.4307c-1.5809-2.7382-5.0792-3.6756-7.8175-2.0947-4.1061,2.3707-9.3555.9641-11.7262-3.142-1.5809-2.7382-5.0792-3.6756-7.8175-2.0947-4.1061,2.3707-9.3555.9641-11.7262-3.142-1.5809-2.7382-5.0792-3.6756-7.8175-2.0947l-1.4307-2.478c4.1061-2.3707,9.3555-.9641,11.7262,3.142,1.5809,2.7382,5.0792,3.6756,7.8175,2.0947,4.1061-2.3707,9.3555-.9641,11.7262,3.142ZM340.889,96.3906l-16.5847-4.4439.7405-2.7635,16.5847,4.4439s-.7405,2.7635-.7405,2.7635Z"/><path class="cls-1" d="M552.9511,313.8008c3.0541-.8183,4.865-3.9548,4.0466-7.0089-1.2271-4.5798,1.4902-9.2863,6.0699-10.5134l.7406,2.7639c-3.0541.8183-4.865,3.9548-4.0466,7.0089,1.2271,4.5798-1.4902,9.2863-6.0699,10.5134-3.0541.8183-4.865,3.9548-4.0466,7.0089,1.2271,4.5798-1.4902,9.2863-6.0699,10.5134-3.0541.8183-4.865,3.9548-4.0466,7.0089l-2.7639.7406c-1.2271-4.5798,1.4902-9.2863,6.0699-10.5134,3.0541-.8183,4.865-3.9548,4.0466-7.0089-1.2271-4.5798,1.4902-9.2863,6.0699-10.5134ZM565.0749,348.2685l-8.5849,14.8694-2.4777-1.4305,8.5849-14.8694s2.4777,1.4305,2.4777,1.4305Z"/><path class="cls-1" d="M643.7475,466.2858c2.2358-2.2358,2.2358-5.8575,0-8.0932-3.3526-3.3526-3.3526-8.7872,0-12.1398l2.0233,2.0233c-2.2358,2.2358-2.2358,5.8575,0,8.0932,3.3526,3.3526,3.3526,8.7872,0,12.1398-2.2358,2.2358-2.2358,5.8575,0,8.0932,3.3526,3.3526,3.3526,8.7872,0,12.1398-2.2358,2.2357-2.2358,5.8575,0,8.0932l-2.0233,2.0233c-3.3526-3.3526-3.3526-8.7872,0-12.1398,2.2358-2.2357,2.2358-5.8575,0-8.0932-3.3526-3.3526-3.3526-8.7872,0-12.1398ZM671.481,490.0738v17.1698s-2.861,0-2.861,0v-17.1698s2.861,0,2.861,0Z"/><path class="cls-1" d="M864.4926,304.2468c0-3.1618-2.5609-5.7228-5.7228-5.7228-4.7413,0-8.5842-3.8428-8.5842-8.5842h2.8614c0,3.1618,2.5609,5.7228,5.7228,5.7228,4.7413,0,8.5842,3.8428,8.5842,8.5842,0,3.1618,2.5609,5.7228,5.7228,5.7228,4.7413,0,8.5842,3.8428,8.5842,8.5842,0,3.1618,2.5609,5.7228,5.7228,5.7228v2.8614c-4.7413,0-8.5842-3.8428-8.5842-8.5842,0-3.1618-2.5609-5.7228-5.7228-5.7228-4.7413,0-8.5842-3.8428-8.5842-8.5842ZM900.9237,301.457l12.1409,12.1409-2.023,2.023-12.1409-12.1409,2.023-2.023Z"/><path class="cls-1" d="M905.1089,241.5224c-.8183-3.0541-3.9548-4.865-7.0089-4.0466-4.5798,1.2271-9.2863-1.4902-10.5134-6.0699l2.7639-.7406c.8183,3.0541,3.9548,4.865,7.0089,4.0466,4.5798-1.2271,9.2863,1.4902,10.5134,6.0699.8183,3.0541,3.9548,4.865,7.0089,4.0466,4.5798-1.2271,9.2863,1.4902,10.5134,6.0699.8183,3.0541,3.9548,4.865,7.0089,4.0466l.7406,2.7639c-4.5798,1.2271-9.2863-1.4902-10.5134-6.0699-.8183-3.0541-3.9548-4.865-7.0089-4.0466-4.5798,1.2271-9.2863-1.4902-10.5134-6.0699ZM939.5767,229.3985l14.8695,8.5849-1.4305,2.4777-14.8695-8.5849,1.4305-2.4777Z"/><path class="cls-1" d="M960.3579,116.2417c-2.2358-2.2358-5.8575-2.2358-8.0932,0-3.3526,3.3526-8.7872,3.3526-12.1398,0l2.0233-2.0233c2.2358,2.2358,5.8575,2.2358,8.0932,0,3.3526-3.3526,8.7872-3.3526,12.1398,0,2.2358,2.2358,5.8575,2.2358,8.0932,0,3.3526-3.3526,8.7872-3.3526,12.1398,0,2.2358,2.2358,5.8575,2.2358,8.0932,0l2.0233,2.0233c-3.3526,3.3526-8.7872,3.3526-12.1398,0-2.2358-2.2358-5.8575-2.2358-8.0932,0-3.3526,3.3526-8.7872,3.3526-12.1398,0ZM984.1459,88.5083h17.1698v2.861h-17.1698s0-2.861,0-2.861Z"/><path class="cls-1" d="M335.4302,152.7781c2.2358,2.2358,5.8575,2.2358,8.0932,0,3.3526-3.3526,8.7872-3.3526,12.1398,0l-2.0233,2.0233c-2.2358-2.2358-5.8575-2.2358-8.0932,0-3.3526,3.3526-8.7872,3.3526-12.1398,0-2.2358-2.2358-5.8575-2.2358-8.0932,0-3.3526,3.3526-8.7872,3.3526-12.1398,0-2.2358-2.2358-5.8575-2.2358-8.0932,0l-2.0233-2.0233c3.3526-3.3526,8.7872-3.3526,12.1398,0,2.2358,2.2358,5.8575,2.2358,8.0932,0,3.3526-3.3526,8.7872-3.3526,12.1398,0ZM311.6422,180.5115h-17.1698s0-2.861,0-2.861h17.1698s0,2.861,0,2.861Z"/></g></svg>