<?xml version="1.0" encoding="UTF-8"?><svg id="Layer_1" xmlns="http://www.w3.org/2000/svg" viewBox="0 0 1366 768"><defs><style>.cls-1{fill-rule:evenodd;}</style></defs><g id="_secondring_"><path class="cls-1" d="M795.3762,278.6274c0-2.21-1.79-4-4-4-3.314,0-6-2.686-6-6h2c0,2.21,1.79,4,4,4,3.314,0,6,2.686,6,6,0,2.21,1.79,4,4,4,3.314,0,6,2.686,6,6,0,2.21,1.79,4,4,4v2c-3.314,0-6-2.686-6-6,0-2.21-1.79-4-4-4-3.314,0-6-2.686-6-6ZM820.8402,276.6774l8.486,8.486-1.414,1.414-8.486-8.486,1.414-1.414Z"/><path class="cls-1" d="M853.8018,165.3672c-1.105-1.9139-3.5502-2.5691-5.4641-1.4641-2.87,1.657-6.5392.6739-8.1962-2.1962l1.7321-1c1.105,1.9139,3.5502,2.5691,5.4641,1.4641,2.87-1.657,6.5392-.6739,8.1962,2.1962,1.105,1.9139,3.5502,2.5691,5.4641,1.4641,2.87-1.657,6.5392-.6739,8.1962,2.1962,1.105,1.9139,3.5502,2.5691,5.4641,1.4641l1,1.7321c-2.87,1.657-6.5392.6739-8.1962-2.1962-1.105-1.9139-3.5502-2.5691-5.4641-1.4641-2.87,1.657-6.5392.6739-8.1962-2.1962ZM874.8792,150.9464l11.5921,3.1061-.5176,1.9316-11.5921-3.1061.5176-1.9316Z"/><path class="cls-1" d="M852.2632,57.4197c-1.9139-1.105-4.3591-.4498-5.4641,1.4641-1.657,2.87-5.3261,3.8532-8.1962,2.1962l1-1.7321c1.9139,1.105,4.3591.4498,5.4641-1.4641,1.657-2.87,5.3261-3.8532,8.1962-2.1962,1.9139,1.105,4.3591.4498,5.4641-1.4641,1.657-2.87,5.3261-3.8532,8.1962-2.1962,1.9139,1.105,4.3591.4498,5.4641-1.4641l1.7321,1c-1.657,2.87-5.3261,3.8532-8.1962,2.1962-1.9139-1.105-4.3591-.4498-5.4641,1.4641-1.657,2.87-5.3261,3.8532-8.1962,2.1962ZM863.3064,34.3922l11.5921-3.1061.5176,1.9316-11.5921,3.1061-.5176-1.9316Z"/><path class="cls-1" d="M709.7183,364.4077c1.105-1.9139.4498-4.3591-1.4641-5.4641-2.87-1.657-3.8532-5.3261-2.1962-8.1962l1.7321,1c-1.105,1.9139-.4498,4.3591,1.4641,5.4641,2.87,1.657,3.8532,5.3261,2.1962,8.1962-1.105,1.9139-.4498,4.3591,1.4641,5.4641,2.87,1.657,3.8532,5.3261,2.1962,8.1962-1.105,1.9139-.4498,4.3591,1.4641,5.4641l-1,1.7321c-2.87-1.657-3.8532-5.3261-2.1962-8.1962,1.105-1.9139.4498-4.3591-1.4641-5.4641-2.87-1.657-3.8532-5.3261-2.1962-8.1962ZM732.7458,375.4509l3.1061,11.5921-1.9316.5176-3.1061-11.5921,1.9316-.5176Z"/><path class="cls-1" d="M591.1724,359.0011c1.9139-1.105,2.5691-3.5502,1.4641-5.4641-1.657-2.87-.6739-6.5392,2.1962-8.1962l1,1.7321c-1.9139,1.105-2.5691,3.5502-1.4641,5.4641,1.657,2.87.6739,6.5392-2.1962,8.1962-1.9139,1.105-2.5691,3.5502-1.4641,5.4641,1.657,2.87.6739,6.5392-2.1962,8.1962-1.9139,1.105-2.5691,3.5502-1.4641,5.4641l-1.7321,1c-1.657-2.87-.6739-6.5392,2.1962-8.1962,1.9139-1.105,2.5691-3.5502,1.4641-5.4641-1.657-2.87-.6739-6.5392,2.1962-8.1962ZM605.5931,380.0786l-3.1061,11.5921-1.9316-.5176,3.1061-11.5921,1.9316.5176Z"/><path class="cls-1" d="M574.511,230.8274c2.21,0,4-1.79,4-4,0-3.314,2.686-6,6-6v2c-2.21,0-4,1.79-4,4,0,3.314-2.686,6-6,6-2.21,0-4,1.79-4,4,0,3.314-2.686,6-6,6-2.21,0-4,1.79-4,4h-2c0-3.314,2.686-6,6-6,2.21,0,4-1.79,4-4,0-3.314,2.686-6,6-6ZM576.461,256.2914l-8.486,8.486-1.414-1.414,8.486-8.486,1.414,1.414Z"/><path class="cls-1" d="M430.7917,188.8313c1.9139,1.105,4.3591.4498,5.4641-1.4641,1.657-2.87,5.3261-3.8531,8.1962-2.1961l-1,1.7321c-1.9139-1.105-4.3591-.4498-5.4641,1.4641-1.657,2.87-5.3261,3.8531-8.1962,2.1961-1.9139-1.105-4.3591-.4498-5.4641,1.4641-1.657,2.87-5.3261,3.8531-8.1962,2.1961-1.9139-1.105-4.3591-.4498-5.4641,1.4641l-1.7321-1c1.657-2.87,5.3261-3.8531,8.1962-2.1961,1.9139,1.105,4.3591.4498,5.4641-1.4641,1.657-2.87,5.3261-3.8531,8.1962-2.1961ZM419.7484,211.8587l-11.5921,3.1061-.5176-1.9316,11.5921-3.1061.5176,1.9316Z"/><path class="cls-1" d="M436.1982,91.6915c1.105,1.9139,3.5502,2.5691,5.4641,1.4641,2.87-1.657,6.5392-.6739,8.1962,2.1962l-1.7321,1c-1.105-1.9139-3.5502-2.5691-5.4641-1.4641-2.87,1.657-6.5392.6739-8.1962-2.1962-1.105-1.9139-3.5502-2.5691-5.4641-1.4641-2.87,1.657-6.5392.6739-8.1962-2.1962-1.105-1.9139-3.5502-2.5691-5.4641-1.4641l-1-1.7321c2.87-1.657,6.5392-.6739,8.1962,2.1962,1.105,1.9139,3.5502,2.5691,5.4641,1.4641,2.87-1.657,6.5392-.6739,8.1962,2.1962ZM415.1208,106.1123l-11.5921-3.1061.5176-1.9316,11.5921,3.1061-.5176,1.9316Z"/></g></svg>