<?xml version="1.0" encoding="UTF-8"?><svg id="Layer_1" xmlns="http://www.w3.org/2000/svg" viewBox="0 0 1366 768"><defs><style>.cls-1{fill-rule:evenodd;}</style></defs><g id="_firstring_"><path class="cls-1" d="M738.7216,211.7577c0-1.3771-1.1154-2.4926-2.4926-2.4926-2.0651,0-3.7389-1.6738-3.7389-3.7389h1.2463c0,1.3771,1.1154,2.4926,2.4926,2.4926,2.0651,0,3.7389,1.6738,3.7389,3.7389,0,1.3771,1.1154,2.4926,2.4926,2.4926,2.0651,0,3.7389,1.6738,3.7389,3.7389,0,1.3771,1.1154,2.4926,2.4926,2.4926v1.2463c-2.0651,0-3.7389-1.6738-3.7389-3.7389,0-1.3771-1.1154-2.4926-2.4926-2.4926-2.0651,0-3.7389-1.6738-3.7389-3.7389ZM754.5894,210.5425l5.288,5.288-.8811.8811-5.288-5.288.8811-.8811Z"/><path class="cls-1" d="M775.1291,141.1802c-.6886-1.1926-2.2123-1.6009-3.4049-.9123-1.7884,1.0325-4.0748.4199-5.1074-1.3685l1.0793-.6231c.6886,1.1926,2.2123,1.6009,3.4049.9123,1.7884-1.0325,4.0748-.4199,5.1074,1.3685.6886,1.1926,2.2123,1.6009,3.4049.9123,1.7884-1.0325,4.0748-.4199,5.1074,1.3685.6886,1.1926,2.2123,1.6009,3.4049.9123l.6231,1.0793c-1.7884,1.0325-4.0748.4199-5.1074-1.3685-.6886-1.1926-2.2123-1.6009-3.4049-.9123-1.7884,1.0325-4.0748.4199-5.1074-1.3685ZM788.2634,132.194l7.2235,1.9355-.3225,1.2036-7.2235-1.9355s.3225-1.2036.3225-1.2036Z"/><path class="cls-1" d="M774.1704,73.9135c-1.1926-.6886-2.7163-.2803-3.4049.9123-1.0325,1.7884-3.319,2.4011-5.1074,1.3685l.6231-1.0793c1.1926.6886,2.7163.2803,3.4049-.9123,1.0325-1.7884,3.319-2.4011,5.1074-1.3685,1.1926.6886,2.7163.2803,3.4049-.9123,1.0325-1.7884,3.319-2.4011,5.1074-1.3685,1.1926.6886,2.7163.2803,3.4049-.9123l1.0793.6231c-1.0325,1.7884-3.319,2.4011-5.1074,1.3685-1.1926-.6886-2.7163-.2803-3.4049.9123-1.0325,1.7884-3.319,2.4011-5.1074,1.3685ZM781.0519,59.564l7.2235-1.9355.3225,1.2036-7.2235,1.9355-.3225-1.2036Z"/><path class="cls-1" d="M714.9158,47.1231c-1.3771,0-2.4926,1.1154-2.4926,2.4926,0,2.0651-1.6738,3.7389-3.7389,3.7389v-1.2463c1.3771,0,2.4926-1.1154,2.4926-2.4926,0-2.0651,1.6738-3.7389,3.7389-3.7389,1.3771,0,2.4926-1.1154,2.4926-2.4926,0-2.0651,1.6738-3.7389,3.7389-3.7389,1.3771,0,2.4926-1.1154,2.4926-2.4926h1.2463c0,2.0651-1.6738,3.7389-3.7389,3.7389-1.3771,0-2.4926,1.1154-2.4926,2.4926,0,2.0651-1.6738,3.7389-3.7389,3.7389ZM713.7007,31.2554l5.288-5.288.8811.8811-5.288,5.288-.8811-.8811Z"/><path class="cls-1" d="M685.3444,265.2111c.6886-1.1926.2803-2.7163-.9123-3.4049-1.7884-1.0325-2.4011-3.319-1.3685-5.1074l1.0793.6231c-.6886,1.1926-.2803,2.7163.9123,3.4049,1.7884,1.0325,2.4011,3.319,1.3685,5.1074-.6886,1.1926-.2803,2.7163.9123,3.4049,1.7884,1.0325,2.4011,3.319,1.3685,5.1074-.6886,1.1926-.2803,2.7163.9123,3.4049l-.6231,1.0793c-1.7884-1.0325-2.4011-3.319-1.3685-5.1074.6886-1.1926.2803-2.7163-.9123-3.4049-1.7884-1.0325-2.4011-3.319-1.3685-5.1074ZM699.6938,272.0926l1.9355,7.2235-1.2036.3225-1.9355-7.2235,1.2036-.3225Z"/><path class="cls-1" d="M611.4733,261.842c1.1926-.6886,1.6009-2.2123.9123-3.4049-1.0325-1.7884-.4199-4.0748,1.3685-5.1074l.6231,1.0793c-1.1926.6886-1.6009,2.2123-.9123,3.4049,1.0325,1.7884.4199,4.0748-1.3685,5.1074-1.1926.6886-1.6009,2.2123-.9123,3.4049,1.0325,1.7884.4199,4.0748-1.3685,5.1074-1.1926.6886-1.6009,2.2123-.9123,3.4049l-1.0793.6231c-1.0325-1.7884-.4199-4.0748,1.3685-5.1074,1.1926-.6886,1.6009-2.2123.9123-3.4049-1.0325-1.7884-.4199-4.0748,1.3685-5.1074ZM620.4595,274.9763l-1.9355,7.2235-1.2036-.3225,1.9355-7.2235,1.2036.3225Z"/><path class="cls-1" d="M601.0908,181.9714c1.3771,0,2.4926-1.1154,2.4926-2.4926,0-2.0651,1.6738-3.7389,3.7389-3.7389v1.2463c-1.3771,0-2.4926,1.1154-2.4926,2.4926,0,2.0651-1.6738,3.7389-3.7389,3.7389-1.3771,0-2.4926,1.1154-2.4926,2.4926,0,2.0651-1.6738,3.7389-3.7389,3.7389-1.3771,0-2.4926,1.1154-2.4926,2.4926h-1.2463c0-2.0651,1.6738-3.7389,3.7389-3.7389,1.3771,0,2.4926-1.1154,2.4926-2.4926,0-2.0651,1.6738-3.7389,3.7389-3.7389ZM602.306,197.8391l-5.288,5.288-.8811-.8811,5.288-5.288.8811.8811Z"/><path class="cls-1" d="M511.533,155.8018c1.1926.6886,2.7163.2803,3.4049-.9123,1.0326-1.7884,3.319-2.4011,5.1074-1.3685l-.6231,1.0793c-1.1926-.6886-2.7163-.2803-3.4049.9123-1.0326,1.7884-3.319,2.4011-5.1074,1.3685-1.1926-.6886-2.7163-.2803-3.4049.9123-1.0326,1.7884-3.319,2.4011-5.1074,1.3685-1.1926-.6886-2.7163-.2803-3.4049.9123l-1.0793-.6231c1.0326-1.7884,3.319-2.4011,5.1074-1.3685,1.1926.6886,2.7163.2803,3.4049-.9123,1.0326-1.7884,3.319-2.4011,5.1074-1.3685ZM504.6515,170.1512l-7.2235,1.9355-.3225-1.2036,7.2235-1.9355.3225,1.2036Z"/><path class="cls-1" d="M514.9021,95.2697c.6886,1.1926,2.2123,1.6009,3.4049.9123,1.7884-1.0325,4.0748-.4199,5.1074,1.3685l-1.0793.6231c-.6886-1.1926-2.2123-1.6009-3.4049-.9123-1.7884,1.0325-4.0748.4199-5.1074-1.3685-.6886-1.1926-2.2123-1.6009-3.4049-.9123-1.7884,1.0325-4.0748.4199-5.1074-1.3685-.6886-1.1926-2.2123-1.6009-3.4049-.9123l-.6231-1.0793c1.7884-1.0325,4.0748-.4199,5.1074,1.3685.6886,1.1926,2.2123,1.6009,3.4049.9123,1.7884-1.0325,4.0748-.4199,5.1074,1.3685ZM501.7678,104.2559l-7.2235-1.9355.3225-1.2036,7.2235,1.9355-.3225,1.2036Z"/><path class="cls-1" d="M570.8301,17.7107c0,1.3771,1.1154,2.4926,2.4926,2.4926,2.0651,0,3.7389,1.6738,3.7389,3.7389h-1.2463c0-1.3771-1.1154-2.4926-2.4926-2.4926-2.0651,0-3.7389-1.6738-3.7389-3.7389,0-1.3771-1.1154-2.4926-2.4926-2.4926-2.0651,0-3.7389-1.6738-3.7389-3.7389,0-1.3771-1.1154-2.4926-2.4926-2.4926v-1.2463c2.0651,0,3.7389,1.6738,3.7389,3.7389,0,1.3771,1.1154,2.4926,2.4926,2.4926,2.0651,0,3.7389,1.6738,3.7389,3.7389ZM554.9623,18.9258l-5.288-5.288.8811-.8811,5.288,5.288-.8811.8811Z"/></g></svg>