<?xml version="1.0" encoding="UTF-8"?><svg id="Layer_1" xmlns="http://www.w3.org/2000/svg" viewBox="0 0 1366 768"><defs><style>.cls-1{fill-rule:evenodd;}</style></defs><g id="_fourthring_"><path class="cls-1" d="M873.3025,502.5333c1.2485-4.6594-1.5142-9.4445-6.1736-10.693-6.987-1.8722-11.1325-9.0525-9.2604-16.0394l4.2166,1.1298c-1.2485,4.6594,1.5142,9.4445,6.1736,10.693,6.987,1.8722,11.1325,9.0525,9.2604,16.0394-1.2485,4.6594,1.5142,9.4445,6.1736,10.693,6.987,1.8722,11.1325,9.0525,9.2604,16.0394-1.2485,4.6594,1.5142,9.4445,6.1736,10.693l-1.1298,4.2166c-6.987-1.8722-11.1325-9.0525-9.2604-16.0394,1.2485-4.6594-1.5142-9.4445-6.1736-10.693-6.987-1.8722-11.1325-9.0525-9.2604-16.0394ZM928.0903,512.8073l13.0973,22.6851-3.78,2.1824-13.0973-22.6851,3.78-2.1824Z"/><path class="cls-1" d="M1046.1774,259.6127c-2.4119-4.1775-7.749-5.6076-11.9265-3.1957-6.2643,3.6167-14.273,1.4708-17.8897-4.7935l3.7805-2.1827c2.4119,4.1775,7.749,5.6076,11.9265,3.1957,6.2643-3.6167,14.273-1.4708,17.8897,4.7935,2.4119,4.1775,7.749,5.6076,11.9265,3.1957,6.2643-3.6167,14.273-1.4708,17.8897,4.7935,2.4119,4.1775,7.749,5.6076,11.9265,3.1957l2.1827,3.7805c-6.2643,3.6167-14.273,1.4708-17.8897-4.7935-2.4119-4.1775-7.749-5.6076-11.9265-3.1957-6.2643,3.6167-14.273,1.4708-17.8897-4.7935ZM1092.183,228.1366l25.302,6.7796-1.1297,4.216-25.302-6.7796,1.1297-4.216Z"/><path class="cls-1" d="M1063.9752,69.2986c-4.1775-2.4119-9.5146-.9818-11.9265,3.1957-3.6167,6.2643-11.6253,8.4102-17.8897,4.7935l2.1827-3.7805c4.1775,2.4119,9.5146.9818,11.9265-3.1957,3.6167-6.2643,11.6253-8.4102,17.8897-4.7935,4.1775,2.4119,9.5146.9818,11.9265-3.1957,3.6167-6.2643,11.6253-8.4102,17.8897-4.7935,4.1775,2.4119,9.5146.9818,11.9265-3.1957l3.7805,2.1827c-3.6167,6.2643-11.6253,8.4102-17.8897,4.7935-4.1775-2.4119-9.5146-.9818-11.9265,3.1957-3.6167,6.2643-11.6253,8.4102-17.8897,4.7935ZM1088.0793,19.0367l25.302-6.7796,1.1297,4.216-25.302,6.7796-1.1297-4.216Z"/><path class="cls-1" d="M782.1024,546.7865c2.4119-4.1775.9818-9.5146-3.1957-11.9265-6.2643-3.6167-8.4102-11.6253-4.7935-17.8897l3.7805,2.1827c-2.4119,4.1775-.9818,9.5146,3.1957,11.9265,6.2643,3.6167,8.4102,11.6253,4.7935,17.8897-2.4119,4.1775-.9818,9.5146,3.1957,11.9265,6.2643,3.6167,8.4102,11.6253,4.7935,17.8897-2.4119,4.1775-.9818,9.5146,3.1957,11.9265l-2.1827,3.7805c-6.2643-3.6167-8.4102-11.6253-4.7935-17.8897,2.4119-4.1775.9818-9.5146-3.1957-11.9265-6.2643-3.6167-8.4102-11.6253-4.7935-17.8897ZM832.3643,570.8905l6.7796,25.302-4.216,1.1297-6.7796-25.302,4.216-1.1297Z"/><path class="cls-1" d="M541.2592,550.1448c4.1775-2.4119,5.6076-7.749,3.1957-11.9264-3.6167-6.2643-1.4708-14.273,4.7935-17.8897l2.1827,3.7805c-4.1775,2.4119-5.6076,7.749-3.1957,11.9264,3.6167,6.2643,1.4708,14.273-4.7935,17.8897-4.1775,2.4119-5.6076,7.749-3.1957,11.9264,3.6167,6.2643,1.4708,14.273-4.7935,17.8897-4.1775,2.4119-5.6076,7.749-3.1957,11.9264l-3.7805,2.1827c-3.6167-6.2643-1.4708-14.273,4.7935-17.8897,4.1775-2.4119,5.6076-7.749,3.1957-11.9264-3.6167-6.2643-1.4708-14.273,4.7935-17.8897ZM572.7353,596.1504l-6.7797,25.302-4.216-1.1297,6.7797-25.302,4.216,1.1297Z"/><path class="cls-1" d="M381.4456,392.7472c4.6594,1.2485,9.4445-1.5142,10.693-6.1736,1.8722-6.987,9.0525-11.1325,16.0395-9.2604l-1.1298,4.2166c-4.6594-1.2485-9.4445,1.5142-10.693,6.1736-1.8722,6.987-9.0525,11.1325-16.0395,9.2604-4.6594-1.2485-9.4445,1.5142-10.693,6.1736-1.8722,6.987-9.0525,11.1325-16.0395,9.2604-4.6594-1.2485-9.4445,1.5142-10.693,6.1736l-4.2166-1.1298c1.8722-6.987,9.0525-11.1325,16.0395-9.2604,4.6594,1.2485,9.4445-1.5142,10.693-6.1736,1.8722-6.987,9.0525-11.1325,16.0395-9.2604ZM371.1716,447.535l-22.6851,13.0972-2.1824-3.78,22.6851-13.0972,2.1824,3.78Z"/><path class="cls-1" d="M313.0054,328.283c4.1775,2.4119,9.5146.9818,11.9265-3.1957,3.6167-6.2643,11.6253-8.4102,17.8897-4.7935l-2.1827,3.7805c-4.1775-2.4119-9.5146-.9818-11.9265,3.1957-3.6167,6.2643-11.6253,8.4102-17.8897,4.7935-4.1775-2.4119-9.5146-.9818-11.9265,3.1957-3.6167,6.2643-11.6253,8.4102-17.8897,4.7935-4.1775-2.4119-9.5146-.9818-11.9265,3.1957l-3.7805-2.1827c3.6167-6.2643,11.6253-8.4102,17.8897-4.7935,4.1775,2.4119,9.5146.9818,11.9265-3.1957,3.6167-6.2643,11.6253-8.4102,17.8897-4.7935ZM288.9014,378.5449l-25.302,6.7796-1.1297-4.216,25.302-6.7796,1.1297,4.216Z"/><path class="cls-1" d="M271.747,100.5193c2.4119,4.1775,7.749,5.6076,11.9264,3.1957,6.2643-3.6167,14.273-1.4708,17.8897,4.7935l-3.7805,2.1827c-2.4119-4.1775-7.749-5.6076-11.9264-3.1957-6.2643,3.6167-14.273,1.4708-17.8897-4.7935-2.4119-4.1775-7.749-5.6076-11.9264-3.1957-6.2643,3.6167-14.273,1.4708-17.8897-4.7935-2.4119-4.1775-7.749-5.6076-11.9264-3.1957l-2.1827-3.7805c6.2643-3.6167,14.273-1.4708,17.8897,4.7935,2.4119,4.1775,7.749,5.6076,11.9264,3.1957,6.2643-3.6167,14.273-1.4708,17.8897,4.7935ZM225.7414,131.9954l-25.302-6.7797,1.1297-4.216,25.302,6.7797-1.1297,4.216Z"/><path class="cls-1" d="M453.291,451.5322c4.6594-1.2485,7.4221-6.0336,6.1736-10.693-1.8721-6.987,2.2734-14.1673,9.2604-16.0394l1.1298,4.2166c-4.6594,1.2485-7.4221,6.0336-6.1736,10.693,1.8721,6.987-2.2734,14.1673-9.2604,16.0394-4.6594,1.2485-7.4221,6.0336-6.1736,10.693,1.8721,6.987-2.2734,14.1673-9.2604,16.0394-4.6594,1.2485-7.4221,6.0336-6.1736,10.693l-4.2166,1.1298c-1.8721-6.987,2.2734-14.1673,9.2604-16.0394,4.6594-1.2485,7.4221-6.0336,6.1736-10.693-1.8721-6.987,2.2734-14.1673,9.2604-16.0394ZM471.7873,504.1169l-13.0973,22.6851-3.78-2.1824,13.0973-22.6851s3.78,2.1824,3.78,2.1824Z"/><path class="cls-1" d="M948.0705,434.7709c0-4.8237-3.907-8.7308-8.7308-8.7308-7.2334,0-13.0962-5.8627-13.0962-13.0962h4.3654c0,4.8237,3.907,8.7308,8.7308,8.7308,7.2334,0,13.0962,5.8627,13.0962,13.0962,0,4.8237,3.907,8.7308,8.7308,8.7308,7.2334,0,13.0962,5.8627,13.0962,13.0962,0,4.8237,3.907,8.7308,8.7308,8.7308v4.3654c-7.2334,0-13.0962-5.8627-13.0962-13.0962,0-4.8237-3.907-8.7308-8.7308-8.7308-7.2334,0-13.0962-5.8627-13.0962-13.0962ZM1003.6506,430.5146l18.5223,18.5223-3.0863,3.0863-18.5223-18.5223s3.0863-3.0863,3.0863-3.0863Z"/><path class="cls-1" d="M1004.0871,344.2934c-1.2485-4.6594-6.0336-7.4221-10.693-6.1736-6.987,1.8722-14.1673-2.2734-16.0394-9.2604l4.2166-1.1298c1.2485,4.6594,6.0336,7.4221,10.693,6.1736,6.987-1.8722,14.1673,2.2734,16.0394,9.2604,1.2485,4.6594,6.0336,7.4221,10.693,6.1736,6.987-1.8722,14.1673,2.2734,16.0394,9.2604,1.2485,4.6594,6.0336,7.4221,10.693,6.1736l1.1298,4.2166c-6.987,1.8722-14.1673-2.2734-16.0394-9.2604-1.2485-4.6594-6.0336-7.4221-10.693-6.1736-6.987,1.8722-14.1673-2.2734-16.0394-9.2604ZM1056.6717,325.797l22.6851,13.0973-2.1824,3.78-22.6851-13.0973,2.1824-3.78Z"/><path class="cls-1" d="M1065.0746,166.733c-3.4109-3.4109-8.9363-3.4109-12.3472,0-5.1148,5.1148-13.4059,5.1148-18.5208,0l3.0868-3.0868c3.4109,3.4109,8.9363,3.4109,12.3472,0,5.1148-5.1148,13.4059-5.1148,18.5208,0,3.4109,3.4109,8.9363,3.4109,12.3472,0,5.1148-5.1148,13.4059-5.1148,18.5208,0,3.4109,3.4109,8.9363,3.4109,12.3472,0l3.0868,3.0868c-5.1148,5.1148-13.4059,5.1148-18.5208,0-3.4109-3.4109-8.9363-3.4109-12.3472,0-5.1148,5.1148-13.4059,5.1148-18.5208,0ZM1101.3661,124.4223h26.1945s0,4.3647,0,4.3647h-26.1945s0-4.3647,0-4.3647Z"/><path class="cls-1" d="M273.5191,242.5593c3.4109,3.4109,8.9363,3.4109,12.3472,0,5.1148-5.1148,13.4059-5.1148,18.5208,0l-3.0868,3.0868c-3.4109-3.4109-8.9363-3.4109-12.3472,0-5.1148,5.1148-13.4059,5.1148-18.5208,0-3.4109-3.4109-8.9363-3.4109-12.3472,0-5.1148,5.1148-13.4059,5.1148-18.5208,0-3.4109-3.4109-8.9363-3.4109-12.3472,0l-3.0868-3.0868c5.1148-5.1148,13.4059-5.1148,18.5208,0,3.4109,3.4109,8.9363,3.4109,12.3472,0,5.1148-5.1148,13.4059-5.1148,18.5208,0ZM237.2276,284.87h-26.1945s0-4.3647,0-4.3647h26.1945s0,4.3647,0,4.3647Z"/><path class="cls-1" d="M675.81,586.5992c3.4109-3.4109,3.4109-8.9363,0-12.3472-5.1148-5.1148-5.1148-13.4059,0-18.5208l3.0868,3.0868c-3.4109,3.4109-3.4109,8.9363,0,12.3472,5.1148,5.1148,5.1148,13.4059,0,18.5208-3.4109,3.4109-3.4109,8.9363,0,12.3472,5.1148,5.1148,5.1148,13.4059,0,18.5208-3.4109,3.4109-3.4109,8.9363,0,12.3472l-3.0868,3.0868c-5.1148-5.1148-5.1148-13.4059,0-18.5208,3.4109-3.4109,3.4109-8.9363,0-12.3472-5.1148-5.1148-5.1148-13.4059,0-18.5208ZM718.1206,622.8907v26.1945s-4.3647,0-4.3647,0v-26.1945s4.3647,0,4.3647,0Z"/></g></svg>