<?xml version="1.0" encoding="UTF-8"?><svg id="Layer_1" xmlns="http://www.w3.org/2000/svg" viewBox="0 0 1366 768"><defs><style>.cls-1{fill-rule:evenodd;}</style></defs><g id="_fourthring_"><path class="cls-1" d="M1081.8151,721.8681c2.4239-9.0462-2.9398-18.3364-11.986-20.7603-13.5652-3.6348-21.6137-17.5753-17.979-31.1405l8.1866,2.1936c-2.4239,9.0462,2.9398,18.3364,11.986,20.7603,13.5652,3.6348,21.6137,17.5753,17.979,31.1405-2.4239,9.0462,2.9398,18.3364,11.986,20.7603,13.5652,3.6348,21.6137,17.5753,17.979,31.1405-2.4239,9.0462,2.9398,18.3364,11.986,20.7603l-2.1936,8.1866c-13.5652-3.6348-21.6137-17.5753-17.979-31.1405,2.4239-9.0462-2.9398-18.3364-11.986-20.7603-13.5652-3.6348-21.6137-17.5753-17.979-31.1405ZM1188.1853,741.8149l25.4283,44.043-7.3388,4.237-25.4283-44.043,7.3388-4.237Z"/><path class="cls-1" d="M869.2862,792.344c-12.1622-7.0218-16.3284-22.5705-9.3066-34.7327,4.6826-8.1106,1.9062-18.4725-6.2044-23.1551-12.1622-7.0218-16.3284-22.5705-9.3066-34.7327l7.3399,4.2377c-4.6826,8.1106-1.9062,18.4725,6.2044,23.1551,12.1622,7.0218,16.3284,22.5705,9.3066,34.7327-4.6826,8.1106-1.9062,18.4725,6.2044,23.1551"/><path class="cls-1" d="M428.8693,794.5255c-7.0218-12.1622-2.8556-27.7109,9.3066-34.7327,8.1106-4.6826,10.887-15.0446,6.2044-23.1551-7.0218-12.1622-2.8556-27.7109,9.3066-34.7327l4.2377,7.3399c-8.1106,4.6826-10.887,15.0446-6.2044,23.1551,7.0218,12.1622,2.8556,27.7109-9.3066,34.7327-8.1106,4.6826-10.887,15.0446-6.2044,23.1551"/><path class="cls-1" d="M67.4809,414.8378c9.0462,2.4239,18.3364-2.9398,20.7603-11.986,3.6348-13.5652,17.5753-21.6137,31.1405-17.9789l-2.1936,8.1866c-9.0462-2.4239-18.3364,2.9398-20.7603,11.986-3.6348,13.5652-17.5753,21.6137-31.1405,17.9789-9.0462-2.4239-18.3364,2.9398-20.7603,11.986-3.6348,13.5651-17.5753,21.6137-31.1405,17.9789-9.0462-2.4239-18.3364,2.9398-20.7603,11.986l-8.1866-2.1936c3.6348-13.5651,17.5753-21.6137,31.1405-17.9789,9.0462,2.4239,18.3364-2.9398,20.7603-11.986,3.6348-13.5652,17.5753-21.6137,31.1405-17.9789ZM47.534,521.208l-44.043,25.4282-4.237-7.3388,44.043-25.4282,4.237,7.3388Z"/><path class="cls-1" d="M2.0462,326.8681c8.1106,4.6826,18.4725,1.9062,23.1551-6.2044,7.0218-12.1622,22.5705-16.3284,34.7327-9.3066l-4.2377,7.3399c-8.1106-4.6826-18.4725-1.9062-23.1551,6.2044-7.0218,12.1622-22.5705,16.3284-34.7327,9.3066"/><path class="cls-1" d="M132.0948,598.2446c9.3653,0,16.9507-7.5854,16.9507-16.9507,0-14.0437,11.3824-25.4261,25.4261-25.4261v8.4754c-9.3653,0-16.9507,7.5854-16.9508,16.9507,0,14.0437-11.3824,25.4261-25.4261,25.4261-9.3653,0-16.9507,7.5854-16.9507,16.9507,0,14.0437-11.3824,25.4261-25.4261,25.4261-9.3653,0-16.9507,7.5854-16.9507,16.9507h-8.4754c0-14.0437,11.3824-25.4261,25.4261-25.4261,9.3653,0,16.9507-7.5854,16.9507-16.9507,0-14.0437,11.3824-25.4261,25.4261-25.4261ZM140.3582,706.1529l-35.961,35.9609-5.9921-5.9921,35.961-35.9609s5.9921,5.9921,5.9921,5.9921Z"/><path class="cls-1" d="M1286.2794,475.9536c-2.4239-9.0462-11.7142-14.4099-20.7603-11.986-13.5652,3.6348-27.5057-4.4138-31.1405-17.979l8.1866-2.1936c2.4239,9.0462,11.7142,14.4099,20.7603,11.986,13.5652-3.6348,27.5057,4.4138,31.1405,17.979,2.4239,9.0462,11.7142,14.4099,20.7603,11.986,13.5652-3.6348,27.5057,4.4138,31.1405,17.979,2.4239,9.0462,11.7142,14.4099,20.7603,11.986l2.1936,8.1866c-13.5652,3.6348-27.5057-4.4138-31.1405-17.979-2.4239-9.0462-11.7142-14.4099-20.7603-11.986-13.5652,3.6348-27.5057-4.4138-31.1405-17.979Z"/><path class="cls-1" d="M1374.9175,375.9311c-13.5652,3.6348-27.5057-4.4138-31.1405-17.979-2.4239-9.0462-11.7142-14.4099-20.7603-11.986-13.5652,3.6348-27.5057-4.4138-31.1405-17.979l8.1866-2.1936c2.4239,9.0462,11.7142,14.4099,20.7603,11.986,13.5652-3.6348,27.5057,4.4138,31.1405,17.979,2.4239,9.0462,11.7142,14.4099,20.7603,11.986"/><path class="cls-1" d="M649.3785,784.9871c6.6223-6.6222,6.6223-17.3497,0-23.972-9.9304-9.9304-9.9304-26.0276,0-35.9579l5.993,5.993c-6.6223,6.6222-6.6223,17.3497,0,23.972,9.9304,9.9304,9.9304,26.0276,0,35.9579"/></g><path class="cls-1" d="M1239.6068,636.2778c0-9.3653-7.5855-16.9507-16.9507-16.9507-14.0437,0-25.4261-11.3824-25.4261-25.4261h8.4754c0,9.3653,7.5855,16.9507,16.9507,16.9507,14.0437,0,25.4261,11.3824,25.4261,25.4261,0,9.3653,7.5855,16.9507,16.9507,16.9507,14.0437,0,25.4261,11.3824,25.4261,25.4261,0,9.3653,7.5855,16.9507,16.9507,16.9507v8.4754c-14.0437,0-25.4261-11.3824-25.4261-25.4261,0-9.3653-7.5855-16.9507-16.9507-16.9507-14.0437,0-25.4261-11.3824-25.4261-25.4261ZM1347.5152,628.0143l35.961,35.961-5.9921,5.9921-35.961-35.961,5.9921-5.9921Z"/><path class="cls-1" d="M281.9913,720.8825c9.0462-2.4239,14.4099-11.7141,11.986-20.7603-3.6348-13.5652,4.4138-27.5057,17.979-31.1405l2.1936,8.1866c-9.0462,2.4239-14.4099,11.7141-11.986,20.7603,3.6348,13.5652-4.4138,27.5057-17.979,31.1405-9.0462,2.4239-14.4099,11.7141-11.986,20.7603,3.6348,13.5652-4.4138,27.5057-17.979,31.1405-9.0462,2.4239-14.4099,11.7141-11.986,20.7603l-8.1866,2.1936c-3.6348-13.5652,4.4138-27.5057,17.979-31.1405,9.0462-2.4239,14.4099-11.7141,11.986-20.7603-3.6348-13.5652,4.4138-27.5057,17.979-31.1405Z"/></svg>