<?xml version="1.0" encoding="UTF-8"?><svg id="Layer_1" xmlns="http://www.w3.org/2000/svg" viewBox="0 0 22.6452 21.3133"><defs><style>.cls-1{fill:#acffaa;}.cls-1,.cls-2,.cls-3{stroke:#103f00;stroke-width:1.4px;}.cls-1,.cls-2,.cls-3,.cls-4{stroke-linecap:round;stroke-linejoin:round;}.cls-2{fill:#8ec658;}.cls-3{fill:none;}.cls-4{opacity:.3;stroke:#000;stroke-width:2px;}</style></defs><path class="cls-4" d="M20.4756,18.4385l-8.2044-.5033c-.5947-.0377-1.3016-.0377-1.8963,0l-8.2064.5033c-.7148.0422-1.169.131-1.1685.2283v1.3931c0,.1399.9243.2533,2.0645.2533h16.5161c1.1402,0,2.0645-.1134,2.0645-.2533v-1.3931c.0003-.0974-.4544-.1861-1.1696-.2283Z"/><path class="cls-2" d="M20.4756,5.0328L12.2712.9306c-.5947-.3075-1.3015-.3075-1.8962,0L2.1685,5.0328c-.7148.3443-1.169,1.0678-1.1685,1.8612v11.3548c0,1.1402.9243,2.0645,2.0645,2.0645h16.5161c1.1402,0,2.0645-.9243,2.0645-2.0645V6.8939c.0003-.7936-.4544-1.5171-1.1696-1.8612ZM17.5161,20.3133H5.1291v-11.3548c0-.5701.4621-1.0323,1.0322-1.0323h10.3226c.5701,0,1.0323.4622,1.0323,1.0323v11.3548Z"/><path class="cls-1" d="M5.129,12.0552h12.3871"/><path class="cls-3" d="M5.129,16.1842h12.3871"/></svg>