<?xml version="1.0" encoding="UTF-8"?><svg id="Layer_1" xmlns="http://www.w3.org/2000/svg" xmlns:xlink="http://www.w3.org/1999/xlink" viewBox="0 0 32 32"><defs><style>.cls-1{fill:#ff9700;}.cls-2{fill:url(#linear-gradient);}</style><linearGradient id="linear-gradient" x1="14.5622" y1="15.574" x2="24.2178" y2="21.1486" gradientUnits="userSpaceOnUse"><stop offset="0" stop-color="#131313" stop-opacity=".5"/><stop offset=".1315" stop-color="#000" stop-opacity=".4"/><stop offset="1" stop-color="#fff" stop-opacity="0"/></linearGradient></defs><rect width="32" height="32" rx="5.5" ry="5.5"/><path class="cls-1" d="M28,14.2824c0-.662-.5367-1.1987-1.1987-1.1987h-10.8013v12.3702c0,.662.5367,1.1987,1.1987,1.1987.36,0,.6793-.1621.899-.4134v.0179l9.6027-11.1713h-.0151c.1936-.2129.3147-.4931.3147-.8035Z"/><path class="cls-2" d="M28,14.2824c0-.662-.5367-1.1987-1.1987-1.1987h-10.8013v12.3702c0,.662.5367,1.1987,1.1987,1.1987.36,0,.6793-.1621.899-.4134v.0179l9.6027-11.1713h-.0151c.1936-.2129.3147-.4931.3147-.8035Z"/><path class="cls-1" d="M4,17.7176c0,.662.5367,1.1987,1.1987,1.1987h10.8013V6.5461c0-.662-.5367-1.1987-1.1987-1.1987-.36,0-.6793.1621-.899.4134v-.0179l-9.6027,11.1713h.0151c-.1936.2129-.3147.4931-.3147.8035Z"/></svg>