<?xml version="1.0" encoding="UTF-8"?><svg id="Layer_1" xmlns="http://www.w3.org/2000/svg" viewBox="0 0 27.3503 34.1945"><defs><style>.cls-1{fill:#bcbcbc;}.cls-1,.cls-2{stroke:#140f56;}.cls-1,.cls-2,.cls-3{stroke-linecap:round;stroke-linejoin:round;stroke-width:2px;}.cls-2{fill:#a6c6ff;}.cls-3{opacity:.3;stroke:#000;}</style></defs><path class="cls-3" d="M3.7762,29.8456c.3833-.4624,3.5769-.8372,7.133-.8372h9.6584c3.5561,0,6.1282.3748,5.7448.8372l-2.4292,2.9303c-.1917.2312-1.7884.4186-3.5665.4186H4.2195c-1.7781,0-3.0641-.1874-2.8724-.4186l2.4292-2.9303Z"/><path class="cls-2" d="M1,7.4389C1,3.8828,3.8828,1,7.4389,1h9.6584c3.5561,0,6.4389,2.8828,6.4389,6.4389v22.5362c0,1.7781-1.4414,3.2195-3.2195,3.2195H4.2195c-1.7781,0-3.2195-1.4414-3.2195-3.2195V7.4389Z"/><path class="cls-1" d="M1,13.8778h22.5362"/><path class="cls-1" d="M17.0973,9.0486v9.6584"/></svg>