<?xml version="1.0" encoding="UTF-8"?><svg id="Layer_1" xmlns="http://www.w3.org/2000/svg" xmlns:xlink="http://www.w3.org/1999/xlink" viewBox="0 0 32 32"><defs><style>.cls-1{fill:#ff8533;}.cls-2{fill:url(#linear-gradient);}</style><linearGradient id="linear-gradient" x1="15.3911" y1="13.1495" x2="24.7834" y2="22.5418" gradientUnits="userSpaceOnUse"><stop offset="0" stop-color="#000" stop-opacity=".5"/><stop offset=".1755" stop-color="#3b3307" stop-opacity=".4"/><stop offset=".8768" stop-color="#d7bc1a" stop-opacity=".0679"/><stop offset="1" stop-color="#f7d91e" stop-opacity="0"/></linearGradient></defs><rect width="32" height="32"/><path class="cls-1" d="M15.0625,2c-.2945,0-.5463.1426-.7181.3526v-.0222L1.2194,17.9593h.0146c-.1404.1621-.2341.366-.2341.5964,0,.5125.4198.9273.9375.9273h2.3973c1.1188,0,2.238.0045,3.3572.0081,1.105.0045,2.227.0081,3.3549.0081,1.6508,0,3.314-.0082,4.953-.0399V2.9273c0-.5121-.4198-.9273-.9375-.9273Z"/><path class="cls-1" d="M16.9375,30c.2945,0,.5463-.1426.7181-.3526v.0222l13.1249-15.6289h-.0146c.1404-.1621.2341-.366.2341-.5964,0-.5125-.4198-.9273-.9375-.9273h-2.3973c-1.1188,0-2.238-.0045-3.3572-.0081-1.105-.0045-2.227-.0081-3.3549-.0081-1.6508,0-3.314.0082-4.953.0399v16.5321c0,.5121.4198.9273.9375.9273Z"/><path class="cls-2" d="M16.9375,30c.2945,0,.5463-.1426.7181-.3526v.0222l13.1249-15.6289h-.0146c.1404-.1621.2341-.366.2341-.5964,0-.5125-.4198-.9273-.9375-.9273h-2.3973c-1.1188,0-2.238-.0045-3.3572-.0081-1.105-.0045-2.227-.0081-3.3549-.0081-1.6508,0-3.314.0082-4.953.0399v16.5321c0,.5121.4198.9273.9375.9273Z"/></svg>
