<?xml version="1.0" encoding="UTF-8"?><svg id="Layer_1" xmlns="http://www.w3.org/2000/svg" viewBox="0 0 31.9361 31.9444"><defs><style>.cls-1{fill:#008bc0;}.cls-1,.cls-2,.cls-3,.cls-4,.cls-5{fill-rule:evenodd;}.cls-6,.cls-3,.cls-7{fill:#fff;}.cls-8{opacity:.4;}.cls-2{fill:#006095;}.cls-3{stroke:#283970;stroke-miterlimit:10;stroke-width:2px;}.cls-7{opacity:.6;}.cls-5{fill:#69ac40;}.cls-9{fill:#283970;}</style></defs><g class="cls-8"><path d="M10.123,27.6878l-.1689-.0234c-5.8135-.8105-8.9521-2.6406-8.9541-3.9512-.002-1.7822,5.8257-4.3789,14.9629-4.3916,9.2998,0,14.9717,2.5322,14.9736,4.3477.001,1.3262-3.1797,3.1758-9.0762,3.9941l-.1768.0244-5.6675,3.04-5.8931-3.04Z"/><path d="M16.0311,20.3218c8.8842,0,13.5485,2.3958,13.8983,3.3481-.2167.5568-2.4585,2.2056-8.206,3.0023l-.3551.0492-.3159.1695-5.0451,2.7072-5.2741-2.7213-.3032-.1565-.338-.0471c-5.6599-.7881-7.8705-2.4137-8.0852-2.9625.3476-.9584,5.0281-3.3761,13.9573-3.3889h.0671M16.0311,18.3218c-.0237,0-.0459,0-.0696,0C7.1426,18.3345-.0036,20.7486,0,23.7139c.0027,2.2312,4.054,4.1379,9.8161,4.9402l6.2094,3.2038,5.9725-3.2048c5.83-.8081,9.9409-2.7369,9.9381-4.985-.0036-2.9574-7.1187-5.3464-15.905-5.3464h0Z"/></g><polygon class="cls-3" points="25.4712 21.5167 16.0727 30.5629 5.9199 20.9797 15.8176 19.7974 25.4712 21.5167"/><path class="cls-6" d="M16.023,23.7571c-8.2231,0-14.9131-5.1045-14.9131-11.3789S7.7998.9998,16.023.9998s14.9136,5.1045,14.9136,11.3784-6.6904,11.3789-14.9136,11.3789Z"/><path class="cls-9" d="M16.0231,2c7.6717,0,13.913,4.6557,13.913,10.3784s-6.2414,10.3784-13.913,10.3784S2.11,18.101,2.11,12.3784,8.3514,2,16.0231,2M16.0231,0C7.2345,0,.11,5.542.11,12.3784s7.1245,12.3784,15.913,12.3784,15.913-5.542,15.913-12.3784S24.8116,0,16.0231,0h0Z"/><path class="cls-2" d="M21.2089,5.5557c-.3366-.246-.8176-.4921-1.2023-.0984-.2405.246-1.0099,1.2302-1.1542,1.5254-.2405.3937.0481.8365.2885,1.0333,1.2023,1.0333,4.8092,3.6413,9.1374,9.1032h0c.1924.246.7695.4429.9137-.1476.0481-.1968.2885-1.3778.3847-2.0667.1443-.9349-.2405-1.427-.4328-1.673-.3847-.3937-4.713-5.1175-7.9351-7.6762"/><path class="cls-5" d="M17.2173.5367c-1.1542.5905-3.6069,2.2143-3.7511,2.3127-.5771.3444-1.058.8857-.1443,1.427,1.6351.9349,3.4145,2.1651,3.8954,2.3619.8656.4429,1.1061.0492,1.7313-.7873.7214-.9349,1.3947-1.7222,2.0679-2.6572.1924-.246.8176-.8857.2405-1.3286-.2885-.1968-2.0198-1.1318-2.5969-1.3286-.3366-.0984-.8656-.2952-1.4427,0"/><path class="cls-2" d="M10.3883,23.3685c-1.5389-.9349-1.3466-2.6079-.8656-3.2476.4328-.5905,7.5504-10.5302,7.6947-10.7762.529-.7873,1.1061-.5905,1.4427-.3444.8656.5905,3.3664,2.8048,4.1359,3.6905.529.5905,0,1.3778-.2405,2.1159-.4328,1.3286-4.1359,8.1191-5.771,10.6778,0,0-.8176,1.4762-2.0679.6397-.4809-.2952-4.184-2.6572-4.3282-2.7556"/><path class="cls-1" d="M6.8295,3.1938c-.9137.4921-2.2122,1.2302-2.8855,1.8206-.6733.4429-.2405,1.0333.4809,1.3286,2.5008,1.0825,7.887,4.2318,8.9931,4.9207.4328.2952.9618.5413,1.5389-.0492.2405-.246,1.4908-1.8699,1.7794-2.2635.4809-.6397.1924-1.181-.0962-1.427-2.2603-1.673-5.8672-3.5921-8.1756-4.527-.4328-.1476-1.0099-.1476-1.6351.1968"/><rect class="cls-7" x=".9993" y="7.3894" width="30.2006" height="9.9779" rx="1.8066" ry="1.8066"/><path class="cls-4" d="M7.4811,14.95c0,.1094-.0639.1532-.213.1532h-.8093c-.213,0-.3194-.0875-.3833-.2845l-.4259-1.2255h-2.6195l-.4259,1.2255c-.0639.197-.1704.2845-.3833.2845h-.7028c-.1491,0-.213-.0438-.213-.1532,0-.0438.0213-.0875.0426-.1313l2.2148-5.9523c.0639-.1751.1704-.2845.362-.2845h.9371c.1704,0,.2769.1094.362.3064l2.2148,5.9523c.0213.0219.0426.0875.0426.1094ZM4.3718,9.8292h-.0426l-.9583,2.7355h1.938l-.9371-2.7355ZM8.7589,12.8492v-2.1446c0-.197-.0852-.2845-.2769-.2845h-.6602c-.1704,0-.2556.0875-.2556.2845v2.4729c0,1.0504.362,2.0133,1.6824,2.0133.6389,0,1.1074-.2188,1.4695-.7878h.0426v.3939c0,.197.0852.2845.2556.2845h.6389c.1704,0,.2556-.0875.2556-.2845v-4.0704c0-.197-.0852-.2845-.2556-.2845h-.6602c-.1704,0-.2556.0875-.2556.2845v1.8163c0,.9848-.4046,1.6413-1.1287,1.6413-.6389,0-.8519-.4814-.8519-1.3349M15.4248,10.8359c.0426-.1532,0-.2188-.1704-.2845-.3407-.1532-.7667-.2188-1.1074-.2188-.9796,0-1.7463.4377-1.7463,1.3787,0,.7222.4046,1.1161,1.0648,1.4006.7241.2845,1.0222.4377,1.0222.744,0,.372-.362.4814-.7241.4814-.6176,0-.8945-.3064-1.0648-.3064-.1278,0-.1917.0657-.213.2188l-.0426.4377c-.0213.1313.0213.2407.1704.3283.2982.1532.7667.2407,1.1926.2407.9371,0,1.8741-.3939,1.8741-1.4662,0-.6565-.2982-1.0723-1.0648-1.4006-.6176-.2626-1.0222-.4158-1.0222-.744,0-.2407.2556-.3939.6176-.3939.5111,0,.7667.2188.9371.2188.1065,0,.1704-.0438.1917-.1751l.0852-.4596M20.6424,14.7749c0,1.6632-.8732,2.4072-2.5556,2.4072-.4685,0-1.0222-.1094-1.3843-.2626-.2556-.1094-.2982-.1751-.2556-.3939l.0639-.4377c.0213-.1313.0852-.197.213-.197.213,0,.5537.3283,1.3843.3283.9158,0,1.3843-.4814,1.3843-1.4662v-.3283h-.0213c-.3194.5252-.8306.7003-1.4269.7003-1.3204,0-2.0019-1.0942-2.0019-2.4072,0-1.1817.6602-2.3853,1.9806-2.3853.6389,0,1.1287.2188,1.4695.6784h.0426v-.2626c0-.197.0852-.2845.2769-.2845h.6176c.1704,0,.2556.0875.2556.2845v4.0266h-.0426ZM19.4498,12.7616c0-.8972-.4685-1.4662-1.1287-1.4662-.7241,0-1.0861.7003-1.0861,1.4443,0,.7659.362,1.4443,1.0648,1.4443.7454-.0219,1.15-.6346,1.15-1.4224ZM21.473,15.1032h.6602c.1917,0,.2769-.0875.2769-.2845v-1.8163c0-.8972.2982-1.6194,1.0435-1.6194.2343,0,.362.0438.4685.0438.1491,0,.2343-.0657.2343-.2407v-.5471c0-.1751-.0639-.2407-.1491-.2626s-.2343-.0438-.4046-.0438c-.5324,0-.8732.2407-1.1713.7659h-.0426v-.3501c0-.197-.0852-.2845-.2769-.2845h-.6389c-.1704,0-.2556.0875-.2556.2845v4.0922c0,.1751.0852.2626.2556.2626M25.1147,8.1004c.3833,0,.6815.3283.6815.7003,0,.3939-.2982.7003-.6815.7003-.362,0-.6815-.3283-.6815-.7003s.2982-.7003.6815-.7003ZM24.5184,10.7264c0-.197.0852-.2845.2556-.2845h.6602c.1704,0,.2556.0875.2556.2845v4.0922c0,.197-.0852.2845-.2556.2845h-.6602c-.1704,0-.2556-.0875-.2556-.2845v-4.0922ZM29.7361,14.4904c-.3194.5033-.8306.744-1.4482.744-1.363,0-2.0232-1.1817-2.0232-2.5166,0-1.1817.6815-2.3853,1.9593-2.3853.6602,0,1.1287.2188,1.4695.6784h.0213v-2.626c0-.197.0852-.3064.2769-.3064h.6602c.1704,0,.2556.1094.2556.3064v6.4338c0,.197-.0852.2845-.2556.2845h-.6176c-.1917,0-.2769-.0875-.2769-.2845v-.3283h-.0213ZM29.7148,12.7835c0-.8972-.4472-1.4881-1.1287-1.4881-.7241,0-1.0861.7003-1.0861,1.4443,0,.7659.362,1.4881,1.0648,1.4881.7241,0,1.15-.6346,1.15-1.4443Z"/></svg>