<?xml version="1.0" encoding="UTF-8"?><svg id="Layer_1" xmlns="http://www.w3.org/2000/svg" viewBox="0 0 32 32"><defs><style>.cls-1{fill:#008bc0;}.cls-1,.cls-2,.cls-3,.cls-4{fill-rule:evenodd;}.cls-5{fill:#fff;opacity:.6;}.cls-2{fill:#006095;}.cls-4{fill:#69ac40;}</style></defs><path class="cls-2" d="M21.662,6.3692c-.4143-.3028-1.0062-.6056-1.4797-.1211-.2959.3028-1.243,1.514-1.4206,1.8774-.2959.4845.0592,1.0296.3551,1.2718,1.4797,1.2718,5.919,4.4816,11.246,11.204h0c.2368.3028.947.5451,1.1246-.1817.0592-.2422.3551-1.6957.4735-2.5436.1776-1.1507-.2959-1.7563-.5327-2.0591-.4735-.4845-5.8006-6.2984-9.7663-9.4477"/><path class="cls-4" d="M16.7493.1919c-1.4206.7267-4.4392,2.7253-4.6168,2.8464-.7103.4239-1.3022,1.0901-.1776,1.7563,2.0124,1.1507,4.2025,2.6647,4.7944,2.907,1.0654.5451,1.3614.0606,2.1308-.969.8878-1.1507,1.7165-2.1197,2.5452-3.2703.2368-.3028,1.0062-1.0901.2959-1.6352-.3551-.2422-2.486-1.3929-3.1962-1.6352-.4143-.1211-1.0654-.3634-1.7757,0"/><path class="cls-2" d="M8.3444,28.2927c-1.8941-1.1507-1.6573-3.2098-1.0654-3.9971.5327-.7267,9.2928-12.9603,9.4704-13.2631.6511-.969,1.3614-.7267,1.7757-.4239,1.0654.7267,4.1433,3.452,5.0903,4.5421.6511.7267,0,1.6957-.2959,2.6042-.5327,1.6352-5.0903,9.9927-7.1028,13.1419,0,0-1.0062,1.8169-2.5452.7873-.5919-.3634-5.1495-3.2703-5.3271-3.3915"/><path class="cls-1" d="M3.9643,3.4623c-1.1246.6056-2.7227,1.514-3.5514,2.2408-.8287.5451-.2959,1.2718.5919,1.6352,3.0779,1.3324,9.7071,5.2083,11.0685,6.0562.5327.3634,1.1838.6662,1.8941-.0606.2959-.3028,1.8349-2.3014,2.19-2.7859.5919-.7873.2368-1.4535-.1184-1.7563-2.7819-2.0591-7.2211-4.421-10.0622-5.5717-.5327-.1817-1.243-.1817-2.0125.2422"/><rect class="cls-5" y="10.7591" width="32" height="10.1378" rx=".8077" ry=".8077"/><path class="cls-3" d="M7.3749,18.3197c0,.1094-.0639.1532-.213.1532h-.8093c-.213,0-.3194-.0875-.3833-.2845l-.4259-1.2255h-2.6195l-.4259,1.2255c-.0639.197-.1704.2845-.3833.2845h-.7028c-.1491,0-.213-.0438-.213-.1532,0-.0438.0213-.0875.0426-.1313l2.2148-5.9523c.0639-.1751.1704-.2845.362-.2845h.9371c.1704,0,.2769.1094.362.3064l2.2148,5.9523c.0213.0219.0426.0875.0426.1094ZM4.2656,13.1989h-.0426l-.9583,2.7355h1.938l-.9371-2.7355ZM8.6527,16.2188v-2.1446c0-.197-.0852-.2845-.2769-.2845h-.6602c-.1704,0-.2556.0875-.2556.2845v2.4729c0,1.0504.362,2.0133,1.6824,2.0133.6389,0,1.1074-.2188,1.4695-.7878h.0426v.3939c0,.197.0852.2845.2556.2845h.6389c.1704,0,.2556-.0875.2556-.2845v-4.0704c0-.197-.0852-.2845-.2556-.2845h-.6602c-.1704,0-.2556.0875-.2556.2845v1.8163c0,.9848-.4046,1.6413-1.1287,1.6413-.6389,0-.8519-.4814-.8519-1.3349M15.3185,14.2055c.0426-.1532,0-.2188-.1704-.2845-.3407-.1532-.7667-.2188-1.1074-.2188-.9796,0-1.7463.4377-1.7463,1.3787,0,.7222.4046,1.1161,1.0648,1.4006.7241.2845,1.0222.4377,1.0222.744,0,.372-.362.4814-.7241.4814-.6176,0-.8945-.3064-1.0648-.3064-.1278,0-.1917.0657-.213.2188l-.0426.4377c-.0213.1313.0213.2407.1704.3283.2982.1532.7667.2407,1.1926.2407.9371,0,1.8741-.3939,1.8741-1.4662,0-.6565-.2982-1.0723-1.0648-1.4006-.6176-.2626-1.0222-.4158-1.0222-.744,0-.2407.2556-.3939.6176-.3939.5111,0,.7667.2188.9371.2188.1065,0,.1704-.0438.1917-.1751l.0852-.4596M20.5362,18.1446c0,1.6632-.8732,2.4072-2.5556,2.4072-.4685,0-1.0222-.1094-1.3843-.2626-.2556-.1094-.2982-.1751-.2556-.3939l.0639-.4377c.0213-.1313.0852-.197.213-.197.213,0,.5537.3283,1.3843.3283.9158,0,1.3843-.4814,1.3843-1.4662v-.3283h-.0213c-.3194.5252-.8306.7003-1.4269.7003-1.3204,0-2.0019-1.0942-2.0019-2.4072,0-1.1817.6602-2.3853,1.9806-2.3853.6389,0,1.1287.2188,1.4695.6784h.0426v-.2626c0-.197.0852-.2845.2769-.2845h.6176c.1704,0,.2556.0875.2556.2845v4.0266h-.0426ZM19.3436,16.1313c0-.8972-.4685-1.4662-1.1287-1.4662-.7241,0-1.0861.7003-1.0861,1.4443,0,.7659.362,1.4443,1.0648,1.4443.7454-.0219,1.15-.6346,1.15-1.4224ZM21.3667,18.4729h.6602c.1917,0,.2769-.0875.2769-.2845v-1.8163c0-.8972.2982-1.6194,1.0435-1.6194.2343,0,.362.0438.4685.0438.1491,0,.2343-.0657.2343-.2407v-.5471c0-.1751-.0639-.2407-.1491-.2626s-.2343-.0438-.4046-.0438c-.5324,0-.8732.2407-1.1713.7659h-.0426v-.3501c0-.197-.0852-.2845-.2769-.2845h-.6389c-.1704,0-.2556.0875-.2556.2845v4.0922c0,.1751.0852.2626.2556.2626M25.0085,11.4701c.3833,0,.6815.3283.6815.7003,0,.3939-.2982.7003-.6815.7003-.362,0-.6815-.3283-.6815-.7003s.2982-.7003.6815-.7003ZM24.4122,14.0961c0-.197.0852-.2845.2556-.2845h.6602c.1704,0,.2556.0875.2556.2845v4.0922c0,.197-.0852.2845-.2556.2845h-.6602c-.1704,0-.2556-.0875-.2556-.2845v-4.0922ZM29.6298,17.8601c-.3194.5033-.8306.744-1.4482.744-1.363,0-2.0232-1.1817-2.0232-2.5166,0-1.1817.6815-2.3853,1.9593-2.3853.6602,0,1.1287.2188,1.4695.6784h.0213v-2.626c0-.197.0852-.3064.2769-.3064h.6602c.1704,0,.2556.1094.2556.3064v6.4338c0,.197-.0852.2845-.2556.2845h-.6176c-.1917,0-.2769-.0875-.2769-.2845v-.3283h-.0213ZM29.6085,16.1532c0-.8972-.4472-1.4881-1.1287-1.4881-.7241,0-1.0861.7003-1.0861,1.4443,0,.7659.362,1.4881,1.0648,1.4881.7241,0,1.15-.6346,1.15-1.4443Z"/></svg>

