<?xml version="1.0" encoding="UTF-8"?><svg id="Layer_1" xmlns="http://www.w3.org/2000/svg" viewBox="0 0 150 50"><defs><style>.cls-1{fill:#008bc0;}.cls-1,.cls-2,.cls-3,.cls-4{fill-rule:evenodd;}.cls-2{fill:#006095;}.cls-5{fill:#2939ff;opacity:.38;}.cls-4{fill:#69ac40;}</style></defs><rect class="cls-5" width="150" height="50"/><path class="cls-2" d="M37.9027,11.4567c-.5826-.4258-1.415-.8517-2.0809-.1703-.4162.4258-1.7479,2.1291-1.9977,2.6401-.4162.6813.0832,1.4478.4994,1.7885,2.0809,1.7885,8.3236,6.3022,15.8147,15.7556h0c.3329.4258,1.3318.7665,1.5815-.2555.0832-.3407.4994-2.3846.6659-3.5769.2497-1.6181-.4162-2.4698-.7491-2.8956-.6659-.6813-8.1571-8.8572-13.7339-13.2858"/><path class="cls-4" d="M30.9941,2.7699c-1.9977,1.022-6.2427,3.8324-6.4924,4.0028-.9988.5962-1.8312,1.533-.2497,2.4698,2.83,1.6181,5.9097,3.7473,6.7421,4.0879,1.4982.7665,1.9144.0852,2.9965-1.3626,1.2485-1.6181,2.4138-2.9808,3.5791-4.5989.3329-.4258,1.415-1.533.4162-2.2995-.4994-.3407-3.4959-1.9588-4.4947-2.2995-.5826-.1703-1.4982-.511-2.4971,0"/><path class="cls-2" d="M19.1747,42.2866c-2.6635-1.6181-2.3306-4.5138-1.4982-5.6209.7491-1.022,13.068-18.2254,13.3177-18.6512.9156-1.3626,1.9144-1.022,2.4971-.5962,1.4982,1.022,5.8265,4.8544,7.1583,6.3874.9156,1.022,0,2.3846-.4162,3.6621-.7491,2.2995-7.1583,14.0523-9.9883,18.4809,0,0-1.415,2.555-3.5791,1.1071-.8324-.511-7.2415-4.5989-7.4912-4.7693"/><path class="cls-1" d="M13.0153,7.3688c-1.5815.8517-3.8288,2.1291-4.9941,3.1511-1.1653.7665-.4162,1.7885.8324,2.2995,4.3282,1.8736,13.6506,7.3242,15.565,8.5165.7491.511,1.6647.9368,2.6635-.0852.4162-.4258,2.5803-3.2363,3.0797-3.9176.8324-1.1071.3329-2.044-.1665-2.4698-3.9121-2.8956-10.1547-6.2171-14.15-7.8352-.7491-.2555-1.7479-.2555-2.83.3407"/><path class="cls-3" d="M76.9809,31.3966c0,.3017-.1762.4224-.5873.4224h-2.2316c-.5873,0-.8809-.2414-1.0571-.7845l-1.1745-3.3793h-7.2233l-1.1745,3.3793c-.1762.5431-.4698.7845-1.0571.7845h-1.938c-.4111,0-.5873-.1207-.5873-.4224,0-.1207.0587-.2414.1175-.3621l6.1076-16.4139c.1762-.4828.4698-.7845.9984-.7845h2.584c.4698,0,.7634.3017.9983.8448l6.1076,16.4139c.0587.0603.1175.2414.1175.3017ZM68.4068,17.2758h-.1175l-2.6427,7.5432h5.3441l-2.584-7.5432ZM80.5045,25.6035v-5.9138c0-.5431-.2349-.7845-.7634-.7845h-1.8205c-.4698,0-.7047.2414-.7047.7845v6.819c0,2.8966.9983,5.5518,4.6394,5.5518,1.7618,0,3.0538-.6035,4.0521-2.1724h.1175v1.0862c0,.5431.2349.7845.7047.7845h1.7618c.4698,0,.7047-.2414.7047-.7845v-11.2242c0-.5431-.2349-.7845-.7047-.7845h-1.8205c-.4698,0-.7047.2414-.7047.7845v5.0087c0,2.7155-1.1158,4.5259-3.1125,4.5259-1.7618,0-2.3491-1.3276-2.3491-3.6811M98.8859,20.0517c.1175-.4224,0-.6035-.4698-.7845-.9396-.4224-2.1142-.6035-3.0538-.6035-2.7014,0-4.8156,1.2069-4.8156,3.8017,0,1.9914,1.1158,3.0776,2.9363,3.8621,1.9967.7845,2.8189,1.2069,2.8189,2.0517,0,1.0259-.9983,1.3276-1.9967,1.3276-1.7031,0-2.4665-.8448-2.9363-.8448-.3524,0-.5285.181-.5873.6035l-.1175,1.2069c-.0587.3621.0587.6638.4698.9052.8222.4224,2.1142.6638,3.2887.6638,2.584,0,5.1679-1.0862,5.1679-4.0431,0-1.8104-.8222-2.9569-2.9363-3.8621-1.7031-.7241-2.8189-1.1466-2.8189-2.0517,0-.6638.7047-1.0862,1.7031-1.0862,1.4094,0,2.1142.6035,2.584.6035.2936,0,.4698-.1207.5285-.4828l.2349-1.2672M113.2738,30.9138c0,4.5862-2.4078,6.638-7.0472,6.638-1.292,0-2.8189-.3017-3.8172-.7241-.7047-.3017-.8222-.4828-.7047-1.0862l.1762-1.2069c.0587-.3621.2349-.5431.5873-.5431.5873,0,1.5269.9052,3.8172.9052,2.5252,0,3.8172-1.3276,3.8172-4.0431v-.9052h-.0587c-.8809,1.4483-2.2903,1.931-3.9347,1.931-3.641,0-5.5203-3.0173-5.5203-6.638,0-3.2586,1.8205-6.5776,5.4616-6.5776,1.7618,0,3.1125.6035,4.0521,1.8707h.1175v-.7241c0-.5431.2349-.7845.7634-.7845h1.7031c.4698,0,.7047.2414.7047.7845v11.1035h-.1175ZM109.9852,25.3621c0-2.4742-1.292-4.0431-3.1125-4.0431-1.9967,0-2.9951,1.931-2.9951,3.9828,0,2.1121.9983,3.9828,2.9363,3.9828,2.0554-.0603,3.1712-1.75,3.1712-3.9224ZM115.5642,31.819h1.8205c.5285,0,.7634-.2414.7634-.7845v-5.0087c0-2.4742.8222-4.4655,2.8776-4.4655.646,0,.9983.1207,1.292.1207.4111,0,.646-.181.646-.6638v-1.5086c0-.4828-.1762-.6638-.4111-.7241s-.646-.1207-1.1158-.1207c-1.4682,0-2.4078.6638-3.23,2.1121h-.1175v-.9655c0-.5431-.2349-.7845-.7634-.7845h-1.7618c-.4698,0-.7047.2414-.7047.7845v11.2846c0,.4828.2349.7241.7047.7241M125.6064,12.5085c1.0571,0,1.8792.9052,1.8792,1.931,0,1.0862-.8222,1.931-1.8792,1.931-.9983,0-1.8792-.9052-1.8792-1.931s.8222-1.931,1.8792-1.931ZM123.962,19.75c0-.5431.2349-.7845.7047-.7845h1.8205c.4698,0,.7047.2414.7047.7845v11.2846c0,.5431-.2349.7845-.7047.7845h-1.8205c-.4698,0-.7047-.2414-.7047-.7845v-11.2846ZM138.35,30.1293c-.8809,1.3879-2.2903,2.0517-3.9934,2.0517-3.7585,0-5.579-3.2586-5.579-6.9397,0-3.2586,1.8792-6.5776,5.4028-6.5776,1.8205,0,3.1125.6035,4.0521,1.8707h.0587v-7.2414c0-.5431.2349-.8448.7634-.8448h1.8205c.4698,0,.7047.3017.7047.8448v17.7415c0,.5431-.2349.7845-.7047.7845h-1.7031c-.5285,0-.7634-.2414-.7634-.7845v-.9052h-.0587ZM138.2913,25.4224c0-2.4742-1.2333-4.1035-3.1125-4.1035-1.9967,0-2.9951,1.931-2.9951,3.9828,0,2.1121.9983,4.1035,2.9363,4.1035,1.9967,0,3.1712-1.75,3.1712-3.9828Z"/></svg>