<?xml version="1.0" encoding="UTF-8"?><svg id="Layer_1" xmlns="http://www.w3.org/2000/svg" viewBox="0 0 32 31.8814"><defs><style>.cls-1{fill:#acc76f;}.cls-2{fill-rule:evenodd;stroke:#2b543c;stroke-miterlimit:10;stroke-width:2px;}.cls-2,.cls-3{fill:#fff;}.cls-4{opacity:.4;}.cls-5{fill:#27886f;}.cls-6{fill:#036;}.cls-7{fill:#75ba6f;}.cls-8{fill:#27889e;}.cls-9{fill:#2b543c;}.cls-10{fill:#263a68;}.cls-11{fill:#15579e;}</style></defs><g class="cls-4"><path d="M10.1425,27.6219l-.1689-.0234c-5.8262-.8115-8.9717-2.6436-8.9736-3.9561-.002-1.7842,5.8384-4.3848,14.9951-4.3975,9.3174,0,15.0029,2.5361,15.0049,4.3535.002,1.3271-3.1855,3.1797-9.0957,3.999l-.1768.0244-5.6792,3.0439-5.9058-3.0439Z"/><path d="M16.0632,20.2454c8.9053,0,13.5798,2.3997,13.9301,3.3536-.2168.5577-2.4636,2.2095-8.2256,3.0074l-.3549.0491-.3157.1693-5.0578,2.7114-5.2872-2.7254-.3031-.1562-.3377-.047c-5.6743-.7894-7.8898-2.4179-8.1046-2.9676.3481-.9599,5.0387-3.3817,13.9893-3.3945h.0673M16.0632,18.2454c-.0237,0-.0461,0-.0698,0C7.1569,18.258-.0036,20.6746,0,23.6431c.0027,2.2335,4.0621,4.1422,9.8357,4.9454l6.2218,3.2072,5.9845-3.2082c5.8416-.8089,9.9608-2.7397,9.958-4.9902-.0037-2.9605-7.133-5.3519-15.9368-5.3519h0Z"/></g><polygon class="cls-2" points="25.5351 21.4435 16.1366 30.4992 5.9838 20.906 15.8815 19.7225 25.5351 21.4435"/><path class="cls-3" d="M16,23.7827c-8.2231,0-14.9131-5.1104-14.9131-11.3916S7.7769,1,16,1s14.9131,5.1099,14.9131,11.3911-6.6904,11.3916-14.9131,11.3916Z"/><path class="cls-9" d="M16,2c7.6717,0,13.913,4.6615,13.913,10.3912s-6.2414,10.3912-13.913,10.3912S2.087,18.121,2.087,12.3912,8.3283,2,16,2M16,0C7.2115,0,.087,5.5477.087,12.3912s7.1245,12.3912,15.913,12.3912,15.913-5.5477,15.913-12.3912S24.7885,0,16,0h0Z"/><path class="cls-6" d="M16.6082,2.8716c-.2144.1134-.4287.2268-.6431.3401l-.6431-.3401.6431-.3398.6431.3398Z"/><polyline class="cls-6" points="15.322 2.8716 15.9651 3.2118 15.9651 3.9595 15.322 3.6943"/><polyline class="cls-6" points="15.9651 3.2118 15.9651 3.9595 16.6082 3.6142 16.6082 2.8716"/><path class="cls-6" d="M16.517,4.8823c-.2144.1134-.4287.2268-.6431.3401l-.6431-.3401.6431-.3398.6431.3398Z"/><polyline class="cls-6" points="15.2308 4.8823 15.8739 5.2224 15.8739 5.9701 15.2308 5.705"/><polyline class="cls-6" points="15.8739 5.2224 15.8739 5.9701 16.517 5.6248 16.517 4.8823"/><path class="cls-8" d="M16.517,6.8929c-.2144.1134-.4287.2268-.6431.3401l-.6431-.3401.6431-.3398.6431.3398Z"/><polyline class="cls-8" points="15.2308 6.8929 15.8739 7.2331 15.8739 7.9808 15.2308 7.7156"/><polyline class="cls-8" points="15.8739 7.2331 15.8739 7.9808 16.517 7.6355 16.517 6.8929"/><path class="cls-6" d="M18.6323,3.8458c-.2144.1134-.4287.2268-.6431.3401l-.6431-.3401.6431-.3398.6431.3398Z"/><polyline class="cls-6" points="17.346 3.8458 17.9892 4.1859 17.9892 4.9337 17.346 4.6685"/><polyline class="cls-6" points="17.9892 4.1859 17.9892 4.9337 18.6323 4.5883 18.6323 3.8458"/><path class="cls-6" d="M20.3802,5.1198c-.2144.1134-.4287.2268-.6431.3401l-.6431-.3401.6431-.3398.6431.3398Z"/><polyline class="cls-6" points="19.094 5.1198 19.7371 5.4599 19.7371 6.2076 19.094 5.9425"/><polyline class="cls-6" points="19.7371 5.4599 19.7371 6.2076 20.3802 5.8623 20.3802 5.1198"/><path class="cls-11" d="M22.1281,6.4394c-.2144.1134-.4287.2268-.6431.3401l-.6431-.3401.6431-.3398.6431.3398Z"/><polyline class="cls-11" points="20.8419 6.4394 21.485 6.7795 21.485 7.5273 20.8419 7.2621"/><polyline class="cls-11" points="21.485 6.7795 21.485 7.5273 22.1281 7.1819 22.1281 6.4394"/><path class="cls-8" d="M23.6957,7.8671c-.2144.1134-.4287.2268-.6431.3401l-.6431-.3401.6431-.3398.6431.3398Z"/><polyline class="cls-8" points="22.4095 7.8671 23.0526 8.2072 23.0526 8.9549 22.4095 8.6898"/><polyline class="cls-8" points="23.0526 8.2072 23.0526 8.9549 23.6957 8.6096 23.6957 7.8671"/><path class="cls-11" d="M18.541,5.8564c-.2144.1134-.4287.2268-.6431.3401l-.6431-.3401.6431-.3398.6431.3398Z"/><polyline class="cls-11" points="17.2548 5.8564 17.8979 6.1966 17.8979 6.9443 17.2548 6.6791"/><polyline class="cls-11" points="17.8979 6.1966 17.8979 6.9443 18.541 6.599 18.541 5.8564"/><path class="cls-8" d="M20.289,7.1304c-.2144.1134-.4287.2268-.6431.3401l-.6431-.3401.6431-.3398.6431.3398Z"/><polyline class="cls-8" points="19.0027 7.1304 19.6458 7.4706 19.6458 8.2183 19.0027 7.9531"/><polyline class="cls-8" points="19.6458 7.4706 19.6458 8.2183 20.289 7.873 20.289 7.1304"/><path class="cls-5" d="M22.0369,8.45c-.2144.1134-.4287.2268-.6431.3401l-.6431-.3401.6431-.3398.6431.3398Z"/><polyline class="cls-5" points="20.7506 8.45 21.3938 8.7902 21.3938 9.5379 20.7506 9.2727"/><polyline class="cls-5" points="21.3938 8.7902 21.3938 9.5379 22.0369 9.1926 22.0369 8.45"/><path class="cls-7" d="M23.6045,9.8777c-.2144.1134-.4287.2268-.6431.3401l-.6431-.3401.6431-.3398.6431.3398Z"/><polyline class="cls-7" points="22.3183 9.8777 22.9614 10.2178 22.9614 10.9656 22.3183 10.7004"/><polyline class="cls-7" points="22.9614 10.2178 22.9614 10.9656 23.6045 10.6202 23.6045 9.8777"/><path class="cls-5" d="M18.541,7.8671c-.2144.1134-.4287.2268-.6431.3401l-.6431-.3401.6431-.3398.6431.3398Z"/><polyline class="cls-5" points="17.2548 7.8671 17.8979 8.2072 17.8979 8.9549 17.2548 8.6898"/><polyline class="cls-5" points="17.8979 8.2072 17.8979 8.9549 18.541 8.6096 18.541 7.8671"/><path class="cls-7" d="M20.289,9.141c-.2144.1134-.4287.2268-.6431.3401l-.6431-.3401.6431-.3398.6431.3398Z"/><polyline class="cls-7" points="19.0027 9.141 19.6458 9.4812 19.6458 10.2289 19.0027 9.9638"/><polyline class="cls-7" points="19.6458 9.4812 19.6458 10.2289 20.289 9.8836 20.289 9.141"/><path class="cls-1" d="M22.0369,10.4606c-.2144.1134-.4287.2268-.6431.3401l-.6431-.3401.6431-.3398.6431.3398Z"/><polyline class="cls-1" points="20.7506 10.4606 21.3938 10.8008 21.3938 11.5485 20.7506 11.2834"/><polyline class="cls-1" points="21.3938 10.8008 21.3938 11.5485 22.0369 11.2032 22.0369 10.4606"/><path class="cls-5" d="M25.1261,9.1072c-.2144.1134-.4287.2268-.6431.3401l-.6431-.3401.6431-.3398.6431.3398Z"/><polyline class="cls-5" points="23.8399 9.1072 24.483 9.4473 24.483 10.195 23.8399 9.9299"/><polyline class="cls-5" points="24.483 9.4473 24.483 10.195 25.1261 9.8497 25.1261 9.1072"/><path class="cls-6" d="M13.1627,3.9025c.2144.1134.4287.2268.6431.3401l.6431-.3401-.6431-.3398-.6431.3398Z"/><polyline class="cls-6" points="14.4489 3.9025 13.8058 4.2426 13.8058 4.9903 14.4489 4.7252"/><polyline class="cls-6" points="13.8058 4.2426 13.8058 4.9903 13.1627 4.645 13.1627 3.9025"/><path class="cls-6" d="M11.4148,5.1765c.2144.1134.4287.2268.6431.3401l.6431-.3401-.6431-.3398-.6431.3398Z"/><polyline class="cls-6" points="12.701 5.1765 12.0579 5.5166 12.0579 6.2643 12.701 5.9992"/><polyline class="cls-6" points="12.0579 5.5166 12.0579 6.2643 11.4148 5.919 11.4148 5.1765"/><path class="cls-11" d="M9.6669,6.4961c.2144.1134.4287.2268.6431.3401l.6431-.3401-.6431-.3398-.6431.3398Z"/><polyline class="cls-11" points="10.9531 6.4961 10.31 6.8362 10.31 7.5839 10.9531 7.3188"/><polyline class="cls-11" points="10.31 6.8362 10.31 7.5839 9.6669 7.2386 9.6669 6.4961"/><path class="cls-8" d="M8.0993,7.9237c.2144.1134.4287.2268.6431.3401l.6431-.3401-.6431-.3398-.6431.3398Z"/><polyline class="cls-8" points="9.3855 7.9237 8.7424 8.2639 8.7424 9.0116 9.3855 8.7465"/><polyline class="cls-8" points="8.7424 8.2639 8.7424 9.0116 8.0993 8.6663 8.0993 7.9237"/><path class="cls-11" d="M13.2539,5.9131c.2144.1134.4287.2268.6431.3401l.6431-.3401-.6431-.3398-.6431.3398Z"/><polyline class="cls-11" points="14.5401 5.9131 13.897 6.2533 13.897 7.001 14.5401 6.7358"/><polyline class="cls-11" points="13.897 6.2533 13.897 7.001 13.2539 6.6557 13.2539 5.9131"/><path class="cls-8" d="M11.506,7.1871c.2144.1134.4287.2268.6431.3401l.6431-.3401-.6431-.3398-.6431.3398Z"/><polyline class="cls-8" points="12.7922 7.1871 12.1491 7.5273 12.1491 8.275 12.7922 8.0098"/><polyline class="cls-8" points="12.1491 7.5273 12.1491 8.275 11.506 7.9297 11.506 7.1871"/><path class="cls-5" d="M9.7581,8.5067c.2144.1134.4287.2268.6431.3401l.6431-.3401-.6431-.3398-.6431.3398Z"/><polyline class="cls-5" points="11.0443 8.5067 10.4012 8.8469 10.4012 9.5946 11.0443 9.3294"/><polyline class="cls-5" points="10.4012 8.8469 10.4012 9.5946 9.7581 9.2493 9.7581 8.5067"/><path class="cls-7" d="M8.1905,9.9344c.2144.1134.4287.2268.6431.3401l.6431-.3401-.6431-.3398-.6431.3398Z"/><polyline class="cls-7" points="9.4767 9.9344 8.8336 10.2745 8.8336 11.0223 9.4767 10.7571"/><polyline class="cls-7" points="8.8336 10.2745 8.8336 11.0223 8.1905 10.6769 8.1905 9.9344"/><path class="cls-5" d="M13.2539,7.9237c.2144.1134.4287.2268.6431.3401l.6431-.3401-.6431-.3398-.6431.3398Z"/><polyline class="cls-5" points="14.5401 7.9237 13.897 8.2639 13.897 9.0116 14.5401 8.7465"/><polyline class="cls-5" points="13.897 8.2639 13.897 9.0116 13.2539 8.6663 13.2539 7.9237"/><path class="cls-7" d="M11.506,9.1977c.2144.1134.4287.2268.6431.3401l.6431-.3401-.6431-.3398-.6431.3398Z"/><polyline class="cls-7" points="12.7922 9.1977 12.1491 9.5379 12.1491 10.2856 12.7922 10.0205"/><polyline class="cls-7" points="12.1491 9.5379 12.1491 10.2856 11.506 9.9403 11.506 9.1977"/><path class="cls-1" d="M9.7581,10.5173c.2144.1134.4287.2268.6431.3401l.6431-.3401-.6431-.3398-.6431.3398Z"/><polyline class="cls-1" points="11.0443 10.5173 10.4012 10.8575 10.4012 11.6052 11.0443 11.3401"/><polyline class="cls-1" points="10.4012 10.8575 10.4012 11.6052 9.7581 11.2599 9.7581 10.5173"/><path class="cls-5" d="M6.6122,9.033c.2144.1134.4287.2268.6431.3401l.6431-.3401-.6431-.3398-.6431.3398Z"/><polyline class="cls-5" points="7.8984 9.033 7.2553 9.3731 7.2553 10.1208 7.8984 9.8557"/><polyline class="cls-5" points="7.2553 9.3731 7.2553 10.1208 6.6122 9.7755 6.6122 9.033"/><path class="cls-10" d="M8.5567,14.3622h-.8852s-.0991.0073-.1416-.1018l-.4887-1.2294h-2.4716l-.4816,1.2294s-.0425.1018-.1416.1018h-.8711c-.1062,0-.0708-.08-.0637-.1018.0071-.0146,2.2521-5.463,2.2521-5.463.0354-.0946.0921-.0946.0991-.0946h.8923c.0567,0,.0921.08.0921.0946,0,.0073,2.2663,5.463,2.2663,5.463,0,0,.0567.1018-.0567.1018ZM4.8811,12.2381h1.8555l-.9277-2.4005-.9278,2.4005Z"/><path class="cls-10" d="M25.8367,13.824c-.0142-.0146-.3045-.4219-.3045-.4219-.0496-.0727-.1346-.0582-.1629-.0509-.0212.0073-.3258.1091-.3258.1091-.2479.0873-.5382.1891-.9561.1891-.6941,0-.9419-.4583-.9419-.9311v-.1673h2.7549c.0991,0,.0921-.1164.0921-.0946v-.8947c0-1.0766-.7436-1.8113-1.9051-1.8113-1.1756,0-1.9192.7202-1.9192,1.8113v1.1275c0,1.0329.694,1.8113,1.9192,1.8113.2691,0,.7224-.0582,1.1119-.1673.4462-.131.602-.2546.6515-.3419.0354-.08-.0071-.1528-.0142-.1673ZM23.1455,11.5326c0-.5747.2833-.9238.9419-.9238.6516,0,.9278.3492.9278.9529v.1382h-1.8697v-.1673Z"/><path class="cls-10" d="M16.432,10.3105l-.4037.4656s-.0637.08-.1487.0509l-.085-.0291c-.2479-.08-.5878-.2037-.9419-.2037-.4107,0-.7153.1819-.7153.4801,0,.3055.3329.4292.5524.5165l.8357.2982c.6161.2182.9773.5747.9773,1.2366,0,.7638-.5807,1.3748-1.6714,1.3748-.5595,0-1.1969-.1673-1.5226-.3201,0,0-.0425-.0218-.1063-.0509-.1062-.0509-.0567-.1164-.0283-.1455.0212-.0291.4391-.5165.4391-.5165.0496-.0582.1062-.0437.1062-.0437.2125.0727.6657.2255,1.0623.2255.4745,0,.7719-.2183.7719-.5238,0-.2764-.3329-.451-.6445-.5674l-.779-.291c-.4108-.1528-.9419-.4219-.9419-1.2075,0-.822.6799-1.3167,1.643-1.3167.5878,0,1.0836.1455,1.4164.2982,0,0,.0779.0364.1062.0509.0425.0364.1841.1018.0779.2182Z"/><path class="cls-10" d="M21.5241,8.8047c0-.1164-.0991-.1018-.0991-.1018h-.772s-.0921-.0073-.0921.1091v3.7754l-2.4433-3.819c-.0496-.08-.1416-.0873-.2054-.0218-.2196.2401-.7011.7565-.7082.7711-.0142.0145-.0991.1018-.0991.211v4.5319s-.0071.1018.0991.1018h.7649c.1062,0,.0921-.1018.0921-.1018v-3.8918l2.4858,3.8918c.0779.1091.1771.1018.1771.1018h.6869c.1063,0,.0991-.1018.0991-.1018v-5.4557h.0142Z"/><path class="cls-10" d="M12.6287,9.9322v3.8045c0,.24-.1629.4437-.4249.5238-.4674.1455-.9561.2328-1.4802.2328-1.2748,0-1.9192-.6037-1.9192-1.7749v-2.7861c0-.1018.0991-.1018.0991-.1018h.779s.0992,0,.0992.1018v2.8224c0,.5747.3116.8875.9419.8875.3258,0,.6232-.0509.9278-.1236v-3.5863c0-.1091.0991-.1018.0991-.1018h.779c.0992,0,.0992.1018.0992.1018Z"/><path class="cls-10" d="M27.2957,8.7466c.0496-.0436.085-.0436.0991-.0436h.0779c.0142,0,.1062-.0073.1062.1018v1.0257h1.2252c.0354,0,.0991,0,.0991.1091v.662s.0071.1164-.0991.1164h-1.2252v2.386c0,.3565.1771.531.4816.531.1346,0,.2833-.0146.3045-.0218.0212,0,.0779-.0073.1275.0509,0,0,.4533.4801.4674.5019.0496.0509.0567.1018,0,.1455,0,0-.2479.1819-.9348.1964-.8074.0146-1.4306-.4874-1.4306-1.4185v-3.608c0-.1091.0708-.1673.0921-.1891.0142-.0218.6091-.5456.6091-.5456Z"/></svg>