<?xml version="1.0" encoding="UTF-8"?><svg id="Layer_1" xmlns="http://www.w3.org/2000/svg" viewBox="0 0 150 50"><defs><style>.cls-1{fill:#acc76f;}.cls-2{fill:#27886f;}.cls-3{fill:#036;}.cls-4{fill:#75ba6f;}.cls-5{fill:#27889e;}.cls-6{fill:#012160;opacity:.47;}.cls-7{fill:#263a68;}.cls-8{fill:#15579e;}</style></defs><rect class="cls-6" width="150" height="50"/><path class="cls-7" d="M64.8381,47.159h-3.5462s-.3972.0292-.5674-.4079l-1.9576-4.9247h-9.901l-1.9292,4.9247s-.1702.4079-.5674.4079h-3.4895c-.4255,0-.2837-.3206-.2553-.4079.0284-.0583,9.0216-21.8842,9.0216-21.8842.1419-.3788.3688-.3788.3972-.3788h3.5746c.2269,0,.3688.3205.3688.3788,0,.0291,9.0784,21.8842,9.0784,21.8842,0,0,.2269.4079-.2271.4079ZM50.1142,38.6501h7.4329l-3.7164-9.6162-3.7165,9.6162Z"/><path class="cls-7" d="M117.9008,45.5084c-.0434-.0447-.9339-1.294-.9339-1.294-.152-.2231-.4127-.1785-.4996-.1562-.0651.0223-.9991.3346-.9991.3346-.7602.2677-1.6507.5801-2.9322.5801-2.1286,0-2.8888-1.4054-2.8888-2.8556v-.5131h8.4491c.3041,0,.2824-.357.2824-.2901v-2.7441c0-3.3018-2.2805-5.5551-5.8426-5.5551-3.6055,0-5.8861,2.2086-5.8861,5.5551v3.458c0,3.1679,2.1285,5.5551,5.8861,5.5551.8254,0,2.2154-.1784,3.4101-.5131,1.3683-.4016,1.8461-.7808,1.9982-1.0486.1086-.2454-.0217-.4685-.0434-.5131ZM109.6472,38.4808c0-1.7625.8688-2.8333,2.8888-2.8333,1.9983,0,2.8453,1.0709,2.8453,2.9226v.4239h-5.7341v-.5132Z"/><path class="cls-7" d="M89.0576,34.7328l-1.2381,1.4278s-.1954.2454-.4561.1562l-.2607-.0892c-.7602-.2454-1.8027-.6247-2.8888-.6247-1.2597,0-2.1937.5577-2.1937,1.4724,0,.937,1.0208,1.3163,1.6942,1.584l2.5629.9147c1.8896.6693,2.9974,1.7624,2.9974,3.7927,0,2.3425-1.781,4.2165-5.1259,4.2165-1.7159,0-3.6707-.5132-4.6698-.9817,0,0-.1303-.0669-.3259-.1561-.3258-.1562-.1737-.357-.0868-.4462.0651-.0893,1.3466-1.584,1.3466-1.584.152-.1785.3258-.1339.3258-.1339.6516.2231,2.0417.6916,3.258.6916,1.4552,0,2.3674-.6694,2.3674-1.6063,0-.8478-1.0208-1.3832-1.9766-1.7402l-2.3892-.8924c-1.2598-.4685-2.8888-1.294-2.8888-3.7034,0-2.521,2.0851-4.038,5.0391-4.038,1.8027,0,3.3232.4462,4.344.9147,0,0,.2389.1115.3258.1562.1303.1115.5647.3123.239.6693Z"/><path class="cls-7" d="M104.6744,30.1148c0-.357-.3041-.3123-.3041-.3123h-2.3675s-.2824-.0223-.2824.3346v11.5786l-7.4933-11.7125c-.152-.2454-.4344-.2677-.6298-.0669-.6734.7362-2.1503,2.3202-2.172,2.3648-.0435.0446-.3041.3123-.3041.647v13.8989s-.0218.3123.3041.3123h2.3457c.3258,0,.2824-.3123.2824-.3123v-11.9357l7.6237,11.9357c.239.3346.543.3123.543.3123h2.1068c.3259,0,.3041-.3123.3041-.3123v-16.7322h.0435Z"/><path class="cls-7" d="M77.3931,33.5727v11.668c0,.7362-.4996,1.3609-1.3032,1.6063-1.4335.4462-2.9323.7138-4.5395.7138-3.9096,0-5.8861-1.8516-5.8861-5.4435v-8.5446c0-.3123.3041-.3123.3041-.3123h2.3892s.3042,0,.3042.3123v8.6561c0,1.7625.9556,2.7218,2.8887,2.7218.9991,0,1.9114-.1561,2.8454-.3792v-10.9987c0-.3346.3041-.3123.3041-.3123h2.3892c.3042,0,.3042.3123.3042.3123Z"/><path class="cls-7" d="M122.3755,29.9364c.152-.1339.2607-.1339.3041-.1339h.239c.0434,0,.3258-.0223.3258.3123v3.1457h3.7576c.1086,0,.3041,0,.3041.3346v2.0302s.0217.357-.3041.357h-3.7576v7.3175c0,1.0932.543,1.6286,1.4769,1.6286.4127,0,.8688-.0447.934-.067.0651,0,.2389-.0222.3909.1562,0,0,1.3901,1.4724,1.4335,1.5394.152.1561.1737.3123,0,.4462,0,0-.7602.5577-2.8671.6023-2.4761.0447-4.3874-1.4948-4.3874-4.3504v-11.0655c0-.3346.2172-.5131.2824-.58.0435-.0669,1.8679-1.6732,1.8679-1.6732Z"/><path class="cls-3" d="M55.5295,3.5198c-.7105.3758-1.421.7516-2.1316,1.1274l-2.1316-1.1274,2.1316-1.1263,2.1316,1.1263Z"/><polyline class="cls-3" points="51.2664 3.5198 53.3979 4.6472 53.3979 7.1255 51.2664 6.2466"/><polyline class="cls-3" points="53.3979 4.6472 53.3979 7.1255 55.5295 5.9809 55.5295 3.5198"/><path class="cls-3" d="M55.2271,10.184c-.7105.3758-1.421.7516-2.1316,1.1274l-2.1316-1.1274,2.1316-1.1263,2.1316,1.1263Z"/><polyline class="cls-3" points="50.964 10.184 53.0956 11.3114 53.0956 13.7897 50.964 12.9108"/><polyline class="cls-3" points="53.0956 11.3114 53.0956 13.7897 55.2271 12.6451 55.2271 10.184"/><path class="cls-5" d="M55.2271,16.8481c-.7105.3758-1.421.7516-2.1316,1.1274l-2.1316-1.1274,2.1316-1.1263,2.1316,1.1263Z"/><polyline class="cls-5" points="50.964 16.8481 53.0956 17.9755 53.0956 20.4539 50.964 19.575"/><polyline class="cls-5" points="53.0956 17.9755 53.0956 20.4539 55.2271 19.3093 55.2271 16.8481"/><path class="cls-3" d="M62.238,6.7485c-.7105.3758-1.421.7516-2.1316,1.1274l-2.1316-1.1274,2.1316-1.1263,2.1316,1.1263Z"/><polyline class="cls-3" points="57.9749 6.7485 60.1064 7.8759 60.1064 10.3543 57.9749 9.4754"/><polyline class="cls-3" points="60.1064 7.8759 60.1064 10.3543 62.238 9.2097 62.238 6.7485"/><path class="cls-3" d="M68.0314,10.9712c-.7105.3758-1.421.7516-2.1316,1.1274l-2.1316-1.1274,2.1316-1.1263,2.1316,1.1263Z"/><polyline class="cls-3" points="63.7683 10.9712 65.8998 12.0986 65.8998 14.5769 63.7683 13.698"/><polyline class="cls-3" points="65.8998 12.0986 65.8998 14.5769 68.0314 13.4323 68.0314 10.9712"/><path class="cls-8" d="M73.8247,15.3449c-.7105.3758-1.421.7516-2.1316,1.1274l-2.1316-1.1274,2.1316-1.1263,2.1316,1.1263Z"/><polyline class="cls-8" points="69.5616 15.3449 71.6932 16.4723 71.6932 18.9506 69.5616 18.0718"/><polyline class="cls-8" points="71.6932 16.4723 71.6932 18.9506 73.8247 17.8061 73.8247 15.3449"/><path class="cls-5" d="M79.0205,20.0769c-.7105.3758-1.421.7516-2.1316,1.1274l-2.1316-1.1274,2.1316-1.1263,2.1316,1.1263Z"/><polyline class="cls-5" points="74.7574 20.0769 76.889 21.2043 76.889 23.6826 74.7574 22.8038"/><polyline class="cls-5" points="76.889 21.2043 76.889 23.6826 79.0205 22.538 79.0205 20.0769"/><path class="cls-8" d="M61.9357,13.4127c-.7105.3758-1.421.7516-2.1316,1.1274-.7105-.3758-1.421-.7516-2.1316-1.1274l2.1316-1.1263,2.1316,1.1263Z"/><polyline class="cls-8" points="57.6726 13.4127 59.8041 14.5401 59.8041 17.0185 57.6726 16.1396"/><polyline class="cls-8" points="59.8041 14.5401 59.8041 17.0185 61.9357 15.8739 61.9357 13.4127"/><path class="cls-5" d="M67.729,17.6353c-.7105.3758-1.421.7516-2.1316,1.1274-.7105-.3758-1.421-.7516-2.1316-1.1274l2.1316-1.1263,2.1316,1.1263Z"/><polyline class="cls-5" points="63.4659 17.6353 65.5975 18.7627 65.5975 21.2411 63.4659 20.3622"/><polyline class="cls-5" points="65.5975 18.7627 65.5975 21.2411 67.729 20.0965 67.729 17.6353"/><path class="cls-2" d="M73.5224,22.0091c-.7105.3758-1.421.7516-2.1316,1.1274l-2.1316-1.1274,2.1316-1.1263,2.1316,1.1263Z"/><polyline class="cls-2" points="69.2593 22.0091 71.3909 23.1365 71.3909 25.6148 69.2593 24.736"/><polyline class="cls-2" points="71.3909 23.1365 71.3909 25.6148 73.5224 24.4702 73.5224 22.0091"/><path class="cls-4" d="M78.7182,26.7411c-.7105.3758-1.421.7516-2.1316,1.1274l-2.1316-1.1274,2.1316-1.1263,2.1316,1.1263Z"/><polyline class="cls-4" points="74.4551 26.7411 76.5866 27.8685 76.5866 30.3468 74.4551 29.4679"/><polyline class="cls-4" points="76.5866 27.8685 76.5866 30.3468 78.7182 29.2022 78.7182 26.7411"/><path class="cls-2" d="M61.9357,20.0769c-.7105.3758-1.421.7516-2.1316,1.1274l-2.1316-1.1274,2.1316-1.1263,2.1316,1.1263Z"/><polyline class="cls-2" points="57.6726 20.0769 59.8041 21.2043 59.8041 23.6826 57.6726 22.8038"/><polyline class="cls-2" points="59.8041 21.2043 59.8041 23.6826 61.9357 22.538 61.9357 20.0769"/><path class="cls-4" d="M67.729,24.2995c-.7105.3758-1.421.7516-2.1316,1.1274l-2.1316-1.1274,2.1316-1.1263,2.1316,1.1263Z"/><polyline class="cls-4" points="63.4659 24.2995 65.5975 25.4269 65.5975 27.9052 63.4659 27.0264"/><polyline class="cls-4" points="65.5975 25.4269 65.5975 27.9052 67.729 26.7607 67.729 24.2995"/><path class="cls-1" d="M73.5224,28.6733c-.7105.3758-1.421.7516-2.1316,1.1274-.7105-.3758-1.421-.7516-2.1316-1.1274l2.1316-1.1263,2.1316,1.1263Z"/><polyline class="cls-1" points="69.2593 28.6733 71.3909 29.8007 71.3909 32.279 69.2593 31.4001"/><polyline class="cls-1" points="71.3909 29.8007 71.3909 32.279 73.5224 31.1344 73.5224 28.6733"/><path class="cls-2" d="M83.7615,24.1872c-.7105.3758-1.421.7516-2.1316,1.1274l-2.1316-1.1274,2.1316-1.1263,2.1316,1.1263Z"/><polyline class="cls-2" points="79.4984 24.1872 81.6299 25.3146 81.6299 27.7929 79.4984 26.914"/><polyline class="cls-2" points="81.6299 25.3146 81.6299 27.7929 83.7615 26.6483 83.7615 24.1872"/><path class="cls-3" d="M44.1094,6.9365c.7105.3758,1.421.7516,2.1316,1.1274l2.1316-1.1274-2.1316-1.1263-2.1316,1.1263Z"/><polyline class="cls-3" points="48.3725 6.9365 46.2409 8.0639 46.2409 10.5422 48.3725 9.6633"/><polyline class="cls-3" points="46.2409 8.0639 46.2409 10.5422 44.1094 9.3976 44.1094 6.9365"/><path class="cls-3" d="M38.316,11.1591c.7105.3758,1.421.7516,2.1316,1.1274l2.1316-1.1274-2.1316-1.1263-2.1316,1.1263Z"/><polyline class="cls-3" points="42.5791 11.1591 40.4476 12.2865 40.4476 14.7648 42.5791 13.8859"/><polyline class="cls-3" points="40.4476 12.2865 40.4476 14.7648 38.316 13.6202 38.316 11.1591"/><path class="cls-8" d="M32.5226,15.5328c.7105.3758,1.421.7516,2.1316,1.1274l2.1316-1.1274-2.1316-1.1263-2.1316,1.1263Z"/><polyline class="cls-8" points="36.7858 15.5328 34.6542 16.6602 34.6542 19.1386 36.7858 18.2597"/><polyline class="cls-8" points="34.6542 16.6602 34.6542 19.1386 32.5226 17.994 32.5226 15.5328"/><path class="cls-5" d="M27.3269,20.2648c.7105.3758,1.421.7516,2.1316,1.1274l2.1316-1.1274-2.1316-1.1263-2.1316,1.1263Z"/><polyline class="cls-5" points="31.59 20.2648 29.4584 21.3922 29.4584 23.8705 31.59 22.9917"/><polyline class="cls-5" points="29.4584 21.3922 29.4584 23.8705 27.3269 22.726 27.3269 20.2648"/><path class="cls-8" d="M44.4117,13.6006c.7105.3758,1.421.7516,2.1316,1.1274l2.1316-1.1274-2.1316-1.1263-2.1316,1.1263Z"/><polyline class="cls-8" points="48.6748 13.6006 46.5433 14.728 46.5433 17.2064 48.6748 16.3275"/><polyline class="cls-8" points="46.5433 14.728 46.5433 17.2064 44.4117 16.0618 44.4117 13.6006"/><path class="cls-5" d="M38.6184,17.8232c.7105.3758,1.421.7516,2.1316,1.1274l2.1316-1.1274-2.1316-1.1263-2.1316,1.1263Z"/><polyline class="cls-5" points="42.8815 17.8232 40.7499 18.9506 40.7499 21.429 42.8815 20.5501"/><polyline class="cls-5" points="40.7499 18.9506 40.7499 21.429 38.6184 20.2844 38.6184 17.8232"/><path class="cls-2" d="M32.825,22.197c.7105.3758,1.421.7516,2.1316,1.1274l2.1316-1.1274-2.1316-1.1263-2.1316,1.1263Z"/><polyline class="cls-2" points="37.0881 22.197 34.9565 23.3244 34.9565 25.8027 37.0881 24.9239"/><polyline class="cls-2" points="34.9565 23.3244 34.9565 25.8027 32.825 24.6582 32.825 22.197"/><path class="cls-4" d="M27.6292,26.929c.7105.3758,1.421.7516,2.1316,1.1274.7105-.3758,1.421-.7516,2.1316-1.1274l-2.1316-1.1263-2.1316,1.1263Z"/><polyline class="cls-4" points="31.8923 26.929 29.7608 28.0564 29.7608 30.5347 31.8923 29.6559"/><polyline class="cls-4" points="29.7608 28.0564 29.7608 30.5347 27.6292 29.3901 27.6292 26.929"/><path class="cls-2" d="M44.4117,20.2648c.7105.3758,1.421.7516,2.1316,1.1274.7105-.3758,1.421-.7516,2.1316-1.1274l-2.1316-1.1263-2.1316,1.1263Z"/><polyline class="cls-2" points="48.6748 20.2648 46.5433 21.3922 46.5433 23.8705 48.6748 22.9917"/><polyline class="cls-2" points="46.5433 21.3922 46.5433 23.8705 44.4117 22.726 44.4117 20.2648"/><path class="cls-4" d="M38.6184,24.4874c.7105.3758,1.421.7516,2.1316,1.1274.7105-.3758,1.421-.7516,2.1316-1.1274l-2.1316-1.1263-2.1316,1.1263Z"/><polyline class="cls-4" points="42.8815 24.4874 40.7499 25.6148 40.7499 28.0932 42.8815 27.2143"/><polyline class="cls-4" points="40.7499 25.6148 40.7499 28.0932 38.6184 26.9486 38.6184 24.4874"/><path class="cls-1" d="M32.825,28.8612c.7105.3758,1.421.7516,2.1316,1.1274.7105-.3758,1.421-.7516,2.1316-1.1274l-2.1316-1.1263-2.1316,1.1263Z"/><polyline class="cls-1" points="37.0881 28.8612 34.9565 29.9886 34.9565 32.4669 37.0881 31.5881"/><polyline class="cls-1" points="34.9565 29.9886 34.9565 32.4669 32.825 31.3223 32.825 28.8612"/><path class="cls-2" d="M22.398,23.9413c.7105.3758,1.421.7516,2.1316,1.1274l2.1316-1.1274-2.1316-1.1263-2.1316,1.1263Z"/><polyline class="cls-2" points="26.6611 23.9413 24.5296 25.0687 24.5296 27.547 26.6611 26.6682"/><polyline class="cls-2" points="24.5296 25.0687 24.5296 27.547 22.398 26.4024 22.398 23.9413"/></svg>