<?xml version="1.0" encoding="UTF-8"?><svg id="Layer_1" xmlns="http://www.w3.org/2000/svg" viewBox="0 0 32 31.9769"><defs><style>.cls-1{fill:#0068ff;}.cls-2,.cls-3{fill:#fff;}.cls-4{opacity:.4;}.cls-5{fill:#005a8f;}.cls-5,.cls-3,.cls-6,.cls-7{fill-rule:evenodd;}.cls-3{stroke:#ff2727;stroke-miterlimit:10;stroke-width:2px;}.cls-6{fill:#c71053;}.cls-7{fill:#ff2727;}</style></defs><g class="cls-4"><path d="M10.1422,27.7173l-.1689-.0234c-5.8262-.8115-8.9717-2.6436-8.9731-3.9561-.0024-1.7852,5.8379-4.3848,14.9946-4.3965,9.3203,0,15.0029,2.5352,15.0049,4.3525.002,1.3271-3.1855,3.1797-9.0957,3.999l-.1768.0244-5.6787,3.0439-5.9062-3.0439Z"/><path d="M16.0632,20.3409c8.9053,0,13.5798,2.3997,13.9301,3.3536-.2168.5577-2.4636,2.2095-8.2256,3.0074l-.3549.0491-.3157.1693-5.0578,2.7114-5.2872-2.7254-.3031-.1562-.3377-.047c-5.6743-.7894-7.8898-2.4179-8.1046-2.9676.3481-.9599,5.0387-3.3817,13.9893-3.3945h.0673M16.0632,18.3409c-.0237,0-.0461,0-.0698,0C7.1569,18.3535-.0036,20.7701,0,23.7386c.0027,2.2335,4.0621,4.1422,9.8357,4.9454l6.2218,3.2072,5.9845-3.2082c5.8416-.8089,9.9608-2.7397,9.958-4.9902-.0037-2.9605-7.133-5.3519-15.9368-5.3519h0Z"/></g><polygon class="cls-3" points="25.5351 21.539 16.1366 30.5947 5.9838 21.0015 15.8815 19.818 25.5351 21.539"/><path class="cls-2" d="M16.0869,23.7825c-8.2231,0-14.9131-5.1104-14.9131-11.3911S7.8638.9998,16.0869.9998s14.9131,5.1104,14.9131,11.3916-6.6904,11.3911-14.9131,11.3911Z"/><path class="cls-1" d="M16.087,2c7.6717,0,13.913,4.6615,13.913,10.3912s-6.2414,10.3912-13.913,10.3912S2.1739,18.121,2.1739,12.3912,8.4153,2,16.087,2M16.087,0C7.2984,0,.1739,5.5477.1739,12.3912s7.1245,12.3912,15.913,12.3912,15.913-5.5477,15.913-12.3912S24.8755,0,16.087,0h0Z"/><path class="cls-6" d="M17.0573,8.4078l-.0265-.0212.0194-.0269.2953-.4119-.5068.1061-.0334.007-.0098-.0316-.1494-.4797-.2303.4489-.0151.0292-.0318-.0122-.4816-.186.2202.4533.0143.0303-.0297.016-.451.2473.5044.1167.0334.0078-.0053.0329-.0531.3234-.0281.1708.4362-.3281.373.3943.0027-.2347.0032-.2662v-.0331l.0342-.0021.5177-.0339-.402-.3164Z"/><path class="cls-5" d="M11.0399,13.1138l.004-.0002c.0092,0,.019.0008.0284.0012"/><path class="cls-5" d="M16.9485,10.8392c-.0655.1689-.2078.3066-.4046.3066-.2335,0-.398-.201-.4776-.3948-.0841-.2005-.1136-.4398-.1136-.6579,0-.155.0183-.3345.0839-.4792.0732-.1547.2045-.2991.3943-.2991.2369,0,.4083.2078.4882.4013.0804.2042.1024.4401.1024.6585,0,.1516-.0146.3239-.073.4647q.0045-.0109,0,0ZM17.441,9.3182c-.13-.1159-.2918-.1922-.4635-.2398l-.0037.3068-.0008.0911-.0631-.0673-.3717-.392c-.0128-.0005-.0257-.0015-.0379-.0015l-.0056.0003-.4312.3244-.0743.0559.0149-.0893.0377-.2292c-.5235.1464-.891.5508-.891,1.1456,0,.3379.1202.6792.3831.9117.2515.2215.6307.31.9663.31.3317,0,.7148-.1056.9626-.3275.2441-.2181.3608-.5529.3608-.8693,0-.341-.1159-.6926-.3815-.9283l-.0011-.0015ZM15.528,5.9471c-3.0539,2.1249-5.9454.52.6458-3.4237-4.5399,3.5613-2.9833,4.114-.6458,3.4237ZM15.9907,3.6317c3.0539-2.1249,5.9459-.52-.6458,3.4232,4.5402-3.5611,2.9833-4.1137.6458-3.4232ZM8.3956,11.4314c-.0448-.0212-.0982-.0176-.1473-.0129l-.5389.0259c-.468,0-.9358-.0944-1.3011-.3873-.3834-.3053-.575-.7529-.575-1.2256,0-.3744.1382-.7531.4412-.9987.321-.2535.7084-.3309,1.1096-.3309.1292,0,.2494.013.3563.0215.1069.0129.2006.0261.2765.0261.0714,0,.1422-.0217.1735-.0864l.2051.8132-.0358.0129c-.1648-.3746-.5702-.5635-.9756-.5635-.2942,0-.5304.0647-.731.288-.1916.215-.2852.5037-.2852.7873,0,.7485.5259,1.4196,1.3415,1.4196.4723,0,.7933-.2709.9846-.6711l.0446.0173-.3431.8649v-.0003Z"/><path class="cls-5" d="M9.3581,10.927c0,.194.004.3979.2372.4295v.0318h-.8756v-.0321c.2335-.0274.2372-.2106.2372-.4044v-1.4188c0-.1935-.0037-.3979-.2369-.4295v-.0316h.8753v.0313c-.2335.0352-.2372.2147-.2372.4083v1.4155ZM10.9222,10.9309c0,.2142.0034.4186.2369.4256v.0318h-.8753v-.0318c.2335-.007.2372-.1933.2372-.4049v-1.6967c-.4449,0-.7222.1371-.8607.4786l-.0329-.0103.1788-.697c.0472.06.1459.0458.2149.0458h1.4007c.0692,0,.1679.0142.2149-.0458l.1786.6967-.0326.0103c-.1385-.3412-.416-.4786-.8605-.4786v1.6763ZM12.4935,10.927c0,.194.0034.3979.2372.4295v.0318h-.8756v-.0321c.2335-.0274.2372-.2106.2372-.4044v-1.4188c0-.1935-.0034-.3979-.2372-.4295v-.0316h.8756v.0313c-.2335.0352-.2372.2147-.2372.4083v1.4155ZM13.7946,10.0678c.2483-.0525.6275-.1971.6275-.4853,0-.2047-.1823-.2784-.3685-.2784-.2478,0-.2589.0916-.2589.2957v.4683-.0003ZM13.0469,9.5115c0-.2463-.0438-.3552-.1929-.3519v-.088h1.528c.1494,0,.3938,0,.5291.0424.1674.0492.2839.1759.2839.3519,0,.5459-.9737.757-1.4004.8592v.623c0,.2466.0732.3557.2229.3521v.088h-1.1634v-.088c.1491.0036.1929-.1056.1929-.3519v-1.4369ZM20.5041,9.4733c.0106-.0492.0255-.1061.0255-.1586,0-.0913-.0475-.1408-.1385-.1547v-.0885h.6782v.0885c-.204.0492-.2154.1935-.2478.3591l-.299,1.3945c-.0149.0698-.0403.1754-.0403.2458,0,.088.0292.1268.1167.1407v.088h-1.1746v-.088c.07-.007.1096-.0419.1096-.1162,0-.0458-.018-.1193-.0255-.1689l-.2003-1.1089-.2006,1.1197c-.0074.0458-.0255.1195-.0255.1684,0,.0709.0255.0885.091.1061v.088h-1.0865v-.088c.0653-.0106.113-.0461.113-.1164,0-.0419-.0292-.1793-.0366-.2248l-.252-1.3485c-.0326-.1767-.0584-.4297-.2913-.4507v-.0885h1.2035v.0885c-.1425.0104-.208.0841-.208.2251,0,.0843.0292.2147.0438.3027l.2223,1.3309.2773-1.556c.0074-.0458.0183-.0952.0183-.1446,0-.1019-.0584-.1581-.1608-.1581v-.0885h1.0653v.0885c-.1167.0207-.1534.0774-.1534.1866,0,.0525.0141.1371.0218.1899l.2481,1.4822.3065-1.5454ZM21.181,11.3883v-.0882c.1496.0036.2003-.1056.2003-.3519v-1.4367c0-.2458-.0504-.3552-.2003-.3516v-.0882h1.6556c.0915.0036.2369.0142.3062-.0562l.1862.8096-.0801.0246c-.1061-.341-.4198-.5456-.7843-.5456-.3571,0-.3354.1301-.3354.4121v.1123h.1167c.2404,0,.481.0246.4776-.2846l.073-.0109.1608.8941-.0732.007c-.0383-.0989-.0994-.188-.1786-.2603-.1425-.1268-.2953-.1131-.4779-.1131h-.0982v.7643c0,.2393.0653.3309.3534.3309.467,0,.766-.2711.9591-.6548l.0767.0279-.3104.9154c-.0127-.0145-.0283-.0263-.0458-.0347s-.0366-.0133-.0561-.0145c-.0361-.007-.0767-.007-.1167-.007h-1.8087Z"/><path class="cls-5" d="M24.7228,9.3045c-.0727,0-.1897.0137-.2441.0665-.0403.0424-.0332.1307-.0332.1829v.5213c.2483-.0595.5834-.2005.5834-.4998,0-.1796-.1239-.2709-.3062-.2709.1823,0,0,0,0,0ZM23.7018,9.5123c0-.2466-.0512-.356-.2006-.3521v-.0885h1.641c.1496.0039.3099.0039.4487.0569.1274.0561.2115.1578.2115.2991,0,.2921-.2773.4859-.5176.6054.2693.2502.4813.6023.6087.9788.0406.1231.113.2887.2733.2887v.088h-1.2253v-.088c.0841-.0034.1499-.0212.1499-.1164,0-.2147-.3645-.7216-.5179-.8941l-.1279.0422v.6165c0,.2463.0512.3552.2006.3519v.088h-1.1446v-.088c.1494.0034.2006-.1056.2006-.3519v-1.4364h-.0003Z"/><path class="cls-7" d="M7.018,15.1234h.086c.2288-.0089.2957-.0029.292-.6538v-.7805c.008-.5878-.088-.6073-.3061-.6196h-.0719v2.0539ZM6.1606,16.744v-.0685h.2368v-3.606h-.2325v-.0682h.9989c.5724-.0089.8474.5798.8474,1.0999,0,.5313-.2231.9691-.6925,1.0815l-.3007.035v1.4578h.2104v.0685h-1.0678ZM8.6167,16.3658c0,.2397.0231.363.1509.363.1372,0,.1693-.1233.1693-.363v-2.0588c0-.2096-.0519-.3507-.1693-.3507-.1178,0-.1509.1411-.1509.3507v2.0588ZM9.3038,14.2239c.1475.2451.2412.6515.2412,1.0827,0,.4496-.0565.7389-.1987,1.0265-.1425.2873-.3743.4485-.5747.4485-.1997,0-.4315-.152-.574-.4399-.1425-.2879-.2074-.5855-.2074-1.0351,0-.4312.085-.8201.2328-1.0658.1418-.2397.3593-.3636.5486-.3636.1903,0,.3897.1066.5322.3464v.0003ZM17.509,16.3658c0,.2397.0234.363.1512.363.1372,0,.1693-.1233.1693-.363v-2.0588c0-.2096-.0522-.3507-.1693-.3507-.1181,0-.1512.1411-.1512.3507v2.0588ZM18.1961,14.2239c.1475.2451.2409.6515.2409,1.0827,0,.4496-.0559.7389-.1987,1.0265-.1418.2873-.374.4485-.5744.4485s-.4315-.152-.5737-.4399c-.1432-.2879-.2081-.5855-.2081-1.0351,0-.4312.0856-.8201.2332-1.0658.1425-.2397.3589-.3636.5486-.3636.1903,0,.3901.1066.5322.3464v.0003ZM16.7463,15.6975s.0084.1956-.0994.5227c-.1077.328-.4262.496-.5643.496-.1599,0-.2649-.111-.2649-.3506v-2.0579c0-.2096.0529-.3859.2158-.3859.1174,0,.2693.0929.3807.3427.094.2105.2589.9052.2589.9052l.0345.0011.0033-1.2866c-.0171.0029-.0191.0017-.0304.0009-.1696.4229-.3666-.014-.6727-.0072-.2459.0057-.4155.1233-.558.363-.1479.2457-.2522.6343-.2522,1.0661,0,.4496.0652.7598.2074,1.048.1425.2876.4138.431.6286.4224.2773-.0109.5055-.1869.6346-.4462.0937-.1884.1204-.3877.1335-.6371l-.0552.0037v-.0003ZM9.4982,13.9223h.9263v.0697l-.2044.0006.2974,1.7373.1693-1.0354-.1074-.7025h-.102v-.0697h.8765v.0697h-.193l.3027,1.752.1877-1.167c.0733-.4903-.0294-.5442-.1067-.5634l-.082-.0218v-.0694h.5637v.0697c-.1445,0-.2245.158-.3101.6624l-.3375,2.0894h-.3375l-.3001-1.838-.3191,1.838h-.3041l-.468-2.7518h-.1512v-.0697h-.0003ZM12.8675,15.3846v-1.1315c0-.2096-.0191-.3275-.1515-.3275-.1151,0-.1418.1374-.1418.3229v1.1355h.2934v.0006ZM12.5741,15.4506v.3297c.0013.6291-.0348.9623.3004.9477.2372-.01.6376-.4791.5981-1.0236h.0706c.0013.4688-.1907.8312-.4225.9686-.2626.156-.5132.1577-.7641-.0533-.2489-.2093-.4386-.5935-.4386-1.2771,0-.9588.4081-1.4781.7855-1.4781.4332,0,.8105.5247.8055,1.5859h-.935v.0003ZM13.7664,14.1832c-.0452-.0195-.1599-.0129-.1599-.0129v-.066c.2576,0,.5777-.0926.7724-.2672v.3882s.177-.3383.3536-.3533c.1576-.0132.4269.0654.4064.6165-.0147.4129-.1689.513-.3519.4938-.1639-.0178-.2971-.2337-.2194-.5692.0141-.0602.086-.2257.2318-.23.0803-.0026.1994.086.1994.086,0,0-.0114-.3057-.182-.3223-.1418-.0138-.1967.0361-.3295.2348-.1071.16-.1111.367-.1111.367l.0017,2.123h.1907v.0723h-.9413v-.0723h.1806v-2.3971s.0043-.0717-.0415-.0915ZM18.737,14.1832c-.0458-.0195-.1599-.0129-.1599-.0129v-.066c.2572,0,.5771-.0926.7724-.2672v.3882s.1766-.3383.3536-.3533c.1572-.0132.4262.0654.4068.6165-.0151.4129-.1703.513-.3519.4938-.1646-.0178-.2974-.2337-.2201-.5692.0141-.0602.0853-.2257.2318-.23.0803-.0026.199.086.199.086,0,0-.0107-.3057-.182-.3223-.1408-.0138-.196.0361-.3288.2348-.1074.16-.1114.367-.1114.367l.0017,2.123h.1907v.0723h-.9417v-.0723h.1813v-2.3971s.0037-.0717-.0415-.0915Z"/><path class="cls-7" d="M21.2603,13.1148v1.7927h.1434v-1.7927h-.1434ZM21.6766,14.95l.1362.0445.5577-1.7054-.1365-.0438-.5574,1.7047ZM22.0588,15.1189l.1161.084,1.0609-1.4505-.1161-.084-1.0609,1.4505ZM22.3702,15.3966l.0843.1157,1.4598-1.0541-.0846-.1151-1.4595,1.0534ZM22.5798,15.7565l.0442.1351,1.7161-.5533-.0444-.1358-1.7158.554ZM22.6673,16.163v.1422h1.8044v-.1422h-1.8044ZM22.624,16.5764l-.0442.1351,1.7161.554.0442-.1355-1.7161-.5536ZM22.4542,16.9561l-.084.1151,1.4595,1.0541.0843-.1151-1.4598-1.0541ZM22.1749,17.2656l-.1158.0836,1.0603,1.4505.1158-.084-1.0603-1.4502ZM21.8128,17.4736l-.1362.0442.5574,1.7047.1362-.0435-.5574-1.7054ZM21.2603,17.5606v1.7927h.1434v-1.7927h-.1434ZM12.2271,18.6777l-.0492-.6666h-.0157l-.0585.6666h.1234ZM11.9963,17.7181h.3563l.1813,1.604h-.2399l-.0445-.435h-.1676l-.0515.435h-.2151l.181-1.604ZM13.4244,17.7181v1.3651c0,.2093-.1636.2701-.3118.2701-.1452,0-.3084-.0608-.3084-.2701v-1.3649h.2375v1.3445c0,.0809.0244.0992.0733.0992.0472,0,.0719-.0183.0719-.0992v-1.3448h.2375ZM15.2673,17.7181v.2093h-.1935v1.3944h-.2234v-1.3947h-.1954v-.209h.6123ZM15.7885,18.3827h.0452c.0823,0,.1-.0453.1-.1038v-.2907c0-.0605-.0351-.0786-.089-.0786h-.0565v.4731h.0003ZM15.5516,19.322v-1.604h.3131c.19,0,.3064.0677.3064.2747v.2277c0,.1196-.0335.2185-.2348.2411v.0043c.105.0135.2171.0493.2261.1958.0137.2142,0,.4393.0381.6603h-.2375c-.0401-.1847-.0294-.4255-.0294-.6127,0-.0966-.0351-.1347-.1452-.1307v.7435h-.2368ZM16.8536,18.6777l-.0492-.6666h-.0161l-.0582.6666h.1234ZM16.6228,17.7181h.3563l.1813,1.604h-.2399l-.0445-.435h-.1679l-.0519.435h-.2141l.1803-1.604h.0003ZM17.437,19.3218v-1.6037h.2375v1.3944h.3017v.2093h-.5393ZM18.2291,19.3218h.2368v-1.6037h-.2368v1.6037ZM19.1554,18.6777l-.0488-.6666h-.0157l-.0585.6666h.1231ZM18.925,17.7181h.3559l.1813,1.604h-.2395l-.0448-.435h-.1676l-.0519.435h-.2148l.1813-1.604ZM13.981,17.977c0-.0809.0244-.0995.0733-.0995.0475,0,.0719.0187.0719.0995v.1738h.2375v-.1938c0-.2093-.1636-.2704-.3111-.2704-.1455,0-.3091.0611-.3091.2704v.2294c0,.2615.3827.4817.3827.7074v.1692c0,.0814-.0244.0989-.0716.0989-.0492,0-.0736-.0175-.0736-.0989v-.1761h-.2375v.1964c0,.2093.1636.2701.3091.2701.1475,0,.3111-.0608.3111-.2701v-.2838c0-.162-.3827-.5087-.3827-.6245v-.1978Z"/></svg>