<?xml version="1.0" encoding="UTF-8"?><svg id="Layer_1" xmlns="http://www.w3.org/2000/svg" viewBox="0 0 150 50"><defs><style>.cls-1{fill:#1d6fff;}.cls-1,.cls-2{opacity:.3;}.cls-2{fill:red;}.cls-3{fill:#005a8f;}.cls-3,.cls-4,.cls-5{fill-rule:evenodd;}.cls-4{fill:#c71053;}.cls-5{fill:#ff2727;}</style></defs><path class="cls-2" d="M42.1728,0H0v50h94.7551"/><path class="cls-1" d="M137.059,0H42.304l52.5823,50h55.1137V0h-12.941Z"/><path class="cls-4" d="M45.9088,29.9344l-.0919-.0735.0671-.0932,1.0236-1.4276-1.7565.3676-.1158.0242-.0341-.1094-.5177-1.6625-.7982,1.5558-.0525.1013-.1103-.0421-1.6691-.6448.7633,1.571.0496.1049-.103.0556-1.5633.8573,1.7481.4044.1158.0269-.0184.1139-.1839,1.1209-.0974.5918,1.5118-1.137,1.2929,1.3666.0092-.8134.0111-.9227v-.1148l.1186-.0071,1.7942-.1175-1.3932-1.0967Z"/><path class="cls-3" d="M45.5319,38.3615c-.2271.5855-.7201,1.0626-1.4024,1.0626-.8092,0-1.3794-.6968-1.6553-1.3684-.2915-.6949-.3936-1.5244-.3936-2.2804,0-.5371.0634-1.1595.2906-1.6607.2538-.5362.709-1.0366,1.3665-1.0366.8212,0,1.4152.7201,1.6921,1.3908.2786.7076.3549,1.5254.3549,2.2822,0,.5254-.0506,1.1227-.2529,1.6105q.0156-.0377,0,0ZM47.2387,33.0897c-.4506-.4017-1.0115-.6662-1.6065-.8312l-.0129,1.0635-.0028.3157-.2189-.2332-1.2884-1.3585c-.0442-.0018-.0892-.0054-.1315-.0054l-.0193.0009-1.4944,1.1244-.2575.1937.0515-.3094.1306-.7945c-1.8144.5076-3.0881,1.9092-3.0881,3.9707,0,1.1712.4166,2.3539,1.3279,3.1601.8718.7676,2.1859,1.0743,3.3492,1.0743,1.1495,0,2.4774-.3659,3.3363-1.1352.846-.7559,1.2506-1.9163,1.2506-3.013,0-1.1819-.4019-2.4005-1.3224-3.2174l-.0037-.0054ZM40.6083,21.4055c-10.5845,7.3648-20.6063,1.8024,2.2383-11.8663-15.7352,12.3434-10.3399,14.2587-2.2383,11.8663ZM42.2121,13.3808c10.5845-7.3647,20.6081-1.8024-2.2383,11.8645,15.7362-12.3425,10.3399-14.2579,2.2383-11.8645ZM15.8879,40.4141c-.1554-.0735-.3403-.061-.5104-.0448l-1.8677.0897c-1.6222,0-3.2434-.3273-4.5097-1.3425-1.3288-1.0581-1.9928-2.6095-1.9928-4.2477,0-1.2976.4791-2.6103,1.5293-3.4613,1.1127-.8788,2.4553-1.1469,3.8458-1.1469.4478,0,.8644.0449,1.235.0745.3706.0448.6952.0905.9582.0905.2474,0,.4929-.0753.6014-.2995l.7109,2.8184-.1242.0448c-.5711-1.2984-1.9762-1.953-3.3814-1.953-1.0198,0-1.8383.2242-2.5335.9981-.6639.7452-.9886,1.7459-.9886,2.7287,0,2.5942,1.8226,4.9203,4.6495,4.9203,1.6369,0,2.7496-.9389,3.4126-2.3261l.1545.0601-1.189,2.9978v-.0009Z"/><path class="cls-3" d="M19.2241,38.6658c0,.6725.0138,1.3791.8221,1.4885v.1103h-3.0347v-.1112c.8093-.0951.8222-.7299.8222-1.4016v-4.9176c0-.6708-.0129-1.3791-.8213-1.4886v-.1094h3.0338v.1085c-.8092.122-.8221.7443-.8221,1.415v4.906ZM24.645,38.6792c0,.7425.012,1.4509.8213,1.4751v.1103h-3.0338v-.1103c.8092-.0242.8221-.6699.8221-1.4034v-5.8807c-1.5422,0-2.5031.4752-2.9832,1.6589l-.114-.0358.6198-2.4158c.1637.2081.5058.1587.7449.1587h4.8546c.24,0,.5821.0493.7448-.1587l.6189,2.4149-.1131.0359c-.48-1.1827-1.4419-1.6589-2.9823-1.6589v5.8098ZM30.0909,38.6658c0,.6725.012,1.3791.8221,1.4885v.1103h-3.0347v-.1112c.8093-.0951.8222-.7299.8222-1.4016v-4.9176c0-.6708-.012-1.3791-.8222-1.4886v-.1094h3.0347v.1085c-.8092.122-.8221.7443-.8221,1.415v4.906ZM34.6007,35.6877c.8607-.182,2.1748-.6833,2.1748-1.6822,0-.7093-.6317-.9649-1.2773-.9649-.8589,0-.8975.3174-.8975,1.0249v1.623-.0009ZM32.0092,33.7598c0-.8537-.1517-1.2312-.6685-1.2195v-.3049h5.2959c.5178,0,1.3647,0,1.8337.147.5803.1704.984.6098.984,1.2196,0,1.8921-3.3749,2.6238-4.8536,2.978v2.1593c0,.8546.2538,1.233.7725,1.2205v.3049h-4.0324v-.3049c.5168.0125.6685-.3659.6685-1.2196v-4.9804ZM57.8554,33.6271c.0368-.1704.0882-.3677.0882-.5497,0-.3166-.1646-.4879-.48-.5363v-.3066h2.3505v.3066c-.7072.1704-.7467.6708-.8589,1.2447l-1.0364,4.8333c-.0515.2421-.1398.608-.1398.8519,0,.3049.1012.4394.4046.4878v.3049h-4.071v-.3049c.2428-.0242.3798-.1453.3798-.4026,0-.1587-.0625-.4134-.0882-.5855l-.6943-3.8434-.6952,3.881c-.0257.1587-.0882.4143-.0882.5838,0,.2457.0882.3067.3154.3677v.3049h-3.7658v-.3049c.2262-.0368.3917-.1596.3917-.4035,0-.1453-.1012-.6215-.1269-.7793l-.8736-4.6737c-.1131-.6125-.2024-1.4895-1.0098-1.5621v-.3066h4.1713v.3066c-.4938.0359-.721.2915-.721.7802,0,.2923.1012.7443.1517,1.0491l.7706,4.6128.961-5.3929c.0257-.1587.0635-.33.0635-.5013,0-.3533-.2024-.5479-.5573-.5479v-.3066h3.6921v.3066c-.4046.0718-.5315.2682-.5315.6466,0,.182.0487.4752.0755.6582l.8598,5.1373,1.0622-5.3561ZM60.2013,40.2646v-.3058c.5187.0126.6943-.3659.6943-1.2196v-4.9795c0-.8519-.1747-1.2312-.6943-1.2187v-.3057h5.7383c.3173.0125.8212.0493,1.0612-.1946l.6455,2.8059-.2777.0852c-.3678-1.1819-1.4548-1.8912-2.7184-1.8912-1.2377,0-1.1624.451-1.1624,1.4285v.3891h.4046c.8332,0,1.6672.0852,1.6553-.9864l.2529-.0376.5573,3.099-.2538.0242c-.1327-.3429-.3445-.6515-.6189-.9021-.4939-.4394-1.0236-.3919-1.6562-.3919h-.3403v2.6489c0,.8295.2262,1.1469,1.225,1.1469,1.6184,0,2.6549-.9398,3.3243-2.2696l.2658.0968-1.076,3.1726c-.0441-.0501-.0981-.091-.1588-.1203s-.1268-.0463-.1943-.0501c-.1251-.0242-.2657-.0242-.4046-.0242h-6.2689Z"/><path class="cls-3" d="M72.4769,33.0423c-.252,0-.6576.0475-.8461.2304-.1397.1471-.1149.4529-.1149.634v1.8068c.8607-.2062,2.0221-.6949,2.0221-1.7324,0-.6223-.4294-.9388-1.0612-.9388.6317,0,0,0,0,0ZM68.9383,33.7623c0-.8546-.1775-1.2339-.6952-1.2204v-.3067h5.6877c.5187.0135,1.0741.0135,1.555.1973.4415.1946.7329.5469.7329,1.0366,0,1.0124-.961,1.684-1.7941,2.0983.9334.8671,1.6682,2.0876,2.1095,3.3923.1407.4268.3917,1.0007.9472,1.0007v.3049h-4.2467v-.3049c.2915-.0116.5195-.0735.5195-.4035,0-.7443-1.2635-2.5009-1.795-3.099l-.4432.1462v2.1368c0,.8537.1775,1.2312.6952,1.2196v.3049h-3.9672v-.3049c.5178.0116.6952-.3659.6952-1.2196v-4.9785h-.0009Z"/><path class="cls-5" d="M71.6439,17.0252h.4142c1.1023-.0355,1.4246-.0115,1.4069-2.6092v-3.115c.0387-2.3461-.4238-2.4238-1.4746-2.4731h-.3465v8.1973ZM67.5134,23.4934v-.2736h1.141v-14.3918h-1.12v-.2724h4.8122c2.7574-.0355,4.0821,2.3139,4.0821,4.3899,0,2.1206-1.0749,3.868-3.336,4.3166l-1.4488.1397v5.8181h1.0137v.2736h-5.1442ZM79.3457,21.9839c0,.9568.1112,1.4489.7268,1.4489.6608,0,.8155-.4921.8155-1.4489v-8.2168c0-.8365-.2498-1.3996-.8155-1.3996-.5673,0-.7268.5632-.7268,1.3996v8.2168ZM82.6558,13.4354c.7107.9784,1.1619,2.6,1.1619,4.3211,0,1.7944-.2724,2.9492-.9573,4.097-.6865,1.1467-1.8034,1.7899-2.7687,1.7899-.9621,0-2.0789-.6065-2.7655-1.7556-.6865-1.149-.9992-2.3369-.9992-4.1313,0-1.7211.4093-3.2729,1.1217-4.2537.6833-.9566,1.7308-1.451,2.643-1.451.917,0,1.8775.4256,2.564,1.3824v.0012ZM122.1846,21.9839c0,.9568.1128,1.4489.7285,1.4489.6607,0,.8155-.4921.8155-1.4489v-8.2168c0-.8365-.2514-1.3996-.8155-1.3996-.5689,0-.7285.5632-.7285,1.3996v8.2168ZM125.4948,13.4354c.7107.9784,1.1603,2.6,1.1603,4.3211,0,1.7944-.2691,2.9492-.9573,4.097-.6833,1.1467-1.8017,1.7899-2.7671,1.7899s-2.0789-.6065-2.7639-1.7556c-.6897-1.149-1.0024-2.3369-1.0024-4.1313,0-1.7211.4126-3.2729,1.1233-4.2537.6865-.9566,1.7292-1.451,2.643-1.451.917,0,1.8791.4256,2.564,1.3824v.0012ZM118.5102,19.3163s.0403.7805-.4786,2.0863c-.5189,1.3092-2.0532,1.9797-2.7187,1.9797-.7703,0-1.2764-.4429-1.2764-1.3995v-8.2134c0-.8365.2546-1.5403,1.0395-1.5403.5657,0,1.2973.3708,1.834,1.3676.4529.8401,1.2474,3.6128,1.2474,3.6128l.166.0045.0161-5.1349c-.0822.0115-.0918.0069-.1466.0035-.8171,1.688-1.7663-.0561-3.2409-.0286-1.1845.0228-2.0016.4921-2.6881,1.4487-.7123.9808-1.2151,2.5314-1.2151,4.2549,0,1.7944.3142,3.0326.9992,4.1827.6865,1.1479,1.9935,1.72,3.0282,1.6857,1.336-.0435,2.4351-.7461,3.0572-1.7807.4512-.7518.5802-1.5473.643-2.5429l-.2659.015v-.0012ZM83.5922,12.2313h4.4625v.2781l-.9847.0023,1.4327,6.934.8155-4.1325-.5173-2.8038h-.4915v-.2781h4.2223v.2781h-.9299l1.4585,6.9923.9041-4.6577c.3529-1.9569-.1418-2.1721-.5141-2.2488l-.3948-.0869v-.277h2.7155v.2781c-.6962,0-1.0814.6306-1.4939,2.6435l-1.6261,8.3392h-1.6261l-1.4456-7.3356-1.5374,7.3356h-1.4649l-2.2546-10.9827h-.7284v-.2781h-.0016ZM99.824,18.0678v-4.5158c0-.8366-.0918-1.307-.73-1.307-.5544,0-.6833.5482-.6833,1.2887v4.5318h1.4134v.0023ZM98.4106,18.331v1.316c.0064,2.5108-.1676,3.8406,1.4472,3.7823,1.1426-.0401,3.0717-1.9123,2.8815-4.0855h.34c.0064,1.871-.9186,3.3175-2.0354,3.8657-1.2651.6226-2.4722.6294-3.6808-.2128-1.199-.8354-2.1128-2.3689-2.1128-5.0971,0-3.8269,1.9661-5.8994,3.784-5.8994,2.087,0,3.9048,2.0943,3.8807,6.3297h-4.5044v.0011ZM104.1543,13.2727c-.2176-.0777-.7704-.0514-.7704-.0514v-.2633c1.2409,0,2.7832-.3696,3.7211-1.0665v1.5494s.8525-1.3503,1.7034-1.4099c.759-.0526,2.0564.261,1.9581,2.4605-.0709,1.6479-.8139,2.0473-1.6954,1.9706-.7897-.0709-1.4311-.9327-1.0572-2.2716.0677-.2403.4142-.9007,1.1168-.9179.3868-.0103.9605.3434.9605.3434,0,0-.0548-1.2199-.8767-1.2863-.6833-.055-.9476.1442-1.5874.9373-.5157.6385-.535,1.4648-.535,1.4648l.008,8.4731h.9186v.2884h-4.535v-.2884h.8702v-9.5671s.021-.2861-.1998-.3652ZM128.1007,13.2727c-.2208-.0777-.7703-.0514-.7703-.0514v-.2633c1.2393,0,2.78-.3696,3.7211-1.0665v1.5494s.8509-1.3503,1.7034-1.4099c.7574-.0526,2.0532.261,1.9597,2.4605-.0725,1.6479-.8203,2.0473-1.6954,1.9706-.7929-.0709-1.4327-.9327-1.0604-2.2716.0677-.2403.411-.9007,1.1168-.9179.3868-.0103.9589.3434.9589.3434,0,0-.0516-1.2199-.8767-1.2863-.6785-.055-.9444.1442-1.5842.9373-.5173.6385-.5366,1.4648-.5366,1.4648l.008,8.4731h.9186v.2884h-4.5366v-.2884h.8735v-9.5671s.0177-.2861-.1998-.3652Z"/><path class="cls-5" d="M136.1779,20.7568l-3.5775,6.1963.5982.3454,3.5775-6.1963-.5982-.3454ZM134.2527,28.1029l.4794.4818,5.7301-4.5512-.482-.4802-5.7275,4.5496ZM135.5101,29.6074l.317.57,7.3208-2.458-.3169-.5699-7.3209,2.4579ZM136.2553,31.3172l.1207.6031,8.1938-.1271-.1232-.6014-8.1913.1255ZM136.4115,33.0662l-.0855.5735,8.2639,2.2212.0856-.5765-8.264-2.2182ZM135.9652,34.6817l-.2837.4914,7.5282,4.3464.2837-.4914-7.5282-4.3464ZM134.9595,36.0066l-.4539.3608,6.0543,6.0484.4546-.3619-6.0549-6.0473ZM133.4935,36.91l-.5801.1954,3.9857,7.1589.5813-.1947-3.9869-7.1597ZM131.711,37.3068l-.6502.01,1.5293,7.5676.6509-.0112-1.53-7.5665ZM129.7848,37.1537l-.6563-.1754-1.0763,7.2349.655.1777,1.0776-7.2373ZM127.306,36.1234l-3.5775,6.1964.5982.3454,3.5775-6.1964-.5982-.3454ZM96.7389,31.211l-.2369-2.6606h-.0757l-.282,2.6606h.5947ZM95.6269,27.3808h1.7163l.8735,6.4017h-1.1555l-.2143-1.7361h-.8074l-.2482,1.7361h-1.0363l.8719-6.4017ZM102.5068,27.3808v5.4484c0,.8354-.7881,1.0781-1.502,1.0781-.6994,0-1.4859-.2427-1.4859-1.0781v-5.4473h1.1442v5.3661c0,.3227.1176.3959.3529.3959.2272,0,.3465-.0732.3465-.3959v-5.3672h1.1442ZM111.385,27.3808v.8354h-.9322v5.5652h-1.0763v-5.5664h-.9413v-.8342h2.9498ZM113.8958,30.0335h.2176c.3965,0,.4819-.1808.4819-.4143v-1.1604c0-.2415-.1692-.3136-.4287-.3136h-.2724v1.8883h.0016ZM112.7548,33.7825v-6.4017h1.5084c.9154,0,1.4762.2701,1.4762,1.0963v.9087c0,.4772-.1612.872-1.1313.9624v.0172c.506.0538,1.0459.1968,1.0894.7816.0661.8549,0,1.7533.1837,2.6355h-1.1442c-.1934-.737-.1418-1.6983-.1418-2.4455,0-.3856-.1692-.5378-.6994-.5218v2.9673h-1.141ZM119.0271,31.211l-.2369-2.6606h-.0774l-.2804,2.6606h.5947ZM117.9151,27.3808h1.7163l.8735,6.4017h-1.1555l-.2143-1.7361h-.809l-.2498,1.7361h-1.0314l.8686-6.4017h.0016ZM121.8377,33.7814v-6.4006h1.1442v5.5652h1.4537v.8354h-2.5979ZM125.6539,33.7814h1.141v-6.4006h-1.141v6.4006ZM130.1163,31.211l-.2353-2.6606h-.0757l-.282,2.6606h.5931ZM129.006,27.3808h1.7147l.8735,6.4017h-1.1539l-.216-1.7361h-.8074l-.2498,1.7361h-1.0346l.8735-6.4017ZM105.1884,28.4142c0-.3227.1177-.3972.3529-.3972.2288,0,.3465.0745.3465.3972v.6935h1.1442v-.7736c0-.8354-.7881-1.0792-1.4988-1.0792-.701,0-1.4891.2438-1.4891,1.0792v.9155c0,1.0437,1.8437,1.9226,1.8437,2.8233v.6752c0,.325-.1177.3948-.3449.3948-.2369,0-.3545-.0698-.3545-.3948v-.7027h-1.1442v.7838c0,.8354.7881,1.0781,1.4891,1.0781.7107,0,1.4988-.2427,1.4988-1.0781v-1.1329c0-.6466-1.8437-2.0302-1.8437-2.4925v-.7896Z"/></svg>