<?xml version="1.0" encoding="UTF-8"?><svg id="Layer_1" xmlns="http://www.w3.org/2000/svg" viewBox="0 0 150 50"><defs><style>.cls-1{fill:#00a98e;}.cls-2{fill:#7cc24d;}.cls-3{fill:#29b26b;opacity:.38;}.cls-4{fill:#0e1b62;}</style></defs><rect class="cls-3" width="150" height="50"/><polygon class="cls-4" points="76.1243 25.6511 80.9794 25.6511 80.9794 23.8077 76.1243 23.8077 76.1243 21.6474 81.2482 21.6474 81.2482 19.7444 73.9819 19.7444 73.9819 30.0431 81.5173 30.0431 81.5173 28.1102 76.1243 28.1102 76.1243 25.6511"/><path class="cls-4" d="M88.7148,23.3506c-.2242-.2838-.517-.514-.8666-.6843-.3496-.1733-.7738-.2599-1.2608-.2599-.5616,0-1.0576.1464-1.4701.4332-.2688.1883-.487.3973-.6544.6244v-.8486h-1.9631v7.4307h2.0526v-4.0723c0-.2242.0329-.4511.0985-.6723.0658-.2182.1613-.4122.2868-.5796.1224-.1643.2838-.2988.4751-.4033.1883-.1045.4182-.1554.6843-.1554s.4691.0539.6214.1554c.1554.1075.2808.2449.3706.4092.0925.1703.1524.3646.1793.5736.0299.2242.0449.4392.0449.6394v4.1022h2.0526v-4.6102c0-.3766-.0509-.7499-.1554-1.1115-.1045-.3646-.2718-.6903-.493-.9711h-.003l.0002.0002Z"/><path class="cls-4" d="M91.4427,29.0574c.3137.3556.7022.6424,1.1474.8546.4481.2122.9621.3197,1.5267.3197.5259,0,1.0247-.1165,1.485-.3436.3496-.1733.6454-.4062.8813-.6992v.8337h1.9631v-10.281h-2.0526v3.5853c-.0509-.0569-.1075-.1105-.1703-.1673-.1464-.1374-.3227-.2628-.5259-.3766-.2032-.1135-.4392-.2122-.7082-.2868-.2688-.0778-.5796-.1165-.9172-.1165-.5259,0-1.0159.1015-1.4581.3017-.4421.2002-.8277.481-1.1474.8307s-.5706.7648-.7439,1.2369-.2628.983-.2628,1.5237.0865,1.0546.2539,1.5297c.1703.4781.4152.8993.7289,1.2519v.003l.0002.0002ZM92.5452,26.2756c0-.2628.0419-.5289.1224-.7918.0806-.2569.2002-.493.3586-.6992.1584-.2032.3586-.3706.6005-.493.2389-.1254.5259-.1853.8516-.1853.3047,0,.5796.0658.8187.1943.2419.1314.4541.3017.6274.508s.3047.4421.3945.7052c.0895.2658.1344.5319.1344.7948s-.0449.5259-.1344.7858c-.0895.2569-.2212.493-.3945.6992s-.3825.3736-.6244.499c-.2389.1254-.517.1883-.8217.1883-.3257,0-.6095-.0658-.8486-.1943-.2419-.1314-.4451-.2988-.6005-.502-.1584-.2032-.2778-.4421-.3586-.7052-.0806-.2658-.1224-.5349-.1224-.7978l-.003-.006Z"/><path class="cls-4" d="M100.7197,29.2187c.3556.3287.7798.5885,1.2608.7648.481.1793,1.013.2688,1.5835.2688,1.3833,0,2.4529-.499,3.182-1.488l.0748-.1015-1.4012-1.1204-.0778.1135c-.1883.2688-.4272.484-.717.6394-.2898.1524-.6514.2302-1.0756.2302-.2419,0-.4781-.0419-.7022-.1254s-.4272-.2002-.6065-.3436c-.1763-.1434-.3167-.3167-.4242-.514-.0835-.1584-.1404-.3317-.1703-.517h5.4229l.012-.1135c.009-.0835.015-.1703.015-.2539v-.2389c0-.6603-.0895-1.2429-.2688-1.7389s-.4332-.9202-.7529-1.2549-.7052-.5915-1.1444-.7618c-.4362-.1703-.9172-.2539-1.4282-.2539-.5529,0-1.0756.0955-1.5506.2868-.4781.1913-.8963.4601-1.2459.8037-.3496.3436-.6274.7678-.8277,1.2549s-.3017,1.0337-.3017,1.6254.1015,1.1504.3017,1.6254c.2002.4781.481.8873.8396,1.219l.003-.006-.0005-.0002ZM101.6489,25.4838c.0598-.4122.2449-.7469.5586-1.0189.3466-.3017.7798-.4541,1.2818-.4541.2688,0,.505.0449.7022.1314.1943.0865.3586.2032.484.3466s.2212.3137.2778.505c.0479.1554.0778.3197.0865.487h-3.394s.003.003.003.003Z"/><path class="cls-4" d="M111.0187,25.3853c-.5915.0569-1.1354.1703-1.6224.3436-.496.1763-.9082.4332-1.2249.7648-.3257.3436-.493.8037-.493,1.3743,0,.4421.0955.8187.2808,1.1204.1853.2988.4182.5439.6962.7289.2748.1823.5825.3137.9082.3915.3197.0778.6364.1165.9322.1165.5259,0,1.004-.1075,1.4192-.3197.2958-.1524.5379-.3377.72-.5526v.6933h1.9332v-4.4908c0-.3676-.0509-.7409-.1464-1.1085-.0985-.3766-.2748-.72-.5259-1.0219-.2509-.3047-.5975-.5526-1.0277-.7379-.4272-.1853-.977-.2808-1.6254-.2808-.5586,0-1.1204.0985-1.6641.2898-.5469.1943-1.0367.49-1.4551.8783l-.0925.0835,1.0995,1.2938.0985-.0985c.2182-.2182.496-.4033.8277-.5556.3287-.1524.6783-.2272,1.0367-.2272.4182,0,.7858.1015,1.0845.2988.2868.1913.4272.481.4272.8843v.0479c-.517.003-1.0516.0329-1.5925.0835h.006l.0002.0002ZM112.6112,26.7716v.1224c0,.5289-.1494.9531-.4421,1.2549-.2928.3017-.7319.4541-1.3117.4541-.1404,0-.2838-.015-.4212-.0419s-.2569-.0718-.3646-.1344c-.1015-.0598-.1853-.1374-.2479-.2361-.0598-.0925-.0895-.2122-.0895-.3556,0-.2302.0718-.4062.2242-.5349.1643-.1434.3766-.2539.6244-.3317.2569-.0806.5439-.1344.8516-.1584.3167-.0239.6214-.0359.8993-.0359h.2718l.006-.003-.0002.0005Z"/><polygon class="cls-4" points="120.7409 22.6155 118.9214 27.6322 117.1137 22.6155 114.8728 22.6155 117.8756 30.0461 119.9641 30.0461 122.9189 22.6155 120.7409 22.6155"/><path class="cls-4" d="M129.767,23.4731c-.3586-.3377-.7918-.6035-1.2848-.7888-.98-.3676-2.1571-.3676-3.1372,0-.493.1853-.9262.4511-1.2848.7888-.3616.3406-.6484.7529-.8576,1.2309-.2122.4781-.3167,1.0159-.3167,1.5985s.1075,1.1234.3167,1.6045.499.8993.8576,1.2459c.3586.3436.7918.6155,1.2818.8127.49.1943,1.0189.2928,1.5716.2928s1.0815-.0985,1.5716-.2928c.493-.1943.9232-.4661,1.2818-.8127.3586-.3436.6484-.7618.8576-1.2429.2092-.484.3167-1.0219.3167-1.6045s-.1075-1.1204-.3167-1.5985-.499-.8903-.8576-1.2309v-.003ZM128.8588,26.3025c0,.2628-.0419.5319-.1224.7978-.0806.2628-.2002.499-.3586.7052-.1554.2032-.3586.3736-.6005.502-.2389.1284-.5289.1943-.8636.1943s-.6244-.0658-.8636-.1943c-.2419-.1314-.4451-.2988-.6005-.502-.1584-.2032-.2778-.4421-.3586-.7052-.0806-.2658-.1224-.5349-.1224-.7978s.0419-.5289.1224-.7918c.0806-.2569.2002-.493.3586-.6992.1554-.2032.3586-.3706.6005-.493.2389-.1254.5319-.1853.8666-.1853s.6274.0628.8666.1853c.2389.1254.4421.2928.6005.493.1584.2062.2808.4421.3586.6992.0806.2599.1224.5259.1224.7918,0,0-.006,0-.006,0Z"/><path class="cls-4" d="M136.8391,26.691c0,.2242-.0329.4511-.0985.6723-.0658.2182-.1613.4122-.2868.5796-.1224.1643-.2838.2988-.4781.4033s-.4242.1554-.6783.1554-.4691-.0539-.6214-.1554c-.1584-.1075-.2808-.2449-.3706-.4092-.0925-.1703-.1524-.3616-.1793-.5736-.0299-.2272-.0419-.4421-.0419-.6394v-4.1022h-2.0526v4.6102c0,.3795.0509.7529.1554,1.1115.1015.3616.2688.6903.493.9711.2272.2838.517.514.8666.6843.3496.1733.7738.2599,1.2608.2599.5616,0,1.0576-.1464,1.4701-.4332.2688-.1883.487-.3973.6544-.6244v.8486h1.9631v-7.4307h-2.0526v4.0723h-.003l-.0002-.0002Z"/><path class="cls-4" d="M144.6224,22.4571c-.0688-.0239-.1524-.0389-.2419-.0449-.0806-.006-.1584-.009-.2302-.009-.505,0-.9501.1404-1.3327.4122-.2599.1883-.4781.4152-.6603.6843v-.8873h-1.9778v7.4307h2.0526v-3.9678c0-.1195.0239-.2868.0718-.493.0449-.2032.1344-.4033.2658-.6005.1284-.1913.3107-.3586.5409-.499.2688-.1613.6603-.2479,1.1504-.1913.0806.009.1763.0299.2898.0569l.1613.0389v-1.9032l-.0895-.0299v.003h-.0002Z"/><path class="cls-2" d="M59.8846,8.0304c0,2.7895-2.262,5.0515-5.0515,5.0515s-5.0515-2.262-5.0515-5.0515,2.262-5.0515,5.0515-5.0515,5.0515,2.262,5.0515,5.0515"/><path class="cls-2" d="M64.5863,20.6085c2.4142-1.0599,3.5098-3.8749,2.4497-6.284-1.0599-2.404-3.8749-3.5047-6.284-2.4395-2.4091,1.0599-3.5047,3.8749-2.4497,6.2789,1.0599,2.4142,3.8749,3.5098,6.284,2.4446"/><path class="cls-2" d="M64.429,31.2645c2.5005.142,4.6356-1.77,4.7778-4.2654.1522-2.4954-1.77-4.6305-4.2654-4.7778-2.4954-.1471-4.6305,1.7651-4.7778,4.2654-.1369,2.4954,1.77,4.6356,4.2654,4.7778"/><path class="cls-2" d="M58.8702,40.0845c2.044,1.1919,4.6915.502,5.8834-1.5519,1.1919-2.0542.502-4.6864-1.5468-5.8783-2.0542-1.2021-4.6915-.5022-5.8885,1.5468-1.2021,2.0491-.5071,4.6864,1.5519,5.8885"/><path class="cls-2" d="M49.959,44.9078c1.2121,1.8969,3.7532,2.4497,5.6449,1.2274,1.8969-1.2223,2.4395-3.7481,1.2274-5.6551-1.2325-1.8969-3.7583-2.4446-5.6551-1.2172-1.8969,1.2172-2.4548,3.7481-1.2223,5.6449"/><path class="cls-2" d="M40.1907,44.9331c.2232,2.1353,2.1251,3.6924,4.2554,3.4743,2.1402-.2181,3.6924-2.12,3.4743-4.2503-.213-2.1353-2.1149-3.6924-4.2503-3.4792-2.1453.2181-3.6975,2.12-3.4792,4.2554"/><path class="cls-2" d="M27.4551,32.9485c-1.4455,1.2882-1.5723,3.5047-.2788,4.9451,1.2882,1.4506,3.4996,1.5723,4.9451.2791,1.4455-1.2831,1.5672-3.5047.2788-4.9451-1.2882-1.4455-3.4996-1.5723-4.9451-.2839"/><path class="cls-2" d="M25.1423,25.3051c-1.7802.4665-2.8352,2.2924-2.3685,4.0677.4665,1.7853,2.2975,2.8403,4.0726,2.3736,1.7651-.4716,2.8301-2.2873,2.3685-4.0626-.4716-1.7802-2.2924-2.8403-4.0726-2.3736"/><path class="cls-2" d="M27.2879,17.7885c-1.7143-.3651-3.3931.7152-3.7583,2.4244-.3702,1.7041.7152,3.3931,2.4193,3.7634,1.7092.3753,3.3982-.7152,3.7634-2.4244.3702-1.7041-.7152-3.3931-2.4193-3.7634"/><path class="cls-2" d="M31.2185,11.2002c-1.7143-.3651-3.3931.7152-3.7583,2.4244-.3702,1.7041.7152,3.3931,2.4142,3.7634,1.7092.3753,3.3982-.7152,3.7634-2.4193.3702-1.7041-.7152-3.3931-2.4193-3.7634"/><path class="cls-2" d="M32.0504,41.4843c0-2.0085,1.628-3.6314,3.6314-3.6314s3.6314,1.628,3.6314,3.6314-1.628,3.6314-3.6314,3.6314-3.6314-1.628-3.6314-3.6314"/><path class="cls-1" d="M11.484,41.4843c0-2.7895,2.262-5.0515,5.0515-5.0515s5.0515,2.262,5.0515,5.0515-2.262,5.0515-5.0515,5.0515-5.0515-2.262-5.0515-5.0515"/><path class="cls-1" d="M6.7772,28.906c-2.4142,1.0599-3.5098,3.8749-2.4497,6.284,1.0599,2.404,3.8749,3.5047,6.284,2.4395,2.4091-1.0599,3.5047-3.8749,2.4497-6.2789-1.0599-2.4142-3.8749-3.5098-6.284-2.4446"/><path class="cls-1" d="M6.9344,18.2502c-2.5005-.142-4.6356,1.77-4.7778,4.2654-.1522,2.4954,1.77,4.6305,4.2654,4.7778,2.4954.1471,4.6305-1.7651,4.7778-4.2654.1369-2.4954-1.77-4.6356-4.2654-4.7778"/><path class="cls-1" d="M12.4982,9.4302c-2.044-1.1919-4.6915-.502-5.8834,1.5519-1.1919,2.0542-.502,4.6864,1.5468,5.8783,2.0542,1.2021,4.6915.502,5.8885-1.5468,1.2021-2.0491.5071-4.6864-1.5519-5.8885"/><path class="cls-1" d="M21.4096,4.6069c-1.2121-1.8969-3.7532-2.4497-5.6449-1.2274-1.8969,1.2223-2.4395,3.7481-1.2274,5.6551,1.2325,1.8969,3.7583,2.4446,5.6551,1.2172,1.8969-1.2172,2.4548-3.7481,1.2223-5.6449"/><path class="cls-1" d="M31.1728,4.5814c-.2232-2.1353-2.1251-3.6924-4.2554-3.4743-2.1402.2181-3.6924,2.12-3.4743,4.2503.213,2.1353,2.1149,3.6924,4.2503,3.4792,2.1453-.2181,3.6975-2.12,3.4792-4.2554"/><path class="cls-1" d="M43.9083,16.5663c1.4455-1.2882,1.5723-3.5047.2791-4.9451-1.2882-1.4506-3.4996-1.5723-4.9451-.2788-1.4455,1.2831-1.5672,3.5047-.2791,4.9451,1.2882,1.4455,3.4996,1.5723,4.9451.2839"/><path class="cls-1" d="M46.226,24.2097c1.7802-.4665,2.8352-2.2924,2.3685-4.0677-.4665-1.7853-2.2975-2.8403-4.0726-2.3736-1.7651.4716-2.8301,2.2873-2.3685,4.0626.4716,1.7802,2.2924,2.8403,4.0726,2.3736"/><path class="cls-1" d="M44.0807,31.726c1.7143.3651,3.3931-.7152,3.7583-2.4244.3702-1.7041-.7152-3.3931-2.4193-3.7634-1.7092-.3753-3.3982.7152-3.7634,2.4244-.3702,1.7041.7152,3.3931,2.4193,3.7634"/><path class="cls-1" d="M40.145,38.3143c1.7143.3651,3.3931-.7152,3.7583-2.4244.3702-1.7041-.7152-3.3931-2.4142-3.7634-1.7092-.3753-3.3982.7152-3.7634,2.4193-.3702,1.7041.7152,3.3931,2.4193,3.7634"/><path class="cls-1" d="M39.3131,8.0304c0,2.0085-1.628,3.6314-3.6314,3.6314s-3.6314-1.628-3.6314-3.6314,1.628-3.6314,3.6314-3.6314,3.6314,1.628,3.6314,3.6314"/></svg>