<?xml version="1.0" encoding="UTF-8"?><svg id="Layer_1" xmlns="http://www.w3.org/2000/svg" viewBox="0 0 31.8261 31.8261"><defs><style>.cls-1{fill:#00a98e;}.cls-2,.cls-3{fill:#fff;}.cls-3{isolation:isolate;opacity:.6;}.cls-4{fill:#7cc24d;}.cls-5{fill:#28b970;}.cls-6{fill:#0e1b62;}</style></defs><path class="cls-2" d="M15.913,30.8265C7.6899,30.8265.9999,24.1361.9999,15.9129S7.6899.9998,15.913.9998s14.9131,6.6899,14.9131,14.9131-6.6904,14.9136-14.9131,14.9136Z"/><path class="cls-5" d="M15.913,2c7.6717,0,13.913,6.2414,13.913,13.913s-6.2414,13.913-13.913,13.913S2,23.5847,2,15.913,8.2414,2,15.913,2M15.913,0C7.1245,0,0,7.1245,0,15.913s7.1245,15.913,15.913,15.913,15.913-7.1245,15.913-15.913S24.7016,0,15.913,0h0Z"/><path class="cls-4" d="M26.6496,8.3727c0,1.2575-1.0197,2.2772-2.2772,2.2772s-2.2772-1.0197-2.2772-2.2772,1.0197-2.2772,2.2772-2.2772,2.2772,1.0197,2.2772,2.2772"/><path class="cls-4" d="M28.7691,14.0428c1.0883-.4778,1.5822-1.7468,1.1043-2.8328-.4778-1.0837-1.7468-1.5799-2.8328-1.0997-1.086.4778-1.5799,1.7468-1.1043,2.8305.4778,1.0883,1.7468,1.5822,2.8328,1.102"/><path class="cls-4" d="M28.6982,18.8465c1.1272.064,2.0897-.7979,2.1538-1.9228.0686-1.1249-.7979-2.0874-1.9228-2.1538-1.1249-.0663-2.0874.7957-2.1538,1.9228-.0617,1.1249.7979,2.0897,1.9228,2.1538"/><path class="cls-4" d="M26.1923,22.8225c.9214.5373,2.1149.2263,2.6522-.6996.5373-.926.2263-2.1126-.6973-2.6499-.926-.5419-2.1149-.2264-2.6545.6973-.5419.9237-.2286,2.1126.6996,2.6545"/><path class="cls-4" d="M22.1752,24.9968c.5464.8551,1.6919,1.1043,2.5447.5533.8551-.551,1.0997-1.6896.5533-2.5493-.5556-.8551-1.6942-1.102-2.5493-.5487-.8551.5487-1.1066,1.6896-.551,2.5447"/><path class="cls-4" d="M17.7717,25.0082c.1006.9626.958,1.6645,1.9183,1.5662.9648-.0983,1.6645-.9557,1.5662-1.916-.096-.9626-.9534-1.6645-1.916-1.5684-.9671.0983-1.6668.9557-1.5684,1.9183"/><path class="cls-4" d="M12.0306,19.6056c-.6516.5807-.7088,1.5799-.1257,2.2292.5807.6539,1.5776.7088,2.2292.1258.6516-.5784.7065-1.5799.1257-2.2292-.5807-.6516-1.5776-.7088-2.2292-.128"/><path class="cls-4" d="M10.988,16.16c-.8025.2103-1.2781,1.0334-1.0677,1.8337.2103.8048,1.0357,1.2804,1.8359,1.07.7957-.2126,1.2758-1.0311,1.0677-1.8314-.2126-.8025-1.0334-1.2804-1.8359-1.07"/><path class="cls-4" d="M11.9552,12.7716c-.7728-.1646-1.5296.3224-1.6942,1.0929-.1669.7682.3224,1.5296,1.0906,1.6965.7705.1692,1.5319-.3224,1.6965-1.0929.1669-.7682-.3224-1.5296-1.0906-1.6965"/><path class="cls-4" d="M13.7271,9.8016c-.7728-.1646-1.5296.3224-1.6942,1.0929-.1669.7682.3224,1.5296,1.0883,1.6965.7705.1692,1.5319-.3224,1.6965-1.0906.1669-.7682-.3224-1.5296-1.0906-1.6965"/><path class="cls-4" d="M14.1021,23.4535c0-.9054.7339-1.637,1.637-1.637s1.637.7339,1.637,1.637-.7339,1.637-1.637,1.637-1.637-.7339-1.637-1.637"/><path class="cls-1" d="M4.8309,23.4535c0-1.2575,1.0197-2.2772,2.2772-2.2772s2.2772,1.0197,2.2772,2.2772-1.0197,2.2772-2.2772,2.2772-2.2772-1.0197-2.2772-2.2772"/><path class="cls-1" d="M2.7091,17.7833c-1.0883.4778-1.5822,1.7468-1.1043,2.8328.4778,1.0837,1.7468,1.5799,2.8328,1.0997,1.086-.4778,1.5799-1.7468,1.1043-2.8305-.4778-1.0883-1.7468-1.5822-2.8328-1.102"/><path class="cls-1" d="M2.78,12.9797c-1.1272-.064-2.0897.7979-2.1538,1.9228-.0686,1.1249.7979,2.0874,1.9228,2.1538,1.1249.0663,2.0874-.7957,2.1538-1.9228.0617-1.1249-.7979-2.0897-1.9228-2.1538"/><path class="cls-1" d="M5.2881,9.0037c-.9214-.5373-2.1149-.2263-2.6522.6996-.5373.926-.2263,2.1126.6973,2.6499.926.5419,2.1149.2263,2.6545-.6973.5419-.9237.2286-2.1126-.6996-2.6545"/><path class="cls-1" d="M9.3053,6.8294c-.5464-.8551-1.6919-1.1043-2.5447-.5533-.8551.551-1.0997,1.6896-.5533,2.5493.5556.8551,1.6942,1.102,2.5493.5487.8551-.5487,1.1066-1.6896.551-2.5447"/><path class="cls-1" d="M13.7065,6.8179c-.1006-.9626-.958-1.6645-1.9183-1.5662-.9648.0983-1.6645.9557-1.5662,1.916.096.9626.9534,1.6645,1.916,1.5684.9671-.0983,1.6668-.9557,1.5684-1.9183"/><path class="cls-1" d="M19.4476,12.2206c.6516-.5807.7088-1.5799.1258-2.2292-.5807-.6539-1.5776-.7088-2.2292-.1257-.6516.5784-.7065,1.5799-.1258,2.2292.5807.6516,1.5776.7088,2.2292.128"/><path class="cls-1" d="M20.4924,15.6662c.8025-.2103,1.2781-1.0334,1.0677-1.8337-.2103-.8048-1.0357-1.2804-1.8359-1.07-.7957.2126-1.2758,1.0311-1.0677,1.8314.2126.8025,1.0334,1.2804,1.8359,1.07"/><path class="cls-1" d="M19.5253,19.0545c.7728.1646,1.5296-.3224,1.6942-1.0929.1669-.7682-.3224-1.5296-1.0906-1.6965-.7705-.1692-1.5319.3224-1.6965,1.0929-.1669.7682.3224,1.5296,1.0906,1.6965"/><path class="cls-1" d="M17.7511,22.0245c.7728.1646,1.5296-.3224,1.6942-1.0929.1669-.7682-.3224-1.5296-1.0883-1.6965-.7705-.1692-1.5319.3224-1.6965,1.0906-.1669.7682.3224,1.5296,1.0906,1.6965"/><path class="cls-1" d="M17.3761,8.3727c0,.9054-.7339,1.637-1.637,1.637s-1.637-.7339-1.637-1.637.7339-1.637,1.637-1.637,1.637.7339,1.637,1.637"/><rect class="cls-3" x=".3533" y="13.0452" width="30.9457" height="5.7356" rx="1.0756" ry="1.0756"/><polygon class="cls-6" points="1.9865 16.2212 4.0273 16.2212 4.0273 15.4464 1.9865 15.4464 1.9865 14.5383 4.1403 14.5383 4.1403 13.7384 1.086 13.7384 1.086 18.0673 4.2533 18.0673 4.2533 17.2549 1.9865 17.2549 1.9865 16.2212"/><path class="cls-6" d="M7.2787,15.2543c-.0942-.1193-.2173-.216-.3642-.2876-.147-.0728-.3253-.1092-.53-.1092-.2361,0-.4445.0615-.6179.1821-.113.0791-.2047.167-.275.2625v-.3567h-.8251v3.1233h.8628v-1.7117c0-.0942.0138-.1896.0414-.2826.0277-.0917.0678-.1733.1205-.2436.0515-.0691.1193-.1256.1997-.1695.0791-.0439.1758-.0653.2876-.0653s.1972.0226.2612.0653c.0653.0452.118.1029.1558.172.0389.0716.064.1532.0754.2411.0126.0942.0189.1846.0189.2688v1.7243h.8628v-1.9378c0-.1583-.0214-.3152-.0653-.4672-.0439-.1532-.1143-.2901-.2072-.4082h-.0013,0Z"/><path class="cls-6" d="M8.4253,17.653c.1319.1495.2952.27.4823.3592.1884.0892.4044.1344.6417.1344.2211,0,.4307-.049.6242-.1444.147-.0728.2713-.1708.3704-.2939v.3504h.8251v-4.3214h-.8628v1.507c-.0214-.0239-.0452-.0464-.0716-.0703-.0615-.0578-.1356-.1105-.2211-.1583-.0854-.0477-.1846-.0892-.2977-.1205-.113-.0327-.2436-.049-.3855-.049-.2211,0-.427.0427-.6129.1268-.1858.0842-.3479.2022-.4823.3492s-.2398.3215-.3127.5199-.1105.4132-.1105.6405.0364.4433.1067.643c.0716.2009.1745.378.3064.5262v.0013h0ZM8.8887,16.4837c0-.1105.0176-.2223.0515-.3328.0339-.108.0842-.2072.1507-.2939.0666-.0854.1507-.1558.2524-.2072.1004-.0527.2211-.0779.358-.0779.1281,0,.2436.0277.3441.0817.1017.0552.1909.1268.2637.2135s.1281.1858.1658.2964c.0376.1117.0565.2236.0565.3341s-.0189.2211-.0565.3303c-.0376.108-.093.2072-.1658.2939s-.1608.157-.2625.2097c-.1004.0527-.2173.0791-.3454.0791-.1369,0-.2562-.0277-.3567-.0817-.1017-.0552-.1871-.1256-.2524-.211-.0666-.0854-.1168-.1858-.1507-.2964-.0339-.1117-.0515-.2248-.0515-.3353,0,0-.0013-.0025-.0013-.0025Z"/><path class="cls-6" d="M12.3248,17.7208c.1495.1382.3278.2474.53.3215.2022.0754.4258.113.6656.113.5814,0,1.031-.2097,1.3375-.6255l.0314-.0427-.589-.471-.0327.0477c-.0791.113-.1796.2035-.3014.2688-.1218.064-.2738.0967-.4521.0967-.1017,0-.2009-.0176-.2952-.0527s-.1796-.0842-.2549-.1444c-.0741-.0603-.1331-.1331-.1783-.216-.0351-.0666-.059-.1394-.0716-.2173h2.2794l.005-.0477c.0038-.0351.0063-.0716.0063-.1067v-.1004c0-.2776-.0376-.5224-.113-.7309s-.1821-.3868-.3165-.5275-.2964-.2486-.481-.3202c-.1833-.0716-.3855-.1067-.6003-.1067-.2324,0-.4521.0401-.6518.1205-.2009.0804-.3767.1934-.5237.3378-.147.1444-.2637.3227-.3479.5275s-.1268.4345-.1268.6832.0427.4835.1268.6832c.0842.2009.2022.373.3529.5124l.0013-.0025h-.0002ZM12.7153,16.1509c.0252-.1733.1029-.3139.2348-.4283.1457-.1268.3278-.1909.5388-.1909.113,0,.2123.0189.2952.0552.0817.0364.1507.0854.2035.1457s.093.1319.1168.2123c.0201.0653.0327.1344.0364.2047h-1.4266s.0013.0013.0013.0013Z"/><path class="cls-6" d="M16.6537,16.1095c-.2486.0239-.4772.0716-.682.1444-.2085.0741-.3818.1821-.5149.3215-.1369.1444-.2072.3378-.2072.5777,0,.1858.0401.3441.118.471.0779.1256.1758.2286.2927.3064.1155.0766.2449.1319.3818.1646.1344.0327.2675.049.3918.049.2211,0,.422-.0452.5965-.1344.1243-.064.2261-.1419.3026-.2323v.2914h.8126v-1.8876c0-.1545-.0214-.3114-.0615-.4659-.0414-.1583-.1155-.3026-.2211-.4296-.1055-.1281-.2512-.2323-.432-.3102-.1796-.0779-.4107-.118-.6832-.118-.2348,0-.471.0414-.6995.1218-.2299.0817-.4357.206-.6116.3692l-.0389.0351.4622.5438.0414-.0414c.0917-.0917.2085-.1695.3479-.2335.1382-.064.2851-.0955.4357-.0955.1758,0,.3303.0427.4559.1256.1205.0804.1796.2022.1796.3717v.0201c-.2173.0013-.442.0138-.6694.0351h.0026ZM17.3231,16.6922v.0515c0,.2223-.0628.4006-.1858.5275-.1231.1268-.3077.1909-.5514.1909-.059,0-.1193-.0063-.177-.0176s-.108-.0302-.1532-.0565c-.0427-.0252-.0779-.0578-.1042-.0993-.0252-.0389-.0376-.0892-.0376-.1495,0-.0967.0302-.1708.0942-.2248.0691-.0603.1583-.1067.2625-.1394.108-.0339.2286-.0565.358-.0666.1331-.0101.2612-.0151.378-.0151h.1143l.0025-.0013v.0002Z"/><polygon class="cls-6" points="20.7403 14.9453 19.9755 17.0539 19.2157 14.9453 18.2738 14.9453 19.5359 18.0686 20.4138 18.0686 21.6558 14.9453 20.7403 14.9453"/><path class="cls-6" d="M24.5343,15.3057c-.1507-.1419-.3328-.2537-.54-.3315-.4119-.1545-.9067-.1545-1.3186,0-.2072.0779-.3893.1896-.54.3315-.152.1432-.2725.3165-.3605.5174-.0892.2009-.1331.427-.1331.6719s.0452.4722.1331.6744.2097.378.3605.5237c.1507.1444.3328.2587.5388.3416.206.0817.4283.1231.6606.1231s.4546-.0414.6606-.1231c.2072-.0817.388-.1959.5388-.3416.1507-.1444.2725-.3202.3605-.5224.0879-.2035.1331-.4296.1331-.6744s-.0452-.471-.1331-.6719-.2097-.3742-.3605-.5174c0,0,0-.0013,0-.0013ZM24.1525,16.495c0,.1105-.0176.2236-.0515.3353-.0339.1105-.0842.2097-.1507.2964-.0653.0854-.1507.157-.2524.211-.1004.054-.2223.0817-.363.0817s-.2625-.0277-.363-.0817c-.1017-.0552-.1871-.1256-.2524-.211-.0666-.0854-.1168-.1858-.1507-.2964-.0339-.1117-.0515-.2248-.0515-.3353s.0176-.2223.0515-.3328c.0339-.108.0842-.2072.1507-.2939.0653-.0854.1507-.1558.2524-.2072.1004-.0527.2236-.0779.3642-.0779s.2637.0264.3642.0779c.1004.0527.1858.1231.2524.2072.0666.0867.118.1858.1507.2939.0339.1092.0515.2211.0515.3328,0,0-.0025,0-.0025,0Z"/><path class="cls-6" d="M27.5069,16.6583c0,.0942-.0138.1896-.0414.2826-.0277.0917-.0678.1733-.1205.2436-.0515.0691-.1193.1256-.2009.1695s-.1783.0653-.2851.0653-.1972-.0226-.2612-.0653c-.0666-.0452-.118-.1029-.1558-.172-.0389-.0716-.064-.152-.0754-.2411-.0126-.0955-.0176-.1858-.0176-.2688v-1.7243h-.8628v1.9378c0,.1595.0214.3165.0653.4672.0427.152.113.2901.2072.4082.0955.1193.2173.216.3642.2876.147.0728.3253.1092.53.1092.2361,0,.4445-.0615.6179-.1821.113-.0791.2047-.167.275-.2625v.3567h.8251v-3.1233h-.8628v1.7117h-.0014Z"/><path class="cls-6" d="M30.7785,14.8787c-.0289-.0101-.064-.0164-.1017-.0189-.0339-.0025-.0666-.0038-.0967-.0038-.2123,0-.3994.059-.5602.1733-.1092.0791-.2009.1745-.2776.2876v-.373h-.8313v3.1233h.8628v-1.6678c0-.0502.0101-.1205.0302-.2072.0189-.0854.0565-.1695.1117-.2524.054-.0804.1306-.1507.2274-.2097.113-.0678.2776-.1042.4835-.0804.0339.0038.0741.0126.1218.0239l.0678.0164v-.8l-.0376-.0126v.0013h0Z"/></svg>