<?xml version="1.0" encoding="UTF-8"?><svg id="Layer_1" xmlns="http://www.w3.org/2000/svg" viewBox="0 0 32 21.341"><defs><style>.cls-1{fill:#00a98e;}.cls-2{fill:#fff;opacity:.6;}.cls-3{fill:#7cc24d;}.cls-4{fill:#0e1b62;}</style></defs><path class="cls-3" d="M26.9105,3.1301c0,1.2575-1.0197,2.2772-2.2772,2.2772s-2.2772-1.0197-2.2772-2.2772,1.0197-2.2772,2.2772-2.2772,2.2772,1.0197,2.2772,2.2772"/><path class="cls-3" d="M29.03,8.8002c1.0883-.4778,1.5822-1.7468,1.1043-2.8328-.4778-1.0837-1.7468-1.5799-2.8328-1.0997-1.086.4778-1.5799,1.7468-1.1043,2.8305.4778,1.0883,1.7468,1.5822,2.8328,1.102"/><path class="cls-3" d="M28.9591,13.6039c1.1272.064,2.0897-.7979,2.1538-1.9228.0686-1.1249-.7979-2.0874-1.9228-2.1538-1.1249-.0663-2.0874.7957-2.1538,1.9228-.0617,1.1249.7979,2.0897,1.9228,2.1538"/><path class="cls-3" d="M26.4532,17.5799c.9214.5373,2.1149.2263,2.6522-.6996.5373-.926.2263-2.1126-.6973-2.6499-.926-.5419-2.1149-.2264-2.6545.6973-.5419.9237-.2286,2.1126.6996,2.6545"/><path class="cls-3" d="M22.4361,19.7542c.5464.8551,1.6919,1.1043,2.5447.5533.8551-.551,1.0997-1.6896.5533-2.5493-.5556-.8551-1.6942-1.102-2.5493-.5487-.8551.5487-1.1066,1.6896-.551,2.5447"/><path class="cls-3" d="M18.0326,19.7656c.1006.9626.958,1.6645,1.9183,1.5662.9648-.0983,1.6645-.9557,1.5662-1.916-.096-.9626-.9534-1.6645-1.916-1.5684-.9671.0983-1.6668.9557-1.5684,1.9183"/><path class="cls-3" d="M12.2915,14.363c-.6516.5807-.7088,1.5799-.1257,2.2292.5807.6539,1.5776.7088,2.2292.1258.6516-.5784.7065-1.5799.1257-2.2292-.5807-.6516-1.5776-.7088-2.2292-.128"/><path class="cls-3" d="M11.2489,10.9174c-.8025.2103-1.2781,1.0334-1.0677,1.8337.2103.8048,1.0357,1.2804,1.8359,1.07.7957-.2126,1.2758-1.0311,1.0677-1.8314-.2126-.8025-1.0334-1.2804-1.8359-1.07"/><path class="cls-3" d="M12.2161,7.529c-.7728-.1646-1.5296.3224-1.6942,1.0929-.1669.7682.3224,1.5296,1.0906,1.6965.7705.1692,1.5319-.3224,1.6965-1.0929.1669-.7682-.3224-1.5296-1.0906-1.6965"/><path class="cls-3" d="M13.988,4.559c-.7728-.1646-1.5296.3224-1.6942,1.0929-.1669.7682.3224,1.5296,1.0883,1.6965.7705.1692,1.5319-.3224,1.6965-1.0906.1669-.7682-.3224-1.5296-1.0906-1.6965"/><path class="cls-3" d="M14.363,18.2109c0-.9054.7339-1.637,1.637-1.637s1.637.7339,1.637,1.637-.7339,1.637-1.637,1.637-1.637-.7339-1.637-1.637"/><path class="cls-1" d="M5.0918,18.2109c0-1.2575,1.0197-2.2772,2.2772-2.2772s2.2772,1.0197,2.2772,2.2772-1.0197,2.2772-2.2772,2.2772-2.2772-1.0197-2.2772-2.2772"/><path class="cls-1" d="M2.97,12.5407c-1.0883.4778-1.5822,1.7468-1.1043,2.8328.4778,1.0837,1.7468,1.5799,2.8328,1.0997,1.086-.4778,1.5799-1.7468,1.1043-2.8305-.4778-1.0883-1.7468-1.5822-2.8328-1.102"/><path class="cls-1" d="M3.0409,7.7371c-1.1272-.064-2.0897.7979-2.1538,1.9228-.0686,1.1249.7979,2.0874,1.9228,2.1538,1.1249.0663,2.0874-.7957,2.1538-1.9228.0617-1.1249-.7979-2.0897-1.9228-2.1538"/><path class="cls-1" d="M5.549,3.7611c-.9214-.5373-2.1149-.2263-2.6522.6996-.5373.926-.2263,2.1126.6973,2.6499.926.5419,2.1149.2263,2.6545-.6973.5419-.9237.2286-2.1126-.6996-2.6545"/><path class="cls-1" d="M9.5662,1.5868c-.5464-.8551-1.6919-1.1043-2.5447-.5533-.8551.551-1.0997,1.6896-.5533,2.5493.5556.8551,1.6942,1.102,2.5493.5487.8551-.5487,1.1066-1.6896.551-2.5447"/><path class="cls-1" d="M13.9674,1.5753c-.1006-.9626-.958-1.6645-1.9183-1.5662-.9648.0983-1.6645.9557-1.5662,1.916.096.9626.9534,1.6645,1.916,1.5684.9671-.0983,1.6668-.9557,1.5684-1.9183"/><path class="cls-1" d="M19.7085,6.978c.6516-.5807.7088-1.5799.1258-2.2292-.5807-.6539-1.5776-.7088-2.2292-.1257-.6516.5784-.7065,1.5799-.1258,2.2292.5807.6516,1.5776.7088,2.2292.128"/><path class="cls-1" d="M20.7533,10.4236c.8025-.2103,1.2781-1.0334,1.0677-1.8337-.2103-.8048-1.0357-1.2804-1.8359-1.07-.7957.2126-1.2758,1.0311-1.0677,1.8314.2126.8025,1.0334,1.2804,1.8359,1.07"/><path class="cls-1" d="M19.7862,13.8119c.7728.1646,1.5296-.3224,1.6942-1.0929.1669-.7682-.3224-1.5296-1.0906-1.6965-.7705-.1692-1.5319.3224-1.6965,1.0929-.1669.7682.3224,1.5296,1.0906,1.6965"/><path class="cls-1" d="M18.012,16.7819c.7728.1646,1.5296-.3224,1.6942-1.0929.1669-.7682-.3224-1.5296-1.0883-1.6965-.7705-.1692-1.5319.3224-1.6965,1.0906-.1669.7682.3224,1.5296,1.0906,1.6965"/><path class="cls-1" d="M17.637,3.1301c0,.9054-.7339,1.637-1.637,1.637s-1.637-.7339-1.637-1.637.7339-1.637,1.637-1.637,1.637.7339,1.637,1.637"/><rect class="cls-2" x="0" y="6.6215" width="32" height="5.7356" rx=".8077" ry=".8077"/><polygon class="cls-4" points="1.5657 9.8067 3.6751 9.8067 3.6751 9.0058 1.5657 9.0058 1.5657 8.0672 3.7919 8.0672 3.7919 7.2404 .6349 7.2404 .6349 11.7149 3.9088 11.7149 3.9088 10.8751 1.5657 10.8751 1.5657 9.8067"/><path class="cls-4" d="M7.0359,8.8072c-.0974-.1233-.2246-.2233-.3765-.2973-.1519-.0753-.3362-.1129-.5478-.1129-.244,0-.4595.0636-.6387.1882-.1168.0818-.2116.1726-.2843.2713v-.3687h-.8529v3.2284h.8918v-1.7693c0-.0974.0143-.196.0428-.2921.0286-.0948.0701-.1791.1246-.2518.0532-.0714.1233-.1298.2064-.1752.0818-.0454.1817-.0675.2973-.0675s.2038.0234.27.0675c.0675.0467.122.1064.161.1778.0402.074.0662.1584.0779.2492.013.0974.0195.1908.0195.2778v1.7823h.8918v-2.003c0-.1636-.0221-.3258-.0675-.4829-.0454-.1584-.1181-.2999-.2142-.4219h-.0013Z"/><path class="cls-4" d="M8.2211,11.2866c.1363.1545.3051.2791.4985.3713.1947.0922.418.1389.6633.1389.2285,0,.4452-.0506.6452-.1493.1519-.0753.2804-.1765.3829-.3038v.3622h.8529v-4.4668h-.8918v1.5577c-.0221-.0247-.0467-.048-.074-.0727-.0636-.0597-.1402-.1142-.2285-.1636-.0883-.0493-.1908-.0922-.3077-.1246-.1168-.0338-.2518-.0506-.3985-.0506-.2285,0-.4414.0441-.6335.1311-.1921.087-.3596.209-.4985.3609-.1389.1519-.2479.3323-.3232.5374s-.1142.4271-.1142.662.0376.4582.1103.6646c.074.2077.1804.3907.3167.5439v.0013ZM8.7001,10.078c0-.1142.0182-.2298.0532-.344.035-.1116.087-.2142.1558-.3038.0688-.0883.1558-.161.2609-.2142.1038-.0545.2285-.0805.37-.0805.1324,0,.2518.0286.3557.0844.1051.0571.1973.1311.2726.2207s.1324.1921.1714.3064c.0389.1155.0584.2311.0584.3453s-.0195.2285-.0584.3414c-.0389.1116-.0961.2142-.1714.3038s-.1662.1623-.2713.2168c-.1038.0545-.2246.0818-.357.0818-.1415,0-.2648-.0286-.3687-.0844-.1051-.0571-.1934-.1298-.2609-.2181-.0688-.0883-.1207-.1921-.1558-.3064-.035-.1155-.0532-.2324-.0532-.3466l-.0013-.0026Z"/><path class="cls-4" d="M12.2517,11.3567c.1545.1428.3388.2557.5478.3323.209.0779.4401.1168.688.1168.601,0,1.0657-.2168,1.3825-.6465l.0325-.0441-.6088-.4868-.0338.0493c-.0818.1168-.1856.2103-.3115.2778-.1259.0662-.283.1-.4673.1-.1051,0-.2077-.0182-.3051-.0545s-.1856-.087-.2635-.1493c-.0766-.0623-.1376-.1376-.1843-.2233-.0363-.0688-.061-.1441-.074-.2246h2.3561l.0052-.0493c.0039-.0363.0065-.074.0065-.1103v-.1038c0-.2869-.0389-.54-.1168-.7555s-.1882-.3998-.3271-.5452c-.1389-.1454-.3064-.257-.4972-.331-.1895-.074-.3985-.1103-.6205-.1103-.2402,0-.4673.0415-.6737.1246-.2077.0831-.3894.1999-.5413.3492-.1519.1493-.2726.3336-.3596.5452-.087.2116-.1311.4491-.1311.7062s.0441.4998.1311.7062c.087.2077.209.3855.3648.5296l.0013-.0026ZM12.6554,9.734c.026-.1791.1064-.3245.2427-.4427.1506-.1311.3388-.1973.5569-.1973.1168,0,.2194.0195.3051.0571.0844.0376.1558.0883.2103.1506s.0961.1363.1207.2194c.0208.0675.0338.1389.0376.2116h-1.4746l.0013.0013Z"/><path class="cls-4" d="M16.7263,9.6912c-.257.0247-.4933.074-.7049.1493-.2155.0766-.3946.1882-.5322.3323-.1415.1493-.2142.3492-.2142.5971,0,.1921.0415.3557.122.4868.0805.1298.1817.2363.3025.3167.1194.0792.2531.1363.3946.1701.1389.0338.2765.0506.405.0506.2285,0,.4362-.0467.6166-.1389.1285-.0662.2337-.1467.3128-.2401v.3012h.8399v-1.9511c0-.1597-.0221-.3219-.0636-.4816-.0428-.1636-.1194-.3128-.2285-.444-.109-.1324-.2596-.2401-.4465-.3206-.1856-.0805-.4245-.122-.7062-.122-.2427,0-.4868.0428-.723.1259-.2376.0844-.4504.2129-.6322.3816l-.0402.0363.4777.5621.0428-.0428c.0948-.0948.2155-.1752.3596-.2414.1428-.0662.2947-.0987.4504-.0987.1817,0,.3414.0441.4712.1298.1246.0831.1856.209.1856.3842v.0208c-.2246.0013-.4569.0143-.6919.0363h.0026ZM17.4182,10.2935v.0532c0,.2298-.0649.4141-.1921.5452-.1272.1311-.318.1973-.5699.1973-.061,0-.1233-.0065-.183-.0182s-.1116-.0312-.1584-.0584c-.0441-.026-.0805-.0597-.1077-.1026-.026-.0402-.0389-.0922-.0389-.1545,0-.1.0312-.1765.0974-.2324.0714-.0623.1636-.1103.2713-.1441.1116-.035.2363-.0584.37-.0688.1376-.0104.27-.0156.3907-.0156h.1181l.0026-.0013Z"/><polygon class="cls-4" points="20.9503 8.4878 20.1598 10.6674 19.3744 8.4878 18.4008 8.4878 19.7054 11.7162 20.6128 11.7162 21.8966 8.4878 20.9503 8.4878"/><path class="cls-4" d="M24.8719,8.8604c-.1558-.1467-.344-.2622-.5582-.3427-.4258-.1597-.9372-.1597-1.363,0-.2142.0805-.4024.196-.5582.3427-.1571.148-.2817.3271-.3726.5348-.0922.2077-.1376.4414-.1376.6945s.0467.4881.1376.6971.2168.3907.3726.5413c.1558.1493.344.2674.5569.3531.2129.0844.4427.1272.6828.1272s.4699-.0428.6828-.1272c.2142-.0844.4011-.2025.5569-.3531.1558-.1493.2817-.331.3726-.54.0909-.2103.1376-.444.1376-.6971s-.0467-.4868-.1376-.6945-.2168-.3868-.3726-.5348v-.0013ZM24.4773,10.0897c0,.1142-.0182.2311-.0532.3466-.035.1142-.087.2168-.1558.3064-.0675.0883-.1558.1623-.2609.2181-.1038.0558-.2298.0844-.3752.0844s-.2713-.0286-.3752-.0844c-.1051-.0571-.1934-.1298-.2609-.2181-.0688-.0883-.1207-.1921-.1558-.3064-.035-.1155-.0532-.2324-.0532-.3466s.0182-.2298.0532-.344c.035-.1116.087-.2142.1558-.3038.0675-.0883.1558-.161.2609-.2142.1038-.0545.2311-.0805.3765-.0805s.2726.0273.3765.0805c.1038.0545.1921.1272.2609.2142.0688.0896.122.1921.1558.3038.035.1129.0532.2285.0532.344h-.0026Z"/><path class="cls-4" d="M27.9445,10.2585c0,.0974-.0143.196-.0428.2921-.0286.0948-.0701.1791-.1246.2518-.0532.0714-.1233.1298-.2077.1752s-.1843.0675-.2947.0675-.2038-.0234-.27-.0675c-.0688-.0467-.122-.1064-.161-.1778-.0402-.074-.0662-.1571-.0779-.2492-.013-.0987-.0182-.1921-.0182-.2778v-1.7823h-.8918v2.003c0,.1649.0221.3271.0675.4829.0441.1571.1168.2999.2142.4219.0987.1233.2246.2233.3765.2973.1519.0753.3362.1129.5478.1129.244,0,.4595-.0636.6387-.1882.1168-.0818.2116-.1726.2843-.2713v.3687h.8529v-3.2284h-.8918v1.7693h-.0013Z"/><path class="cls-4" d="M31.3261,8.419c-.0299-.0104-.0662-.0169-.1051-.0195-.035-.0026-.0688-.0039-.1-.0039-.2194,0-.4128.061-.579.1791-.1129.0818-.2077.1804-.2869.2973v-.3855h-.8593v3.2284h.8918v-1.7239c0-.0519.0104-.1246.0312-.2142.0195-.0883.0584-.1752.1155-.2609.0558-.0831.135-.1558.235-.2168.1168-.0701.2869-.1077.4998-.0831.035.0039.0766.013.1259.0247l.0701.0169v-.8269l-.0389-.013v.0013Z"/></svg>

