<?xml version="1.0" encoding="UTF-8"?><svg id="Layer_1" xmlns="http://www.w3.org/2000/svg" viewBox="0 0 150 50"><defs><style>.cls-1{fill:#bdd630;}.cls-2{fill:#0182c9;}.cls-3{fill:#29a7ff;opacity:.38;}.cls-4{fill:#231f20;}</style></defs><rect class="cls-3" width="150" height="50"/><path class="cls-1" d="M39.849,2.1714c.7081.183,1.4334.283,2.1415.477.4453.122,1.6039.6541,1.9193.6331.2898-.0194,1.1355-.4647,1.5376-.5827.6923-.2033,1.3971-.3391,2.0911-.5273h2.4518c1.5373.3127,3.0151.9342,4.194,1.9827,3.402-1.0282,8.1912-1.1951,10.1495,2.3634,3.1986-.5237,7.3265-.5821,8.1837,3.3202.4261.1322.8763-.1094,1.2659-.1045,3.2051.0398,6.4094.6982,6.408,4.5741-.9481-1.3348-2.0197-1.6021-3.5662-1.7814-1.333-.1545-2.4524-.1238-3.7891,0-.9094.0842-1.7813.2865-2.6746.4453-2.0903.3716-3.7789.8308-5.7951,1.4474-1.0273.3142-2,.6366-3.009,1.002-1.9454.7047-3.702,1.4706-5.5722,2.3381-.9701.45-1.9433.842-2.8975,1.336-.7593.3931-1.5676.8967-2.3403,1.336-.7827.445-1.5727.8623-2.3403,1.336-.3399.2098-.6673.4523-1.003.668-.7301.4692-1.4085.9519-2.1174,1.4474-.2189.153-.4469.2861-.6687.4453-.6572.4721-1.2585.9532-1.8945,1.4474-.1468.1141-.2947.214-.4458.334-.461.3661-.8985.7438-1.3373,1.1134-5.6028,4.7189-10.3525,10.3463-12.9294,17.3109-.3699.9998-.6066,2.1836-.9907,3.1327-.0454.1123.0613.1916-.176.1527-6.1273-5.5619-12.2925-11.2638-17.3751-17.8245-3.1969-4.1266-6.1967-8.6856-7.1996-13.9056.0851-.9879-.1154-2.154,0-3.1174.0281-.2344.2418-.907.3307-1.1726,1.2782-3.8198,6.2889-4.3475,9.6879-3.5124,1.906-3.5169,6.2168-4.0554,9.7637-2.9344,2.3646-1.998,5.1297-2.8686,8.2439-2.6219,1.4704.1165,2.5385.9952,3.8974-.0067l2.1781-.5518h3.6776ZM35.6141,4.9548c-1.1276.4799-1.453.7046-2.3403,1.5587-1.0975,1.0565-1.9458,2.1864-2.7861,3.4514-.5557.8366-.8856,1.4584-1.3373,2.3381-.489.9523-.8485,1.649-1.2259,2.6721-.3257.8829-.5446,1.652-.7801,2.5607-1.1562,4.4617-1.418,9.0922-1.4476,13.6939l1.5294-6.2083c.6806-2.0343,1.3704-4.0847,2.2586-6.0382.3304-.7266.7437-1.6469,1.1144-2.3381.354-.66.8222-1.4624,1.2259-2.1154.4617-.7467,1.0423-1.5121,1.5602-2.2267.7886-1.0882,1.7648-2.3606,2.6746-3.3401.5853-.6301,1.3762-1.1799,1.8945-1.8927l3.1196-2.3367c-1.9454-.7274-3.5965-.5718-5.4599.2213ZM45.8669,5.4002c-.9387.4085-1.3924.7025-2.2289,1.2247-1.3584.848-2.4962,1.7041-3.6776,2.7834-.6673.6096-1.2884,1.2216-1.8945,1.8927-.9017.9983-1.6772,2.02-2.4518,3.1174-.5421.768-1.0769,1.5303-1.5602,2.3381-.305.5098-.6104,1.0355-.8915,1.5587-.4099.763-.7515,1.5528-1.1144,2.3381-1.4849,3.2125-2.7043,6.5498-3.4537,10.0197l2.504-5.1232c.811-1.2985,1.4725-2.7132,2.287-4.0058.4456-.7071.9675-1.428,1.4488-2.1154.286-.4085.5927-.8249.8915-1.2247.5339-.7142,1.1005-1.4303,1.6717-2.1154.7034-.8437,1.5836-1.8956,2.3403-2.6721.5585-.5731,1.2927-1.2426,1.8945-1.7814,1.0301-.9221,2.2241-1.8566,3.3433-2.6721.7319-.5333,1.5073-1.0113,2.2289-1.5587l4.234-2.3367c-1.8523-1.0628-3.7824-.4459-5.5713.3326ZM25.027,6.5135c-.8392.6905-1.2105,1.2161-1.7831,2.1154-.6422,1.0086-1.076,1.8387-1.4488,3.0061-.2825.8849-.4018,1.6572-.5572,2.5607-.0424.2463-.1687.5566-.2082.8501-.7961,5.9087.3626,12.1572,1.8811,17.8538.1941.0263.1049-.253.1102-.3879.2307-5.9195-.0938-10.6592,1.4488-16.5347.2159-.8223.4939-1.7619.7801-2.5607.3214-.8969.8065-2.1673,1.2259-3.0061.3134-.6267.9386-1.6268,1.3373-2.2267.6427-.9672,1.4602-1.7697,2.1735-2.6718.0947-.1197.2493-.1371.0573-.2805-1.9435-.528-3.5297.0587-5.0168,1.2822ZM55.5625,6.8476c-.8096.2309-1.6801.5555-2.4518.8907-1.7281.7506-3.1263,1.6464-4.6806,2.6721-.797.526-1.4645.9683-2.2289,1.5587-1.0265.7928-1.9458,1.5698-2.8975,2.4494-.665.6146-1.2654,1.2452-1.8945,1.8927-.6603.6797-1.262,1.2808-1.8945,2.0041-.6087.696-1.1188,1.414-1.6717,2.1154-.1943.2465-.4409.478-.6687.7794-.5267.697-1.0681,1.3934-1.5602,2.1154-1.1546,1.6938-2.2688,3.474-3.1193,5.3441,1.2571-1.6285,2.4501-3.3283,3.788-4.8988.5699-.6689,1.1826-1.3628,1.7831-2.0041.166-.1773.3745-.3669.5572-.5567.5852-.6078,1.1719-1.1996,1.7831-1.7814.5827-.5546,1.1778-1.1431,1.7831-1.6701.6529-.5684,1.4443-1.2509,2.1174-1.7814.8092-.6377,1.7177-1.3029,2.5632-1.8927.7126-.497,1.4904-.9871,2.2289-1.4474,1.4385-.8965,2.9387-1.6991,4.4577-2.4494.7733-.3819,1.6781-.8995,2.4518-1.2247,1.6509-.6939,3.439-1.1809,5.1557-1.6964l.1929-.3056c-1.713-1.1353-3.9432-.6413-5.7943-.1134ZM14.9971,9.0743c-.6482.8283-.7697,1.3498-1.003,2.3381-.729,3.0878-.1171,6.3554.7004,9.3763,1.267,4.6818,3.4333,9.0573,5.6533,13.3356.209.0244.0861-.2249.0602-.3383-.2973-1.3003-.7184-2.5847-1.0104-3.8902-1.1877-5.3104-2.1268-11.5245-1.1686-16.9247.1539-.8673.3916-1.7255.6687-2.5607.3161-.953.7047-1.8653,1.2232-2.7285-1.7754-.739-3.9326-.1296-5.1237,1.3925ZM65.0352,9.1856c-.8811.1652-1.7057.4251-2.5632.668-2.2279.6311-4.1445,1.358-6.2408,2.3381-.8781.4105-1.8242.8744-2.6746,1.336-1.2537.6805-2.4817,1.4498-3.6776,2.2267-.8135.5285-1.5575,1.1053-2.3403,1.6701-.6601.4762-1.2677.9548-1.8945,1.4474-.7017.5514-1.4186,1.0678-2.1174,1.6701-.3797.3272-.7437.666-1.1144,1.002-.6823.6185-1.3557,1.2396-2.006,1.8927-.1121.1126-.2221.219-.3343.334-.4212.4313-.9608.9394-1.3375,1.3915-.1044.1253-.2701.1802-.2221.3893.0786.0803.719-.4682.8326-.5588.3169-.2526.6614-.6555.95-.888.1305-.1052.288-.2078.4458-.334.6935-.5545,1.4089-1.1387,2.1174-1.6701.3317-.2487.6964-.5583,1.003-.7794.7023-.5063,1.504-.9626,2.2289-1.4474.5543-.3707,1.1074-.7587,1.6717-1.1134.7691-.4835,1.5554-.9933,2.3403-1.4474,1.056-.6109,2.2505-1.2305,3.3433-1.7814.8477-.4274,1.8241-.9554,2.6746-1.336,1.9599-.8772,4.085-1.676,6.1294-2.3381.8797-.2849,1.7797-.5443,2.6746-.7794,1.5788-.4147,3.1728-.773,4.7921-1.003-.6455-1.7867-3.2281-1.1621-4.6807-.8897ZM10.9857,10.7449c-8.8894-1.6764-6.179,6.9901-3.6249,11.6922,2.3094,4.2515,5.5595,7.9285,8.7478,11.5239l2.0079,1.9448c-.6338-1.2784-1.4582-2.4535-2.1356-3.7099-1.6489-3.0586-3.1163-6.5203-4.0484-9.8726-1.0261-3.6908-1.7502-7.7857-.9468-11.5784Z"/><path class="cls-2" d="M80.1915,14.3071c-.0013,3.7955-4.6888,8.3308-7.5903,10.3978-6.0983,4.3445-13.6249,6.1987-20.8277,7.8603.0291-.1933.226-.1894.3587-.2529,7.5944-3.6332,19.6539-7.5896,24.2052-15.1199.8852-1.4646,1.7456-3.2355.288-4.6667,1.5465.1793,2.6181.4466,3.5662,1.7814Z"/><path class="cls-2" d="M72.8362,12.5257c.0035.375-.0719.7544-.1661,1.1144-1.7897,6.8384-11.5398,13.6412-17.551,16.7575-.975.5055-2.9808,1.5888-3.9613,1.8326-.0612.0152-.1811.0324-.1639-.053,4.1622-3.1089,8.4529-6.1313,12.2598-9.6853,2.7871-2.6019,5.8629-5.7726,6.9079-9.5209.8933-.1588,1.7652-.3611,2.6746-.4453Z"/><path class="cls-2" d="M64.3665,14.4185c-1.747,7.7867-7.7926,13.1324-13.9876,17.5903l-.1647-.1646c4.4009-4.891,9.298-9.9198,11.1434-16.4237,1.009-.3655,1.9817-.6879,3.009-1.002Z"/><path class="cls-2" d="M55.7854,17.7586c-.9057,5.1143-3.1147,10.1619-6.2971,14.2506l3.3996-12.9145c.9542-.494,1.9274-.886,2.8975-1.336Z"/><path class="cls-2" d="M50.5475,20.4307c.1848.1158.111.4224.1134.6108.0224,1.7613-.2136,3.7985-.4663,5.5499-.2616,1.8134-.6007,3.8858-1.3751,5.5291l-.6124-10.3538c.7676-.4737,1.5576-.8911,2.3403-1.336Z"/><path class="cls-2" d="M47.2042,22.4347c.798,3.1033.8563,6.381,1.1138,9.5744l-3.2312-8.127c.709-.4955,1.3873-.9782,2.1174-1.4474Z"/><path class="cls-2" d="M44.4182,24.3274c1.1821,2.5487,2.4523,5.0775,3.2313,7.793l-5.1259-6.3456c.6361-.4942,1.2373-.9753,1.8945-1.4474Z"/><path class="cls-2" d="M42.0779,26.1088l5.0144,6.2343-6.3517-5.1209c.4388-.3696.8763-.7473,1.3373-1.1134Z"/><path class="cls-2" d="M18.8976,10.4103c-.2771.8353-.5148,1.6934-.6687,2.5607l-4.2348-1.5587c.2333-.9883.3548-1.5098,1.003-2.3381l3.9005,1.336Z"/><path class="cls-2" d="M25.2499,13.4164c-.2862.7989-.5642,1.7384-.7801,2.5607l-3.2319-1.7814c.1555-.9036.2747-1.6759.5572-2.5607l3.4547,1.7814Z"/><path class="cls-2" d="M33.3853,12.3031c-.5179.7146-1.0985,1.48-1.5602,2.2267l-2.6746-2.2267c.4517-.8796.7816-1.5014,1.3373-2.3381l2.8975,2.3381Z"/><path class="cls-2" d="M35.6141,4.9548l2.3403,2.1154c-.5183.7128-1.3092,1.2626-1.8945,1.8927-.8077-.93-1.7864-1.7282-2.7861-2.4494.8873-.8541,1.2128-1.0788,2.3403-1.5587Z"/><path class="cls-2" d="M27.8131,8.1836c-.3987.6-1.0239,1.6-1.3373,2.2267-1.0006-.704-2.0898-1.3361-3.2319-1.7814.5726-.8993.9439-1.4249,1.7831-2.1154l2.7861,1.6701Z"/><path class="cls-2" d="M30.5992,16.6452c-.3708.6912-.7841,1.6115-1.1144,2.3381l-2.3403-1.4474c.2355-.9087.4544-1.6778.7801-2.5607l2.6746,1.6701Z"/><path class="cls-2" d="M41.6321,11.635c-.6018.5387-1.3361,1.2083-1.8945,1.7814l-1.6717-2.1154c.6062-.6711,1.2272-1.2831,1.8945-1.8927l1.6717,2.2267Z"/><path class="cls-2" d="M45.8669,5.4002l1.3373,2.0041c-.7216.5474-1.4969,1.0254-2.2289,1.5587-.2654-.8639-.9285-1.5439-1.3373-2.3381.8365-.5222,1.2901-.8162,2.2289-1.2247Z"/><path class="cls-2" d="M37.3972,16.0885c-.5712.6851-1.1377,1.4012-1.6717,2.1154-.6103-.3907-.9949-1.1733-1.6717-1.4474.4833-.8078,1.0181-1.57,1.5602-2.3381l1.7831,1.6701Z"/><path class="cls-2" d="M55.5625,6.8476l.4458,2.1154c-.7736.3252-1.6785.8428-2.4518,1.2247l-.4458-2.4494c.7717-.3352,1.6421-.6598,2.4518-.8907Z"/><path class="cls-2" d="M48.4301,10.4103c.3222.6752.5557,1.4908.6687,2.2267-.7385.4602-1.5163.9503-2.2289,1.4474l-.6687-2.1154c.7644-.5904,1.4318-1.0328,2.2289-1.5587Z"/><path class="cls-2" d="M56.1197,14.1958c-.8505.3807-1.827.9087-2.6746,1.336l.1114-2.0041c.8505-.4616,1.7966-.9255,2.6746-1.336l-.1114,2.0041Z"/><path class="cls-2" d="M65.0352,9.1856l-.1114,1.8927c-.8949.235-1.7949.4944-2.6746.7794l.2229-2.0041c.8575-.2429,1.6821-.5028,2.5632-.668Z"/><path class="cls-2" d="M44.3067,15.9772c-.6731.5305-1.4645,1.2129-2.1174,1.7814l-.7801-1.4474c.6291-.6475,1.2295-1.2781,1.8945-1.8927l1.003,1.5587Z"/><path class="cls-2" d="M34.834,19.4286c-.4813.6874-1.0032,1.4083-1.4488,2.1154l-1.3373-.8907c.363-.7852.7045-1.5751,1.1144-2.3381l1.6717,1.1134Z"/><path class="cls-2" d="M50.1018,17.3132c-.7849.4541-1.5712.9639-2.3403,1.4474l-.2229-1.336c.7828-.5648,1.5268-1.1416,2.3403-1.6701l.2229,1.5587Z"/><path class="cls-2" d="M40.4062,19.4286c-.6112.5818-1.1979,1.1736-1.7831,1.7814l-.7801-.7794c.5528-.7014,1.063-1.4194,1.6717-2.1154l.8915,1.1134Z"/><path class="cls-2" d="M45.644,18.8719c.2381.2644.4328.6448.4458,1.002-.7249.4848-1.5266.941-2.2289,1.4474-.0012-.2893-.1157-.5849-.3343-.7794.6988-.6022,1.4157-1.1187,2.1174-1.6701Z"/><path class="cls-2" d="M38.0659,21.7667c-.6004.6413-1.2132,1.3351-1.7831,2.0041l-.6687-.4453c.4921-.722,1.0335-1.4184,1.5602-2.1154l.8915.5567Z"/><path class="cls-2" d="M42.858,22.1007c-.7085.5313-1.4239,1.1155-2.1174,1.6701l-.3343-.334c.6502-.6531,1.3236-1.2742,2.006-1.8927.0157.2656.2318.4355.4458.5567Z"/><path class="cls-2" d="M40.2948,24.1048c-.2885.2325-.633.6354-.95.888-.1136.0906-.7539.6391-.8326.5588-.0479-.2091.1178-.2641.2221-.3893.3767-.4521.9163-.9602,1.3375-1.3915l.2229.334Z"/><path class="cls-4" d="M79.5228,38.5756h-7.2031c-.3366,2.2077,2.7388,2.6635,3.1666.5467l4.0386.3965c-.7923,3.0748-3.6753,4.0554-6.594,3.8157-7.1609-.5883-6.7589-11.103.5465-11.2957,3.9738-.1048,6.3056,2.6671,6.0454,6.5368ZM75.2009,36.3614c.1109-2.2998-3.1034-2.322-2.8813,0h2.8813Z"/><path class="cls-4" d="M87.7233,35.9185c-.9014-.0636-2.0117-.1873-2.5345.7339-.0438.0772-.2359.6096-.2359.65v5.8124h-4.3219v-10.8497h3.657v1.8821l.6167-1.2106c.569-.7632,1.9919-1.1719,2.8186-.7268v3.7088Z"/><path class="cls-4" d="M66.668,43.1148h-4.2111v-7.0302c0-.1015-.2351-.671-.329-.7784-.6011-.6878-1.7765.0686-1.7765.7784v7.0302h-4.3219v-10.8497h4.1002l.0011,1.2178c1.2792-1.9614,5.2802-1.9522,6.2256.2559.075.1751.3115.8865.3115,1.0173v8.3587Z"/><path class="cls-4" d="M54.9213,38.5756h-7.2031c-.1198,1.3282.6886,2.1037,2.0247,1.8561,1.0392-.1926,1.0237-1.2237,1.2583-1.2943.4163.1646,3.8986.1412,3.9247.3862-1.3968,5.5891-11.0644,4.9725-11.7392-.7939-.5784-4.9428,3.9506-7.9453,8.4391-6.2168,1.5809.6088,3.2956,2.5995,3.2956,4.3467v1.716ZM50.5995,36.3614c.071-2.3137-3.0125-2.313-2.8813,0h2.8813Z"/><path class="cls-4" d="M92.4884,47.7647c-1.7834-.2012-4.1354-1.6024-3.9776-3.6427l4.0208-.2391c.1843,1.1641,1.3435,1.4729,2.365,1.1396.2381-.0777.9163-.6361.9163-.856v-1.6053c-3.0452,1.8693-6.6204.3106-7.4579-3.1221-.9989-4.0943,1.3538-7.6777,5.7452-7.4005.7997.0505,1.6661.2224,2.2657.78l.0011-.5535h3.3245v11.1265c0,2.2798-1.6375,4.1049-3.8786,4.3731-.7308.0874-2.5886.083-3.3245,0ZM95.1106,35.1809c-.4596-.4612-1.1271-.4574-1.6635-.1315-1.0614.645-1.0338,3.3348-.6031,4.3335.5029,1.1661,1.9044,1.2997,2.5491.1571.5434-.9628.5304-3.5436-.2825-4.3591Z"/><path class="cls-4" d="M124.293,43.1148l-4.8028-.0177-1.9027-3.1941c-.1555-.0337-.1856.0909-.2574.1857-.6625.8744-1.1521,2.1377-1.847,3.0261h-3.6016l3.7457-5.719-3.1916-5.1307h4.7097l1.4406,2.4335,1.5514-2.4335h3.4907l-3.0672,4.9276,3.7321,5.7007v.2214Z"/><path class="cls-4" d="M112.6572,38.5756h-7.2031c-.4329,2.1489,2.8975,2.6754,3.1032.5529.4426.1537,4.0792.1573,4.1045.3951-1.3634,5.5833-11.1327,4.9683-11.7376-.7956-.5222-4.9754,3.8886-7.9669,8.4374-6.2152,1.6401.6316,3.2956,2.6607,3.2956,4.4574v1.6053ZM108.3353,36.3614c.0309-2.2824-3.0652-2.3435-2.8813,0h2.8813Z"/></svg>