<?xml version="1.0" encoding="UTF-8"?><svg id="Layer_1" xmlns="http://www.w3.org/2000/svg" viewBox="0 0 32 31.9769"><defs><style>.cls-1{fill:#bdd630;}.cls-2,.cls-3,.cls-4{fill:#fff;}.cls-5{opacity:.4;}.cls-3{isolation:isolate;opacity:.6;}.cls-6{fill:#0182c9;}.cls-7{fill:#231f20;}.cls-8{fill:#fefefe;}.cls-4{fill-rule:evenodd;stroke:#0182c9;stroke-miterlimit:10;stroke-width:2px;}</style></defs><g class="cls-5"><path d="M10.1425,27.717l-.1689-.0234c-5.8262-.8105-8.9717-2.6436-8.9736-3.9561-.002-1.7842,5.8384-4.3838,14.9951-4.3965,9.3188,0,15.0034,2.5352,15.0054,4.3525.001,1.3281-3.1865,3.1807-9.0947,3.999l-.1777.0244-5.6797,3.0439-5.9058-3.0439Z"/><path d="M16.0632,20.3409c8.9053,0,13.5798,2.3997,13.9301,3.3536-.2168.5577-2.4636,2.2095-8.2256,3.0074l-.3549.0491-.3157.1693-5.0578,2.7114-5.2872-2.7254-.3031-.1562-.3377-.047c-5.6743-.7894-7.8898-2.4179-8.1046-2.9676.3481-.9599,5.0388-3.3817,13.9893-3.3945h.0673M16.0632,18.3409c-.0237,0-.0461,0-.0698,0C7.1569,18.3535-.0036,20.7701,0,23.7386c.0027,2.2335,4.0621,4.1422,9.8357,4.9454l6.2218,3.2072,5.9845-3.2082c5.8416-.8089,9.9608-2.7397,9.958-4.9902-.0036-2.9605-7.133-5.3519-15.9368-5.3519h0Z"/></g><polygon class="cls-4" points="25.5351 21.539 16.1366 30.5947 5.9838 21.0015 15.8815 19.818 25.5351 21.539"/><path class="cls-2" d="M16.0869,23.7825c-8.2231,0-14.9131-5.1104-14.9131-11.3911S7.8638.9998,16.0869.9998s14.9131,5.1104,14.9131,11.3916-6.6904,11.3911-14.9131,11.3911Z"/><path class="cls-6" d="M16.087,2c7.6717,0,13.913,4.6615,13.913,10.3912s-6.2414,10.3912-13.913,10.3912S2.1739,18.121,2.1739,12.3912,8.4153,2,16.087,2M16.087,0C7.2984,0,.1739,5.5477.1739,12.3912s7.1245,12.3912,15.913,12.3912,15.913-5.5477,15.913-12.3912S24.8755,0,16.087,0h0Z"/><path class="cls-1" d="M15.7481,5.1578c.2584.0667.523.1032.7813.174.1624.0445.5852.2386.7002.231.1057-.0071.4143-.1695.561-.2126.2526-.0742.5097-.1237.7629-.1924h.8945c.5609.1141,1.1.3408,1.5301.7233,1.2412-.3751,2.9884-.436,3.7029.8622,1.1669-.1911,2.6729-.2124,2.9857,1.2113.1555.0482.3197-.0399.4618-.0381,1.1693.0145,2.3384.2547,2.3379,1.6688-.3459-.487-.7368-.5845-1.3011-.6499-.4863-.0564-.8947-.0452-1.3824,0-.3318.0307-.6499.1045-.9758.1625-.7626.1356-1.3787.3031-2.1142.5281-.3748.1146-.7297.2322-1.0978.3656-.7098.2571-1.3506.5365-2.0329.853-.3539.1642-.709.3072-1.0571.4874-.277.1434-.5719.3271-.8538.4874-.2856.1623-.5738.3146-.8538.4874-.124.0765-.2434.165-.3659.2437-.2664.1712-.5139.3473-.7725.5281-.0798.0558-.1631.1044-.2439.1625-.2398.1722-.4591.3478-.6912.5281-.0536.0416-.1075.0781-.1626.1219-.1682.1336-.3278.2713-.4879.4062-2.0441,1.7216-3.7769,3.7747-4.7171,6.3156-.135.3648-.2213.7966-.3614,1.1429-.0166.041.0224.0699-.0642.0557-2.2354-2.0291-4.4847-4.1094-6.339-6.503-1.1663-1.5055-2.2608-3.1688-2.6267-5.0732.0311-.3604-.0421-.7859,0-1.1373.0102-.0855.0882-.3309.1207-.4278.4663-1.3936,2.2944-1.5861,3.5345-1.2814.6954-1.2831,2.2681-1.4795,3.5621-1.0706.8627-.7289,1.8715-1.0465,3.0076-.9565.5364.0425.9261.3631,1.4219-.0024l.7946-.2013h1.3417ZM14.2031,6.1732c-.4114.1751-.5301.2571-.8538.5687-.4004.3854-.7099.7977-1.0165,1.2592-.2028.3052-.3231.5321-.4879.853-.1784.3474-.3096.6016-.4472.9749-.1188.3221-.1987.6027-.2846.9342-.4218,1.6278-.5173,3.3171-.5281,4.996l.558-2.265c.2483-.7422.5-1.4902.824-2.2029.1205-.2651.2713-.6008.4066-.853.1292-.2408.3-.5335.4472-.7718.1684-.2724.3803-.5517.5692-.8124.2877-.397.6438-.8612.9758-1.2186.2135-.2299.5021-.4305.6912-.6905l1.1381-.8525c-.7098-.2654-1.3121-.2086-1.9919.0807ZM17.9437,6.3357c-.3425.149-.508.2563-.8132.4468-.4956.3094-.9107.6217-1.3417,1.0155-.2435.2224-.47.4457-.6912.6905-.329.3642-.6119.737-.8945,1.1373-.1978.2802-.3929.5583-.5692.853-.1113.186-.2227.3778-.3253.5687-.1496.2784-.2742.5665-.4066.853-.5418,1.172-.9866,2.3896-1.26,3.6555l.9136-1.8691c.2959-.4737.5372-.9899.8344-1.4614.1626-.258.353-.521.5286-.7718.1043-.149.2162-.301.3253-.4468.1948-.2606.4015-.5218.6099-.7718.2566-.3078.5777-.6916.8538-.9749.2037-.2091.4716-.4534.6912-.6499.3758-.3364.8114-.6774,1.2197-.9749.267-.1946.5499-.3689.8132-.5687l1.5447-.8525c-.6758-.3877-1.38-.1627-2.0326.1213ZM10.3406,6.7419c-.3062.2519-.4416.4437-.6505.7718-.2343.368-.3926.6708-.5286,1.0967-.1031.3228-.1466.6046-.2033.9342-.0155.0899-.0615.2031-.076.3102-.2904,2.1557.1323,4.4353.6863,6.5136.0708.0096.0383-.0923.0402-.1415.0842-2.1596-.0342-3.8888.5286-6.0324.0788-.3.1802-.6428.2846-.9342.1172-.3272.2942-.7907.4472-1.0967.1143-.2286.3424-.5935.4879-.8124.2345-.3529.5327-.6456.793-.9748.0345-.0437.0909-.05.0209-.1023-.7091-.1926-1.2878.0214-1.8303.4678ZM21.4809,6.8638c-.2954.0842-.613.2027-.8945.325-.6305.2739-1.1406.6007-1.7076.9749-.2908.1919-.5343.3533-.8132.5687-.3745.2893-.7099.5727-1.0571.8936-.2426.2242-.4617.4543-.6912.6905-.2409.248-.4604.4673-.6912.7311-.2221.2539-.4082.5159-.6099.7718-.0709.0899-.1609.1744-.2439.2843-.1921.2543-.3897.5084-.5692.7718-.4212.618-.8277,1.2674-1.138,1.9497.4586-.5941.8939-1.2143,1.382-1.7872.2079-.2441.4315-.4972.6505-.7311.0606-.0647.1366-.1339.2033-.2031.2135-.2217.4275-.4376.6505-.6499.2126-.2023.4297-.417.6505-.6093.2382-.2074.5269-.4564.7725-.6499.2952-.2327.6267-.4753.9351-.6905.26-.1813.5437-.3601.8132-.5281.5248-.3271,1.0721-.6199,1.6263-.8936.2821-.1393.6122-.3282.8945-.4468.6023-.2532,1.2547-.4308,1.881-.6189l.0704-.1115c-.625-.4142-1.4386-.234-2.114-.0414ZM6.6814,7.6762c-.2365.3022-.2808.4924-.3659.853-.2659,1.1265-.0427,2.3187.2555,3.4208.4622,1.7081,1.2526,3.3044,2.0625,4.8653.0762.0089.0314-.082.022-.1234-.1084-.4744-.2621-.943-.3686-1.4193-.4333-1.9374-.7759-4.2045-.4264-6.1747.0561-.3164.1429-.6295.2439-.9342.1153-.3477.2571-.6805.4463-.9954-.6477-.2696-1.4347-.0473-1.8693.508ZM24.9369,7.7168c-.3215.0603-.6223.1551-.9351.2437-.8128.2302-1.512.4954-2.2769.853-.3204.1498-.6655.319-.9758.4874-.4574.2483-.9054.5289-1.3417.8124-.2968.1928-.5682.4032-.8538.6093-.2408.1737-.4625.3483-.6912.5281-.256.2012-.5176.3896-.7725.6093-.1385.1194-.2713.243-.4066.3656-.2489.2256-.4946.4522-.7318.6905-.0409.0411-.081.0799-.122.1219-.1537.1573-.3505.3427-.488.5077-.0381.0457-.0985.0658-.081.142.0287.0293.2623-.1708.3038-.2039.1156-.0922.2413-.2391.3466-.324.0476-.0384.1051-.0758.1626-.1219.253-.2023.514-.4154.7725-.6093.121-.0907.2541-.2037.3659-.2843.2562-.1847.5487-.3512.8132-.5281.2022-.1352.404-.2768.6099-.4062.2806-.1764.5675-.3624.8538-.5281.3853-.2229.8211-.4489,1.2197-.6499.3093-.1559.6655-.3486.9758-.4874.715-.32,1.4903-.6114,2.2362-.853.321-.1039.6493-.1986.9758-.2843.576-.1513,1.1575-.282,1.7483-.3659-.2355-.6519-1.1777-.424-1.7077-.3246ZM5.2179,8.2856c-3.2431-.6116-2.2543,2.5502-1.3225,4.2657.8425,1.5511,2.0283,2.8926,3.1915,4.2043l.7326.7095c-.2312-.4664-.532-.8951-.7791-1.3535-.6016-1.1159-1.1369-2.3788-1.477-3.6018-.3744-1.3465-.6385-2.8405-.3454-4.2242Z"/><path class="cls-8" d="M18.5536,5.1578c-.2532.0687-.5103.1182-.7629.1924-.1467.0431-.4552.2055-.561.2126-.1151.0077-.5378-.1865-.7002-.231-.2583-.0708-.5229-.1073-.7813-.174h2.8054Z"/><path class="cls-6" d="M30.4664,9.5853c-.0005,1.3847-1.7106,3.0393-2.7692,3.7935-2.2248,1.585-4.9708,2.2615-7.5986,2.8677.0106-.0705.0824-.0691.1308-.0923,2.7707-1.3255,7.1704-2.7689,8.8308-5.5162.323-.5343.6368-1.1804.1051-1.7026.5642.0654.9552.1629,1.3011.6499Z"/><path class="cls-6" d="M27.783,8.9354c.0013.1368-.0262.2752-.0606.4066-.6529,2.4949-4.2101,4.9767-6.4032,6.1137-.3557.1844-1.0875.5796-1.4452.6686-.0223.0056-.0661.0118-.0598-.0193,1.5185-1.1342,3.0839-2.2369,4.4728-3.5335,1.0168-.9493,2.139-2.106,2.5202-3.4735.3259-.0579.644-.1318.9758-.1625Z"/><path class="cls-6" d="M24.6929,9.6259c-.6374,2.8408-2.843,4.7911-5.1031,6.4175l-.0601-.06c1.6056-1.7844,3.3922-3.6191,4.0655-5.9919.3681-.1333.723-.251,1.0978-.3656Z"/><path class="cls-6" d="M21.5623,10.8445c-.3304,1.8659-1.1364,3.7074-2.2974,5.1991l1.2403-4.7116c.3481-.1802.7032-.3233,1.0571-.4874Z"/><path class="cls-6" d="M19.6513,11.8193c.0674.0422.0405.1541.0414.2228.0082.6426-.0779,1.3858-.1701,2.0248-.0954.6616-.2191,1.4177-.5017,2.0172l-.2234-3.7774c.2801-.1728.5683-.3251.8538-.4874Z"/><path class="cls-6" d="M18.4316,12.5505c.2911,1.1322.3124,2.328.4064,3.4931l-1.1789-2.965c.2586-.1808.5061-.3569.7725-.5281Z"/><path class="cls-6" d="M17.4151,13.241c.4313.9299.8947,1.8524,1.1789,2.8431l-1.8701-2.3151c.2321-.1803.4514-.3558.6912-.5281Z"/><path class="cls-6" d="M16.5613,13.8909l1.8294,2.2745-2.3173-1.8683c.1601-.1348.3197-.2726.4879-.4062Z"/><path class="cls-8" d="M5.2179,8.2856c-.2931,1.3837-.0289,2.8776.3454,4.2242.34,1.223.8754,2.486,1.477,3.6018.2471.4584.5479.8871.7791,1.3535l-.7326-.7095c-1.1632-1.3117-2.3489-2.6532-3.1915-4.2043-.9318-1.7155-1.9207-4.8773,1.3225-4.2657Z"/><path class="cls-8" d="M7.8605,9.0978c-.3496,1.9702-.007,4.2373.4264,6.1747.1065.4763.2602.9449.3686,1.4193.0095.0414.0543.1323-.022.1234-.8099-1.5609-1.6003-3.1572-2.0625-4.8653-.2983-1.1021-.5215-2.2942-.2555-3.4208l1.545.5687Z"/><path class="cls-8" d="M10.1373,10.1946c-.5628,2.1436-.4444,3.8728-.5286,6.0324-.0019.0492.0306.1511-.0402.1415-.554-2.0783-.9767-4.3579-.6863-6.5136.0144-.1071.0605-.2203.076-.3102l1.1791.6499Z"/><path class="cls-8" d="M11.9669,11.2913c-.324.7127-.5757,1.4607-.824,2.2029l-.558,2.265c.0108-1.6788.1063-3.3682.5281-4.996l.8538.5281Z"/><path class="cls-8" d="M14.3658,7.6355c-.332.3574-.6881.8216-.9758,1.2186l-1.0571-.853c.3066-.4615.6161-.8738,1.0165-1.2592.3647.2631.7218.5543,1.0165.8936Z"/><path class="cls-8" d="M10.8692,8.1636c-.153.306-.33.7695-.4472,1.0967l-1.2604-.6499c.136-.4259.2943-.7288.5286-1.0967.4166.1625.814.3931,1.1791.6499Z"/><path class="cls-8" d="M24.0017,7.9605l-.0813.7311c-.7459.2416-1.5212.533-2.2362.853l.0407-.7311c.7648-.3576,1.464-.6228,2.2769-.853Z"/><path class="cls-8" d="M17.1305,6.7825c.1491.2897.3911.5378.4879.853-.4083.2975-.8439.6384-1.2197.9749l-.6099-.8124c.431-.3938.8461-.7061,1.3417-1.0155Z"/><path class="cls-8" d="M20.7491,8.0823c-.5542.2737-1.1015.5666-1.6263.8936-.0412-.2685-.1264-.5661-.2439-.8124.5671-.3742,1.0772-.701,1.7076-.9749l.1626.8936Z"/><path class="cls-6" d="M8.1044,8.1636c-.1011.3047-.1878.6178-.2439.9342l-1.545-.5687c.0851-.3606.1295-.5508.3659-.853l1.423.4874Z"/><path class="cls-6" d="M10.4219,9.2603c-.1044.2915-.2058.6342-.2846.9342l-1.1791-.6499c.0567-.3297.1002-.6114.2033-.9342l1.2604.6499Z"/><path class="cls-8" d="M15.7075,9.2603c-.2761.2833-.5972.667-.8538.9749l-.6505-.6093c.2826-.4004.5655-.7731.8945-1.1373l.6099.7718Z"/><path class="cls-6" d="M13.39,8.8541c-.1889.2607-.4008.54-.5692.8124l-.9758-.8124c.1648-.3209.2851-.5478.4879-.853l1.0571.853Z"/><path class="cls-8" d="M13.39,12.2255c-.2971.4715-.5385.9877-.8344,1.4614l-.9136,1.8691c.2734-1.2659.7183-2.4835,1.26-3.6555l.4879.325Z"/><path class="cls-6" d="M14.2031,6.1732l.8538.7718c-.1891.26-.4776.4606-.6912.6905-.2947-.3393-.6518-.6305-1.0165-.8936.3237-.3116.4425-.3936.8538-.5687Z"/><path class="cls-6" d="M11.3571,7.3512c-.1455.2189-.3736.5837-.4879.8124-.365-.2568-.7624-.4874-1.1791-.6499.2089-.3281.3444-.5199.6505-.7718l1.0165.6093Z"/><path class="cls-8" d="M12.8208,9.6665c-.1473.2382-.3181.531-.4472.7718l-.9758-.6093c.1377-.3733.2688-.6274.4472-.9749l.9758.8124Z"/><path class="cls-8" d="M8.1044,8.1636l-1.423-.4874c.4345-.5553,1.2216-.7776,1.8693-.508-.1892.3149-.3309.6477-.4463.9954Z"/><path class="cls-8" d="M21.4809,6.8638c.6753-.1926,1.489-.3728,2.114.0414l-.0704.1115c-.6263.1881-1.2787.3658-1.881.6189l-.1626-.7718Z"/><path class="cls-8" d="M17.9437,6.3357c.6527-.284,1.3568-.5091,2.0326-.1213l-1.5447.8525-.4879-.7311Z"/><path class="cls-8" d="M11.3571,7.3512l-1.0165-.6093c.5426-.4464,1.1212-.6604,1.8303-.4678.0701.0523.0136.0586-.0209.1023-.2602.3291-.5585.6219-.793.9748Z"/><path class="cls-8" d="M14.2031,6.1732c.6798-.2893,1.2822-.3461,1.9919-.0807l-1.1381.8525-.8538-.7718Z"/><path class="cls-6" d="M12.3735,10.4383c-.1353.2522-.2861.5879-.4066.853l-.8538-.5281c.0859-.3315.1658-.6121.2846-.9342l.9758.6093Z"/><path class="cls-6" d="M16.3987,8.6104c-.2196.1966-.4874.4408-.6912.6499l-.6099-.7718c.2211-.2448.4477-.4681.6912-.6905l.6099.8124Z"/><path class="cls-8" d="M18.3096,9.504c-.3085.2152-.6399.4579-.9351.6905l-.3659-.5687c.3472-.3209.6826-.6044,1.0571-.8936l.2439.7718Z"/><path class="cls-6" d="M17.9437,6.3357l.4879.7311c-.2632.1997-.5461.3741-.8132.5687-.0968-.3152-.3388-.5633-.4879-.853.3052-.1905.4707-.2978.8132-.4468Z"/><path class="cls-8" d="M24.9369,7.7168c.5299-.0994,1.4722-.3273,1.7077.3246-.5908.0839-1.1723.2146-1.7483.3659l.0407-.6905Z"/><path class="cls-8" d="M20.7084,10.0321c-.3987.201-.8345.427-1.2197.6499l-.0813-.5687c.4363-.2835.8843-.5641,1.3417-.8124l-.0407.7311Z"/><path class="cls-6" d="M14.8537,10.2352c-.2084.2499-.4151.5112-.6099.7718-.2227-.1425-.363-.4281-.6099-.5281.1763-.2947.3714-.5728.5692-.853l.6505.6093Z"/><path class="cls-6" d="M21.4809,6.8638l.1626.7718c-.2822.1186-.6124.3075-.8945.4468l-.1626-.8936c.2815-.1223.5991-.2407.8945-.325Z"/><path class="cls-6" d="M18.8788,8.1636c.1176.2463.2027.5439.2439.8124-.2694.1679-.5532.3467-.8132.5281l-.2439-.7718c.2789-.2154.5224-.3768.8132-.5687Z"/><path class="cls-6" d="M21.6842,9.5446c-.3103.1389-.6665.3315-.9758.4874l.0407-.7311c.3103-.1684.6554-.3377.9758-.4874l-.0407.7311Z"/><path class="cls-6" d="M24.9369,7.7168l-.0407.6905c-.3265.0858-.6548.1804-.9758.2843l.0813-.7311c.3129-.0886.6137-.1834.9351-.2437Z"/><path class="cls-6" d="M17.3745,10.1946c-.2456.1935-.5343.4425-.7725.6499l-.2846-.5281c.2295-.2362.4486-.4663.6912-.6905l.3659.5687Z"/><path class="cls-6" d="M13.9185,11.4537c-.1756.2508-.366.5138-.5286.7718l-.4879-.325c.1324-.2865.257-.5747.4066-.853l.6099.4062Z"/><path class="cls-8" d="M16.602,10.8445c-.2208.1922-.438.4069-.6505.6093l-.3253-.4062c.2308-.2639.4503-.4832.6912-.7311l.2846.5281Z"/><path class="cls-6" d="M19.4887,10.682c-.2863.1657-.5732.3517-.8538.5281l-.0813-.4874c.2856-.2061.557-.4165.8538-.6093l.0813.5687Z"/><path class="cls-8" d="M14.2438,11.0069c-.109.1459-.2209.2978-.3253.4468l-.6099-.4062c.1026-.1909.214-.3827.3253-.5687.2469.1.3872.3855.6099.5281Z"/><path class="cls-6" d="M15.9514,11.4537c-.223.2123-.437.4282-.6505.6499l-.2846-.2843c.2017-.2559.3878-.5178.6099-.7718l.3253.4062Z"/><path class="cls-8" d="M14.4471,13.0379c-.4881.573-.9233,1.1931-1.382,1.7872.3103-.6823.7168-1.3317,1.138-1.9497l.2439.1625Z"/><path class="cls-6" d="M17.8624,11.2507c.0869.0965.1579.2352.1626.3656-.2645.1769-.557.3433-.8132.5281-.0004-.1055-.0422-.2134-.122-.2843.255-.2197.5165-.4081.7725-.6093Z"/><path class="cls-8" d="M18.5536,10.7226l.0813.4874c-.2059.1294-.4076.271-.6099.4062-.0048-.1303-.0758-.2691-.1626-.3656.2287-.1797.4504-.3543.6912-.5281Z"/><path class="cls-6" d="M15.0976,12.3068c-.2191.234-.4426.4871-.6505.7311l-.2439-.1625c.1796-.2634.3771-.5175.5692-.7718l.3253.2031Z"/><path class="cls-6" d="M16.8459,12.4286c-.2585.1939-.5195.407-.7725.6093l-.122-.1219c.2372-.2383.4829-.4649.7318-.6905.0057.0969.0846.1589.1626.2031Z"/><path class="cls-8" d="M17.2118,12.1443c-.1118.0806-.2449.1936-.3659.2843-.0781-.0442-.1569-.1062-.1626-.2031.1353-.1226.2681-.2462.4066-.3656.0798.0709.1215.1788.122.2843Z"/><path class="cls-8" d="M15.3009,12.1037c-.0667.0692-.1427.1384-.2033.2031l-.3253-.2031c.0831-.11.1731-.1944.2439-.2843l.2846.2843Z"/><path class="cls-6" d="M15.9108,13.1598c-.1053.0848-.231.2318-.3466.324-.0414.033-.2751.2331-.3038.2039-.0175-.0763.043-.0963.081-.142.1374-.1649.3343-.3503.488-.5077l.0813.1219Z"/><path class="cls-8" d="M16.0734,13.0379c-.0576.046-.115.0835-.1626.1219l-.0813-.1219c.041-.0419.0811-.0808.122-.1219l.122.1219Z"/><rect class="cls-3" x=".6412" y="9.1874" width="30.9457" height="6.8887" rx="3.4443" ry="3.4443"/><path class="cls-8" d="M20.2,11.1754c.2847.2856.2892,1.1894.0989,1.5266-.2258.4001-.7166.3534-.8927-.055-.1508-.3497-.1605-1.2917.2112-1.5176.1878-.1142.4216-.1155.5826.0461Z"/><path class="cls-7" d="M14.7409,12.3643h-2.5226c-.1179.7732.9591.9328,1.109.1915l1.4144.1389c-.2775,1.0768-1.2871,1.4203-2.3093,1.3363-2.5078-.206-2.3671-3.8884.1914-3.9559,1.3917-.0367,2.2083.9341,2.1172,2.2893ZM13.2273,11.5888c.0389-.8054-1.0868-.8132-1.0091,0h1.0091Z"/><path class="cls-7" d="M17.6128,11.4337c-.3157-.0223-.7045-.0656-.8876.257-.0153.027-.0826.2135-.0826.2276v2.0356h-1.5136v-3.7997h1.2807v.6591l.216-.424c.1993-.2673.6976-.4104.9871-.2545v1.2989Z"/><path class="cls-7" d="M10.239,13.954h-1.4748v-2.4621c0-.0355-.0823-.235-.1152-.2726-.2105-.2409-.6222.024-.6222.2726v2.4621h-1.5136v-3.7997h1.436l.0004.4265c.448-.6869,1.8492-.6837,2.1803.0896.0263.0613.1091.3105.1091.3563v2.9273Z"/><path class="cls-7" d="M6.1252,12.3643h-2.5226c-.042.4651.2411.7368.7091.65.3639-.0674.3585-.4285.4407-.4533.1458.0576,1.3653.0494,1.3745.1352-.4892,1.9574-3.8749,1.7414-4.1112-.278-.2026-1.731,1.3835-2.7825,2.9555-2.1772.5537.2132,1.1542.9104,1.1542,1.5223v.601ZM4.6116,11.5888c.0249-.8103-1.055-.8101-1.0091,0h1.0091Z"/><path class="cls-8" d="M4.6116,11.5888h-1.0091c-.046-.8101,1.0339-.8103,1.0091,0Z"/><path class="cls-8" d="M13.2273,11.5888h-1.0091c-.0778-.8132,1.0479-.8054,1.0091,0Z"/><path class="cls-7" d="M19.2816,15.5824c-.6246-.0705-1.4483-.5612-1.393-1.2757l1.4081-.0837c.0645.4077.4705.5158.8283.3991.0834-.0272.3209-.2228.3209-.2998v-.5622c-1.0665.6546-2.3186.1088-2.6119-1.0934-.3498-1.4339.4741-2.6888,2.012-2.5917.2801.0177.5835.0779.7935.2732l.0004-.1939h1.1643v3.8966c0,.7984-.5735,1.4376-1.3583,1.5315-.2559.0306-.9066.0291-1.1643,0ZM20.2,11.1754c-.161-.1615-.3947-.1602-.5826-.0461-.3717.2259-.362,1.1679-.2112,1.5176.1761.4084.6669.4552.8927.055.1903-.3372.1857-1.241-.0989-1.5266Z"/><path class="cls-8" d="M24.8314,11.5888h-1.0091c-.0644-.8207,1.0199-.7993,1.0091,0Z"/><path class="cls-7" d="M30.42,13.954l-1.682-.0062-.6664-1.1186c-.0545-.0118-.065.0318-.0902.065-.232.3062-.4035.7486-.6468,1.0598h-1.2613l1.3118-2.0029-1.1177-1.7969h1.6494l.5045.8522.5433-.8522h1.2225l-1.0742,1.7257,1.307,1.9965v.0775Z"/><path class="cls-7" d="M26.345,12.3643h-2.5226c-.1516.7526,1.0147.937,1.0868.1936.155.0538,1.4286.0551,1.4375.1384-.4775,1.9553-3.8988,1.74-4.1107-.2786-.1829-1.7425,1.3618-2.7901,2.9549-2.1766.5744.2212,1.1542.9318,1.1542,1.561v.5622ZM24.8314,11.5888c.0108-.7993-1.0735-.8207-1.0091,0h1.0091Z"/></svg>