<?xml version="1.0" encoding="UTF-8"?><svg id="Layer_1" xmlns="http://www.w3.org/2000/svg" viewBox="0 0 32 31.9769"><defs><style>.cls-1,.cls-2,.cls-3{fill:#fff;}.cls-4{opacity:.4;}.cls-2{isolation:isolate;opacity:.6;}.cls-5{fill:#48639f;}.cls-6{fill:#029c8b;}.cls-3{fill-rule:evenodd;stroke:#881a00;stroke-miterlimit:10;stroke-width:2px;}.cls-7{fill:#881a00;}</style></defs><g class="cls-4"><path d="M10.1425,27.717l-.1689-.0234c-5.8262-.8105-8.9717-2.6436-8.9736-3.9561-.002-1.7842,5.8384-4.3838,14.9951-4.3965,9.3188,0,15.0034,2.5352,15.0054,4.3525.001,1.3281-3.1865,3.1807-9.0947,3.999l-.1777.0244-5.6797,3.0439-5.9058-3.0439Z"/><path d="M16.0632,20.3409c8.9053,0,13.5798,2.3997,13.9301,3.3536-.2168.5577-2.4636,2.2095-8.2256,3.0074l-.3549.0491-.3157.1693-5.0578,2.7114-5.2872-2.7254-.3031-.1562-.3377-.047c-5.6743-.7894-7.8898-2.4179-8.1046-2.9676.3481-.9599,5.0388-3.3817,13.9893-3.3945h.0673M16.0632,18.3409c-.0237,0-.0461,0-.0698,0C7.1569,18.3535-.0036,20.7701,0,23.7386c.0027,2.2335,4.0621,4.1422,9.8357,4.9454l6.2218,3.2072,5.9845-3.2082c5.8416-.8089,9.9608-2.7397,9.958-4.9902-.0036-2.9605-7.133-5.3519-15.9368-5.3519h0Z"/></g><polygon class="cls-3" points="25.5351 21.539 16.1366 30.5947 5.9838 21.0015 15.8815 19.818 25.5351 21.539"/><path class="cls-1" d="M16.0869,23.7825c-8.2231,0-14.9131-5.1104-14.9131-11.3911S7.8638.9998,16.0869.9998s14.9131,5.1104,14.9131,11.3916-6.6904,11.3911-14.9131,11.3911Z"/><path class="cls-7" d="M16.087,2c7.6717,0,13.913,4.6615,13.913,10.3912s-6.2414,10.3912-13.913,10.3912S2.1739,18.121,2.1739,12.3912,8.4153,2,16.087,2M16.087,0C7.2984,0,.1739,5.5477.1739,12.3912s7.1245,12.3912,15.913,12.3912,15.913-5.5477,15.913-12.3912S24.8755,0,16.087,0h0Z"/><path class="cls-6" d="M15.6691.1511c.0566.0426-.0041.0605-.0496.0662-1.5836.1995-3.8008.8379-4.8696,2.1008-1.0517,1.2428-.2286,2.2645,1.0174,2.8021.0122.0511-.0078.0533-.0354.0808-.1178.1175-.2637.2197-.3819.3518-1.2024,1.3439-.5859,2.6376,1.037,3.0659l1.2477.2358c-.3423.0384-.6789.1218-1.0212.1628-1.7426.2087-4.6015.0466-5.5874-1.6741-1.0248-1.7887.5838-3.7225,1.9434-4.7711C10.8484,1.1232,13.3069.302,15.6691.1511Z"/><path class="cls-5" d="M19.326,5.9419c-1.3711,1.3846-4.1006,2.9428-6.0985,2.3701-.7956-.2281-1.0513-.9617-.5538-1.6357.5826-.7893,2.217-.9853,3.1296-1.0056l.5664-1.8513c-1.4302.0874-2.8731.3973-4.1465,1.0615-1.0557-.6626-.0687-1.6761.6558-2.1012,1.1979-.7028,2.7255-.8467,4.0895-.8628l.4365-1.6642c1.305.1025,2.9465.8385,3.2899,2.2259.3216,1.299-.4933,2.579-1.369,3.4633Z"/><path class="cls-6" d="M11.6355,20.1213c4.2968.3179,9.0521-.3811,12.8733-2.4171,2.6676-1.4214,5.7276-4.0737,5.0245-7.4603-.7273-3.5027-5.2874-5.3672-8.4276-5.9457-.0862-.0568.1031-.4223.1198-.519,3.6362.5269,8.3019,2.2915,9.8808,5.8921,2.1039,4.7978-2.8043,8.4678-6.609,10.1559-4.1247,1.8301-8.8419,2.4368-13.3288,1.9949l.4336-1.7007c.0111.0009.0223-.0008.0333,0Z"/><path class="cls-5" d="M11.6022,20.1213C7.5574,19.8099-.0166,17.6658.5975,12.3348c.3316-2.8783,3.2294-5.0556,5.6518-6.2204.0628.371.1375.7238.3046,1.0636.0458.0931.3171.4781.2771.5349-2.4157,1.1996-5.2146,3.6487-4.5436,6.6663.4712,2.1191,2.6487,3.4524,4.5377,4.1663,1.5419.5828,3.2135.9064,4.8554,1.0471.1267.0399-.0554.4176-.0449.5286-.0111-.0008-.0223.0009-.0333,0Z"/><rect class="cls-2" x=".7752" y="6.9837" width="30.4496" height="11.3572" rx="3.4443" ry="3.4443"/><path class="cls-5" d="M20.7585,7.2626c3.3152-.2284,3.7166,5.0827.4255,5.3772-3.528.3156-3.8204-5.1433-.4255-5.3772ZM20.7575,8.488c-1.7233.1812-1.526,3.0782.2295,2.977,1.8032-.1039,1.6799-3.1777-.2295-2.977Z"/><path class="cls-5" d="M17.19,12.0279c-.7634.5065-1.9068.7108-2.7917.4389-2.1011-.6456-2.3527-3.7741-.4586-4.8166.9278-.5106,2.101-.4407,2.9948.0987l-.0878,1.2152c-.225-.0535-.3711-.2509-.5871-.3682-.3852-.2092-.75-.2707-1.189-.207-1.6836.2443-1.6515,3.3526.5257,3.1236.5755-.0605.3191-.3197.3684-.7836h-.8578l-.0735-.0735v-.9313l.0735-.0735h2.0097l.0735.0735v2.3038Z"/><polygon class="cls-5" points="27.9737 10.1407 27.9737 7.4938 29.0521 7.4938 29.0521 12.5915 25.768 9.6996 25.768 12.3955 24.7631 12.3955 24.6896 12.322 24.6896 7.1997 27.9737 10.1407"/><path class="cls-5" d="M10.1071,7.4938c.2344.0248.5994.1508.8047.2737.9548.5716.7282,2.2143-.339,2.521l1.3724,2.107h-1.2989l-1.1999-1.7901-.1971-.0725v1.7891l-.0735.0735h-1.1029v-4.9017c.65.0501,1.3961-.0675,2.0342,0ZM9.2493,9.7486c.4735.0893,1.1531-.161,1.1796-.7113.0299-.6206-.7308-.6579-1.1796-.6121v1.3235Z"/><polygon class="cls-5" points="6.4553 7.4938 6.4553 8.5232 4.6907 8.5232 4.6907 9.3564 6.3083 9.3564 6.3083 10.3858 4.6907 10.3858 4.6907 11.3661 6.4553 11.3661 6.4553 12.3955 3.5388 12.3955 3.4653 12.322 3.4653 7.4938 6.4553 7.4938"/><path class="cls-5" d="M24.4935,17.1256c-1.6672,1.0757-3.7516.1889-3.4092-1.9877.2229-1.4171,2.0248-1.8991,3.156-1.2151l-.0412.9723-.6522-.4011c-2.0973-.6158-2.1553,2.8161.0099,2.2098l.0054-.583h-.6862v-.7353h1.544l.0735.0735v1.6666Z"/><polygon class="cls-5" points="9.9355 15.7286 9.9355 13.7189 10.7688 13.7189 10.7688 17.5422 8.465 15.4835 8.465 17.3707 8.3915 17.4442 7.6317 17.4442 7.6317 13.5229 9.9355 15.7286"/><path class="cls-5" d="M5.6711,13.7189v.7843h-1.3235v.6372h1.1764v.7843h-1.1029c-.1201.1633-.1185.5777,0,.7353h1.2499v.7107l-.0735.0735h-2.1322v-3.7253h2.2058Z"/><polygon class="cls-5" points="14.9842 13.7189 14.9842 14.5032 13.7098 14.5032 13.7098 15.1404 14.8127 15.1404 14.8862 15.2139 14.8862 15.9247 13.7098 15.9247 13.7098 16.6599 14.9842 16.6599 14.9842 17.4442 12.8275 17.4442 12.8275 13.7189 14.9842 13.7189"/><path class="cls-5" d="M26.5767,13.7189l.7848,1.0789.8818-1.0789h.9558l-1.4215,1.9362v1.7401h-.9313v-1.6911c0-.1556-1.2843-1.6597-1.3725-1.9852h1.1029Z"/><path class="cls-5" d="M18.587,13.7189c1.1991.1422,1.4569,1.633.3694,2.1098-.0056.0229-.0059.0463-.0026.0701.0297.2132.7824,1.0904.9334,1.3725.0318.0594.0661.093.0477.1729h-.9558c-.3556-.3785-.5854-.9582-.915-1.3398-.0439-.0509-.0468-.1024-.1389-.0817v1.4215h-.9313v-3.7253c.5047.0432,1.1001-.0584,1.593,0ZM17.9743,15.4345c1.0873.1127,1.2264-1.1906,0-.9803v.9803Z"/></svg>