<?xml version="1.0" encoding="UTF-8"?><svg id="Layer_1" xmlns="http://www.w3.org/2000/svg" viewBox="0 0 150 50"><defs><style>.cls-1{fill:#500;opacity:.45;}.cls-2{fill:#48639f;}.cls-3{fill:#029c8b;}</style></defs><rect class="cls-1" width="150" height="50"/><path class="cls-3" d="M34.4841,9.5207c.1959.1474-.0142.2095-.1717.2293-5.4815.6906-13.1564,2.9004-16.8559,7.272-3.6404,4.3018-.7912,7.8385,3.5218,9.6995.0423.177-.027.1845-.1225.2797-.4077.4067-.9127.7605-1.3218,1.2178-4.1619,4.652-2.028,9.13,3.5894,10.6124l4.319.8162c-1.1849.133-2.3501.4217-3.535.5636-6.0318.7224-15.9281.1613-19.3405-5.7949-3.5472-6.1915,2.0207-12.8852,6.727-16.5151,6.5031-5.0157,15.0132-7.8582,23.19-8.3804Z"/><path class="cls-2" d="M47.1421,29.5655c-4.746,4.7928-14.194,10.1866-21.1097,8.2041-2.7539-.7894-3.6391-3.3289-1.9171-5.6619,2.0167-2.7322,7.6741-3.4104,10.8331-3.4809l1.9607-6.4081c-4.9507.3026-9.9451,1.3752-14.3531,3.6744-3.6542-2.2936-.2378-5.8019,2.27-7.2732,4.1466-2.4329,9.4344-2.9307,14.1559-2.9866l1.511-5.7607c4.5174.3549,10.1992,2.9023,11.3881,7.7049,1.1131,4.4966-1.7077,8.9271-4.7388,11.9881Z"/><path class="cls-3" d="M91.4208,42.0137c11.387.7459,23.9887-.894,34.1152-5.6708,7.0695-3.3348,15.1787-9.5577,13.3152-17.5032-1.9274-8.218-14.0121-12.5923-22.3337-13.9497-.2284-.1333.2733-.9908.3176-1.2177,9.6361,1.2362,22.0008,5.3763,26.185,13.824,5.5754,11.2565-7.4316,19.8668-17.5143,23.8274-10.9308,4.2938-23.4318,5.7172-35.3225,4.6804l1.1492-3.9902c.0293.002.0591-.0019.0884,0Z"/><path class="cls-3" d="M91.3325,42.0137c-10.7191-.7305-30.7907-5.7609-29.1631-18.2685.8787-6.7529,8.5581-11.8614,14.9776-14.594.1663.8705.3645,1.6982.8072,2.4953.1213.2184.8404,1.1217.7343,1.255-6.4017,2.8145-13.8191,8.5604-12.041,15.6403,1.2487,4.9719,7.0193,8.1,12.0251,9.7749,4.0861,1.3672,8.5159,2.1265,12.8673,2.4568.3357.0937-.1469.9797-.119,1.2402-.0293-.0019-.0591.002-.0884,0Z"/><path class="cls-2" d="M114.4053,12.4519c8.1045-.5584,9.0857,12.4256,1.0403,13.1453-8.6247.7716-9.3396-12.5735-1.0403-13.1453ZM114.4029,15.4477c-4.2128.4429-3.7305,7.525.5611,7.2777,4.4081-.2541,4.1069-7.7685-.5611-7.2777Z"/><path class="cls-2" d="M105.6815,24.1013c-1.8662,1.2382-4.6615,1.7376-6.8247,1.0729-5.1364-1.5783-5.7515-9.2264-1.1212-11.7749,2.2682-1.2484,5.1362-1.0773,7.3212.2412l-.2147,2.9709c-.55-.1307-.9072-.6134-1.4353-.9002-.9416-.5114-1.8335-.6617-2.9066-.506-4.1157.5972-4.0374,8.1961,1.2851,7.6362,1.4069-.148.7801-.7815.9005-1.9156h-2.097l-.1797-.1797v-2.2768l.1797-.1797h4.913l.1797.1797v5.632Z"/><polygon class="cls-2" points="132.044 19.4878 132.044 13.0171 134.6802 13.0171 134.6802 25.4793 126.6516 18.4094 126.6516 25 124.1951 25 124.0154 24.8203 124.0154 12.2981 132.044 19.4878"/><path class="cls-2" d="M88.3661,13.0171c.5731.0606,1.4654.3685,1.9673.669,2.3342,1.3974,1.7802,5.4133-.8286,6.163l3.355,5.1509h-3.1755l-2.9334-4.3762-.4818-.1773v4.3738l-.1797.1797h-2.6962v-11.9829c1.5891.1224,3.4129-.165,4.9729,0ZM86.2691,18.5292c1.1577.2182,2.8188-.3935,2.8836-1.7389.0731-1.5172-1.7866-1.6083-2.8836-1.4965v3.2354Z"/><polygon class="cls-2" points="79.4388 13.0171 79.4388 15.5335 75.125 15.5335 75.125 17.5706 79.0794 17.5706 79.0794 20.087 75.125 20.087 75.125 22.4836 79.4388 22.4836 79.4388 25 72.309 25 72.1293 24.8203 72.1293 13.0171 79.4388 13.0171"/><path class="cls-2" d="M123.5361,36.5635c-4.0757,2.6297-9.1714.4619-8.3342-4.8592.545-3.4642,4.9499-4.6427,7.7155-2.9705l-.1008,2.3768-1.5945-.9806c-5.1271-1.5055-5.269,6.8844.0242,5.4022l.0131-1.4253h-1.6776v-1.7974h3.7746l.1797.1797v4.0742Z"/><polygon class="cls-2" points="87.9467 33.1484 87.9467 28.2354 89.9838 28.2354 89.9838 37.5821 84.3519 32.5493 84.3519 37.1627 84.1721 37.3424 82.3148 37.3424 82.3148 27.7561 87.9467 33.1484"/><path class="cls-2" d="M77.5216,28.2354v1.9173h-3.2354v1.5578h2.8759v1.9173h-2.6962c-.2936.3991-.2896,1.4123,0,1.7974h3.0556v1.7375l-.1797.1797h-5.2126v-9.107h5.3923Z"/><polygon class="cls-2" points="100.2892 28.2354 100.2892 30.1527 97.1736 30.1527 97.1736 31.7104 99.8698 31.7104 100.0495 31.8902 100.0495 33.6277 97.1736 33.6277 97.1736 35.4252 100.2892 35.4252 100.2892 37.3424 95.0167 37.3424 95.0167 28.2354 100.2892 28.2354"/><path class="cls-2" d="M128.6288,28.2354l1.9185,2.6376,2.1557-2.6376h2.3367l-3.4751,4.7333v4.2539h-2.2768v-4.1341c0-.3803-3.1398-4.0574-3.3552-4.8531h2.6962Z"/><path class="cls-2" d="M109.0966,28.2354c2.9313.3475,3.5615,3.992.903,5.1578-.0138.0561-.0144.1133-.0063.1715.0726.5213,1.9127,2.6658,2.2819,3.3552.0778.1453.1616.2273.1167.4226h-2.3367c-.8693-.9252-1.4311-2.3425-2.2368-3.2753-.1074-.1243-.1145-.2504-.3395-.1997v3.4751h-2.2768v-9.107c1.2338.1057,2.6892-.1429,3.8945,0ZM107.5988,32.4294c2.6581.2754,2.9982-2.9105,0-2.3966v2.3966Z"/></svg>