<?xml version="1.0" encoding="UTF-8"?><svg id="Layer_1" xmlns="http://www.w3.org/2000/svg" viewBox="0 0 150 50"><defs><style>.cls-1{fill:#fb5100;}.cls-2{fill:#1dafff;opacity:.4;}</style></defs><rect class="cls-2" width="150" height="50"/><path class="cls-1" d="M45,2l.0009,10.3068c-5.7456-.2528-11.3112.7083-16.3792,3.4642-8.2754,4.4999-13.7761,13.7132-23.6217,15.1222v-5.8891c4.265-.7537,7.5626-4.2018,10.5961-7.0827,6.8399-6.4956,13.6133-13.4669,23.2317-15.4112.4093-.0827.8206-.1567,1.2342-.214.4411-.0612.8846-.1035,1.3279-.1458.2282-.0218,3.61-.2844,3.61-.1504Z"/><path class="cls-1" d="M4.9979,40.5921c5.0746-1.5695,8.9149-5.5303,13.7367-7.7031,9.2861-4.1845,18.0218-1.1973,26.5665,3.1023v10.1218c-2.5584-1.2257-4.8946-2.8342-7.4794-4.0227-6.6546-3.0598-13.0905-4.5408-20.1195-1.5843-4.3117,1.8136-7.9294,5.3467-12.7043,5.975v-5.8891Z"/><path class="cls-1" d="M4.9979,32.8627c6.4458-1.6577,11.0036-7.0033,16.5785-10.3823,6.2648-3.7971,12.2438-5.0622,19.5577-4.1301,1.3318.1697,2.9711.4567,4.167.9859v9.6617c-2.1281-.4552-4.1511-1.2841-6.2907-1.7148-5.2638-1.0595-9.894-.8501-14.8671,1.2607-6.6118,2.8063-11.8114,8.7112-19.1455,9.8397v-5.521Z"/><path class="cls-1" d="M136.011,23.8072c-1.3114-.1219-3.1545.395-4.1895-.6231-.1677-.1649-.5442-.6849-.5442-.8759v-13.1757h2.9981v11.7555c0,.3714,1.4394.4695,1.7357.3945v2.5247Z"/><polygon class="cls-1" points="62.4797 9.1325 62.4797 11.9728 56.0102 11.9728 56.0102 14.6553 62.4797 14.6553 62.4797 17.4956 56.0102 17.4956 56.0102 20.967 62.4797 20.967 62.4797 23.8072 53.0121 23.8072 53.0121 9.1325 62.4797 9.1325"/><path class="cls-1" d="M62.4797,26.4897v2.8403h-6.4695v2.6825c.1549-.0512.3423.1578.3945.1578h6.075v2.6825h-6.2328c-.0167,0-.2367.22-.2367.2367v3.2347h6.4695v2.8403h-9.4675v-14.6747h9.4675Z"/><path class="cls-1" d="M129.0681,21.4404c.0565.0563,1.1045-.0552,1.1045,0v2.3669h-2.4458c-.3807,0-.7345-.7936-.7918-.7926-.1827.003-1.0731.6824-1.5305.8372-2.4349.8241-5.7867-.2383-5.6336-3.2541.1716-3.3807,3.9529-3.3057,6.4577-3.417.4169-1.7274-1.6983-2.2501-2.7779-1.2721-.182.1649-.1945.4824-.221.4824h-2.8403c-.0719-3.8835,7.0373-4.4166,8.348-1.3262.0716.1688.3306.986.3306,1.0895,0,.7047-.1872,5.0995,0,5.286ZM126.2284,19.3884c-.8269.1314-3.2953-.1015-3.4738,1.0347-.2413,1.5358,1.7409,1.5982,2.7395.9935.7909-.4789.7891-1.1891.7343-2.0283Z"/><path class="cls-1" d="M86.7797,19.7046c.1485,1.6557,1.8781,2.268,3.3222,1.8233.365-.1124.9495-.8765,1.0171-.8765h2.9192c-1.2025,4.5056-7.9218,4.6348-9.6534.4226-1.0203-2.4817-.3975-6.2408,2.2378-7.4437,3.3425-1.5257,7.1582.1815,7.5541,3.9636.0357.3411.1363,2.1108-.2174,2.1108h-7.1796ZM91.1979,17.4956c.2503-2.8396-4.3974-2.7716-4.4182,0h4.4182Z"/><path class="cls-1" d="M85.5174,37.0618h-7.2585c-.1533,1.9181,2.3629,2.5841,3.6935,1.5565.2374-.1834.2254-.452.2513-.452h2.9981c-.372,2.584-3.0796,3.5456-5.4423,3.3122-6.3177-.6241-6.3756-11.9559,1.8512-10.8455,1.8275.2467,3.9067,2.2414,3.9067,4.1407v2.288ZM82.5193,34.8527c.1346-2.8168-4.3206-2.6603-4.4182,0h4.4182Z"/><path class="cls-1" d="M109.1073,30.9079c.4078.1268,2.0716,5.2778,2.5247,5.9977l2.288-5.9977h3.3136l-5.4411,12.3106c-.1465.576-1.2083,1.4174-1.7385,1.4174h-3.8659v-2.3669h2.4458c.7768,0,1.4632-1.5689,1.3128-2.2489-1.2896-3.04-2.8274-5.9983-3.9164-9.1122h3.077Z"/><path class="cls-1" d="M105.2414,23.8072h-2.8403v-6.5484c0-.2153-.4772-1.0209-.7072-1.1864-.868-.6247-2.1879-.3407-2.7404.5791-.0626.1043-.3395.7232-.3395.7651v6.3906h-2.8403l-.1629-10.0216c-.0181-.1324.1632-.3927.2417-.3927h2.4458c.0473,0-.0354.8103.0016.9467,1.6116-1.7306,4.8495-1.6461,6.2212.3256.1838.2642.7201,1.3971.7201,1.6468v7.4951Z"/><path class="cls-1" d="M73.9985,41.1644h-2.9981v-6.7062c0-.1007-.4828-.828-.6344-.9436-1.2355-.9421-3.1526.033-3.1526,1.5748v6.075h-2.8403v-10.2565h2.5247c.0394,0-.0296.664.0016.7889,1.7444-1.7066,5.109-1.5796,6.4119.6083.2063.3465.6872,1.6606.6872,1.9953v6.864Z"/><path class="cls-1" d="M82.8349,16.391h-2.7614c-.0502,0-.3534-.5355-.6988-.7215-1.189-.6402-3.2301.1538-2.2924,1.1892.5048.5574,2.7047.4799,3.5455.7137,1.9567.544,2.794,2.425,2.0813,4.2938-1.2608,3.3063-9.1635,3.0861-9.0262-1.2148h2.9981c.087,0,.0295.9117,1.193,1.0937,2.0402.3191,2.998-1.436,1.1828-1.8117-1.8991-.393-4.5682-.0621-5.0202-2.7116-.878-5.1474,8.4494-5.6452,8.7983-.8308Z"/><path class="cls-1" d="M72.7362,16.391h-2.8403c-.0211,0-.0217-.2802-.1496-.3952-1.7245-1.5495-4.1496.3902-2.3789,1.1091,1.8162.7373,4.9715-.2276,5.4884,2.8734.8738,5.2417-9.1475,5.6563-9.2715.6732h2.9192c.1311,0,.2498.5899.4871.7752,1.1208.8749,3.8103.0304,2.7485-1.1714-.8641-.9781-4.5525.2862-5.5698-2.4768-2.0199-5.4856,8.2294-6.4906,8.567-1.3873Z"/><path class="cls-1" d="M111.0797,13.3929h2.9981v2.5247h-2.6036c-.0522,0-.2396.209-.3945.1578v4.6549c0,.0649.6276.5523.7101.5523h2.288v2.5247h-4.0237c-.0941,0-1.0552-.425-1.194-.5418-1.4445-1.2155-.4504-5.4533-.8473-7.2001-.2174-.3122-1.5524-.0774-1.9824-.1478v-2.5247h2.0513v-2.9981h2.7614c.0167,0,.2367.22.2367.2367v2.7614Z"/><path class="cls-1" d="M89.62,30.9079c.0802.08-.1207,1.415.0789,1.4217.0776-.4627,1.0192-1.4217,1.4201-1.4217h2.7614v2.5247h-2.9192c-.2876,0-1.0257.8803-1.0257,1.1834v6.5484h-2.8403v-10.2565c.3703.066,2.4353-.0892,2.5247,0Z"/><rect class="cls-1" x="115.4979" y="13.3929" width="2.8403" height="10.4143"/><path class="cls-1" d="M118.496,9.1325v2.6036c0,.0167-.22.2367-.2367.2367h-2.6825c-.0167,0-.2367-.22-.2367-.2367v-2.6036h3.1558Z"/><path class="cls-1" d="M95.4583,44.9514l-1.1722-1.1157c-.717-1.0159-.6264-3.0198.6979-3.4632-.0301-.4704-.5124-.5865-.6828-1.1267-.3666-1.1627.2963-2.3647,1.4723-2.6593-4.0204-4.7287,3.3505-8.3163,6.5495-4.4171.0411-1.5597,1.7761-1.3989,2.9184-1.4194v2.6825l-2.0521-.0008c.1834,2.5629-1.1431,4.1911-3.7099,4.4164-.6769.0594-1.761-.1341-2.3323.0347-.5992.177-.4788,1.0724-.1899,1.0724h4.4182c.1048,0,1.0442.2802,1.2273.3506,1.9069.7327,2.1478,2.5773,1.3526,4.2806l-1.5543,1.3649h-6.9429ZM98.2528,32.8359c-1.5377.3504-1.1216,3.2084,1.0345,2.7699,1.7493-.3558,1.4799-3.3428-1.0345-2.7699ZM97.1484,41.1978c-.6627.1907-.8529,1.3083-.1593,1.5126.3472.1023,3.6459.111,4.0711.0321.7628-.1414.7306-1.4067-.162-1.5741-.4271-.0801-3.3872-.075-3.7497.0293Z"/></svg>