<?xml version="1.0" encoding="UTF-8"?><svg id="Layer_1" xmlns="http://www.w3.org/2000/svg" viewBox="0 0 32 31.9769"><defs><style>.cls-1,.cls-2{fill:#fff;}.cls-3{opacity:.4;}.cls-2{fill-rule:evenodd;stroke:#3a83ed;stroke-miterlimit:10;stroke-width:2px;}.cls-4{fill:#fb5100;}.cls-5{fill:#3a83ed;}</style></defs><g class="cls-3"><path d="M10.1425,27.7174l-.1689-.0234c-5.8262-.8115-8.9717-2.6436-8.9736-3.9561-.002-1.7842,5.8384-4.3848,14.9951-4.3975,9.3174,0,15.0029,2.5361,15.0049,4.3535.002,1.3271-3.1855,3.1797-9.0957,3.999l-.1768.0244-5.6792,3.0439-5.9058-3.0439Z"/><path d="M16.0632,20.3409c8.9053,0,13.5798,2.3997,13.9301,3.3536-.2168.5577-2.4636,2.2095-8.2256,3.0074l-.3549.0491-.3157.1693-5.0578,2.7114-5.2872-2.7254-.3031-.1562-.3377-.047c-5.6743-.7894-7.8898-2.4179-8.1046-2.9676.3481-.9599,5.0387-3.3817,13.9893-3.3945h.0673M16.0632,18.3409c-.0237,0-.0461,0-.0698,0C7.1569,18.3535-.0036,20.7701,0,23.7386c.0027,2.2335,4.0621,4.1422,9.8357,4.9454l6.2218,3.2072,5.9845-3.2082c5.8416-.8089,9.9608-2.7397,9.958-4.9902-.0037-2.9605-7.133-5.3519-15.9368-5.3519h0Z"/></g><polygon class="cls-2" points="25.5351 21.539 16.1366 30.5947 5.9838 21.0015 15.8815 19.818 25.5351 21.539"/><path class="cls-1" d="M16.0869,23.7825c-8.2231,0-14.9131-5.1104-14.9131-11.3911S7.8638.9998,16.0869.9998s14.9131,5.1104,14.9131,11.3916-6.6904,11.3911-14.9131,11.3911Z"/><path class="cls-5" d="M16.087,2c7.6717,0,13.913,4.6615,13.913,10.3912s-6.2414,10.3912-13.913,10.3912S2.1739,18.121,2.1739,12.3912,8.4153,2,16.087,2M16.087,0C7.2984,0,.1739,5.5477.1739,12.3912s7.1245,12.3912,15.913,12.3912,15.913-5.5477,15.913-12.3912S24.8755,0,16.087,0h0Z"/><path class="cls-4" d="M10.7465,6.8964l.0002,2.2402c-1.2583-.0549-2.4771.154-3.5871.7529-1.8123.9781-3.017,2.9806-5.1732,3.2868v-1.28c.934-.1638,1.6562-.9133,2.3206-1.5394,1.6934-1.5961,2.8678-2.9956,5.3401-3.3818.0744-.0116.162.0502.1394-.0787h.96Z"/><path class="cls-4" d="M1.9865,15.3364c1.103-.3411,1.9377-1.202,2.9857-1.6743,2.0184-.9095,3.9171-.2602,5.7743.6743v2.2c-.5561-.2664-1.0638-.616-1.6257-.8743-1.4464-.665-2.8453-.9869-4.373-.3443-.9372.3942-1.7235,1.1621-2.7613,1.2987v-1.28Z"/><path class="cls-4" d="M1.9865,13.6564c1.401-.3603,2.3917-1.5222,3.6034-2.2566,1.3617-.8253,2.6612-1.1003,4.2509-.8977.2895.0369.6458.0993.9057.2143v2.1c-.4625-.0989-.9023-.2791-1.3673-.3727-1.1441-.2303-2.1505-.1848-3.2314.274-1.4371.61-2.5672,1.8934-4.1613,2.1387v-1.2Z"/><path class="cls-4" d="M30.4625,11.6881c-.285-.0265-.6856.0859-.9106-.1354-.0364-.0359-.1183-.1489-.1183-.1904v-2.8638h.6516v2.5551c0,.0807.3129.102.3773.0857v.5487Z"/><polygon class="cls-4" points="14.4803 8.4986 14.4803 9.1159 13.0742 9.1159 13.0742 9.6989 14.4803 9.6989 14.4803 10.3163 13.0742 10.3163 13.0742 11.0708 14.4803 11.0708 14.4803 11.6881 12.4225 11.6881 12.4225 8.4986 14.4803 8.4986"/><path class="cls-4" d="M14.4803,12.2712v.6173h-1.4062v.583c.0337-.0111.0744.0343.0857.0343h1.3204v.583h-1.3547c-.0036,0-.0514.0478-.0514.0514v.7031h1.4062v.6173h-2.0578v-3.1896h2.0578Z"/><path class="cls-4" d="M28.9535,11.1737c.0123.0122.2401-.012.2401,0v.5144h-.5316c-.0827,0-.1597-.1725-.1721-.1723-.0397.0007-.2332.1483-.3327.182-.5292.1791-1.2577-.0518-1.2245-.7073.0373-.7348.8592-.7185,1.4036-.7427.0906-.3755-.3691-.4891-.6038-.2765-.0396.0358-.0423.1048-.048.1048h-.6173c-.0156-.8441,1.5296-.96,1.8145-.2883.0156.0367.0719.2143.0719.2368,0,.1532-.0407,1.1084,0,1.1489ZM28.3363,10.7277c-.1797.0286-.7162-.0221-.755.2249-.0525.3338.3784.3474.5954.2159.1719-.1041.1715-.2584.1596-.4408Z"/><path class="cls-4" d="M19.762,10.7964c.0323.3599.4082.4929.7221.3963.0793-.0244.2064-.1905.2211-.1905h.6345c-.2614.9793-1.7218,1.0074-2.0982.0918-.2218-.5394-.0864-1.3565.4864-1.6179.7265-.3316,1.5559.0394,1.6419.8615.0078.0741.0296.4588-.0472.4588h-1.5605ZM20.7223,10.3163c.0544-.6172-.9558-.6024-.9603,0h.9603Z"/><path class="cls-4" d="M19.4876,14.5691h-1.5776c-.0333.4169.5136.5617.8028.3383.0516-.0399.049-.0982.0546-.0982h.6516c-.0809.5616-.6694.7706-1.1829.7199-1.3732-.1356-1.3858-2.5986.4024-2.3573.3972.0536.8491.4872.8491.9v.4973ZM18.836,14.0889c.0292-.6122-.9391-.5782-.9603,0h.9603Z"/><path class="cls-4" d="M24.615,13.2315c.0886.0276.4503,1.1472.5487,1.3036l.4973-1.3036h.7202l-1.1826,2.6757c-.0319.1252-.2626.3081-.3779.3081h-.8403v-.5144h.5316c.1688,0,.318-.341.2853-.4888-.2803-.6607-.6145-1.3037-.8512-1.9806h.6688Z"/><path class="cls-4" d="M23.7747,11.6881h-.6173v-1.4233c0-.0468-.1037-.2219-.1537-.2579-.1887-.1358-.4755-.074-.5956.1259-.0136.0227-.0738.1572-.0738.1663v1.389h-.6173l-.0354-2.1782c-.0039-.0288.0355-.0854.0525-.0854h.5316c.0103,0-.0077.1761.0003.2058.3503-.3762,1.0541-.3578,1.3522.0708.04.0574.1565.3037.1565.3579v1.6291Z"/><path class="cls-4" d="M16.984,15.4608h-.6516v-1.4576c0-.0219-.1049-.18-.1379-.2051-.2685-.2048-.6852.0072-.6852.3423v1.3204h-.6173v-2.2293h.5487c.0086,0-.0064.1443.0003.1715.3791-.3709,1.1104-.3433,1.3936.1322.0448.0753.1494.3609.1494.4337v1.4919Z"/><path class="cls-4" d="M18.9046,10.0762h-.6002c-.0109,0-.0768-.1164-.1519-.1568-.2584-.1391-.7021.0334-.4983.2585.1097.1211.5879.1043.7706.1551.4253.1182.6073.5271.4524.9333-.274.7186-1.9917.6708-1.9619-.264h.6516c.0189,0,.0064.1982.2593.2377.4434.0694.6516-.3121.2571-.3938-.4128-.0854-.9929-.0135-1.0911-.5894-.1908-1.1188,1.8365-1.227,1.9123-.1806Z"/><path class="cls-4" d="M16.7096,10.0762h-.6173c-.0046,0-.0047-.0609-.0325-.0859-.3748-.3368-.9019.0848-.5171.2411.3948.1603,1.0806-.0495,1.1929.6245.1899,1.1393-1.9882,1.2294-2.0152.1463h.6345c.0285,0,.0543.1282.1059.1685.2436.1902.8282.0066.5974-.2546-.1878-.2126-.9895.0622-1.2106-.5383-.439-1.1923,1.7887-1.4108,1.8621-.3015Z"/><path class="cls-4" d="M25.0437,9.4246h.6516v.5487h-.5659c-.0113,0-.0521.0454-.0857.0343v1.0117c0,.0141.1364.12.1543.12h.4973v.5487h-.8746c-.0204,0-.2293-.0924-.2595-.1178-.314-.2642-.0979-1.1853-.1842-1.565-.0473-.0678-.3374-.0168-.4309-.0321v-.5487h.4459v-.6516h.6002c.0036,0,.0514.0478.0514.0514v.6002Z"/><path class="cls-4" d="M20.3793,13.2315c.0174.0174-.0262.3076.0171.309.0169-.1006.2215-.309.3087-.309h.6002v.5487h-.6345c-.0625,0-.2229.1913-.2229.2572v1.4233h-.6173v-2.2293c.0805.0143.5293-.0194.5487,0Z"/><rect class="cls-4" x="26.004" y="9.4246" width=".6173" height="2.2636"/><path class="cls-4" d="M26.6556,8.4986v.5659c0,.0036-.0478.0514-.0514.0514h-.583c-.0036,0-.0514-.0478-.0514-.0514v-.5659h.6859Z"/><path class="cls-4" d="M21.6483,16.2839l-.2548-.2425c-.1558-.2208-.1362-.6564.1517-.7527-.0065-.1022-.1114-.1275-.1484-.2449-.0797-.2527.0644-.514.32-.578-.8738-1.0278.7282-1.8076,1.4236-.9601.0089-.339.386-.304.6343-.3085v.583l-.446-.0002c.0399.557-.2485.9109-.8064.9599-.1471.0129-.3828-.0291-.5069.0075-.1302.0385-.1041.2331-.0413.2331h.9603c.0228,0,.227.0609.2668.0762.4145.1593.4668.5602.294.9304l-.3378.2967h-1.509ZM22.2557,13.6505c-.3342.0762-.2438.6974.2249.602.3802-.0773.3217-.7266-.2249-.602ZM22.0157,15.468c-.144.0414-.1854.2844-.0346.3288.0755.0222.7924.0241.8849.007.1658-.0307.1588-.3058-.0352-.3421-.0928-.0174-.7362-.0163-.815.0064Z"/></svg>