<?xml version="1.0" encoding="UTF-8"?><svg id="Layer_1" xmlns="http://www.w3.org/2000/svg" viewBox="0 0 32 31.9769"><defs><style>.cls-1,.cls-2{fill:#fff;}.cls-3{opacity:.4;}.cls-4{fill:#c3b100;}.cls-5{fill:#19497d;}.cls-6{fill:#ff8827;}.cls-2{fill-rule:evenodd;stroke:#a23e00;stroke-miterlimit:10;stroke-width:2px;}.cls-7{fill:#a23e00;}</style></defs><g class="cls-3"><path d="M10.1424,27.7168l-.1689-.0234c-5.8262-.8105-8.9717-2.6436-8.9736-3.9561-.002-1.7842,5.8384-4.3838,14.9951-4.3965,9.3193,0,15.0029,2.5352,15.0049,4.3525.002,1.3281-3.1855,3.1807-9.0947,3.999l-.1777.0244-5.6792,3.0439-5.9058-3.0439Z"/><path d="M16.0632,20.3409c8.9053,0,13.5798,2.3997,13.9301,3.3536-.2168.5577-2.4636,2.2095-8.2256,3.0074l-.3549.0491-.3157.1693-5.0578,2.7114-5.2872-2.7254-.3031-.1562-.3377-.047c-5.6743-.7894-7.8898-2.4179-8.1046-2.9676.3481-.9599,5.0388-3.3817,13.9893-3.3945h.0673M16.0632,18.3409c-.0237,0-.0461,0-.0698,0C7.1569,18.3535-.0036,20.7701,0,23.7386c.0028,2.2335,4.0621,4.1422,9.8357,4.9454l6.2218,3.2072,5.9845-3.2082c5.8416-.8089,9.9608-2.7397,9.958-4.9902-.0037-2.9605-7.1329-5.3519-15.9368-5.3519h0Z"/></g><polygon class="cls-2" points="25.5351 21.539 16.1366 30.5947 5.9838 21.0015 15.8815 19.818 25.5351 21.539"/><path class="cls-1" d="M16.0869,23.7825c-8.2231,0-14.9131-5.1104-14.9131-11.3911S7.8638.9998,16.0869.9998s14.9131,5.1104,14.9131,11.3916-6.6904,11.3911-14.9131,11.3911Z"/><path class="cls-7" d="M16.087,2c7.6717,0,13.913,4.6615,13.913,10.3912s-6.2414,10.3912-13.913,10.3912S2.1739,18.121,2.1739,12.3912,8.4153,2,16.087,2M16.087,0C7.2984,0,.1739,5.5477.1739,12.3912s7.1245,12.3912,15.913,12.3912,15.913-5.5477,15.913-12.3912S24.8755,0,16.087,0h0Z"/><path class="cls-6" d="M8.6462,8.51c.8104.0686,1.2873.5316,1.3383,1.3468.06.9591-.0478,1.9794,0,2.9451.0645,1.6647-2.7678,1.8299-3.0658.3146.0019-1.0757-.1063-2.2642-.0317-3.3339.0537-.7696.5635-1.2044,1.3135-1.2727.1205-.011.3247-.0103.4457,0ZM8.7868,13.0528c.0465-.0555.0766-.1783.0832-.2509.087-.957-.0659-2.0458-.0025-3.0167-.0658-.4201-.8042-.4093-.8636-.0246v3.1377c.0455.3281.6129.3575.7829.1546Z"/><polygon class="cls-6" points="3.1982 8.5842 4.2878 8.5842 4.2878 10.7358 5.1545 10.7358 5.1545 8.5842 6.2441 8.5842 6.2441 14.0746 5.1545 14.0746 5.1545 11.7127 5.1174 11.6756 4.2878 11.6756 4.2878 14.0746 3.1982 14.0746 3.1982 8.5842"/><path class="cls-5" d="M19.8641,19.4414c-.0749.0085-.2218.008-.2972,0-.3299-.0351-.6514-.2233-.7415-.5579.0063-.7368-.0984-1.6196-.026-2.3478.0373-.3751.3213-.6298.6877-.6735.5528-.0659,1.0997.0879,1.1457.7216.0412.5689.0484,1.5652-.0002,2.1289-.0372.432-.3538.6818-.7686.7287ZM19.686,16.3555c-.1808.0097-.2875.1036-.315.281.0368.6307-.0565,1.33-.0031,1.9525.0219.2557.1213.3492.3855.3342.2225-.0126.283-.1051.3057-.3135.0499-.4581.044-1.437.004-1.9021-.0207-.2409-.1194-.366-.3771-.3521Z"/><path class="cls-6" d="M13.6732,13.209h.3219v.8656h-.8048c-.0771,0-.2732-.0585-.3427-.1029-.4328-.2766-.2142-1.2916-.2672-1.7611-.012-.1066-.0748-.2876-.2073-.2876h-.5943l-.0371.0371v2.1146h-1.0896v-5.4533l.0371-.0371h1.9316c.4212,0,.8769.2392,1.0016.6567.0768.2569.0878,1.3669.0193,1.6242-.0207.0778-.1013.2321-.1564.2889-.0929.0957-.29.1384-.3456.1988-.1644.1788.171.3115.2731.3975.1395.1176.2606.3207.2606.5064v.9522ZM11.7416,9.5487v1.3973l.0371.0371h.6191c.118,0,.165-.1412.179-.2355.0306-.2058.0308-.7783.0067-.9887-.0059-.0516-.0588-.2102-.1114-.2102h-.7305Z"/><path class="cls-5" d="M21.4738,15.9047l.3095,2.5229.4445-2.5244.5118.0158c.103.6274.2462,1.2525.3405,1.8811.0292.1949.0298.3964.0527.5908.0044.037.0199.0752.0495.0364l.2725-2.5225h.5696l-.5695,3.4873-.5447-.0003-.4581-2.4731-.4338,2.4731-.5215-.0105-.5927-3.4765h.5696Z"/><path class="cls-5" d="M27.578,15.9047c.2367.0335.4559.2323.4966.4686.0279.1619.0359.8686.0004,1.017-.0449.1875-.3471.2784-.355.3318.0669.1259.3657.2156.3657.396v.8285h.2229v.4452h-.4829c-.0804,0-.2245-.1328-.2612-.209-.1329-.2755.0412-.9232-.0973-1.1147-.0146-.0202-.0972-.086-.112-.086h-.4829v1.4097h-.5696v-3.4872h1.2753ZM26.8722,17.4628h.5077c.0517,0,.126-.1067.1347-.1622.0212-.1355.0173-.549.0015-.691-.0121-.1083-.0626-.2102-.1857-.2102h-.4581v1.0635Z"/><path class="cls-5" d="M17.3382,18.3532v1.0387h-.5696v-3.4872h1.1267c.0246,0,.201.0671.2366.0852.1977.1005.3028.3032.3215.5198.0276.3198.0275.9185,0,1.2384-.0201.2345-.118.4288-.3384.5277-.0447.0201-.2081.0774-.2445.0774h-.5324ZM17.3382,17.8338h.4086c.0978,0,.1289-.184.1358-.2601.016-.1775.0231-.9233-.031-1.0564-.0571-.1405-.4021-.154-.5134-.0808v1.3973Z"/><polygon class="cls-5" points="25.9312 15.9047 25.9312 16.3994 24.9654 16.3994 24.9654 17.3144 25.6588 17.3144 25.6588 17.7967 25.6217 17.8338 24.9654 17.8338 24.9654 18.8725 25.9312 18.8725 25.9312 19.3919 24.3959 19.3919 24.3959 15.9047 25.9312 15.9047"/><path class="cls-4" d="M31.7178,14.3723c-.8147-.1465-1.6373-.2704-2.4286-.3745-.3463-.0455-.7009-.1099-1.0427-.1472-.1201-.0131-.0521.0535-.1359.0509.0115-.0311-.025-.0726-.025-.0866v-5.206l-1.0635.0013-.0021,1.7678c.1156.4446.0852.925.1506,1.3829.0054.0383.0418.0684.0496.1236.0048.0338.0041.2339-.0138.2364l-.0808-.043-.4643-1.369c-.112-.0021-.0295-.0143-.0495-.0948-.3405-.6347-.5978-1.3222-.9428-1.9534-.0143-.0261-.0358-.0469-.0598-.064-.0206-.0069-.0319.0122-.037.0122h-.8791l.0105,4.9979-.0237.048c-.2739-.0931-.6287-.0518-.9164-.0292l-.0334-.0544c.1228-.1954.1957-.416.2209-.6458-.0839-1.0344.1118-2.2454-.0072-3.2592-.0604-.5149-.3728-.8854-.8566-1.0489l-.4744-.1074h-.3962c-.1507.0568-.2979.0508-.4561.101-.279.0885-.5901.2994-.7189.5684-.0406.0847-.1525.431-.163.5294-.1068.9948.0821,2.1772,0,3.1919.0572.2024.0646.384.1652.578.0375.0723.109.0936.1079.1754l-.7924.0496v-.5688l-1.7084.0127,1.9065-4.1305v-.4328h-3.0707v.9027c.0217.0353.0494.0341.0854.0383.4538.0532,1.0406-.0806,1.4628-.026.0341.0044.0434-.0135.0358.036l-1.8696,4.1182-.023.3734-.4095.0479v-.9645h-.6191v-3.5613h.6191v-.9645h-2.303v.9645h.6191c.0066.0181-.0247.0295-.0247.037v3.5243h-.5944v.9645h2.2288c-.0111.0525-.1116.0145-.1564.0253-.1168.0281-.2852.0692-.4314.0926-2.079.3338-4.3143.8337-6.2037,1.5478-.2817.1064-.6531.184-.9399.2905-.0227.0084-.0353.0793-.1185.0473l.0493.049c-.2443-.0438-.457.175-.6934.1982l.0251.0491c-.0326-.0027-.06-.017-.0941-.0081-.1089.0283-.3666.1443-.4301.2281-.1154-.0495-.0818.0151-.1132.0261-.027.0095-.0659-.0005-.1042.0149-.0682.0272-.1274.1075-.2245.0856l.0251.0491c-.0977-.0372-.1186.0377-.1434.0473-.4623.1779-.8132.3775-1.239.5933-.0706.0358-.1979.0738-.2767.1019l.0493.049c-.148-.0134-.2595.1102-.3959.149l.0123.0491c.2214-.0249.4361-.1201.6463-.1946,8.1594-2.8918,17.101-3.6332,25.7808-3.0248v-.1681ZM22.6222,13.1566c-.3002.075-.6157.0213-.6504-.3337.0635-.9493-.0945-2.031-.0026-2.9648.0439-.4456.3839-.4006.7377-.3536l.1552.1793.0004,3.2425c-.0739.1196-.0778.1898-.2403.2303ZM25.7606,13.6515l-.0029-1.4439-.2213-1.7797.0602-.0383c.0211.0057.0339.0643.0493.0894.0414.0683.0103.0778.0391.1385.1238.2614.2416.5802.2963.8436.0609.0459.0757.2018.0989.2888l.0491-.025c.0045.1194.0754.2216.0995.3219l.0491-.0251c-.0282.1211.0521.2583.1023.3754.1702.3976.3795.7649.5446,1.1875.0126.0322.0858.0621.0466.1685l-1.2106-.1016Z"/></svg>