<?xml version="1.0" encoding="UTF-8"?><svg id="Layer_1" xmlns="http://www.w3.org/2000/svg" viewBox="0 0 150 50"><defs><style>.cls-1{opacity:.3;}.cls-1,.cls-2{fill:#ff8827;}.cls-3{fill:#c3b100;}.cls-4{fill:#19497d;}</style></defs><rect class="cls-1" width="150" height="50"/><path class="cls-2" d="M38.0111,2.0607c3.4016.2881,5.4036,2.2317,5.6176,5.6536.2518,4.026-.2007,8.3089,0,12.3626.2705,6.9879-11.6184,7.6813-12.8692,1.3206.0081-4.5153-.4461-9.5045-.1329-13.9946.2253-3.2307,2.3654-5.0555,5.5136-5.3422.506-.0461,1.3628-.043,1.8711,0ZM38.6014,21.13c.1951-.2329.3216-.7482.3493-1.0533.3652-4.0172-.2765-8.5878-.0105-12.6632-.2764-1.7636-3.3757-1.7182-3.6252-.1035v13.1711c.1908,1.3773,2.5727,1.5006,3.2863.6489Z"/><polygon class="cls-2" points="15.1423 2.3721 19.716 2.3721 19.716 11.404 23.3542 11.404 23.3542 2.3721 27.928 2.3721 27.928 25.419 23.3542 25.419 23.3542 15.5047 23.1983 15.349 19.716 15.349 19.716 25.419 15.1423 25.419 15.1423 2.3721"/><path class="cls-4" d="M85.1,47.9468c-.3145.0356-.9309.0336-1.2474,0-1.3848-.1472-2.7345-.9373-3.1124-2.3419.0266-3.093-.413-6.7986-.1091-9.8553.1566-1.5745,1.3486-2.6436,2.8866-2.8269,2.3206-.2766,4.6163.369,4.8091,3.0291.173,2.3878.2032,6.5702-.0007,8.9363-.1563,1.8136-1.4853,2.8619-3.2262,3.0588ZM84.3525,34.9935c-.7589.0409-1.2069.4347-1.3223,1.1795.1544,2.6474-.2371,5.5831-.0129,8.1959.0921,1.0733.5092,1.466,1.6181,1.403.9341-.0531,1.1879-.4411,1.2832-1.3159.2095-1.923.1846-6.032.0167-7.9845-.087-1.011-.5012-1.5364-1.5828-1.4781Z"/><path class="cls-2" d="M59.1127,21.7855h1.3513v3.6335h-3.3783c-.3235,0-1.1467-.2455-1.4385-.432-1.8167-1.1609-.8992-5.4218-1.1216-7.3927-.0505-.4474-.3138-1.2072-.8702-1.2072h-2.4948l-.1559.1557v8.8762h-4.5738V2.5278l.1559-.1557h8.108c1.7681,0,3.6807,1.0043,4.2043,2.7567.3222,1.0784.3686,5.7376.081,6.8177-.0869.3264-.425.9742-.6567,1.2128-.3898.4016-1.2174.5808-1.4509.8346-.6902.7505.7179,1.3076,1.1462,1.6687.5856.4937,1.0938,1.3463,1.0938,2.1259v3.9969ZM51.0047,6.4209v5.8655l.1559.1557h2.5987c.4954,0,.6925-.5925.7515-.9887.1285-.864.1292-3.2671.028-4.1501-.0248-.2167-.2467-.8825-.4677-.8825h-3.0665Z"/><path class="cls-4" d="M91.8567,33.1013l1.2994,10.5902,1.8657-10.5965,2.1484.0661c.4322,2.6334,1.0336,5.2575,1.4291,7.896.1227.8182.1251,1.6638.2213,2.4798.0183.1551.0834.3158.208.1529l1.144-10.5886h2.3908l-2.3905,14.6384-2.2863-.0014-1.9229-10.3811-1.8211,10.3811-2.189-.044-2.4878-14.593h2.3908Z"/><path class="cls-4" d="M117.4801,33.1013c.9935.1405,1.9136.9751,2.0846,1.9669.1172.6797.1508,3.6459.0016,4.2692-.1884.7871-1.4571,1.1688-1.4902,1.3929.2807.5283,1.535.9049,1.535,1.6625v3.4778h.9355v1.8687h-2.027c-.3375,0-.9423-.5576-1.0966-.8773-.5578-1.1562.1729-3.8751-.4083-4.6792-.0613-.0847-.4079-.3609-.4702-.3609h-2.027v5.9174h-2.3908v-14.6379h5.3534ZM114.5176,39.6416h2.131c.2169,0,.5291-.4481.5655-.681.089-.5688.0727-2.3046.0061-2.9006-.0507-.4544-.2627-.8825-.7796-.8825h-1.9231v4.464Z"/><path class="cls-4" d="M74.4972,43.3789v4.3602h-2.3908v-14.6379h4.7297c.1034,0,.8437.2819.993.3578.8298.422,1.2712,1.2728,1.3496,2.1819.1157,1.3424.1153,3.8555,0,5.1982-.0845.9844-.4952,1.7999-1.4204,2.215-.1877.0842-.8735.3248-1.0262.3248h-2.2349ZM74.4972,41.1988h1.7152c.4105,0,.541-.7722.5699-1.0919.0672-.7452.097-3.8756-.1301-4.4343-.2398-.5899-1.6879-.6466-2.155-.3394v5.8655Z"/><polygon class="cls-4" points="110.5675 33.1013 110.5675 35.1776 106.5135 35.1776 106.5135 39.0187 109.4241 39.0187 109.4241 41.0431 109.2682 41.1988 106.5135 41.1988 106.5135 45.5591 110.5675 45.5591 110.5675 47.7392 104.1227 47.7392 104.1227 33.1013 110.5675 33.1013"/><path class="cls-3" d="M134.8577,26.6685c-3.4198-.6149-6.8727-1.135-10.1944-1.5718-1.4534-.1911-2.942-.4614-4.3767-.618-.504-.0551-.2188.2247-.5706.2137.0482-.1307-.105-.3046-.105-.3636V2.4759l-4.4641.0056-.009,7.4204c.4853,1.8664.3577,3.8828.6323,5.8051.0228.1606.1755.2872.208.5188.02.1419.0172.982-.0579.9923l-.3392-.1804-1.9489-5.7467c-.4701-.0087-.124-.06-.2078-.3981-1.4294-2.6643-2.5095-5.5501-3.9576-8.1996-.06-.1097-.1504-.1968-.2511-.2688-.0863-.029-.134.0512-.1555.0512h-3.6901l.0441,20.9793-.0994.2016c-1.1496-.3907-2.6392-.2173-3.8466-.1225l-.1404-.2285c.5155-.8204.8214-1.746.9275-2.7106-.352-4.3421.4694-9.4252-.0302-13.6808-.2536-2.1613-1.5649-3.7168-3.5956-4.4029l-1.9912-.4509h-1.663c-.6326.2385-1.2503.2132-1.9144.424-1.1711.3715-2.4772,1.2569-3.0178,2.3858-.1704.3556-.64,1.8091-.6843,2.2221-.4481,4.1759.3446,9.1393,0,13.3985.2401.8496.2713,1.6118.6933,2.4263.1573.3036.4576.393.453.7363l-3.326.2083v-2.3878l-7.1712.0533,8.0028-17.3384v-1.8167h-12.8896v3.7893c.0912.1481.2073.1432.3584.1609,1.9049.2232,4.368-.3382,6.1402-.1091.1432.0184.1822-.0566.1504.1512l-7.8478,17.2866-.0966,1.5672-1.7191.2009v-4.0488h-2.5987V6.4209h2.5987V2.3721h-9.6673v4.0488h2.5987c.0277.0761-.1038.124-.1038.1555v14.7937h-2.4949v4.0488h9.3555c-.0466.2203-.4686.061-.6564.1061-.4904.1179-1.197.2903-1.8109.3887-8.7271,1.4012-18.1098,3.4997-26.0411,6.4971-1.1824.4468-2.7416.7722-3.9455,1.2195-.0953.0354-.1483.3331-.4975.1986l.2068.2057c-1.0253-.184-1.9185.7345-2.9107.8322l.1053.2062c-.1368-.0113-.2518-.0715-.3951-.0341-.4573.1189-1.5388.6057-1.8055.9574-.4845-.2078-.3433.0635-.475.1097-.1135.0397-.2764-.002-.4373.0625-.2862.1143-.5347.4514-.9423.3595l.1053.206c-.4102-.1563-.4978.1583-.6021.1986-1.9407.7466-3.4134,1.5846-5.2009,2.4903-.2962.1501-.8306.3098-1.1616.4276l.2068.2055c-.6213-.0561-1.0894.4627-1.662.6257l.0515.2062c.9293-.1045,1.8306-.504,2.7129-.8168,34.2501-12.1387,71.7838-15.2511,108.2186-12.697v-.7056ZM96.6774,21.5654c-1.26.3146-2.5843.0894-2.7301-1.4007.2667-3.9847-.3969-8.5254-.0108-12.4454.1845-1.8703,1.6115-1.6815,3.0967-1.4844l.6513.7527.0015,13.6108c-.3103.5019-.3264.7965-1.0087.9669ZM109.8512,23.643l-.0123-6.061-.9287-7.4704.2526-.1606c.0886.0241.1424.2698.2068.3753.174.2867.0433.3267.164.5813.5198,1.0973,1.0143,2.4355,1.2436,3.5413.2557.1927.3179.847.4151,1.2121l.2062-.105c.019.5011.3167.9303.4176,1.3512l.206-.1056c-.1184.5083.2188,1.0843.4294,1.5759.7143,1.6689,1.5931,3.2107,2.2859,4.9847.0528.135.3602.2608.1957.7074l-5.0818-.4266Z"/></svg>