<?xml version="1.0" encoding="UTF-8"?><svg id="Layer_1" xmlns="http://www.w3.org/2000/svg" viewBox="0 0 32 31.9769"><defs><style>.cls-1,.cls-2,.cls-3{fill:#fff;}.cls-4{opacity:.4;}.cls-5{fill:#7dcce0;}.cls-2{fill-rule:evenodd;stroke:#3a83ed;stroke-miterlimit:10;stroke-width:2px;}.cls-6{fill:#3bbdea;}.cls-3{opacity:.3;}.cls-7{fill:#183481;}.cls-8{fill:#26bbd6;}.cls-9{fill:#006cb5;}</style></defs><g class="cls-4"><path d="M10.1425,27.7174l-.1689-.0234c-5.8262-.8115-8.9717-2.6436-8.9736-3.9561-.002-1.7842,5.8384-4.3848,14.9951-4.3975,9.3174,0,15.0029,2.5361,15.0049,4.3535.002,1.3271-3.1855,3.1797-9.0957,3.999l-.1768.0244-5.6792,3.0439-5.9058-3.0439Z"/><path d="M16.0632,20.3409c8.9053,0,13.5798,2.3997,13.9301,3.3536-.2168.5577-2.4636,2.2095-8.2256,3.0074l-.3549.0491-.3157.1693-5.0578,2.7114-5.2872-2.7254-.3031-.1562-.3377-.047c-5.6743-.7894-7.8898-2.4179-8.1046-2.9676.3481-.9599,5.0387-3.3817,13.9893-3.3945h.0673M16.0632,18.3409c-.0237,0-.0461,0-.0698,0C7.1569,18.3535-.0036,20.7701,0,23.7386c.0027,2.2335,4.0621,4.1422,9.8357,4.9454l6.2218,3.2072,5.9845-3.2082c5.8416-.8089,9.9608-2.7397,9.958-4.9902-.0037-2.9605-7.133-5.3519-15.9368-5.3519h0Z"/></g><polygon class="cls-2" points="25.5351 21.539 16.1366 30.5947 5.9838 21.0015 15.8815 19.818 25.5351 21.539"/><path class="cls-1" d="M16.0869,23.7825c-8.2231,0-14.9131-5.1104-14.9131-11.3911S7.8638.9998,16.0869.9998s14.9131,5.1104,14.9131,11.3916-6.6904,11.3911-14.9131,11.3911Z"/><path class="cls-6" d="M16.087,2c7.6717,0,13.913,4.6615,13.913,10.3912s-6.2414,10.3912-13.913,10.3912S2.1739,18.121,2.1739,12.3912,8.4153,2,16.087,2M16.087,0C7.2984,0,.1739,5.5477.1739,12.3912s7.1245,12.3912,15.913,12.3912,15.913-5.5477,15.913-12.3912S24.8755,0,16.087,0h0Z"/><path class="cls-8" d="M20.6682,3.829c.0938.563.1408,1.1729.1408,1.7828,0,6.709-5.4423,12.1983-12.1983,12.1983h-.6568c1.7359,2.5804,4.6916,4.3163,8.0696,4.3163,5.3485,0,9.7117-4.3632,9.7117-9.7117,0-3.7064-2.0643-6.9436-5.067-8.5857"/><path class="cls-7" d="M20.6682,3.829c.0938.563.1408,1.1729.1408,1.7828,0,2.252-.6099,4.3632-1.689,6.193,1.8297,1.9236,3.0026,4.504,3.0026,7.3659,0,.2815,0,.5161-.0469.7976,2.252-1.7828,3.6595-4.504,3.6595-7.6005,0-3.6595-2.0643-6.8967-5.067-8.5388"/><path class="cls-5" d="M20.1052,3.5475c-1.2667-.563-2.6273-.8914-4.1286-.8914-5.3485,0-9.7117,4.3632-9.7117,9.7117,0,.3284,0,.6568.0469.9852.9852.3284,2.0643.4692,3.1434.4692,5.7707,0,10.4624-4.5509,10.65-10.2747"/><path class="cls-9" d="M11.4726,8.5675c2.1582,0,4.1756.6568,5.8645,1.7828,1.6421-1.7828,2.6742-4.1756,2.7681-6.756-1.2667-.563-2.6273-.8914-4.1286-.8914-4.4571,0-8.2104,3.0026-9.3364,7.0844,1.4544-.7976,3.0965-1.2198,4.8324-1.2198"/><rect class="cls-3" x="2.5232" y="8.8524" width="27.1364" height="6.8098" rx="1.306" ry="1.306"/><path class="cls-7" d="M14.4939,10.678c.1597,0,.2967.0228.3879.0685.1141.0456.1826.1369.2282.2282s.0685.2054.0913.3195v2.784h1.0269v-2.4646c0-.1597,0-.3195-.0228-.4792,0-.1597-.0228-.3195-.0456-.4564-.0228-.1141-.0456-.2282-.1141-.3195-.0456-.0913-.1141-.1826-.2282-.251-.0913-.0685-.2054-.1369-.3651-.1826-.1369-.0456-.3195-.0685-.5249-.0685-.3195,0-.5933.0685-.7987.1826s-.3879.251-.502.3879l-.1141.1369-.0456-.1597c-.0685-.1369-.1826-.2738-.3423-.3879s-.3879-.1597-.7074-.1597c-.3423,0-.6161.0456-.8215.1597s-.3423.2282-.4564.3651l-.1369.2054-.0456-.251c-.0228-.1369-.0913-.2282-.2054-.2967-.1369-.0685-.2738-.0913-.4564-.0913h-.1597c-.0456,0-.0913,0-.1141.0228h-.0228v4.1304h1.0269v-2.8525c0-.1826.0913-.3195.251-.4336s.3651-.1597.5933-.1597c.1826,0,.3195.0228.4108.0913.1141.0456.1826.1369.251.2282.0456.0913.0685.2054.0913.3423v2.8069h1.0269v-2.4417c0-.1826,0-.3651-.0228-.5249v-.0456l.0228-.0228c.0685-.1141.1826-.1826.3423-.2738.1597-.1141.3195-.1369.502-.1369M17.9853,10.8377c.1826-.1826.4108-.251.6846-.251.3423,0,.5705.0913.7074.2738s.2054.4108.2054.7074h-1.8484c0-.3195.0913-.5477.251-.7302M20.4271,13.6446c0-.0456-.0228-.1369-.1141-.2967-.0456-.0913-.0913-.1826-.1597-.251-.0228.0228-.0685.0456-.0913.0913-.0685.0685-.1597.1141-.251.1826-.0913.0456-.2054.0913-.3423.1369-.1141.0456-.2738.0456-.4336.0456-.4336,0-.7531-.1369-.9584-.3651s-.3195-.5477-.3423-.89v-.1141h2.7156v-.4792c0-.251-.0228-.4792-.0913-.7074-.0685-.2054-.1597-.4108-.2967-.5705s-.3195-.2967-.5477-.4108c-.2282-.0913-.502-.1597-.8215-.1597-.251,0-.502.0456-.7302.1141-.2282.0913-.4564.2054-.639.3879s-.3423.3879-.4564.6618-.1597.5933-.1597.9584c0,.4564.0685.8215.1826,1.1182.1369.2967.2967.5249.502.7074s.4336.2967.7074.3651.5477.1141.8215.1141c.2967,0,.5705-.0228.7987-.0913s.3879-.1369.502-.2282c.1369-.1369.2054-.2282.2054-.3195M7.009,10.8377c.1826-.1826.4108-.251.6846-.251.3423,0,.5705.0913.7074.2738s.2054.4108.2054.7074h-1.8484c0-.3195.0685-.5477.251-.7302M9.4507,13.6446c0-.0456-.0228-.1369-.1141-.2967-.0456-.0913-.0913-.1826-.1597-.251-.0228.0228-.0685.0456-.0913.0913-.0685.0685-.1597.1141-.251.1826-.0913.0456-.2054.0913-.3423.1369-.1141.0456-.2738.0456-.4336.0456-.4336,0-.7531-.1369-.9584-.3651s-.3195-.5477-.3423-.89v-.1141h2.7156v-.4792c0-.251-.0228-.4792-.0913-.7074-.0685-.2054-.1597-.4108-.2967-.5705s-.3195-.2967-.5477-.4108c-.2282-.0913-.502-.1597-.8215-.1597-.251,0-.502.0456-.7302.1141-.2282.0913-.4564.2054-.639.3879s-.3423.3879-.4564.6618-.1597.5933-.1597.9584c0,.4564.0685.8215.1826,1.1182.1369.2967.2967.5249.502.7074s.4336.2967.7074.3651.5477.1141.8215.1141c.2967,0,.5705-.0228.7987-.0913s.3879-.1369.502-.2282c.1369-.1369.2054-.2282.2054-.3195M22.9601,10.6323c.1826,0,.3195.0228.4336.0913s.1826.1369.251.251c.0456.0913.0685.2054.0913.3423,0,.1141.0228.251.0228.3879v2.4189h1.0269v-2.5102c0-.1597,0-.3195-.0228-.4792,0-.1597-.0228-.3195-.0685-.4336-.0456-.251-.1826-.4564-.3651-.6161s-.4792-.2282-.89-.2282c-.3423,0-.6161.0456-.8215.1597s-.3423.2282-.4564.3651l-.1369.2054-.0456-.251c-.0228-.1369-.0913-.2282-.2054-.2967-.1369-.0685-.2738-.0913-.4564-.0913h-.1597c-.0456,0-.0913,0-.1141.0228h-.0228v4.1304h1.0269v-2.8525c0-.1826.0913-.3423.2967-.4564.1369-.1141.3651-.1597.6161-.1597M27.8435,12.7318c-.0913.1826-.2054.2967-.2282.3195-.0456.0456-.1369.1369-.2054.1826s-.1597.0913-.251.1141-.2054.0456-.3195.0456c-.2054,0-.3423-.0456-.4108-.1369-.0913-.0913-.1369-.2282-.1369-.3879,0-.1369.0228-.2282.0913-.3195s.1597-.1597.251-.2054c.1141-.0685.2282-.0913.3879-.1141s.2967-.0456.4564-.0456h.1141l.251-.0228v.5705ZM28.802,13.1425v-1.7343c0-.2738-.0228-.502-.0913-.7074-.0456-.1826-.1597-.3423-.2738-.4792-.1369-.1369-.2967-.2282-.502-.2738-.2282-.0685-.4792-.0913-.7987-.0913-.2282,0-.4564.0228-.6618.0685s-.3879.0913-.5477.1597-.2738.1141-.3651.2054c-.0685.0456-.0913.1141-.0913.1597,0,.0228,0,.0913.0685.2282.0456.0913.0913.1597.1369.251.1597-.0913.3423-.1826.5249-.251.2282-.0913.4792-.1369.7531-.1369.3195,0,.5249.0456.6846.1826.1597.1141.2282.3195.2282.5933v.2738h-.502c-.2054.0228-.4564.0456-.7074.0913s-.4792.1141-.7074.2282c-.2054.1141-.3879.251-.5249.4336s-.2054.4108-.2054.6846c0,.2282.0456.4336.1141.5933s.1826.2967.2967.3879.251.1597.4108.2054.3195.0685.4564.0685c.2967,0,.5477-.0456.7531-.1369s.3651-.2054.502-.3423l.1597-.1597.0456.2054c.0228.1369.0913.2282.1826.2967s.2282.1141.4336.1141c.0913,0,.1826,0,.2738-.0228.0456,0,.1141-.0228.1597-.0456-.1369-.2967-.2054-.6161-.2054-1.0497M4.978,14.3976c.1141-.251.1826-.5249.2282-.7987.0228-.2967.0456-.5705.0456-.7987v-3.3317c0-.1369-.0228-.2282-.0685-.3195-.0456-.0685-.0913-.1369-.1597-.1826s-.1597-.0685-.2282-.0913c-.0913-.0228-.1826-.0228-.251-.0228h-.1141c-.0913.0228-.1369.0228-.1826.0228h-.0685v4.4271c0,.2282-.0228.4336-.0913.5705-.0685.1597-.1597.2738-.2738.3879-.1141.0913-.251.1597-.4108.2054l-.4108.0685v.1141c0,.0685,0,.1369.0228.1826.0228.1597.0685.2738.1369.3195.0685.0685.2054.0913.3879.0913.3879,0,.7074-.0913.9128-.251.2282-.1369.4108-.3651.5249-.5933"/></svg>