<?xml version="1.0" encoding="UTF-8"?><svg id="Layer_1" xmlns="http://www.w3.org/2000/svg" viewBox="0 0 150 50"><defs><style>.cls-1{fill:#7dcce0;}.cls-2{fill:#183481;}.cls-3{fill:aqua;opacity:.3;}.cls-4{fill:#26bbd6;}.cls-5{fill:#006cb5;}</style></defs><rect class="cls-3" width="150" height="50"/><path class="cls-2" d="M37.7722,22.8876c.4097,0,.7609.0585.9951.1756.2927.1171.4683.3512.5853.5853s.1756.5268.2341.8195v7.1412h2.634v-6.3217c0-.4097,0-.8195-.0585-1.2292,0-.4097-.0585-.8195-.1171-1.1707-.0585-.2927-.1171-.5853-.2927-.8195-.1171-.2341-.2927-.4683-.5853-.6439-.2341-.1756-.5268-.3512-.9365-.4683-.3512-.1171-.8195-.1756-1.3463-.1756-.8195,0-1.5219.1756-2.0487.4683s-.9951.6439-1.2878.9951l-.2927.3512-.1171-.4097c-.1756-.3512-.4683-.7024-.878-.9951s-.9951-.4097-1.8146-.4097c-.878,0-1.5804.1171-2.1072.4097s-.878.5853-1.1707.9365l-.3512.5268-.1171-.6439c-.0585-.3512-.2341-.5853-.5268-.7609-.3512-.1756-.7024-.2341-1.1707-.2341h-.4097c-.1171,0-.2341,0-.2927.0585h-.0585v10.5947h2.634v-7.3168c0-.4683.2341-.8195.6439-1.1122s.9365-.4097,1.5219-.4097c.4683,0,.8195.0585,1.0536.2341.2927.1171.4683.3512.6439.5853.1171.2341.1756.5268.2341.878v7.1997h2.634v-6.2632c0-.4683,0-.9365-.0585-1.3463v-.1171l.0585-.0585c.1756-.2927.4683-.4683.878-.7024.4097-.2927.8195-.3512,1.2878-.3512M46.728,23.2974c.4683-.4683,1.0536-.6439,1.756-.6439.878,0,1.4634.2341,1.8146.7024s.5268,1.0536.5268,1.8146h-4.7413c0-.8195.2341-1.4048.6439-1.8731M52.9911,30.4971c0-.1171-.0585-.3512-.2927-.7609-.1171-.2341-.2341-.4683-.4097-.6439-.0585.0585-.1756.1171-.2341.2341-.1756.1756-.4097.2927-.6439.4683-.2341.1171-.5268.2341-.878.3512-.2927.1171-.7024.1171-1.1122.1171-1.1122,0-1.9316-.3512-2.4584-.9365s-.8195-1.4048-.878-2.2828v-.2927h6.9656v-1.2292c0-.6439-.0585-1.2292-.2341-1.8146-.1756-.5268-.4097-1.0536-.7609-1.4634s-.8195-.7609-1.4048-1.0536c-.5853-.2341-1.2878-.4097-2.1072-.4097-.6439,0-1.2878.1171-1.8731.2927-.5853.2341-1.1707.5268-1.639.9951s-.878.9951-1.1707,1.6975-.4097,1.5219-.4097,2.4584c0,1.1707.1756,2.1072.4683,2.8682.3512.7609.7609,1.3463,1.2878,1.8146s1.1122.7609,1.8146.9365,1.4048.2927,2.1072.2927c.7609,0,1.4634-.0585,2.0487-.2341s.9951-.3512,1.2878-.5853c.3512-.3512.5268-.5853.5268-.8195M18.573,23.2974c.4683-.4683,1.0536-.6439,1.756-.6439.878,0,1.4634.2341,1.8146.7024s.5268,1.0536.5268,1.8146h-4.7413c0-.8195.1756-1.4048.6439-1.8731M24.8361,30.4971c0-.1171-.0585-.3512-.2927-.7609-.1171-.2341-.2341-.4683-.4097-.6439-.0585.0585-.1756.1171-.2341.2341-.1756.1756-.4097.2927-.6439.4683-.2341.1171-.5268.2341-.878.3512-.2927.1171-.7024.1171-1.1122.1171-1.1122,0-1.9316-.3512-2.4584-.9365s-.8195-1.4048-.878-2.2828v-.2927h6.9656v-1.2292c0-.6439-.0585-1.2292-.2341-1.8146-.1756-.5268-.4097-1.0536-.7609-1.4634s-.8195-.7609-1.4048-1.0536c-.5853-.2341-1.2878-.4097-2.1072-.4097-.6439,0-1.2878.1171-1.8731.2927-.5853.2341-1.1707.5268-1.639.9951s-.878.9951-1.1707,1.6975-.4097,1.5219-.4097,2.4584c0,1.1707.1756,2.1072.4683,2.8682.3512.7609.7609,1.3463,1.2878,1.8146s1.1122.7609,1.8146.9365,1.4048.2927,2.1072.2927c.7609,0,1.4634-.0585,2.0487-.2341s.9951-.3512,1.2878-.5853c.3512-.3512.5268-.5853.5268-.8195M59.4884,22.7706c.4683,0,.8195.0585,1.1122.2341s.4683.3512.6439.6439c.1171.2341.1756.5268.2341.878,0,.2927.0585.6439.0585.9951v6.2046h2.634v-6.4388c0-.4097,0-.8195-.0585-1.2292,0-.4097-.0585-.8195-.1756-1.1122-.1171-.6439-.4683-1.1707-.9365-1.5804s-1.2292-.5853-2.2828-.5853c-.878,0-1.5804.1171-2.1072.4097s-.878.5853-1.1707.9365l-.3512.5268-.1171-.6439c-.0585-.3512-.2341-.5853-.5268-.7609-.3512-.1756-.7024-.2341-1.1707-.2341h-.4097c-.1171,0-.2341,0-.2927.0585h-.0585v10.5947h2.634v-7.3168c0-.4683.2341-.878.7609-1.1707.3512-.2927.9365-.4097,1.5804-.4097M72.0148,28.1557c-.2341.4683-.5268.7609-.5853.8195-.1171.1171-.3512.3512-.5268.4683s-.4097.2341-.6439.2927-.5268.1171-.8195.1171c-.5268,0-.878-.1171-1.0536-.3512-.2341-.2341-.3512-.5853-.3512-.9951,0-.3512.0585-.5853.2341-.8195s.4097-.4097.6439-.5268c.2927-.1756.5853-.2341.9951-.2927s.7609-.1171,1.1707-.1171h.2927l.6439-.0585v1.4634ZM74.4732,29.2093v-4.4486c0-.7024-.0585-1.2878-.2341-1.8146-.1171-.4683-.4097-.878-.7024-1.2292-.3512-.3512-.7609-.5853-1.2878-.7024-.5853-.1756-1.2292-.2341-2.0487-.2341-.5853,0-1.1707.0585-1.6975.1756s-.9951.2341-1.4048.4097-.7024.2927-.9365.5268c-.1756.1171-.2341.2927-.2341.4097,0,.0585,0,.2341.1756.5853.1171.2341.2341.4097.3512.6439.4097-.2341.878-.4683,1.3463-.6439.5853-.2341,1.2292-.3512,1.9316-.3512.8195,0,1.3463.1171,1.756.4683.4097.2927.5853.8195.5853,1.5219v.7024h-1.2878c-.5268.0585-1.1707.1171-1.8146.2341s-1.2292.2927-1.8146.5853c-.5268.2927-.9951.6439-1.3463,1.1122s-.5268,1.0536-.5268,1.756c0,.5853.1171,1.1122.2927,1.5219s.4683.7609.7609.9951.6439.4097,1.0536.5268.8195.1756,1.1707.1756c.7609,0,1.4048-.1171,1.9316-.3512s.9366-.5268,1.2878-.878l.4097-.4097.1171.5268c.0585.3512.2341.5853.4683.7609s.5853.2927,1.1121.2927c.2341,0,.4683,0,.7024-.0585.1171,0,.2927-.0585.4097-.1171-.3512-.7609-.5268-1.5804-.5268-2.6926M13.3634,32.4287c.2927-.6439.4683-1.3463.5853-2.0487.0585-.7609.1171-1.4634.1171-2.0487v-8.546c0-.3512-.0585-.5853-.1756-.8195-.1171-.1756-.2341-.3512-.4097-.4683s-.4097-.1756-.5853-.2341c-.2341-.0585-.4683-.0585-.6439-.0585h-.2927c-.2341.0585-.3512.0585-.4683.0585h-.1756v11.3556c0,.5853-.0585,1.1122-.2341,1.4634-.1756.4097-.4097.7024-.7024.9951-.2927.2341-.6439.4097-1.0536.5268l-1.0536.1756v.2927c0,.1756,0,.3512.0585.4683.0585.4097.1756.7024.3512.8195.1756.1756.5268.2341.9951.2341.9951,0,1.8146-.2341,2.3414-.6439.5853-.3512,1.0536-.9365,1.3463-1.5219"/><path class="cls-4" d="M120.5058,4.5643c.2239,1.3437.3359,2.7994.3359,4.2551,0,16.0127-12.9893,29.1139-29.1139,29.1139h-1.5677c4.1431,6.1587,11.1977,10.3019,19.26,10.3019,12.7653,0,23.1792-10.4138,23.1792-23.1792,0-8.8462-4.927-16.5725-12.0935-20.4917"/><path class="cls-2" d="M120.5058,4.5643c.2239,1.3437.3359,2.7994.3359,4.2551,0,5.3749-1.4557,10.4138-4.0312,14.7809,4.3671,4.591,7.1665,10.7498,7.1665,17.5803,0,.6719,0,1.2317-.112,1.9036,5.3749-4.2551,8.7342-10.7498,8.7342-18.1402,0-8.7342-4.927-16.4606-12.0935-20.3797"/><path class="cls-1" d="M119.1621,3.8924c-3.0234-1.3437-6.2707-2.1276-9.8539-2.1276-12.7653,0-23.1792,10.4138-23.1792,23.1792,0,.7838,0,1.5677.112,2.3515,2.3515.7838,4.927,1.1198,7.5024,1.1198,13.7731,0,24.9708-10.8617,25.4187-24.5229"/><path class="cls-5" d="M98.5584,15.8739c5.1509,0,9.9659,1.5677,13.9971,4.2551,3.9192-4.2551,6.3827-9.9659,6.6066-16.1246-3.0234-1.3437-6.2707-2.1276-9.8539-2.1276-10.6378,0-19.5959,7.1665-22.2834,16.9085,3.4713-1.9036,7.3905-2.9114,11.5336-2.9114"/></svg>