<?xml version="1.0" encoding="UTF-8"?><svg id="Layer_1" xmlns="http://www.w3.org/2000/svg" viewBox="0 0 150 50"><defs><style>.cls-1{fill:#525252;}.cls-2{fill:#ff6f00;opacity:.38;}.cls-3{fill:#fa7909;}</style></defs><rect class="cls-2" width="150" height="50"/><path class="cls-1" d="M19.1243,6.7867h0l-3.0099-2.4896-2.341-1.953s-1.8008,2.0174.0257,3.8632l3.0099,2.4896h0l26.5487,21.9771,2.341,1.953s1.8008-2.0174-.0257-3.8632L19.1243,6.7867Z"/><path class="cls-1" d="M28.2826,6.7008h0l-2.9327-2.4037-2.341-1.9316s-1.8008,2.0174.0257,3.8632l2.907,2.4037,17.4161,14.3796,2.341,1.953s1.8008-2.0174-.0257-3.8632L28.2826,6.7008Z"/><path class="cls-1" d="M38.4184,7.452h0l-3.8331-3.1549-2.341-1.953s-1.8008,2.0174.0257,3.8632l3.8331,3.1764h0l7.2803,6.0094,2.341,1.953s1.8008-2.0174-.0257-3.8632l-7.2803-6.0308Z"/><path class="cls-1" d="M41.737,6.4004l1.595,1.3092,2.341,1.953s1.8008-2.0174-.0257-3.8632l-1.3892-1.1589h0l-.4373-.3649-2.341-1.9316s-1.8008,2.0174.0257,3.8632l.2315.1932Z"/><path class="cls-1" d="M8.3968,17.0241l16.8244,13.9074,2.341,1.953s1.8008-2.0174-.0257-3.8632L10.2491,14.7276l-3.3443-2.7686-2.341-1.9316s-1.7751,2.0174.0515,3.8632l3.7816,3.1335Z"/><path class="cls-1" d="M4.5637,21.4882l3.7816,3.1335h0l3.2414,2.6828,2.341,1.9316s1.8008-2.0174-.0257-3.8632l-3.2414-2.6613h0l-3.7816-3.1335-2.341-1.9316s-1.8008,2.0174.0257,3.8417"/><path class="cls-1" d="M10.3262,7.1515h0l-3.4472-2.8544-2.341-1.953s-1.8008,2.0174.0257,3.8632l3.4472,2.8544,35.3468,29.2527,2.341,1.953s1.8008-2.0174-.0257-3.8632L10.3262,7.1515Z"/><path class="cls-3" d="M36.5662,36.5116l-3.8331-3.1764h0c-.1544-.1288-.3344-.2146-.5402-.3005h-.0257c-.1801-.0644-.3859-.1073-.5917-.1073s-.4116.0429-.5917.1073h-.0257c-.2058.0644-.3859.1717-.5402.3005h0c-.1544.1288-.2573.279-.3602.4292v.0215c-.0772.1502-.1029.3219-.1029.4936h0v4.3997l-.9518-.7941h0l-9.9043-8.1985c-.1544-.1288-.3344-.2361-.5402-.3005h-.0257c-.1801-.0644-.3859-.1073-.5917-.1073s-.4116.0429-.5917.1073h-.0257c-.4116.1288-.7203.4078-.9004.7297v.0215c-.0772.1502-.1286.3219-.1286.4936h0v4.3783l-.9776-.7941-8.4637-6.9966-2.341-1.9316s-1.8008,2.0174.0257,3.8417l8.3865,6.9322,3.8588,3.1978c.1544.1288.3344.2361.5402.3005h0c.1801.0644.3859.1073.6174.1073.2058,0,.4116-.0429.6174-.1073h0c.4116-.1288.7203-.4078.9004-.7297v-.0215c.0772-.1502.1286-.3219.1286-.4936v-4.3997l7.023,5.8162h0l3.8331,3.1764h0c.1544.1288.3344.2146.5145.279h.0257c.1801.0644.3602.0858.566.0858h.0257c.2058,0,.3859-.0429.566-.0858h.0257c.2058-.0644.3859-.1717.5145-.279h0c.1544-.1288.2573-.279.3602-.4292v-.0215c.0772-.1502.1029-.3005.1029-.4722h0v-4.3783l1.029.8585,9.0811,7.5332,2.341,1.953s1.8008-2.0174-.0257-3.8632l-9.0039-7.5761Z"/><path class="cls-1" d="M98.3912,21.9804c-.846,0-1.4643.6183-2.5056,1.9524l-.1302-1.7246h-.9437v9.3064h1.1389v-6.3778h0c1.2365-1.4968,1.7897-2.0825,2.473-2.0825.2603,0,.7484.0976.9762.1627l.2278-1.0413c-.4556-.1627-.781-.1952-1.2365-.1952"/><path class="cls-1" d="M55.5851,14.6132c1.0738.2929,2.0825.4556,3.254.4556,2.3754,0,3.4492-1.0413,3.4492-2.5706,0-1.3992-.5532-1.8548-3.254-3.1238-2.7333-1.2691-3.6445-1.9524-3.6445-3.8397s1.3992-3.1889,4.4254-3.1889c1.1389,0,2.1151.1627,2.9937.423l-.1627.9111c-.9111-.2603-1.7246-.3905-2.831-.3905-2.3103,0-3.254.9111-3.254,2.2452,0,1.2691.5532,1.7897,3.1564,3.0262,2.831,1.3016,3.7421,1.9524,3.7421,3.9373,0,2.2127-1.627,3.5794-4.6206,3.5794-1.204,0-2.2778-.1627-3.3516-.4881l.0976-.9762Z"/><path class="cls-1" d="M55.8617,18.2708h3.4492c2.896,0,4.1651.6183,4.1651,3.4492,0,2.7333-1.4317,3.8397-4.3929,3.8397h-2.0825v5.9873h-1.1714v-13.2762h.0325ZM59.1808,24.6161c2.1802,0,3.1889-.8135,3.1889-2.8635,0-2.1476-.8786-2.6032-3.0913-2.6032h-2.2452v5.4667h2.1476Z"/><path class="cls-1" d="M67.934,31.7748c-2.5056,0-3.9373-.9111-3.9373-4.881,0-3.9373,1.4968-4.946,3.9699-4.946,2.5056,0,3.9373.9437,3.9373,4.881s-1.4643,4.946-3.9699,4.946M67.934,22.8589c-1.7897,0-2.7984.6183-2.7984,4.0024s1.0413,4.0349,2.831,4.0349,2.7984-.6183,2.7984-4.0024c0-3.4167-1.0413-4.0349-2.831-4.0349"/><path class="cls-1" d="M83.8784,22.2081l-1.5619,5.304c-.2929,1.0738-.5532,2.0175-.8135,3.1564h-.0325c-.2929-1.1064-.5532-2.0825-.8786-3.1564l-1.5944-5.304h-1.1389l.423,1.3992-1.1389,3.9048c-.2929,1.0738-.5857,2.1476-.846,3.1564h-.0325c-.2929-1.1064-.5206-2.05-.8786-3.1564l-1.627-5.304h-1.204l2.896,9.3064h1.5294l1.5944-5.3365c.0651-.2603.1627-.5206.2278-.781l1.8873,6.15h1.5294l2.7984-9.3064h-1.1389v-.0325Z"/><path class="cls-1" d="M92.4039,31.3193c-.9111.1952-1.8548.3579-2.8635.3579-2.3429,0-3.8722-.7159-3.8722-4.8159,0-3.9373,1.5294-4.946,3.8722-4.946s3.3516.9111,3.3516,4.3603c0,.2278,0,.3905-.0325.6833h-6.0524c.0325,3.3516,1.0413,3.8072,2.9611,3.8072.9111,0,1.6595-.1302,2.5056-.3579l.1302.9111ZM91.7856,26.178c-.0325-2.7659-.7484-3.3516-2.3429-3.3516-1.5619,0-2.5381.6508-2.6357,3.3516h4.9786Z"/><path class="cls-1" d="M55.7804,34.1502h1.4968l4.881,8.4603c.6833,1.1714,1.3016,2.2778,1.9524,3.5143h.0325c-.0651-1.204-.0976-2.3754-.0976-3.5143v-8.4603h1.0738v13.2437h-1.5294l-4.8484-8.4603c-.6833-1.1714-1.269-2.2778-1.9198-3.5143h-.0325c.0651,1.204.1302,2.3754.1302,3.5143v8.4603h-1.0738v-13.2437h-.0651Z"/><path class="cls-1" d="M74.0026,47.2312c-.9111.1952-1.8548.3579-2.8635.3579-2.3429,0-3.8722-.7159-3.8722-4.8159,0-3.9373,1.5294-4.946,3.8722-4.946s3.3516.9111,3.3516,4.3603c0,.2278,0,.3905-.0325.6833h-6.0524c.0325,3.3516,1.0413,3.8072,2.9611,3.8072.9111,0,1.6595-.1302,2.5056-.3579l.1302.9111ZM73.3844,42.0899c-.0325-2.7659-.7484-3.3516-2.3429-3.3516-1.5619,0-2.5381.6508-2.6357,3.3516h4.9786Z"/><path class="cls-1" d="M76.7034,38.1201v-2.831l1.1389-.1627v3.0262h2.2127v.8786h-2.2127v6.3778c0,1.0087.3254,1.3016,1.0738,1.3016.423,0,.781-.0651,1.1389-.1627l.1302.846c-.4556.1302-.9111.2603-1.4643.2603-1.4317,0-1.9849-.5857-1.9849-1.9524v-6.6381h-1.4643v-.8786h1.4318v-.0651Z"/><path class="cls-1" d="M92.1598,38.1201l-1.5619,5.304c-.2929,1.0738-.5532,2.0175-.8135,3.1564h-.0325c-.2929-1.1064-.5532-2.0825-.8786-3.1564l-1.5944-5.304h-1.204l.423,1.3992-1.1389,3.8722c-.2929,1.0738-.5857,2.1476-.846,3.1564h-.0325c-.2929-1.1064-.5206-2.05-.8786-3.1564l-1.627-5.304h-1.204l2.896,9.3064h1.5294l1.5944-5.3365c.0651-.2603.1627-.5206.2278-.781l1.8873,6.15h1.5294l2.7984-9.3064h-1.0738Z"/><path class="cls-1" d="M107.3884,37.8923c-.846,0-1.4643.6183-2.5056,1.9524l-.1302-1.7246h-.9437v9.3064h1.1389v-6.3778h0c1.2365-1.4968,1.7897-2.0825,2.473-2.0825.2603,0,.7484.0976.9762.1627l.2278-1.0413c-.4556-.1627-.781-.1952-1.2365-.1952"/><path class="cls-1" d="M97.8868,47.6542c-2.5056,0-3.9373-.9111-3.9373-4.881,0-3.9373,1.4968-4.946,3.9699-4.946,2.5056,0,3.9373.9437,3.9373,4.881,0,3.9699-1.4643,4.946-3.9699,4.946M97.8868,38.7709c-1.7897,0-2.7984.6183-2.7984,4.0024s1.0413,4.0349,2.8635,4.0349c1.7897,0,2.7984-.6183,2.7984-4.0024-.0325-3.4492-1.0738-4.0349-2.8635-4.0349"/><path class="cls-1" d="M117.8337,46.4177c.8786.1952,1.627.2929,2.3429.2929,1.9198,0,2.6032-.7159,2.6032-1.7246,0-.9111-.4556-1.2365-2.2778-1.9524-1.9524-.7484-2.6357-1.2691-2.6357-2.6032,0-1.6595,1.204-2.5056,3.4167-2.5056.781,0,1.5619.1627,2.2127.3254l-.1302.846c-.7484-.1627-1.4317-.2929-2.1476-.2929-1.5294,0-2.2778.5206-2.2778,1.5619,0,.781.3905,1.1389,2.1802,1.8222,2.05.781,2.7333,1.2365,2.7333,2.7333,0,1.627-1.1064,2.6357-3.7746,2.6357-.781,0-1.5619-.0976-2.4079-.2929l.1627-.846Z"/><polygon class="cls-1" points="115.8813 47.4265 117.248 47.4265 113.4734 42.2526 116.9226 38.1201 115.5885 38.1201 112.5297 41.7971 110.9353 41.7971 110.9353 34.1502 109.7964 34.1502 109.7964 47.4265 110.9353 47.4265 110.9353 42.6757 112.4646 42.6757 115.8813 47.4265"/><path class="cls-1" d="M68.6986,2.5084h1.5619l4.6206,13.2437h-1.204l-1.3341-3.8072h-5.727l-1.3016,3.8072h-1.1389l4.523-13.2437ZM72.0828,11.0339l-1.269-3.677c-.5206-1.4968-.9111-2.6357-1.3341-4.0349h-.0325c-.423,1.3992-.781,2.5706-1.3016,4.0675l-1.2365,3.6445h5.1738Z"/></svg>