<?xml version="1.0" encoding="UTF-8"?><svg id="Layer_1" xmlns="http://www.w3.org/2000/svg" viewBox="0 0 32 31.9769"><defs><style>.cls-1{fill:#525252;}.cls-2,.cls-3,.cls-4{fill:#fff;}.cls-5{opacity:.4;}.cls-3{isolation:isolate;opacity:.6;}.cls-4{fill-rule:evenodd;stroke:#f7931e;stroke-miterlimit:10;stroke-width:2px;}.cls-6{fill:#fa7909;}.cls-7{fill:#f7931e;}</style></defs><g class="cls-5"><path d="M10.1425,27.717l-.1689-.0234c-5.8262-.8105-8.9717-2.6436-8.9736-3.9561-.002-1.7842,5.8384-4.3838,14.9951-4.3965,9.3188,0,15.0034,2.5352,15.0054,4.3525.001,1.3281-3.1865,3.1807-9.0947,3.999l-.1777.0244-5.6797,3.0439-5.9058-3.0439Z"/><path d="M16.0632,20.3409c8.9053,0,13.5798,2.3997,13.9301,3.3536-.2168.5577-2.4636,2.2095-8.2256,3.0074l-.3549.0491-.3157.1693-5.0578,2.7114-5.2872-2.7254-.3031-.1562-.3377-.047c-5.6743-.7894-7.8898-2.4179-8.1046-2.9676.3481-.9599,5.0388-3.3817,13.9893-3.3945h.0673M16.0632,18.3409c-.0237,0-.0461,0-.0698,0C7.1569,18.3535-.0036,20.7701,0,23.7386c.0027,2.2335,4.0621,4.1422,9.8357,4.9454l6.2218,3.2072,5.9845-3.2082c5.8416-.8089,9.9608-2.7397,9.958-4.9902-.0036-2.9605-7.133-5.3519-15.9368-5.3519h0Z"/></g><polygon class="cls-4" points="25.5351 21.539 16.1366 30.5947 5.9838 21.0015 15.8815 19.818 25.5351 21.539"/><path class="cls-2" d="M16.0869,23.7825c-8.2231,0-14.9131-5.1104-14.9131-11.3911S7.8638.9998,16.0869.9998s14.9131,5.1104,14.9131,11.3916-6.6904,11.3911-14.9131,11.3911Z"/><path class="cls-7" d="M16.087,2c7.6717,0,13.913,4.6615,13.913,10.3912s-6.2414,10.3912-13.913,10.3912S2.1739,18.121,2.1739,12.3912,8.4153,2,16.087,2M16.087,0C7.2984,0,.1739,5.5477.1739,12.3912s7.1245,12.3912,15.913,12.3912,15.913-5.5477,15.913-12.3912S24.8755,0,16.087,0h0Z"/><path class="cls-1" d="M13.9498,3.8564h0l-1.1896-1.1795-.9253-.9253s-.7118.9558.0102,1.8302l1.1896,1.1795h0l10.4933,10.4119.9253.9253s.7118-.9558-.0102-1.8302L13.9498,3.8564Z"/><path class="cls-1" d="M17.5696,3.8157h0l-1.1591-1.1388-.9253-.9151s-.7118.9558.0102,1.8302l1.149,1.1388,6.8837,6.8125.9253.9253s.7118-.9558-.0102-1.8302l-6.8735-6.8227Z"/><path class="cls-1" d="M21.5757,4.1716h0l-1.515-1.4947-.9253-.9253s-.7118.9558.0102,1.8302l1.515,1.5048h0l2.8775,2.847.9253.9253s.7118-.9558-.0102-1.8302l-2.8775-2.8572Z"/><path class="cls-1" d="M22.8874,3.6734l.6304.6202.9253.9253s.7118-.9558-.0102-1.8302l-.5491-.5491h0l-.1729-.1729-.9253-.9151s-.7118.9558.0102,1.8302l.0915.0915Z"/><path class="cls-1" d="M9.7098,8.7065l6.6498,6.5888.9253.9253s.7118-.9558-.0102-1.8302l-6.8328-6.7718-1.3218-1.3117-.9253-.9151s-.7016.9558.0203,1.8302l1.4947,1.4845Z"/><path class="cls-1" d="M8.1948,10.8214l1.4947,1.4845h0l1.2812,1.271.9253.9151s.7118-.9558-.0102-1.8302l-1.2812-1.2608h0l-1.4947-1.4845-.9253-.9151s-.7118.9558.0102,1.8201"/><path class="cls-1" d="M10.4724,4.0293h0l-1.3625-1.3523-.9253-.9253s-.7118.9558.0102,1.8302l1.3625,1.3523,13.9707,13.8589.9253.9253s.7118-.9558-.0102-1.8302L10.4724,4.0293Z"/><path class="cls-6" d="M20.8437,17.9389l-1.515-1.5049h0c-.061-.061-.1322-.1017-.2135-.1424h-.0102c-.0712-.0305-.1525-.0508-.2339-.0508s-.1627.0203-.2339.0508h-.0102c-.0813.0305-.1525.0813-.2135.1424h0c-.061.061-.1017.1322-.1424.2034v.0102c-.0305.0712-.0407.1525-.0407.2339h0v2.0844l-.3762-.3762h0l-3.9146-3.8841c-.061-.061-.1322-.1118-.2135-.1424h-.0102c-.0712-.0305-.1525-.0508-.2339-.0508s-.1627.0203-.2339.0508h-.0102c-.1627.061-.2847.1932-.3559.3457v.0102c-.0305.0712-.0508.1525-.0508.2339h0v2.0743l-.3864-.3762-3.3452-3.3147-.9253-.9151s-.7118.9558.0102,1.8201l3.3147,3.2842,1.5252,1.515c.061.061.1322.1118.2135.1424h0c.0712.0305.1525.0508.244.0508.0813,0,.1627-.0203.244-.0508h0c.1627-.061.2847-.1932.3559-.3457v-.0102c.0305-.0712.0508-.1525.0508-.2339v-2.0844l2.7758,2.7555h0l1.515,1.5049h0c.061.061.1322.1017.2034.1322h.0102c.0712.0305.1424.0407.2237.0407h.0102c.0813,0,.1525-.0203.2237-.0407h.0102c.0813-.0305.1525-.0813.2034-.1322h0c.061-.061.1017-.1322.1424-.2034v-.0102c.0305-.0712.0407-.1424.0407-.2237h0v-2.0743l.4067.4067,3.5893,3.5689.9253.9253s.7118-.9558-.0102-1.8302l-3.5588-3.5893Z"/><rect class="cls-3" x="3.9513" y="3.4853" width="24.2713" height="16.7137" rx="1.8009" ry="1.8009"/><path class="cls-1" d="M23.0683,10.7274c-.2859,0-.4947.2089-.8466.6597l-.044-.5827h-.3188v3.1444h.3848v-2.1549h0c.4178-.5057.6047-.7036.8356-.7036.088,0,.2529.033.3298.055l.077-.3518c-.1539-.055-.2639-.066-.4178-.066"/><path class="cls-1" d="M12.8601,8.1383c.3628.0989.7036.1539,1.0994.1539.8026,0,1.1654-.3518,1.1654-.8685,0-.4728-.1869-.6267-1.0994-1.0554-.9235-.4288-1.2314-.6597-1.2314-1.2973s.4728-1.0774,1.4952-1.0774c.3848,0,.7146.055,1.0115.1429l-.055.3078c-.3078-.088-.5827-.1319-.9565-.1319-.7806,0-1.0994.3078-1.0994.7586,0,.4288.1869.6047,1.0664,1.0225.9565.4398,1.2643.6597,1.2643,1.3303,0,.7476-.5497,1.2094-1.5612,1.2094-.4068,0-.7696-.055-1.1324-.1649l.033-.3298Z"/><path class="cls-1" d="M8.6988,9.4741h1.1654c.9785,0,1.4073.2089,1.4073,1.1654,0,.9235-.4837,1.2973-1.4842,1.2973h-.7036v2.0229h-.3958v-4.4857h.011ZM9.8202,11.6179c.7366,0,1.0774-.2749,1.0774-.9675,0-.7256-.2968-.8795-1.0445-.8795h-.7586v1.847h.7256Z"/><path class="cls-1" d="M12.7777,14.0367c-.8466,0-1.3303-.3078-1.3303-1.6491,0-1.3303.5057-1.6711,1.3413-1.6711.8466,0,1.3303.3188,1.3303,1.6491s-.4947,1.6711-1.3413,1.6711M12.7777,11.0243c-.6047,0-.9455.2089-.9455,1.3523s.3518,1.3633.9565,1.3633.9455-.2089.9455-1.3523c0-1.1544-.3518-1.3633-.9565-1.3633"/><path class="cls-1" d="M18.1649,10.8044l-.5277,1.7921c-.0989.3628-.1869.6816-.2749,1.0664h-.011c-.0989-.3738-.1869-.7036-.2968-1.0664l-.5387-1.7921h-.3848l.1429.4728-.3848,1.3193c-.0989.3628-.1979.7256-.2859,1.0664h-.011c-.0989-.3738-.1759-.6926-.2968-1.0664l-.5497-1.7921h-.4068l.9785,3.1444h.5167l.5387-1.8031c.022-.088.055-.1759.077-.2639l.6377,2.0779h.5167l.9455-3.1444h-.3848v-.011Z"/><path class="cls-1" d="M21.0454,13.8828c-.3078.066-.6267.1209-.9675.1209-.7916,0-1.3083-.2419-1.3083-1.6272,0-1.3303.5167-1.6711,1.3083-1.6711s1.1324.3078,1.1324,1.4732c0,.077,0,.1319-.011.2309h-2.0449c.011,1.1324.3518,1.2863,1.0005,1.2863.3078,0,.5607-.044.8466-.1209l.044.3078ZM20.8365,12.1457c-.011-.9345-.2529-1.1324-.7916-1.1324-.5277,0-.8576.2199-.8905,1.1324h1.6821Z"/><path class="cls-1" d="M4.587,14.7238h.5057l1.6491,2.8585c.2309.3958.4398.7696.6597,1.1874h.011c-.022-.4068-.033-.8026-.033-1.1874v-2.8585h.3628v4.4747h-.5167l-1.6381-2.8585c-.2309-.3958-.4288-.7696-.6487-1.1874h-.011c.022.4068.044.8026.044,1.1874v2.8585h-.3628v-4.4747h-.022Z"/><path class="cls-1" d="M10.7437,19.1435c-.3078.066-.6267.1209-.9675.1209-.7916,0-1.3083-.2419-1.3083-1.6272,0-1.3303.5167-1.6711,1.3083-1.6711s1.1324.3078,1.1324,1.4732c0,.077,0,.1319-.011.2309h-2.0449c.011,1.1324.3518,1.2863,1.0005,1.2863.3078,0,.5607-.044.8466-.1209l.044.3078ZM10.5349,17.4064c-.011-.9345-.2529-1.1324-.7916-1.1324-.5277,0-.8576.2199-.8905,1.1324h1.6821Z"/><path class="cls-1" d="M11.6563,16.0651v-.9565l.3848-.055v1.0225h.7476v.2968h-.7476v2.1549c0,.3408.1099.4398.3628.4398.1429,0,.2639-.022.3848-.055l.044.2859c-.1539.044-.3078.088-.4947.088-.4837,0-.6707-.1979-.6707-.6597v-2.2428h-.4947v-.2968h.4837v-.022Z"/><path class="cls-1" d="M16.8785,16.0651l-.5277,1.7921c-.0989.3628-.1869.6816-.2749,1.0664h-.011c-.0989-.3738-.1869-.7036-.2968-1.0664l-.5387-1.7921h-.4068l.1429.4728-.3848,1.3083c-.0989.3628-.1979.7256-.2859,1.0664h-.011c-.0989-.3738-.1759-.6926-.2968-1.0664l-.5497-1.7921h-.4068l.9785,3.1444h.5167l.5387-1.8031c.022-.088.055-.1759.077-.2639l.6377,2.0779h.5167l.9455-3.1444s-.3628,0-.3628,0Z"/><path class="cls-1" d="M22.0239,15.9882c-.2859,0-.4947.2089-.8466.6597l-.044-.5827h-.3188v3.1444h.3848v-2.1549h0c.4178-.5057.6047-.7036.8356-.7036.088,0,.2529.033.3298.055l.077-.3518c-.1539-.055-.2639-.066-.4178-.066"/><path class="cls-1" d="M18.8135,19.2864c-.8466,0-1.3303-.3078-1.3303-1.6491,0-1.3303.5057-1.6711,1.3413-1.6711.8466,0,1.3303.3188,1.3303,1.6491,0,1.3413-.4947,1.6711-1.3413,1.6711M18.8135,16.285c-.6047,0-.9455.2089-.9455,1.3523s.3518,1.3633.9675,1.3633c.6047,0,.9455-.2089.9455-1.3523-.011-1.1654-.3628-1.3633-.9675-1.3633"/><path class="cls-1" d="M25.553,18.8687c.2968.066.5497.0989.7916.0989.6487,0,.8795-.2419.8795-.5827,0-.3078-.1539-.4178-.7696-.6597-.6597-.2529-.8905-.4288-.8905-.8795,0-.5607.4068-.8466,1.1544-.8466.2639,0,.5277.055.7476.1099l-.044.2859c-.2529-.055-.4837-.0989-.7256-.0989-.5167,0-.7696.1759-.7696.5277,0,.2639.1319.3848.7366.6157.6926.2639.9235.4178.9235.9235,0,.5497-.3738.8905-1.2753.8905-.2639,0-.5277-.033-.8136-.0989l.055-.2859Z"/><polygon class="cls-1" points="24.8934 19.2095 25.3551 19.2095 24.0798 17.4614 25.2452 16.0651 24.7944 16.0651 23.7609 17.3075 23.2222 17.3075 23.2222 14.7238 22.8374 14.7238 22.8374 19.2095 23.2222 19.2095 23.2222 17.6043 23.739 17.6043 24.8934 19.2095"/><path class="cls-1" d="M17.2908,4.0484h.5277l1.5612,4.4747h-.4068l-.4508-1.2863h-1.935l-.4398,1.2863h-.3848l1.5282-4.4747ZM18.4342,6.9289l-.4288-1.2424c-.1759-.5057-.3078-.8905-.4508-1.3633h-.011c-.1429.4728-.2639.8685-.4398,1.3743l-.4178,1.2314h1.7481Z"/></svg>