<?xml version="1.0" encoding="UTF-8"?><svg id="Layer_1" xmlns="http://www.w3.org/2000/svg" xmlns:xlink="http://www.w3.org/1999/xlink" viewBox="0 0 32 31.9769"><defs><style>.cls-1{fill:url(#linear-gradient-2);}.cls-2,.cls-3{fill:#fff;}.cls-4{fill:#383838;}.cls-5{opacity:.4;}.cls-6{fill:#e64aff;}.cls-7{fill:#8e8e8e;}.cls-3{fill-rule:evenodd;stroke:#e64aff;stroke-miterlimit:10;stroke-width:2px;}.cls-8{fill:url(#linear-gradient-3);}.cls-9{fill:url(#linear-gradient);}.cls-10{fill:#992f3b;}.cls-11{fill:#414141;}</style><linearGradient id="linear-gradient" x1="20.0698" y1="8.9826" x2="25.8766" y2="5.63" gradientUnits="userSpaceOnUse"><stop offset="0" stop-color="#000"/><stop offset=".5675" stop-color="#c1272d"/><stop offset="1" stop-color="#f7931e"/></linearGradient><linearGradient id="linear-gradient-2" x1="11.1151" y1="4.8903" x2="22.1708" y2="11.2733" gradientUnits="userSpaceOnUse"><stop offset="0" stop-color="#9cff1f"/><stop offset=".1197" stop-color="#85eb48"/><stop offset=".3874" stop-color="#4db9b1"/><stop offset=".5775" stop-color="#2494ff"/><stop offset=".8683" stop-color="#1d4062"/><stop offset="1" stop-color="#1a1a1a"/></linearGradient><linearGradient id="linear-gradient-3" x1="7.1143" y1="10.7291" x2="12.9958" y2="7.3335" gradientUnits="userSpaceOnUse"><stop offset=".3285" stop-color="#a42f72"/><stop offset="1" stop-color="#000"/></linearGradient></defs><g class="cls-5"><path d="M10.1424,27.717l-.1689-.0234c-5.8262-.8105-8.9717-2.6436-8.9736-3.9561-.002-1.7842,5.8384-4.3838,14.9951-4.3965,9.3188,0,15.0034,2.5352,15.0054,4.3525.002,1.3281-3.1855,3.1807-9.0947,3.999l-.1777.0244-5.6797,3.0439-5.9058-3.0439Z"/><path d="M16.0632,20.3409c8.9053,0,13.5798,2.3997,13.9301,3.3536-.2168.5577-2.4636,2.2095-8.2256,3.0074l-.3549.0491-.3157.1693-5.0578,2.7114-5.2872-2.7254-.3031-.1562-.3377-.047c-5.6743-.7894-7.8898-2.4179-8.1046-2.9676.3481-.9599,5.0388-3.3817,13.9893-3.3945h.0673M16.0632,18.3409c-.0237,0-.0461,0-.0698,0C7.1569,18.3535-.0036,20.7701,0,23.7386c.0027,2.2335,4.0621,4.1422,9.8357,4.9454l6.2218,3.2072,5.9845-3.2082c5.8416-.8089,9.9608-2.7397,9.958-4.9902-.0037-2.9605-7.133-5.3519-15.9368-5.3519h0Z"/></g><polygon class="cls-3" points="25.5351 21.539 16.1366 30.5947 5.9838 21.0015 15.8815 19.818 25.5351 21.539"/><path class="cls-2" d="M16.0869,23.7825c-8.2231,0-14.9131-5.1104-14.9131-11.3911S7.8638.9998,16.0869.9998s14.9131,5.1104,14.9131,11.3916-6.6904,11.3911-14.9131,11.3911Z"/><path class="cls-6" d="M16.087,2c7.6717,0,13.913,4.6615,13.913,10.3912s-6.2414,10.3912-13.913,10.3912S2.1739,18.121,2.1739,12.3912,8.4153,2,16.087,2M16.087,0C7.2984,0,.1739,5.5477.1739,12.3912s7.1245,12.3912,15.913,12.3912,15.913-5.5477,15.913-12.3912S24.8755,0,16.087,0h0Z"/><path class="cls-4" d="M16.3704,15.1359c.0113.0635.1348.2724.1882.3195.1571.1383.4297.0698.46.235.0697.3797-.546.1644-.7181.0232-.4815-.3952-.1448-1.8354-.2529-1.9394-.0436-.042-.4162.1175-.3236-.2766.5662.1609.1761-.6127.3986-.6869.4319-.144.1445.5646.291.6667l1.0137.0249.6052,1.9334.6521-1.9315c.1181-.0118.2862-.0465.3588.0665l.6271,1.8658.6179-1.9116.3285-.0274-.7178,2.3054c-.088.1557-.3429.112-.4315-.0255-.2136-.4994-.3347-1.128-.5569-1.6124-.021-.0458-.0282-.1083-.0936-.1136l-.5796,1.7516c-.0583.1288-.3155.1186-.407.0525-.1093-.079-.5482-1.845-.7447-2.0811h-.7154c.0508.4072-.0685.976,0,1.3615Z"/><path class="cls-7" d="M7.8729,15.8462c-.0557.0652-.4179.0547-.503-.0176-.1029-.0876.0172-.2663-.0912-.3-.3274.6769-1.4907.4765-1.5063-.3078-.0145-.7277.9484-.8675,1.5058-.8467.0185-.375-.2244-.4928-.5647-.4494-.2169.0277-.7013.3272-.7283-.1313-.0119-.2029.4236-.3512.5887-.3772.5446-.0856,1.2139.0821,1.3002.7084.0233.1695.0548,1.6562-.0011,1.7216ZM7.2782,14.7434c-.3479-.1114-1.2856.2678-.7627.6471.3917.2841.8556-.2392.7627-.6471Z"/><path class="cls-4" d="M10.3704,12.5974c.0308-.0989.3077-.1025.3709-.0016l1.8906,2.7016v-2.7c0-.0944.3231-.0944.3231,0v3.2538c0,.0186-.303.0806-.3559-.0143l-1.9057-2.7087v2.7231c-.0488.0385-.3231.0164-.3231,0v-3.2538Z"/><path class="cls-7" d="M6.1704,13.0359h-.9923c-.0382,0-.0816.1119-.0716.1592l-.0052,2.5794c-.0687.2055-.5924.1179-.5924.0076v-2.7462h-.9923c-.1544,0-.1544-.5077,0-.5077h2.5846c.1438,0,.1322.4036.0692.5077Z"/><path class="cls-7" d="M8.8587,13.9701c-.3414.3378.7224.5515.91.706.3429.2824.2781.7898-.043,1.0614-.3432.2902-.9932.2468-1.3641.0226-.1641-.0992-.2324-.1142-.1715-.3103.1538-.4955.6505.1254,1.0607-.0491.6125-.2606-.5645-.5964-.7126-.6942-.6003-.3965-.3314-1.1819.3432-1.2902.2999-.0481,1.1508-.0028,1.0069.4525-.1383.4376-.7406-.1847-1.0297.1013Z"/><path class="cls-4" d="M13.7396,14.6974c-.0555.5096.3993.9352.898.9244.2124-.0046.7369-.3572.804-.1563.0997.2982-.5315.4651-.7571.4777-1.0344.0578-1.6207-.9879-1.2009-1.8942.3627-.7831,1.5972-.9014,1.9586-.0619.0511.1186.1902.7102.0282.7102h-1.7308ZM15.1704,14.4205c.0005-.9817-1.3273-.8882-1.4308,0h1.4308Z"/><path class="cls-4" d="M23.2199,14.6761c0,.7003-.5677,1.2679-1.2679,1.2679s-1.2679-.5677-1.2679-1.2679.5677-1.2679,1.2679-1.2679,1.2679.5677,1.2679,1.2679ZM22.8762,14.6743c0-.512-.4151-.927-.927-.927s-.927.4151-.927.927.4151.927.927.927.927-.4151.927-.927Z"/><path class="cls-11" d="M25.3704,14.3743c.1085-.0128.2761.0333.369-.0233.1487-.0906.4657-.6953.6211-.8097.1232-.0907.4708-.1624.3704.093-.0716.182-.7058.7975-.6993.9012.0971.2412.8183,1.0616.8164,1.2484-.0015.1469-.2291.137-.3242.0904-.139-.0681-.6057-.9607-.7615-1.1305-.1041-.0888-.2623-.0346-.392-.0465v1.1538c0,.0349-.3692.0782-.3692-.0692v-3.1846c0-.0967.3692-.0967.3692,0v1.7769Z"/><path class="cls-4" d="M27.62,13.4163c.226-.034,1.1179.0834.8465.4311-.1239.1587-.3688-.0789-.5454-.1081-.2508-.0415-.5482.0205-.5939.3101-.0755.4777,1.1701.4486,1.2641,1.0984.083.5739-.4851.8391-.9774.7908-.1839-.0181-.9167-.2627-.6516-.5032.1354-.1229.4239.128.6212.1639.2965.054.7198-.0176.6404-.4064-.0974-.4769-1.3868-.2902-1.2349-1.2543.0459-.2914.3594-.4815.631-.5223Z"/><path class="cls-4" d="M23.8935,15.8513c-.0412.0643-.3826.0737-.3679-.1167l.0048-2.1617c.325-.283.4043.0302.3635.34.1186-.0872.1769-.236.2993-.3233.1503-.1071.5844-.2743.5814.0233-.0025.2564-.2176.1756-.3714.2328-.2058.0766-.5098.53-.5098.7364,0,.1778.0343,1.2158,0,1.2692Z"/><path class="cls-9" d="M22.5629,5.0495c-.5258.129-.7091.2245-1.1539.5077-.1796.1143-.3376.1954-.5084.3455-.15.1319-.3925.34-.4147.5314-.2118.0103-.2451.3029-.3231.4154-.0122.0176-.0773.0441-.1116.0939-.211.3054-.4123.6189-.6268.9215.3342.2215,1.1382.7894,1.3846,1.0615l.6923.3693c.0648.1488.3134.3191.4615.4153.0414.0269.1206.0525.1846.0923.1785.111.3755.2117.5538.3231.0585-.0772.1286-.0743.2308-.2769.0065-.0128-.0073-.042,0-.0461-.001-.0691.0267-.116.0923-.1385.1031-.1921.4303-.4271.4615-.6923.175-.1313.3596-.4867.5077-.6923.5539-.7686,1.3328-1.7634,1.7924-2.5692.0218-.0381.0754-.1142.0508-.1497-1.0415-.6475-2.0826-.8042-3.274-.5119Z"/><path class="cls-1" d="M22.6934,10.2666c.0422-.0458.0936-.0842.1385-.1384-.0692-.3222-.3682-.2437-.4615-.5077-.064-.0399-.1432-.0654-.1846-.0923-.1481-.0963-.3967-.2665-.4615-.4153l-.6923-.3693c-.2464-.2721-1.0505-.84-1.3846-1.0615-.0668-.0443-.2781-.1418-.3692-.1846-.6915-.5695-1.4754-1.0211-2.2154-1.5231-.6232-.4228-1.0549-.8142-1.7538-1.1539-1.7539-.8521-3.6727-.3006-4.8462,1.2v.2308c.0151.0037.0328-.0043.0462,0,.0554.298.2922.2493.4615.4154.0156.0153.0319.0297.0462.0461.0138.0056.0349-.0062.0461,0,.111.0609.263.1586.3692.2308.7294.4957,1.451,1.0302,2.1693,1.5231.1749.12.2641.1705.4615.2308.0762.2095.2544.1821.4153.3231.0099.0074.0363-.0073.0462,0,.1254.0934.0732.067.1384.1385.0146.016.0301.0317.0461.0461l.0462.0461c.4572.3788,1.1949.8101,1.7076,1.1539.2301.1542.4589.3122.6923.4615.3812.2438.5066.3245.9231.5077.1092-.002.16-.0311.1384.0923.0726.0283.1318.0283.1846.0461.1036.0351.1522.0611.2769.0923,1.3906.3479,2.5833.0356,3.6-.9231.1249-.1179.2473-.0972.3231-.3231.1589-.0662.0567-.0536.0923-.0923Z"/><path class="cls-10" d="M20.6396,6.4359c.03.0154.03.0308,0,.0462v-.0462Z"/><path class="cls-8" d="M11.4581,6.9044c-.1062-.0722-.2582-.1699-.3692-.2308-.0112-.0062-.0323.0057-.0461,0-.0195-.0079-.0349-.0286-.0462-.0461-.1693-.1661-.4061-.1174-.4615-.4153-.0134-.0043-.0311.0036-.0462,0-.048-.0117-.0963-.0173-.1384-.0462-.3922.528-.7362,1.0752-1.1077,1.6154-.3235.4705-.7203.915-.9692,1.4308-.1807.1402-.9243,1.1791-1.0548,1.4142-.0269.0483-.0813.1534-.0496.1973.0227.0313.601.3107.6905.3485.5764.2436,1.2663.3475,1.8908.3015.6113-.0451,1.0883-.2236,1.6154-.5077.8631-.4653,1.019-.7703,1.5692-1.5231.2386-.3265.5372-.6373.6923-1.0154-.7181-.4928-1.4399-1.0274-2.1693-1.5231Z"/></svg>