<?xml version="1.0" encoding="UTF-8"?><svg id="Layer_1" xmlns="http://www.w3.org/2000/svg" xmlns:xlink="http://www.w3.org/1999/xlink" viewBox="0 0 150 50"><defs><style>.cls-1{fill:url(#linear-gradient-2);}.cls-2{fill:#383838;}.cls-3{fill:#8e8e8e;}.cls-4{fill:url(#linear-gradient-3);}.cls-5{fill:#f0f;opacity:.38;}.cls-6{fill:url(#linear-gradient);}.cls-7{fill:#992f3b;}.cls-8{fill:#414141;}</style><linearGradient id="linear-gradient" x1="36.1395" y1="25.4922" x2="52.3096" y2="16.1563" gradientUnits="userSpaceOnUse"><stop offset="0" stop-color="#000"/><stop offset=".5675" stop-color="#c1272d"/><stop offset="1" stop-color="#f7931e"/></linearGradient><linearGradient id="linear-gradient-2" x1="11.2476" y1="14.7371" x2="41.9365" y2="32.4553" gradientUnits="userSpaceOnUse"><stop offset="0" stop-color="#9cff1f"/><stop offset=".1197" stop-color="#85eb48"/><stop offset=".3874" stop-color="#4db9b1"/><stop offset=".5775" stop-color="#2494ff"/><stop offset=".8683" stop-color="#1d4062"/><stop offset="1" stop-color="#1a1a1a"/></linearGradient><linearGradient id="linear-gradient-3" x1=".6213" y1="31.457" x2="17.021" y2="21.9887" gradientUnits="userSpaceOnUse"><stop offset=".3285" stop-color="#a42f72"/><stop offset="1" stop-color="#000"/></linearGradient></defs><rect class="cls-5" width="150" height="50"/><path class="cls-2" d="M100.3584,27.2617c.0391.2197.466.9417.6509,1.1045.5431.4783,1.4856.2414,1.5905.8124.2412,1.3128-1.8878.5685-2.483.0801-1.6649-1.3664-.5007-6.3462-.8744-6.7056-.1509-.1451-1.4391.4061-1.1191-.9565,1.9579.5564.609-2.1186,1.3782-2.3751,1.4932-.4978.4996,1.9523,1.0063,2.3053l3.5051.086,2.0924,6.685,2.2546-6.6783c.4084-.0406.9896-.1607,1.2405.23l2.1681,6.4511,2.1364-6.6095,1.1357-.0946-2.4817,7.9712c-.3042.5383-1.1858.3872-1.492-.0883-.7385-1.7269-1.1574-3.9003-1.9254-5.5751-.0726-.1583-.0975-.3744-.3236-.3927l-2.0039,6.0565c-.2015.4453-1.0909.4102-1.4073.1816-.3781-.2732-1.8955-6.3792-2.5748-7.1957h-2.4735c.1755,1.4079-.237,3.3748,0,4.7077Z"/><path class="cls-3" d="M70.9771,29.7178c-.1926.2254-1.445.1891-1.739-.061-.3559-.3027.0596-.9209-.3155-1.0374-1.1321,2.3404-5.1543,1.6475-5.2082-1.0641-.05-2.5161,3.2793-2.9996,5.2064-2.9274.064-1.2968-.776-1.704-1.9527-1.554-.75.0956-2.4248,1.1314-2.5182-.454-.0413-.7016,1.4646-1.2144,2.0355-1.3042,1.8832-.2961,4.1973.2839,4.4956,2.4494.0807.5859.1895,5.7264-.0039,5.9528ZM68.9211,25.9048c-1.2031-.3852-4.4452.926-2.6372,2.2373,1.3545.9824,2.9584-.8272,2.6372-2.2373Z"/><path class="cls-2" d="M79.6126,18.4847c.1063-.342,1.064-.3545,1.2826-.0057l6.537,9.3413v-9.3356c0-.3263,1.1171-.3263,1.1171,0v11.2506c0,.0642-1.0477.2787-1.2304-.0496l-6.5891-9.3658v9.4154c-.1686.1332-1.1171.0569-1.1171,0v-11.2506Z"/><path class="cls-3" d="M65.0906,20.0007h-3.431c-.1322,0-.2822.3869-.2475.5504l-.0181,8.9185c-.2376.7105-2.0483.4076-2.0483.0262v-9.4952h-3.431c-.5339,0-.5339-1.7554,0-1.7554h8.9366c.4974,0,.4572,1.3953.2394,1.7554Z"/><path class="cls-3" d="M74.3858,23.2308c-1.1805,1.168,2.4978,1.9067,3.1465,2.441,1.1856.9764.9616,2.731-.1486,3.6698-1.1866,1.0034-3.4341.8534-4.7166.0783-.5674-.3429-.8034-.395-.593-1.0729.5318-1.7134,2.2493.4335,3.6676-.1699,2.1177-.9009-1.9519-2.0621-2.4637-2.4001-2.0758-1.3709-1.1459-4.0867,1.1868-4.4609,1.0368-.1663,3.979-.0098,3.4814,1.5646-.4782,1.513-2.5608-.6387-3.5604.3502Z"/><path class="cls-2" d="M91.2622,25.7457c-.1919,1.7621,1.3806,3.2336,3.1048,3.1964.7345-.0159,2.5479-1.235,2.78-.5405.3446,1.0312-1.8376,1.6083-2.6178,1.6519-3.5767.1999-5.6037-3.4157-4.1523-6.5494,1.2541-2.7077,5.5225-3.1168,6.7719-.214.1765.4101.6576,2.4557.0977,2.4557h-5.9844ZM96.2092,24.7882c.0018-3.3942-4.5892-3.0711-4.9471,0h4.9471Z"/><path class="cls-2" d="M124.0415,25.6721c0,2.4212-1.9628,4.384-4.384,4.384s-4.384-1.9628-4.384-4.384,1.9628-4.384,4.384-4.384,4.384,1.9628,4.384,4.384ZM122.8532,25.6659c0-1.7703-1.4351-3.2054-3.2054-3.2054s-3.2054,1.4351-3.2054,3.2054,1.4351,3.2054,3.2054,3.2054,3.2054-1.4351,3.2054-3.2054Z"/><path class="cls-8" d="M131.4771,24.6286c.375-.0441.9548.1151,1.276-.0806.5143-.3133,1.6103-2.4042,2.1475-2.7995.426-.3135,1.6277-.5614,1.2806.3217-.2474.6294-2.4402,2.7574-2.4178,3.1161.3356.8339,2.8294,3.6705,2.8229,4.3165-.0051.5079-.7923.4736-1.121.3125-.4805-.2355-2.0943-3.3217-2.6328-3.909-.3599-.3071-.9069-.1196-1.3553-.1607v3.9896c0,.1208-1.2767.2706-1.2767-.2394v-11.0112c0-.3343,1.2767-.3344,1.2767,0v6.1439Z"/><path class="cls-2" d="M139.2553,21.3162c.7815-.1175,3.8651.2884,2.9269,1.4905-.4283.5488-1.2753-.2727-1.8859-.3737-.8671-.1435-1.8953.0709-2.0536,1.0721-.2611,1.6517,4.0459,1.5511,4.3706,3.7979.2868,1.9843-1.6774,2.9014-3.3793,2.7342-.6357-.0624-3.1695-.9084-2.253-1.7397.4683-.4248,1.4658.4425,2.148.5669,1.025.1869,2.489-.0607,2.2144-1.4051-.3368-1.6489-4.795-1.0035-4.2699-4.337.1587-1.0075,1.2425-1.6648,2.1818-1.806Z"/><path class="cls-2" d="M126.3704,29.7353c-.1426.2223-1.3229.2547-1.2721-.4035l.0167-7.4745c1.1238-.9785,1.3978.1043,1.257,1.1754.41-.3016.6115-.8161,1.0349-1.1178.5196-.3703,2.0205-.9484,2.0103.0807-.0088.8865-.7524.6072-1.2841.805-.7115.2648-1.7626,1.8327-1.7626,2.5461,0,.6147.1185,4.2038,0,4.3885Z"/><path class="cls-6" d="M42.7887,12.8955c-1.3909.4459-1.8757.7764-3.0521,1.7554-.475.3951-.893.6755-1.3447,1.1945-.3968.4561-1.0383,1.1755-1.097,1.8375-.5602.0357-.6482,1.0474-.8545,1.4363-.0323.061-.2044.1524-.2953.3246-.5581,1.0558-1.0906,2.1399-1.6581,3.1862.8839.7659,3.0108,2.7296,3.6626,3.6704l1.8311,1.2768c.1715.5145.829,1.1033,1.2209,1.4361.1096.0931.319.1815.4884.3193.4722.3839.9932.7321,1.465,1.117.1547-.267.3402-.2568.6104-.9575.0171-.0441-.0194-.1452,0-.1595-.0026-.2389.0707-.4012.2443-.4788.2728-.6643,1.1382-1.4768,1.2207-2.3938.463-.4539.9511-1.6828,1.3429-2.3936,1.4651-2.6576,3.5255-6.0971,4.7412-8.8832.0576-.1319.1995-.3948.1345-.5177-2.7549-2.2387-5.5089-2.7806-8.6601-1.77Z"/><path class="cls-1" d="M42.61,31.1329c.1116-.1583.2475-.291.3663-.4786-.1831-1.1141-.974-.8425-1.2209-1.7554-.1694-.1378-.3788-.2262-.4884-.3193-.3918-.3328-1.0494-.9216-1.2209-1.4361l-1.8311-1.2768c-.6518-.9408-2.7787-2.9045-3.6626-3.6704-.1766-.153-.7355-.4902-.9766-.6384-1.8292-1.9692-3.9026-3.5304-5.86-5.2662-1.6484-1.4619-2.7903-2.8152-4.6392-3.9897-4.6393-2.9463-9.7149-1.0394-12.8188,4.1492v.7979c.0399.0127.0869-.0148.1222,0,.1464,1.0305.7728.8619,1.2207,1.4363.0412.0528.0843.1026.1222.1595.0365.0194.0923-.0213.1221,0,.2935.2106.6957.5483.9766.7979,1.9293,1.7138,3.8382,3.5621,5.738,5.2662.4625.4149.6986.5896,1.2209.7979.2015.7243.6729.6297,1.0986,1.117.0262.0255.0959-.0253.1222,0,.3316.3229.1937.2315.3662.4788.0386.0553.0796.1095.1221.1595l.1222.1595c1.2094,1.3097,3.1606,2.8011,4.5169,3.9897.6087.5333,1.2139,1.0795,1.8313,1.5959,1.0082.8431,1.34,1.1219,2.4417,1.7554.2888-.007.4233-.1074.3662.3191.192.0979.3487.0977.4884.1595.2741.1213.4025.2112.7325.3193,3.6782,1.2029,6.8331.1232,9.5226-3.1917.3305-.4075.6542-.336.8545-1.117.4202-.2288.15-.1855.2441-.3193Z"/><path class="cls-7" d="M48.619,15.8602c.1036.0532.1036.1064,0,.1596v-.1596Z"/><path class="cls-4" d="M12.891,19.5077c-.2809-.2497-.6831-.5873-.9766-.7979-.0297-.0213-.0856.0196-.1221,0-.0515-.0272-.0922-.0988-.1222-.1595-.4479-.5744-1.0743-.4058-1.2207-1.4361-.0354-.015-.0823.0125-.1222,0-.1271-.0403-.2548-.0599-.3662-.1598-1.0373,1.8255-1.9474,3.7176-2.9301,5.5855-.8558,1.6269-1.9052,3.1639-2.5636,4.9471-.478.4848-2.4448,4.0768-2.7901,4.8899-.071.1671-.215.5305-.1311.6821.0601.1083,1.5898,1.0742,1.8264,1.205,1.5247.8422,3.3495,1.2016,5.0014,1.0425,1.6169-.156,2.8787-.773,4.2728-1.7554,2.283-1.6089,2.6953-2.6633,4.1508-5.2664.6313-1.1288,1.4209-2.2034,1.8313-3.5108-1.8996-1.7039-3.8087-3.5524-5.738-5.2662Z"/></svg>