<?xml version="1.0" encoding="UTF-8"?><svg id="Layer_1" xmlns="http://www.w3.org/2000/svg" xmlns:xlink="http://www.w3.org/1999/xlink" viewBox="0 0 150 50"><defs><style>.cls-1{fill:#022158;}.cls-2{fill:#9e4aff;opacity:.38;}.cls-3{fill:url(#linear-gradient);}</style><linearGradient id="linear-gradient" x1="11.4621" y1="12.2063" x2="52.4518" y2="35.8717" gradientUnits="userSpaceOnUse"><stop offset="0" stop-color="#65277d"/><stop offset=".1409" stop-color="#69297e"/><stop offset=".3055" stop-color="#783182"/><stop offset=".4818" stop-color="#8f3e89"/><stop offset=".6664" stop-color="#b05093"/><stop offset=".8556" stop-color="#d966a0"/><stop offset="1" stop-color="#ff7bac"/></linearGradient></defs><rect class="cls-2" width="150" height="50"/><path class="cls-1" d="M91.7321,5.4589v3.0426h-2.9256v-2.8671c0-.0124.1631-.1755.1755-.1755h2.7501Z"/><path class="cls-1" d="M109.2858,40.3899c.0383.0253.191.5754.4061.8227.7309.8402,2.3535.8517,3.3353.5197,1.5911-.538,1.4191-1.9233,1.5235-3.3318-5.2484,3.4239-10.3897-.9478-8.7414-6.8117.9974-3.5483,5.4029-5.2813,8.351-2.8592.0884.0726.1155.256.2172.3082.3188.1636.1247-.9352.1744-1.0525h2.9256v12.6972c0,1.0856-1.1665,2.4558-2.1019,2.9302-.9097.4614-1.5365.32-2.381.5252-.0915.0222-.0743.2074-.1615.2283-.3246.0781-1.6776.0363-2.0894.0073-2.4769-.1746-4.5523-1.2966-4.7347-3.9836.4774.0965,3.083-.1281,3.2767,0ZM111.2497,30.359c-2.1599.2277-2.8458,2.2865-2.5212,4.2103.5022,2.9764,5.3843,3.0156,5.8132-.0993.3099-2.2509-.775-4.3764-3.2921-4.111Z"/><path class="cls-1" d="M97.4663,34.7728h-9.0109c.3155,2.7972,3.7148,3.8521,5.7896,2.1033.2399-.2022.6361-.8125.8174-.8182.3657-.0115,1.8622,1.228,2.3955,1.2991.2212.3086-.9071,1.3556-1.1604,1.5715-3.4824,2.9687-9.5152,2.1346-10.8007-2.6599-1.2525-4.6715,1.4062-9.0307,6.5261-8.6326,3.9335.3059,5.4314,3.5706,5.4435,7.1367ZM94.0726,32.5493c-.1949-3.3883-5.1109-3.2824-5.5002,0h5.5002Z"/><path class="cls-1" d="M72.5401,34.7728h-8.8939c.1194,2.6769,3.3884,3.7331,5.4226,2.3214.4249-.2948.6925-.8046,1.1676-1.0157.1453.0132,2.0645,1.1321,2.2275,1.2862.0863.0815.2272.0963.189.2668-.0145.0649-.7654.8964-.8742,1.0024-3.3476,3.2596-9.699,2.6324-11.114-2.2255-1.1526-3.957.7058-8.4107,5.1482-8.7724,4.5251-.3685,6.9196,2.8726,6.7271,7.1367ZM69.2634,32.5493c-.3049-3.4524-5.1571-3.2201-5.6172,0h5.6172Z"/><path class="cls-1" d="M84.2426,40.2729h-2.9256c-.0971-2.2132.1284-4.5322.0048-6.7338-.0618-1.102-.1657-2.4314-1.3816-2.8316-1.2691-.4177-2.5267.28-3.0106,1.4917-.0651.163-.2936.8847-.2936.9936v7.08h-3.1597v-12.112c0-.0124.1631-.1755.1755-.1755h2.8086c.2944,0,.0934.9709.2335,1.1697,1.5995-1.9032,5.3039-2.151,6.8463-.0578.198.2687.7023,1.3611.7023,1.6382v9.5375Z"/><path class="cls-1" d="M121.6319,27.9853l2.6927,8.6606,2.2808-8.6606h3.1597l-3.6614,12.6635c-.4165,1.0562-.7668,2.4752-1.7298,3.1852-.6046.4457-.7341.2894-1.3162.4199-.0883.0198-.0724.2082-.1602.2294-.6812.1639-1.9971-.0683-2.7283-.1146v-2.6916c1.051.2588,2.4562.0096,2.6873-1.2174-1.3819-4.1786-3.0316-8.27-4.3257-12.4745h3.1012Z"/><path class="cls-1" d="M101.3282,40.2729h-2.9256v-12.2876h2.9256c.0147.4074-.0208.8225,0,1.2307.0067.1321-.0764.3214.1156.2897.193-1.0957,3.0129-2.2191,3.7537-1.7034.1757.1223.1785,2.8107-.0026,2.9379-.1721.1209-1.3538.2105-1.7568.3496-.7414.256-1.4725.9009-1.7634,1.6303-.1027.2576-.3464,1.2927-.3464,1.5259v6.0268Z"/><path class="cls-1" d="M125.0842,22.0764h-3.0426c-.0468,0,.035-.8065-.0012-.9362-.6636.5633-1.5038,1.1838-2.3943,1.2907-8.7097,1.0456-8.2655-13.489-.3559-12.991,1.0834.0682,1.8892.5721,2.7514,1.168v-4.9735c0-.0124.1631-.1755.1755-.1755h2.6916c.0124,0,.1755.1631.1755.1755v16.442ZM118.7338,12.2746c-3.3377.5696-3.2038,8.0348,1.0157,7.451,3.3149-.4587,3.1805-8.1671-1.0157-7.451Z"/><path class="cls-1" d="M112.4455,16.5762h-9.0109c.4626,2.4222,2.5301,3.5079,4.8607,2.6958.9161-.3192,1.1759-.8559,1.8483-1.3919.6633.4849,1.5838.8161,2.2252,1.2887.098.0722.2269.1037.1897.2682-.0174.0769-.8986,1.04-1.0478,1.1781-3.2069,2.9681-9.208,2.468-10.8011-1.9575-1.5004-4.1681.5369-9.0684,5.3519-9.225,4.372-.1422,6.5206,3.0482,6.384,7.1437ZM109.1688,14.3528c-.3246-3.375-5.1835-3.2523-5.5002,0h5.5002Z"/><path class="cls-1" d="M87.1682,22.1934h-2.8671c-.0124,0-.1755-.1631-.1755-.1755v-8.0747c0-.3339-.7026-1.1665-1.0206-1.32-1.3316-.6427-2.936.2961-3.3467,1.6337-.0362.1179-.1967.7998-.1967.8566v6.9045c0,.0124-.1631.1755-.1755.1755h-2.8086c-.0124,0-.1755-.1631-.1755-.1755v-12.0535c0-.0124.1631-.1755.1755-.1755h2.8086c.2944,0,.0934.9709.2335,1.1697,1.606-1.8687,5.329-2.1209,6.8463-.0578.1981.2693.7023,1.3606.7023,1.6382v9.6545Z"/><path class="cls-1" d="M63.7633,9.9058c.2928-.2928,2.3793-.0235,2.9256-.117v8.0162c0,1.0081,1.3563,1.808,2.2694,1.8006,1.6683-.0134,2.5164-1.0954,2.7488-2.6337.0343-.2268.1309-.9951.1309-1.1564v-6.0268h3.0426v12.2291c0,.0124-.1631.1755-.1755.1755h-2.6916c-.3083,0-.0862-1.1748-.2352-1.1714-2.6647,2.3155-7.7569,1.9391-8.132-2.2223l.117-8.8939Z"/><path class="cls-1" d="M97.4663,5.4589v4.3299h2.5745v2.2235h-2.5745v6.6119c0,1.2121,1.7761,1.0626,2.5745.8777v2.5745c-1.6049.1473-4.5245.55-5.3533-1.2586-.0451-.0984-.2639-.7477-.2639-.7893v-8.0162h-1.7554v-2.2235h1.7554v-4.3299h3.0426Z"/><rect class="cls-1" x="88.8065" y="9.7888" width="2.9256" height="12.2876"/><path class="cls-3" d="M50.0938,38.5144c-.2677-.8362-1.1688-1.5839-2.0664-1.6077-1.1217-.0299-2.5882,1.5738-3.6995,2.1057-2.0432.9776-3.5508.7894-5.524-.2317l-1.9838-2.1031c-.0296-.224.0131-.4322.1013-.6378.2426-.5647,1.2704-1.7205,1.68-2.3737,1.2583-2.0066,2.1902-4.0055,3.1654-6.1487.0101-.0222.1479-.1433.2535-.3801.0157-.0353-.0156-.0915,0-.1267,1.7766-4.0204,3.6258-9.0466,3.8016-13.4324l.2586-1.959c.2025-3.532-1.3257-9.6725-6.1445-8.172-4.5496,1.4165-7.2354,9.7732-8.3068,13.9326-1.3281,5.1556-1.8512,9.6702-.8871,14.9531.0211.1157-.0231.2679,0,.3801.0385.1874.1168.3349.1267.3802.1862.8462.4688,1.7063.5747,2.5294-1.6964,1.7747-3.9936,3.4145-6.4828,3.7911-1.0483.1586-2.4266.1014-3.4693-.1113-.0196-.0039-.2578-.093-.3801-.1266-.0393-.0109-.0881.0116-.1267,0-4.6319-1.4016-5.7489-5.3099-6.2094-9.6309-.1044-3.9346.4893-7.8471,1.3939-11.6583.71-2.9913,1.5239-5.5393,2.532-8.3026.368-1.0087,1.4433-3.1541,1.4749-4.0727.069-2.0004-2.3645-3.1136-3.8156-1.6894-.6293.6176-1.7315,3.8626-2.0945,4.8751-1.3651,3.807-2.4566,7.7365-3.1656,11.724-.5977,3.3609-.8049,6.1401-.7625,9.5693.0026.2143-.0813.5632.1289.6952.1172,4.546,2.3487,9.1245,6.336,11.4049,4.8812,2.7916,10.1001,2.4509,14.7164-.6803.7262-.4926,1.3687-1.0882,2.0745-1.6057.151-.0009,1.6239,1.6843,1.9624,1.9706,3.9047,3.3034,8.7109,2.9417,12.7135.0385,1.1299-.8195,2.3289-1.7231,1.8243-3.2991ZM34.9252,31.0655c.0069-.3033-.0978-.5888-.128-.8869-.495-4.8975.4852-10.8989,2.1542-15.46.4645-1.2693,1.1393-2.7578,1.7701-3.8962.3397-.6133,1.666-2.9425,2.3444-2.9499.8602,1.9501.498,4.155.3208,6.2126-1.4123,5.8805-2.6241,10.8343-5.8291,16.0936-.178.292-.3574.6936-.6324.8869Z"/></svg>