<?xml version="1.0" encoding="UTF-8"?><svg id="Layer_1" xmlns="http://www.w3.org/2000/svg" viewBox="0 0 32 31.9769"><defs><style>.cls-1{fill:#ec515c;}.cls-2,.cls-3,.cls-4{fill:#fff;}.cls-5{fill:#022158;}.cls-6{opacity:.4;}.cls-7{fill:#65277d;}.cls-8{fill:#e72760;}.cls-9{fill:#9e4aff;}.cls-10{fill:#a61c70;}.cls-3{opacity:.3;}.cls-4{fill-rule:evenodd;stroke:#9e4aff;stroke-miterlimit:10;stroke-width:2px;}</style></defs><g class="cls-6"><path d="M10.1424,27.717l-.1689-.0234c-5.8262-.8105-8.9717-2.6436-8.9736-3.9561-.002-1.7842,5.8384-4.3838,14.9951-4.3965,9.3188,0,15.0034,2.5352,15.0054,4.3525.002,1.3281-3.1855,3.1807-9.0947,3.999l-.1777.0244-5.6797,3.0439-5.9058-3.0439Z"/><path d="M16.0632,20.3409c8.9053,0,13.5798,2.3997,13.9301,3.3536-.2168.5577-2.4636,2.2095-8.2256,3.0074l-.3549.0491-.3157.1693-5.0578,2.7114-5.2872-2.7254-.3031-.1562-.3377-.047c-5.6743-.7894-7.8898-2.4179-8.1046-2.9676.3481-.9599,5.0388-3.3817,13.9893-3.3945h.0673M16.0632,18.3409c-.0237,0-.0461,0-.0698,0C7.1569,18.3535-.0036,20.7701,0,23.7386c.0027,2.2335,4.0621,4.1422,9.8357,4.9454l6.2218,3.2072,5.9845-3.2082c5.8416-.8089,9.9608-2.7397,9.958-4.9902-.0037-2.9605-7.133-5.3519-15.9368-5.3519h0Z"/></g><polygon class="cls-4" points="25.5351 21.539 16.1366 30.5947 5.9838 21.0015 15.8815 19.818 25.5351 21.539"/><path class="cls-2" d="M16.0869,23.7825c-8.2231,0-14.9131-5.1104-14.9131-11.3911S7.8638.9998,16.0869.9998s14.9131,5.1104,14.9131,11.3916-6.6904,11.3911-14.9131,11.3911Z"/><path class="cls-9" d="M16.087,2c7.6717,0,13.913,4.6615,13.913,10.3912s-6.2414,10.3912-13.913,10.3912S2.1739,18.121,2.1739,12.3912,8.4153,2,16.087,2M16.087,0C7.2984,0,.1739,5.5477.1739,12.3912s7.1245,12.3912,15.913,12.3912,15.913-5.5477,15.913-12.3912S24.8755,0,16.087,0h0Z"/><path class="cls-1" d="M21.3313,13.915c-.0071.016.0071.0415,0,.0575-.0833.0246-.1137.0882-.115.1725-.4424.9722-.8651,1.879-1.4359,2.7892-.1858.2964-.6521.8206-.7621,1.0768-.0401.0933-.0594.1877-.0459.2893l.8999.954c.8951.4632,1.579.5486,2.5059.1051.5042-.2412,1.1694-.9687,1.6782-.9552.4072.0108.8159.35.9374.7293.2289.7149-.315,1.1248-.8275,1.4966-1.8158,1.317-3.996,1.4811-5.7673-.0174-.1536-.1299-.8217-.8944-.8902-.8939-.3201.2348-.6117.5049-.9411.7284-2.0941,1.4204-4.4615,1.575-6.6758.3086l.1761-.3127,1.7209-1.0094c.0175.0053.0397-.0049.0575,0l.1725.0575c.473.0965,1.0983.1224,1.5738.0505,1.1292-.1709,2.1712-.9148,2.9408-1.7198-.048-.3734-.1762-.7636-.2607-1.1474l-.0575-.1725c-.0105-.0509.0096-.12,0-.1725l1.8395-.9772c.0137.1353.0612.2648.0581.4024.1248-.0877.2061-.2699.2868-.4024.2476-.0416.5084-.212.7285-.335.6461-.3609,1.2845-.7468,1.9143-1.1357l.2889.0336Z"/><path class="cls-10" d="M16.6175,9.5461c.486-1.8868,1.7044-5.6777,3.7683-6.3203,2.1859-.6806,2.8792,2.1049,2.7873,3.7071l-.1173.8886c.013-.3241-.0092-.653-.0003-.9774-.1607-.1567-1.6116.9397-1.9462.9278.0209.1142-.047.2024-.0655.2795.0804-.9334.2447-1.9336-.1455-2.8182-.3077.0033-.9094,1.06-1.0635,1.3382-.2861.5164-.5923,1.1916-.803,1.7675.02-.1806-.0464-.1141-.1559-.0698-.7572.3059-1.4924.9536-2.2585,1.277Z"/><path class="cls-8" d="M21.0438,8.0515c.0185-.0771.0864-.1653.0655-.2795.3347.0118,1.7856-1.0845,1.9462-.9278-.0089.3244.0133.6533.0003.9774-.0798,1.9896-.9187,4.2696-1.7245,6.0934l-.2889-.0336c-.6298.3889-1.2682.7748-1.9143,1.1357-.2201.1229-.4809.2934-.7285.335,1.4539-2.3858,2.0036-4.633,2.6443-7.3006Z"/><path class="cls-7" d="M7.3049,10.9258c.3217-1.8089.8168-3.5915,1.436-5.3184.1647-.4593.6647-1.9313.9502-2.2115.6583-.6461,1.7622-.1411,1.7309.7664-.0144.4168-.5021,1.3899-.6691,1.8475-.4574,1.2535-.8265,2.4094-1.1486,3.7663l-.3872.0441-1.9122,1.1056Z"/><path class="cls-8" d="M16.6175,9.5461c.766-.3233,1.5013-.9711,2.2585-1.277.1095-.0442.176-.1108.1559.0698-.7571,2.0691-1.2018,4.7915-.9772,7.0132l-1.8395.9772c-.4374-2.3965-.2001-4.4444.4024-6.7832Z"/><path class="cls-8" d="M7.0175,15.5821c-.0027-.1028-.0209-.4636.008-.5094.0171-.0271.3565-.1053.4476-.156.0767-.0427.1296-.1383.2147-.1877.376-.2182.77-.4141,1.1422-.6402.1162-.0162.0741.0044.0846.0839.036.2729.0259.5962.0574.8921.2089,1.9601.7156,3.733,2.8168,4.3689l-1.7209,1.0094-.1761.3127c-1.8088-1.0345-2.8211-3.1115-2.8742-5.1736Z"/><path class="cls-10" d="M9.6043,9.7761c-.4104,1.7289-.6797,3.5037-.6323,5.2886-.0315-.2959-.0214-.6192-.0574-.8921-.0105-.0795.0315-.1-.0846-.0839-.3722.2261-.7662.4221-1.1422.6402-.0851.0494-.138.145-.2147.1877-.0911.0507-.4305.1289-.4476.156-.0289.0458-.0107.4065-.008.5094-.0953-.0598-.0573-.2182-.0585-.3153-.0192-1.5556.0748-2.8164.3459-4.3409l1.9122-1.1056.3872-.0441Z"/><path class="cls-8" d="M21.2163,14.1449c.0013-.0842.0317-.1479.115-.1725-.0479.1075-.1104.1624-.115.1725Z"/><path class="cls-8" d="M16.2726,16.6743c-.0045-.0206-.04-.0874-.0575-.1725l.0575.1725Z"/><path class="cls-8" d="M12.0187,19.491l-.1725-.0575c.0555.0153.1635.0557.1725.0575Z"/><path class="cls-7" d="M4.1268,10.7073c-.0957-1.0615.0734-2.2567-.0025-3.3334-.0074-.0592.0129-.0736.0478-.1085l-.0453,3.4419Z"/><ellipse class="cls-3" cx="16.087" cy="12.3858" rx="13.9076" ry="10.3533"/><path class="cls-5" d="M14.9961,5.5444v1.1775h-1.1322v-1.1096c0-.0048.0631-.0679.0679-.0679h1.0643Z"/><path class="cls-5" d="M21.7827,17.827c.0148.0098.0739.2227.1572.3184.2829.3252.9108.3296,1.2908.2011.6157-.2082.5492-.7443.5896-1.2894-2.0311,1.325-4.0208-.3668-3.3829-2.6361.386-1.3732,2.0909-2.0439,3.2318-1.1065.0342.0281.0447.0991.0841.1193.1234.0633.0482-.3619.0675-.4073h1.1322v4.9138c0,.4201-.4514.9504-.8134,1.134-.3521.1786-.5946.1238-.9214.2033-.0354.0086-.0287.0802-.0625.0884-.1256.0302-.6492.0141-.8086.0028-.9586-.0676-1.7618-.5018-1.8323-1.5417.1848.0374,1.1931-.0496,1.2681,0ZM22.5427,13.9451c-.8359.0881-1.1013.8849-.9757,1.6294.1944,1.1519,2.0838,1.167,2.2497-.0384.1199-.8711-.2999-1.6937-1.274-1.591Z"/><path class="cls-5" d="M17.2085,15.6532h-3.4872c.1221,1.0825,1.4376,1.4908,2.2406.814.0928-.0782.2462-.3144.3163-.3166.1415-.0045.7207.4752.9271.5027.0856.1194-.3511.5246-.4491.6082-1.3477,1.1489-3.6824.8261-4.1799-1.0294-.4847-1.8079.5442-3.4949,2.5256-3.3408,1.5223.1184,2.102,1.3818,2.1066,2.7619ZM15.8951,14.7927c-.0754-1.3113-1.9779-1.2703-2.1286,0h2.1286Z"/><path class="cls-5" d="M7.562,15.6532h-3.4419c.0462,1.036,1.3113,1.4447,2.0986.8984.1644-.1141.268-.3114.4519-.3931.0562.0051.799.4381.8621.4978.0334.0315.0879.0373.0732.1033-.0056.0251-.2962.3469-.3383.3879-1.2955,1.2615-3.7535,1.0188-4.3012-.8613-.4461-1.5313.2731-3.2549,1.9924-3.3949,1.7512-.1426,2.6779,1.1117,2.6034,2.7619ZM6.2939,14.7927c-.118-1.3361-1.9958-1.2462-2.1739,0h2.1739Z"/><path class="cls-5" d="M12.0909,17.7817h-1.1322c-.0376-.8565.0497-1.754.0019-2.606-.0239-.4265-.0641-.9409-.5347-1.0958-.4911-.1616-.9778.1084-1.1651.5773-.0252.0631-.1136.3424-.1136.3845v2.74h-1.2228v-4.6874c0-.0048.0631-.0679.0679-.0679h1.0869c.1139,0,.0362.3757.0904.4527.619-.7365,2.0526-.8324,2.6495-.0224.0766.104.2718.5267.2718.634v3.691Z"/><path class="cls-5" d="M26.5606,13.0264l1.0421,3.3517.8827-3.3517h1.2228l-1.417,4.9008c-.1612.4087-.2967.9579-.6694,1.2327-.234.1725-.2841.112-.5094.1625-.0342.0077-.028.0806-.062.0888-.2636.0634-.7729-.0264-1.0559-.0443v-1.0416c.4068.1002.9506.0037,1.04-.4711-.5348-1.6171-1.1732-3.2005-1.674-4.8277h1.2002Z"/><path class="cls-5" d="M18.703,17.7817h-1.1322v-4.7553h1.1322c.0057.1577-.008.3183,0,.4763.0026.0511-.0295.1244.0447.1121.0747-.424,1.166-.8588,1.4527-.6592.068.0473.0691,1.0877-.001,1.137-.0666.0468-.5239.0815-.6799.1353-.2869.0991-.5699.3486-.6824.6309-.0398.0997-.1341.5003-.1341.5905v2.3324Z"/><path class="cls-5" d="M27.9034,11.9754h-1.1775c-.0181,0,.0135-.3121-.0005-.3623-.2568.218-.582.4581-.9266.4995-3.3707.4047-3.1988-5.2203-.1377-5.0275.4193.0264.7311.2214,1.0648.452v-1.9248c0-.0048.0631-.0679.0679-.0679h1.0416c.0048,0,.0679.0631.0679.0679v6.3631ZM25.4458,8.1821c-1.2917.2204-1.2399,3.1095.3931,2.8835,1.2829-.1775,1.2309-3.1607-.3931-2.8835Z"/><path class="cls-5" d="M23.0122,9.8468h-3.4872c.179.9374.9791,1.3576,1.8811,1.0433.3545-.1235.4551-.3312.7153-.5387.2567.1876.6129.3159.8612.4987.0379.0279.0878.0401.0734.1038-.0067.0298-.3478.4025-.4055.4559-1.2411,1.1487-3.5635.9551-4.1801-.7576-.5807-1.6131.2078-3.5095,2.0712-3.5701,1.692-.055,2.5235,1.1796,2.4706,2.7646ZM21.7441,8.9863c-.1256-1.3061-2.006-1.2587-2.1286,0h2.1286Z"/><path class="cls-5" d="M13.2299,12.0207h-1.1096c-.0048,0-.0679-.0631-.0679-.0679v-3.1249c0-.1292-.2719-.4514-.395-.5108-.5153-.2487-1.1362.1146-1.2952.6322-.014.0456-.0761.3095-.0761.3315v2.672c0,.0048-.0631.0679-.0679.0679h-1.0869c-.0048,0-.0679-.0631-.0679-.0679v-4.6647c0-.0048.0631-.0679.0679-.0679h1.0869c.1139,0,.0362.3757.0904.4527.6215-.7232,2.0623-.8208,2.6495-.0224.0767.1042.2718.5265.2718.634v3.7363Z"/><path class="cls-5" d="M4.1721,7.2654c.1133-.1133.9208-.0091,1.1322-.0453v3.1023c0,.3901.5249.6997.8783.6969.6456-.0052.9739-.4239,1.0638-1.0192.0133-.0878.0507-.3851.0507-.4475v-2.3324h1.1775v4.7327c0,.0048-.0631.0679-.0679.0679h-1.0416c-.1193,0-.0334-.4547-.091-.4533-1.0312.8961-3.0019.7504-3.1471-.86l.0453-3.4419Z"/><path class="cls-5" d="M17.2153,5.5444v1.6757h.9964v.8605h-.9964v2.5588c0,.4691.6874.4112.9964.3397v.9964c-.6211.057-1.751.2129-2.0717-.4871-.0175-.0381-.1021-.2894-.1021-.3055v-3.1023h-.6793v-.8605h.6793v-1.6757h1.1775Z"/><rect class="cls-5" x="13.8639" y="7.2201" width="1.1322" height="4.7553"/></svg>