<?xml version="1.0" encoding="UTF-8"?><svg id="Layer_1" xmlns="http://www.w3.org/2000/svg" viewBox="0 0 32 31.9769"><defs><style>.cls-1{fill-rule:evenodd;stroke:#666;stroke-miterlimit:10;stroke-width:2px;}.cls-1,.cls-2,.cls-3{fill:#fff;}.cls-4{opacity:.4;}.cls-5{fill:#666;}.cls-3{opacity:.3;}.cls-6{fill:#ff8827;}</style></defs><g class="cls-4"><path d="M10.1424,27.7168l-.1689-.0234c-5.8262-.8105-8.9717-2.6436-8.9736-3.9561-.002-1.7842,5.8384-4.3838,14.9951-4.3965,9.3193,0,15.0029,2.5352,15.0049,4.3525.002,1.3281-3.1855,3.1807-9.0947,3.999l-.1777.0244-5.6792,3.0439-5.9058-3.0439Z"/><path d="M16.0632,20.3409c8.9053,0,13.5798,2.3997,13.9301,3.3536-.2168.5577-2.4636,2.2095-8.2256,3.0074l-.3549.0491-.3157.1693-5.0578,2.7114-5.2872-2.7254-.3031-.1562-.3377-.047c-5.6743-.7894-7.8898-2.4179-8.1046-2.9676.3481-.9599,5.0388-3.3817,13.9893-3.3945h.0673M16.0632,18.3409c-.0237,0-.0461,0-.0698,0C7.1569,18.3535-.0036,20.7701,0,23.7386c.0028,2.2335,4.0621,4.1422,9.8357,4.9454l6.2218,3.2072,5.9845-3.2082c5.8416-.8089,9.9608-2.7397,9.958-4.9902-.0037-2.9605-7.1329-5.3519-15.9368-5.3519h0Z"/></g><polygon class="cls-1" points="25.5351 21.539 16.1366 30.5947 5.9838 21.0015 15.8815 19.818 25.5351 21.539"/><path class="cls-2" d="M16.0869,23.7825c-8.2231,0-14.9131-5.1104-14.9131-11.3911S7.8638.9998,16.0869.9998s14.9131,5.1104,14.9131,11.3916-6.6904,11.3911-14.9131,11.3911Z"/><path class="cls-5" d="M16.087,2c7.6717,0,13.913,4.6615,13.913,10.3912s-6.2414,10.3912-13.913,10.3912S2.1739,18.121,2.1739,12.3912,8.4153,2,16.087,2M16.087,0C7.2984,0,.1739,5.5477.1739,12.3912s7.1245,12.3912,15.913,12.3912,15.913-5.5477,15.913-12.3912S24.8755,0,16.087,0h0Z"/><path class="cls-6" d="M29.098,13.5897l-6.4861-.8407-.7154-7.0945c-.0024-.5779-.0722-1.3567.4569-1.7339.9206-.6563,3.1562-.0264,4.2731-.1679l.228.0934,2.2435,9.7436Z"/><path class="cls-6" d="M22.0924,18.025c-.0069,1.2564.628,2.9318-1.0285,3.3752-.4673.1251-.6475.0798-1.105.0116-2.0071-.2993-4.0319-.9164-6.0493-1.2139l-.1051-.0923.4841-3.3707,7.8038,1.2901Z"/><path class="cls-6" d="M21.6949,13.4082l.3325,3.7812-7.6479-1.2217c.1108-.7925.1092-1.7731.3242-2.5346.176-.6235.5614-.784,1.1823-.8093l5.809.7844Z"/><path class="cls-6" d="M29.3468,14.4984c.1299.9931.8233,2.1499.165,3.0727-1.0342,1.4498-4.7715-.1037-6.2796-.1429l-.1764-.0935-.3851-3.7443,6.6761.9079Z"/><path class="cls-6" d="M21.3853,8.769l.1925,2.4736c-.1021.975-.8256,1.2238-1.7029,1.1896l-4.9766-.6467.4444-3.5949,6.0426.5784Z"/><path class="cls-6" d="M20.9996,3.4982l.3206,4.5638-5.8466-.5808c.3631-1.5194-.115-4.1034,2.0845-4.1779l3.4414.1948Z"/><path class="cls-6" d="M13.9237,12.3746c-.1716,1.3135-.1801,2.8609-1.8276,3.0788-1.8493-.0324-3.6622-.5477-5.4949-.7712l1.0971-3.1443,6.2255.8367Z"/><path class="cls-6" d="M14.6341,8.1298l-.5803,3.5283-6.1002-.7988c.5956-1.287.5874-2.8877,2.3445-3.0529,1.4507-.0229,2.8978.1598,4.336.3235Z"/><path class="cls-6" d="M6.9869,11.405l-1.1533,3.1189-5.403-.8702c.5501-.7803.8998-1.6927,1.7798-2.1725,1.4915-.8134,3.1941-.163,4.7766-.0762Z"/><rect class="cls-3" x="2.1634" y="6.2245" width="27.8472" height="11.9945" rx="5.7016" ry="5.7016"/><path d="M9.7773,16.8514v2.6479h-.5009v-5.4925c0-.045.1371-.2779.1792-.3218.2701-.2818.864-.2864,1.2257-.2244.278.0477.5565.3011.5957.5851.0638.4628.0477,1.6972.0046,2.181-.065.7292-.9463.7837-1.5043.6247ZM10.1976,13.9256c-.1516.024-.3208.134-.3467.2978.0468.587-.0697,1.2866-.0028,1.8594.0498.4269.836.3998.8932.0329-.0471-.5863.0704-1.2876.0029-1.8593-.0311-.2638-.3084-.3684-.5466-.3308Z"/><polygon points="14.9657 13.5237 15.5386 15.9568 16.0198 13.558 16.5009 13.5272 17.0589 15.9572 17.5778 13.5237 18.0787 13.5237 17.3107 16.7822 16.7563 16.7782 16.2717 14.883 15.8567 16.7762 15.2535 16.7782 14.4648 13.5237 14.9657 13.5237"/><path d="M20.5834,15.3128h-1.4671v.7693c0,.4354,1.1342.4272.9303-.2326h.5367c.0987.8444-.4451,1.0991-1.2,1.039-.3754-.0299-.7451-.2226-.8007-.6306-.0634-.4656-.0413-1.5836-.0046-2.0737.0228-.3043.1533-.5189.4426-.6308.3337-.1291,1.0944-.1264,1.3624.1527.0447.0466.2003.3256.2003.3723v1.2345ZM19.1164,14.293c-.0269.1627.0195.384,0,.5546h.9303v-.5188c0-.426-.8512-.514-.9303-.0358Z"/><path d="M12.7029,13.4257c.4803-.0695,1.2246-.004,1.324.5896.0574.343.0574,1.93,0,2.273-.1003.5995-.8117.6518-1.2977.5991-.3177-.0345-.6344-.2725-.689-.5991-.0574-.343-.0574-1.93,0-2.273.0527-.3148.3594-.5457.6628-.5896ZM12.9168,13.9259c-.1787.0288-.3178.15-.3462.3336-.0494.3201-.0404,1.4154-.0023,1.751.059.5188.8454.4885.9218.0631.0531-.2953.047-1.4666.0093-1.7815-.0369-.3075-.3017-.4115-.5827-.3662Z"/><path d="M22.6946,13.9531h-.6262c-.0743,0-.3041.2013-.3041.2684v2.5942h-.5725v-2.7015c0-.0361.0853-.2354.1132-.2804.1154-.1869.4385-.3815.6562-.3815h.7156c.113,0-.0182.4169.0179.5009Z"/><polygon points="4.1702 7.7058 4.9801 11.0933 5.5942 7.7063 6.2786 7.7083 7.0418 11.0442 7.7535 7.7058 8.4407 7.7058 7.4569 12.2195 6.6483 12.1735 5.9133 9.6199 5.3739 12.1737 4.5913 12.2246 3.483 7.7058 4.1702 7.7058"/><path d="M11.8768,10.8473c.0437.6847-.2076,1.3285-.9626,1.4181-.876.1039-1.76-.004-1.8374-1.0478-.0482-.6499-.0752-2.0768.0063-2.6977.0689-.5245.4923-.8602,1.0027-.9117.5663-.0572,1.4098-.0181,1.6693.5877.0256.0597.1218.3791.1218.418v1.4971h-2.0616v.9572c0,.2473.2256.4755.4707.5109.6098.0881.8348-.1275.8546-.7318h.7363ZM11.0914,9.522v-.859c0-.0143-.1213-.2198-.1488-.2439-.1862-.1634-.7051-.172-.9075-.027-.2469.177-.2991.8854-.1464,1.1299h1.2026Z"/><path d="M21.9394,10.111h-1.9389l-.0736.0736v.8836c0,.2455.1552.434.3822.5006.6077.1782.9391-.0967.9431-.7215h.6872v.7118c0,.1304-.3066.4673-.4347.5471-.6981.4344-2.2002.2714-2.3143-.7433-.0737-.6551-.0527-2.0274-.0019-2.702.08-1.0626,1.2528-1.2551,2.0991-.966.2057.0703.6518.4646.6518.6735v1.7426ZM21.2031,9.522v-.8099c0-.416-.8151-.5419-1.1061-.2716-.0592.055-.1702.3081-.1702.3698v.7118h1.2762Z"/><path d="M28.517,12.2217h-.7363v-3.3624c0-.5022-.6013-.6941-.995-.5041-.0723.0349-.2813.2479-.2813.3078v3.5588h-.7854v-3.6078c0-.2395.2246-.6121.4174-.7607.4641-.3576,1.7019-.3487,2.1075.101.0591.0655.273.4497.273.5124v3.7551Z"/><path d="M15.5091,8.8348h-.7854c-.0093-1.0693-1.7584-.5199-.8839.3194.7175.6887,1.8675.8039,1.7669,2.1098-.1241,1.6116-3.1175,1.2974-2.9446-.3676h.7854c-.0108,1.0095,1.7322.9858,1.3123-.0607-.1387-.3456-1.0933-.827-1.4336-1.1189-.492-.4219-.7027-.8302-.396-1.473.5164-1.0822,2.7862-.8396,2.5789.5909Z"/><path d="M17.4726,6.6259v.9572l.0736.0736h.859v.6381h-.9326v3.117c0,.019.1234.1187.1598.1345.2506.1083.5124-.0691.7727-.0609l-.0022.6359c-.4232.0566-1.1295.258-1.4725-.0689-.0415-.0396-.1939-.268-.1939-.2969v-3.4606l-.6384.0003-.0006-.6101c.0132-.0878.5668.0534.639-.1019v-.9572h.7363Z"/><path d="M23.7065,12.2217h-.7363v-3.8042c0-.0463.1524-.3331.1967-.3923.3792-.5075,1.2205-.4162,1.7844-.4107.1283.042.106.6092.0345.6589-.3072.0278-1.2794-.0569-1.2794.4387v3.5097Z"/></svg>