<?xml version="1.0" encoding="UTF-8"?><svg id="Layer_1" xmlns="http://www.w3.org/2000/svg" viewBox="0 0 150 50"><defs><style>.cls-1{fill:#8d8d8d;opacity:.5;}.cls-2{fill:#ff8827;}</style></defs><rect class="cls-1" width="150" height="50"/><path class="cls-2" d="M70.0575,27.781l-15.0507-1.9508-1.6601-16.4624c-.0056-1.3409-.1675-3.1481,1.0602-4.0233,2.1362-1.5229,7.3239-.0613,9.9154-.3896l.5291.2167,5.206,22.6094Z"/><path class="cls-2" d="M53.8012,38.073c-.016,2.9154,1.4572,6.8031-2.3866,7.8319-1.0843.2902-1.5025.1853-2.564.027-4.6575-.6946-9.3558-2.1265-14.037-2.8167l-.244-.2142,1.1233-7.8216,18.1083,2.9936Z"/><path class="cls-2" d="M52.879,27.3598l.7715,8.774-17.7466-2.8348c.2572-1.8389.2535-4.1143.7524-5.8814.4085-1.4468,1.3028-1.8192,2.7434-1.878l13.4794,1.8203Z"/><path class="cls-2" d="M70.6348,29.8897c.3013,2.3043,1.9104,4.9888.383,7.1301-2.3998,3.3642-11.0719-.2406-14.5716-.3316l-.4092-.217-.8937-8.6884,15.4915,2.1068Z"/><path class="cls-2" d="M52.1604,16.5947l.4466,5.7399c-.2369,2.2624-1.9157,2.8398-3.9515,2.7604l-11.5479-1.5007,1.0313-8.3418,14.0214,1.3422Z"/><path class="cls-2" d="M51.2655,4.3643l.744,10.5901-13.5667-1.3477c.8424-3.5257-.2669-9.5217,4.837-9.6945l7.9857.4521Z"/><path class="cls-2" d="M34.8463,24.9615c-.3982,3.0478-.4179,6.6386-4.2409,7.1442-4.2911-.0752-8.4981-1.271-12.7507-1.7896l2.5458-7.2961,14.4458,1.9415Z"/><path class="cls-2" d="M36.4948,15.1115l-1.3465,8.1871-14.1552-1.8536c1.3819-2.9864,1.363-6.7008,5.4403-7.0842,3.3662-.0532,6.7242.3708,10.0614.7506Z"/><path class="cls-2" d="M18.7497,22.7115l-2.6762,7.2373-12.5374-2.0192c1.2764-1.8108,2.088-3.9278,4.1298-5.0413,3.4611-1.8874,7.4116-.3782,11.0838-.1768Z"/><path d="M84.9774,33.7261v7.3786h-1.396v-15.3056c0-.1254.3822-.7744.4993-.8966.7528-.7854,2.4078-.7981,3.4157-.6253.7747.1328,1.5509.8389,1.6599,1.6305.1777,1.2896.133,4.7296.0129,6.0776-.1811,2.0319-2.637,2.1838-4.1919,1.7409ZM86.1486,25.5731c-.4225.0668-.8939.3733-.9661.83.1303,1.6358-.1941,3.5852-.0079,5.1815.1388,1.1897,2.3296,1.1142,2.4891.0916-.1313-1.6337.1962-3.588.0082-5.1813-.0867-.7351-.8594-1.0266-1.5232-.9217Z"/><polygon points="99.4355 24.453 101.0319 31.2333 102.3728 24.5486 103.7135 24.4628 105.2686 31.2343 106.7144 24.453 108.1103 24.453 105.9702 33.5332 104.4254 33.5221 103.0749 28.241 101.9184 33.5165 100.2375 33.5221 98.0395 24.453 99.4355 24.453"/><path d="M115.0901,29.4385h-4.0881v2.1438c0,1.2133,3.1605,1.1904,2.5925-.6481h1.4957c.2751,2.353-1.2403,3.0628-3.3439,2.8952-1.0462-.0833-2.0764-.6204-2.2312-1.7573-.1767-1.2975-.1152-4.413-.0129-5.7788.0635-.8481.4273-1.4459,1.2335-1.7578.9298-.3597,3.0498-.3523,3.7965.4256.1247.1299.558.9072.558,1.0373v3.44ZM111.0019,26.5968c-.075.4534.0545,1.0699,0,1.5455h2.5925v-1.4458c0-1.1871-2.3721-1.4323-2.5925-.0997Z"/><path d="M93.1298,24.1799c1.3384-.1936,3.4126-.011,3.6894,1.6429.16.9558.16,5.3782,0,6.3341-.2795,1.6705-2.262,1.8164-3.6164,1.6695-.8854-.096-1.7677-.7594-1.92-1.6695-.16-.9559-.16-5.3781,0-6.3341.1468-.8773,1.0014-1.5206,1.847-1.6429ZM93.7259,25.5739c-.4981.0802-.8857.4181-.9646.9295-.1378.8921-.1126,3.9443-.0063,4.8794.1644,1.4457,2.3559,1.3614,2.5688.1759.1478-.823.1311-4.0868.0259-4.9643-.1027-.8568-.8407-1.1466-1.6238-1.0205Z"/><path d="M120.973,25.6495h-1.7449c-.2072,0-.8475.561-.8475.7478v7.229h-1.5954v-7.5282c0-.1007.2378-.656.3153-.7815.3216-.5208,1.222-1.0632,1.8285-1.0632h1.9942c.3148,0-.0509,1.1618.0499,1.396Z"/><polygon points="75.9241 8.2502 78.181 17.6898 79.8922 8.2515 81.7995 8.2571 83.926 17.5531 85.9094 8.2502 87.8244 8.2502 85.0828 20.8282 82.8295 20.7 80.7813 13.5841 79.2783 20.7008 77.0976 20.8424 74.0091 8.2502 75.9241 8.2502"/><path d="M97.3994,17.0045c.1218,1.9079-.5784,3.702-2.6825,3.9516-2.441.2897-4.9045-.0112-5.1202-2.9199-.1343-1.8111-.2096-5.7873.0176-7.5174.1919-1.4616,1.372-2.397,2.794-2.5406,1.578-.1593,3.9286-.0503,4.6517,1.6378.0713.1664.3394,1.0563.3394,1.1647v4.172h-5.745v2.6673c0,.6891.6287,1.325,1.3118,1.4237,1.6994.2454,2.3263-.3554,2.3815-2.0392h2.0518ZM95.2109,13.3113v-2.3938c0-.0398-.338-.6124-.4146-.6797-.5189-.4554-1.9648-.4794-2.5288-.0751-.688.4931-.8335,2.4673-.4078,3.1486h3.3513Z"/><path d="M125.4405,14.9527h-5.403l-.2052.2052v2.4621c0,.6841.4326,1.2095,1.0652,1.395,1.6936.4967,2.6168-.2694,2.6281-2.0106h1.915v1.9834c0,.3634-.8543,1.3023-1.2113,1.5245-1.9454,1.2106-6.131.7563-6.4492-2.0712-.2054-1.8255-.1469-5.6495-.0053-7.5294.2229-2.9611,3.4912-3.4976,5.8495-2.6919.5731.1958,1.8163,1.2947,1.8163,1.8769v4.8559ZM123.3887,13.3113v-2.257c0-1.1591-2.2713-1.5102-3.0822-.7568-.165.1533-.4742.8587-.4742,1.0304v1.9834h3.5564Z"/><path d="M143.7698,20.8345h-2.0518v-9.3698c0-1.3994-1.6757-1.9341-2.7726-1.4048-.2014.0972-.7838.6909-.7838.8577v9.917h-2.1886v-10.0538c0-.6675.6257-1.7056,1.1632-2.1197,1.2934-.9964,4.7425-.9716,5.8728.2815.1647.1826.7608,1.2532.7608,1.4278v10.4641Z"/><path d="M107.5216,11.3963h-2.1886c-.0259-2.9797-4.9-1.4488-2.4632.8901,1.9995,1.9191,5.204,2.2401,4.9236,5.8791-.3459,4.491-8.6874,3.6153-8.2055-1.0243h2.1886c-.03,2.8132,4.8271,2.7471,3.657-.1691-.3864-.9632-3.0467-2.3046-3.9949-3.1178-1.3709-1.1758-1.9582-2.3136-1.1035-4.1046,1.4391-3.0156,7.7641-2.3397,7.1864,1.6465Z"/><path d="M112.993,5.241v2.6673l.2052.2052h2.3938v1.7782h-2.5989v8.6859c0,.053.3437.3308.4452.3747.6983.3018,1.4279-.1927,2.1531-.1697l-.0062,1.7721c-1.1794.1578-3.1474.719-4.1034-.1921-.1157-.1103-.5404-.7468-.5404-.8274v-9.6434l-1.7789.0007-.0017-1.7001c.0367-.2448,1.5795.1487,1.7806-.284v-2.6673h2.0518Z"/><path d="M130.3648,20.8345h-2.0518v-10.6009c0-.1291.4247-.9281.5481-1.0933,1.0566-1.4141,3.401-1.1599,4.9726-1.1446.3574.117.2955,1.6975.0962,1.8362-.8559.0774-3.5651-.1586-3.5651,1.2224v9.7802Z"/></svg>